<svg width="218" height="73" viewBox="0 0 218 73" fill="none" xmlns="http://www.w3.org/2000/svg">
<rect width="218" height="73" rx="12" fill="white"/>
<rect width="218" height="73" rx="34" fill="#5377D7"/>
<path d="M36.8436 65.6252C32.7186 65.6252 29.0024 64.7665 25.695 63.0493C24.9518 62.6759 24.5058 62.1533 24.3572 61.4814C24.2086 60.8093 27.4416 56.2548 29.0396 57.1135C30.1545 57.6734 31.3064 58.1121 32.4956 58.4294C33.6848 58.7468 34.874 58.9054 36.0632 58.9054C37.5867 58.9054 39.0082 58.6068 40.3274 58.0094C41.6468 57.4121 42.6501 56.4509 43.3376 55.1254C44.0251 53.8002 44.3688 52.2789 44.3688 50.5617V48.4336C43.8858 49.1804 43.2168 49.9269 42.3621 50.6736C41.5073 51.4203 40.439 52.0083 39.1569 52.4376C37.8748 52.867 36.5277 53.0816 35.1155 53.0816C33.1831 53.0816 31.3622 52.6896 29.6528 51.9056C27.9433 51.1216 26.4754 50.039 25.2491 48.6577C24.0227 47.2764 23.0751 45.6711 22.4062 43.8419C21.7373 42.0126 21.4028 40.09 21.4028 38.074C21.4028 36.0581 21.7373 34.1355 22.4062 32.3062C23.0751 30.4769 24.0227 28.8715 25.2491 27.4902C26.4754 26.109 27.9433 25.0263 29.6528 24.2423C31.3622 23.4583 33.1831 23.0664 35.1155 23.0664C37.0108 23.0664 38.7574 23.4583 40.3553 24.2423C41.9534 25.0263 43.3655 26.1649 44.3688 27.7329L44.2838 24.6414C44.2696 24.1262 44.6739 23.6969 45.1867 23.6827C45.1953 23.6825 45.204 23.6824 45.2124 23.6824H49.8585C51.394 23.6824 52.6402 24.9299 52.6456 26.4723L52.7303 50.3376C52.7303 53.6229 52.1078 56.3762 50.8629 58.5974C49.6179 60.8187 47.8249 62.5453 45.4837 63.7773C43.1425 65.0092 40.2624 65.6252 36.8436 65.6252ZM37.0665 46.2497C37.8469 46.2497 38.6645 46.1097 39.5193 45.8298C40.3739 45.5498 41.1915 45.0364 41.9719 44.2898C42.7523 43.5431 43.3561 42.5911 43.7835 41.4339C44.2109 40.2766 44.4246 39.1566 44.4246 38.074C44.4246 36.9913 44.2109 35.8713 43.7835 34.714C43.3561 33.5568 42.7523 32.6048 41.9719 31.8582C41.1915 31.1115 40.3739 30.5982 39.5193 30.3181C38.6645 30.0382 37.8469 29.8982 37.0665 29.8982C36.2861 29.8982 35.4779 30.0382 34.6417 30.3181C33.8056 30.5982 32.9973 31.1209 32.2169 31.8861C31.4365 32.6514 30.8512 33.6128 30.461 34.7701C30.0708 35.9274 29.8757 37.0287 29.8757 38.074C29.8757 39.7167 30.2566 41.2286 31.0185 42.6099C31.7803 43.9911 32.7093 44.9431 33.8056 45.4657C34.9019 45.9884 35.9888 46.2497 37.0665 46.2497Z" fill="white"/>
<path fill-rule="evenodd" clip-rule="evenodd" d="M58.9463 48.9657V24.849C58.9463 24.3336 59.3623 23.9157 59.8754 23.9157H63.6789C65.0797 23.9157 66.2628 24.96 66.443 26.3554L66.6668 28.0877C66.6668 24.9041 69.675 23.2343 75.6917 23.0784C76.2045 23.0652 76.6312 23.4721 76.6443 23.9874C76.6446 23.9954 76.6446 24.0034 76.6446 24.0115V28.3597C76.6446 29.7218 75.6689 30.8863 74.3329 31.1185L73.3001 31.2981C72.5197 31.2981 71.7858 31.4289 71.0983 31.6902C70.4107 31.9515 69.7697 32.3622 69.1751 32.9222C68.5806 33.4821 68.051 34.3874 67.5865 35.6381C67.1219 36.8887 66.8897 38.578 66.8897 40.7059V50.8323C66.8897 51.3477 66.4737 51.7656 65.9606 51.7656H61.7334C60.1942 51.7656 58.9463 50.5121 58.9463 48.9657Z" fill="white"/>
<path d="M95.9506 53.0815C93.758 53.0815 91.6863 52.699 89.7352 51.9336C87.7843 51.1683 86.0842 50.0949 84.6348 48.7136C83.1856 47.3324 82.0613 45.7178 81.2624 43.8699C80.4634 42.0218 80.064 40.09 80.064 38.074C80.064 37.1034 80.194 35.9926 80.4541 34.7421C80.7142 33.4915 81.2066 32.2221 81.9314 30.9341C82.656 29.6463 83.65 28.4049 84.9135 27.2102C86.177 26.0157 87.7843 25.0263 89.7352 24.2423C91.6863 23.4583 93.758 23.0664 95.9506 23.0664C97.5857 23.0664 99.1744 23.2903 100.717 23.7384C102.259 24.1864 103.671 24.821 104.953 25.6423C106.235 26.4637 107.434 27.5276 108.548 28.8342C109.663 30.1409 110.49 31.6342 111.029 33.3141C111.568 34.994 111.837 36.5807 111.837 38.074C111.837 39.0446 111.707 40.1552 111.447 41.4058C111.187 42.6566 110.694 43.9258 109.97 45.2138C109.245 46.5018 108.251 47.743 106.988 48.9377C105.724 50.1323 104.117 51.1216 102.166 51.9056C100.215 52.6896 98.1432 53.0815 95.9506 53.0815ZM95.9506 46.5018C98.2531 46.5018 100.222 45.6863 101.858 44.0555C103.494 42.4246 104.312 40.45 104.312 38.1314C104.312 35.7736 103.494 33.7794 101.858 32.1484C100.222 30.5175 98.2531 29.7022 95.9506 29.7022C93.6077 29.7022 91.6285 30.5175 90.0127 32.1484C88.397 33.7794 87.5892 35.7736 87.5892 38.1314C87.5892 40.45 88.397 42.4246 90.0127 44.0555C91.6285 45.6863 93.6077 46.5018 95.9506 46.5018Z" fill="white"/>
<path d="M116.421 48.9798L116.301 24.8537C116.298 24.3383 116.712 23.9183 117.225 23.9157C117.227 23.9157 117.228 23.9157 117.23 23.9157H121.592C123.131 23.9157 124.379 25.1692 124.379 26.7156V27.8076C124.379 23.8384 130.343 23.0664 132.127 23.0664C133.39 23.0664 134.598 23.2903 135.75 23.7384C136.902 24.1864 137.869 24.8116 138.649 25.6144C139.429 26.417 140.024 27.2289 140.433 28.0503C141.102 27.005 141.891 26.081 142.802 25.2784C143.712 24.4756 144.743 23.9063 145.895 23.5704C147.047 23.2344 148.292 23.0664 149.63 23.0664C151.823 23.0664 153.69 23.5891 155.232 24.6344C156.775 25.6797 157.982 27.1636 158.856 29.0862C159.729 31.0088 160.166 33.2954 160.166 35.946L160.288 50.8246C160.292 51.3401 159.88 51.7614 159.367 51.7656C159.364 51.7656 159.362 51.7656 159.359 51.7656H154.886C153.396 51.7656 152.169 50.5881 152.102 49.0926L151.526 36.338C151.526 34.3594 151.154 32.8288 150.411 31.7461C149.667 30.6635 148.664 30.1222 147.4 30.1222C146.434 30.1222 145.57 30.4208 144.808 31.0182C144.047 31.6155 143.443 32.4368 142.997 33.4821C142.551 34.5274 142.309 35.8154 142.272 37.3459V50.8323C142.272 51.3477 141.856 51.7656 141.343 51.7656H136.992C135.502 51.7656 134.276 50.5881 134.208 49.0926L133.632 36.338C133.632 34.3594 133.27 32.8288 132.545 31.7461C131.82 30.6635 130.826 30.1222 129.563 30.1222C128.56 30.1222 127.658 30.4395 126.859 31.0742C126.06 31.7088 125.447 32.5675 125.02 33.6501C124.592 34.7327 124.379 36.0581 124.379 37.6261V50.8323C124.379 51.3477 123.963 51.7656 123.45 51.7656H119.209C117.675 51.7656 116.429 50.5206 116.421 48.9798Z" fill="white"/>
<path d="M169.532 27.0897C169.84 26.819 170.307 26.8842 170.553 27.2134L173.293 30.9036C173.372 31.0104 173.36 31.1593 173.266 31.2538C171.365 33.1724 170.415 35.5185 170.415 38.2923C170.415 41.0199 171.365 43.3429 173.266 45.2614C175.167 47.1799 177.495 48.1393 180.251 48.1393C182.961 48.1393 185.277 47.1799 187.201 45.2614C189.126 43.3429 190.088 41.0199 190.088 38.2923C190.088 35.5185 189.126 33.1724 187.201 31.2538C186.443 30.4973 185.622 29.8899 184.741 29.4317C184.424 29.2665 184.246 28.9085 184.334 28.5601L185.298 24.7287C185.4 24.3209 185.822 24.0816 186.216 24.2239C187.363 24.6376 188.431 25.1621 189.422 25.7975C190.715 26.6256 191.924 27.6985 193.049 29.016C194.172 30.3335 195.006 31.8393 195.55 33.5333C196.093 35.2273 196.365 36.8272 196.365 38.333C196.365 39.3117 196.233 40.4317 195.972 41.6927C195.709 42.9538 195.212 44.2336 194.482 45.5324C193.751 46.8312 192.748 48.0828 191.474 49.2874C190.201 50.4919 188.579 51.4896 186.612 52.2802C184.645 53.0706 182.556 53.4659 180.345 53.4659C178.135 53.4659 176.045 53.08 174.079 52.3083C172.111 51.5367 170.396 50.4544 168.934 49.0615C167.474 47.6687 166.34 46.0406 165.534 44.1772C164.729 42.3138 164.326 40.3658 164.326 38.333C164.326 37.3541 164.457 36.2343 164.719 34.9731C164.981 33.7121 165.478 32.4322 166.209 31.1335C166.939 29.8348 167.941 28.5831 169.216 27.3785C169.318 27.2809 169.425 27.1847 169.532 27.0897Z" fill="white"/>
<path d="M176.793 36.2161H180.627C180.548 35.6066 180.326 35.1287 179.946 34.7662C179.47 34.3379 178.82 34.1237 177.996 34.1237H176.539L176.809 33.2998H184.018L183.748 34.1237H180.897C181.499 34.6509 181.846 35.3429 181.927 36.2161H183.986L183.717 37.04H181.911C181.832 37.6989 181.562 38.2427 181.118 38.671C180.58 39.1818 179.898 39.5114 179.042 39.6596C179.233 39.7915 179.502 40.1044 179.882 40.6316L183.178 45.0636H181.42L178.567 41.0765C178.266 40.6481 177.982 40.3515 177.727 40.1703C177.411 39.9561 177.047 39.8408 176.633 39.8408V38.9017H177.489C178.535 38.9017 179.328 38.6875 179.866 38.2756C180.279 37.9626 180.516 37.5507 180.611 37.04H176.524L176.793 36.2161Z" fill="white"/>
<path fill-rule="evenodd" clip-rule="evenodd" d="M176.614 35.97H180.334C180.236 35.5433 180.052 35.2096 179.779 34.948C179.36 34.5724 178.776 34.3708 177.996 34.3708H176.199L176.63 33.0537H184.357L183.926 34.3708H181.471C181.828 34.8195 182.053 35.3525 182.144 35.97H184.325L183.894 37.287H182.12C182.005 37.9049 181.723 38.4283 181.288 38.8493L181.286 38.8509C180.81 39.3018 180.235 39.6174 179.545 39.8019C179.702 39.979 179.878 40.2079 180.08 40.4859L183.667 45.3107H181.292L178.367 41.2193C178.076 40.8065 177.81 40.5337 177.587 40.3735C177.312 40.1882 176.997 40.0878 176.633 40.0878H176.388V38.6556H177.489C178.507 38.6556 179.237 38.4464 179.718 38.0798V38.0794C179.997 37.8676 180.184 37.6062 180.293 37.287H176.183L176.614 35.97ZM180.61 37.0404C180.596 37.1253 180.575 37.2075 180.552 37.287C180.432 37.6854 180.21 38.0151 179.865 38.276C179.328 38.688 178.535 38.9021 177.489 38.9021H176.633V39.8413C177.046 39.8413 177.41 39.9567 177.727 40.1707C177.981 40.3521 178.266 40.6486 178.567 41.0769L181.419 45.0642H183.178L179.881 40.6321C179.635 40.2897 179.434 40.0376 179.272 39.867C179.185 39.7747 179.109 39.7063 179.042 39.6601C179.148 39.6418 179.25 39.6208 179.35 39.597C180.064 39.4278 180.645 39.1193 181.117 38.6714C181.561 38.2431 181.831 37.6993 181.91 37.0404H183.717L183.986 36.2166H181.926C181.859 35.4734 181.596 34.8616 181.148 34.3708C181.07 34.2848 180.986 34.2026 180.896 34.1241H183.748L184.018 33.3004H176.808L176.538 34.1241H177.996C178.821 34.1241 179.469 34.3383 179.946 34.7666C180.273 35.0787 180.483 35.4764 180.585 35.97C180.601 36.0497 180.616 36.1318 180.626 36.2166H176.792L176.523 37.0404H180.61Z" fill="white"/>
<path d="M178.806 20.9839C177.762 20.9362 178.092 20.9362 177.696 20.198C181.907 13.8992 182.857 12.2563 184.568 10.4847C182.418 12.0156 179.94 14.3352 176.883 18.8163C174.126 11.5894 182.28 8.05918 187.552 7.12988C187.1 11.319 188.493 22.1438 178.806 20.9839Z" fill="white"/>
<path d="M180.574 33.3532L179.977 34.4357C179.863 34.38 179.679 34.2769 179.448 34.1234C179.071 33.8732 178.69 33.5676 178.325 33.2034C175.839 30.7172 174.993 24.2819 178.096 19.5859L179.183 20.2206C174.209 27.5158 180.509 33.3215 180.574 33.3532Z" fill="white"/>
</svg>
