<svg width="100" height="74" viewBox="0 0 100 74" fill="none" xmlns="http://www.w3.org/2000/svg">
<path opacity="0.3" d="M95.7455 73.205C96.1257 73.3694 96.5672 73.1945 96.7317 72.8143L99.4115 66.6191C99.5759 66.2389 99.401 65.7974 99.0209 65.633C98.6407 65.4685 98.1992 65.6434 98.0347 66.0236L95.6527 71.5305L90.1458 69.1484C89.7656 68.984 89.3241 69.1589 89.1597 69.539C88.9952 69.9192 89.1701 70.3607 89.5503 70.5252L95.7455 73.205ZM20.3568 41.76L19.6131 41.663L20.3568 41.76ZM80.8563 45.3531L80.3046 45.8612L80.8563 45.3531ZM30.928 10.6002L31.2 9.90123L30.928 10.6002ZM53.85 60.0094L53.4344 59.385L53.85 60.0094ZM96.0433 72.5166C96.7406 72.2404 96.7406 72.2404 96.7406 72.2404C96.7406 72.2403 96.7406 72.2403 96.7406 72.2403C96.7405 72.2403 96.7405 72.2402 96.7405 72.2402C96.7405 72.24 96.7404 72.2399 96.7403 72.2397C96.7402 72.2393 96.7399 72.2387 96.7397 72.238C96.7391 72.2366 96.7383 72.2345 96.7372 72.2318C96.735 72.2263 96.7318 72.2183 96.7276 72.2078C96.7192 72.1868 96.7068 72.1557 96.6905 72.115C96.6577 72.0336 96.6092 71.9135 96.5457 71.7578C96.4186 71.4464 96.2313 70.9926 95.9899 70.4206L94.608 71.0041C94.847 71.5701 95.0319 72.0183 95.1569 72.3246C95.2194 72.4777 95.2669 72.5953 95.2987 72.6744C95.3145 72.7139 95.3265 72.7438 95.3344 72.7636C95.3384 72.7736 95.3413 72.781 95.3433 72.7859C95.3442 72.7883 95.3449 72.7901 95.3454 72.7913C95.3456 72.7918 95.3458 72.7923 95.3459 72.7925C95.346 72.7926 95.346 72.7927 95.346 72.7928C95.346 72.7928 95.346 72.7928 95.346 72.7928C95.346 72.7928 95.346 72.7928 95.346 72.7928C95.346 72.7928 95.346 72.7928 96.0433 72.5166ZM94.4192 66.8253C93.9309 65.7423 93.3762 64.5423 92.766 63.2693L91.4134 63.9177C92.018 65.1789 92.5677 66.3682 93.0518 67.4419L94.4192 66.8253ZM91.0224 59.7482C90.4379 58.6068 89.821 57.441 89.1779 56.2767L87.8649 57.0019C88.4995 58.1509 89.109 59.3026 89.6872 60.4318L91.0224 59.7482ZM87.2089 52.8675C86.5174 51.7261 85.8047 50.61 85.0771 49.5456L83.8388 50.3921C84.5486 51.4304 85.2464 52.523 85.926 53.6447L87.2089 52.8675ZM82.7119 46.3557C82.2806 45.8255 81.8456 45.3202 81.4079 44.845L80.3046 45.8612C80.719 46.3112 81.134 46.7929 81.5483 47.3022L82.7119 46.3557ZM81.4079 44.845C80.9365 44.3332 80.4389 43.8187 79.917 43.3032L78.8629 44.3702C79.369 44.8703 79.8502 45.3678 80.3046 45.8612L81.4079 44.845ZM76.7639 40.4233C75.7121 39.5298 74.5976 38.6415 73.4312 37.7673L72.5316 38.9676C73.6749 39.8244 74.7654 40.6938 75.7928 41.5665L76.7639 40.4233ZM69.9509 35.3052C68.7838 34.5255 67.58 33.7649 66.3478 33.0304L65.5798 34.3189C66.7899 35.0402 67.9719 35.7871 69.1176 36.5525L69.9509 35.3052ZM62.6354 30.9447C61.3792 30.2812 60.1032 29.6495 58.8154 29.0563L58.1879 30.4188C59.4502 31.0001 60.7018 31.6198 61.9348 32.2711L62.6354 30.9447ZM54.8897 27.3861C53.5481 26.863 52.2016 26.3879 50.859 25.9682L50.4115 27.3999C51.7191 27.8086 53.0331 28.2722 54.3449 28.7836L54.8897 27.3861ZM46.7303 24.8562C45.3007 24.5357 43.8844 24.2886 42.4926 24.1249L42.3174 25.6147C43.6529 25.7717 45.018 26.0095 46.4022 26.3198L46.7303 24.8562ZM38.178 23.8974C36.688 23.9241 35.2404 24.0693 33.8524 24.3487L34.1483 25.8192C35.4376 25.5597 36.7942 25.4225 38.2048 25.3972L38.178 23.8974ZM29.6801 25.698C28.3459 26.3199 27.1038 27.1142 25.9759 28.0978L26.9617 29.2283C27.9786 28.3415 29.1011 27.6228 30.3138 27.0575L29.6801 25.698ZM23.0883 31.4303C22.331 32.5859 21.6756 33.8842 21.1321 35.3326L22.5365 35.8596C23.0441 34.5068 23.6508 33.3087 24.3429 32.2525L23.0883 31.4303ZM19.9641 39.5077C19.8274 40.2004 19.7101 40.9186 19.6131 41.663L21.1005 41.857C21.1935 41.1434 21.3056 40.4574 21.4357 39.7983L19.9641 39.5077ZM19.6131 41.663C19.5187 42.3866 19.4484 43.0933 19.4014 43.7833L20.8979 43.8854C20.9428 43.2271 21.01 42.5511 21.1005 41.857L19.6131 41.663ZM19.4162 48.0625C19.5395 49.5767 19.7912 50.9912 20.1589 52.3068L21.6035 51.9031C21.2632 50.6852 21.0273 49.3655 20.9113 47.9408L19.4162 48.0625ZM21.7903 56.3157C22.5178 57.6263 23.3882 58.7915 24.3759 59.8133L25.4544 58.7708C24.5574 57.8428 23.7655 56.7833 23.1018 55.5877L21.7903 56.3157ZM27.7797 62.5204C29.0116 63.2663 30.3354 63.862 31.7222 64.3129L32.186 62.8864C30.9016 62.4688 29.6838 61.9198 28.5566 61.2373L27.7797 62.5204ZM35.933 65.2238C37.3368 65.3882 38.7741 65.4279 40.2219 65.3469L40.1382 63.8493C38.7726 63.9256 37.4218 63.8879 36.1074 63.7339L35.933 65.2238ZM44.4638 64.7705C45.8464 64.4721 47.22 64.0669 48.5649 63.5577L48.0337 62.1549C46.7585 62.6377 45.4567 63.0217 44.1474 63.3042L44.4638 64.7705ZM52.4392 61.7511C53.0601 61.4029 53.6696 61.0303 54.2655 60.6337L53.4344 59.385C52.8706 59.7603 52.2936 60.113 51.7055 60.4427L52.4392 61.7511ZM54.2655 60.6337C54.8791 60.2253 55.4574 59.8039 56.0011 59.3702L55.0657 58.1976C54.557 58.6033 54.0137 58.9995 53.4344 59.385L54.2655 60.6337ZM59.0777 56.3594C60.0367 55.1884 60.801 53.9573 61.3829 52.6782L60.0176 52.057C59.491 53.2145 58.7964 54.3354 57.9172 55.4089L59.0777 56.3594ZM62.6251 48.5145C62.8462 47.0966 62.8832 45.6493 62.7559 44.1879L61.2616 44.3181C61.3792 45.669 61.344 46.9945 61.143 48.2834L62.6251 48.5145ZM61.9587 39.9725C61.5765 38.6391 61.0754 37.3041 60.4694 35.9774L59.105 36.6007C59.683 37.866 60.1571 39.1309 60.5167 40.3858L61.9587 39.9725ZM58.4734 32.2329C57.7544 31.0518 56.9588 29.8835 56.0963 28.7353L54.897 29.6362C55.7322 30.7481 56.5001 31.8761 57.1921 33.0129L58.4734 32.2329ZM53.4202 25.4727C52.4958 24.4353 51.5196 23.421 50.4993 22.4357L49.4573 23.5147C50.4515 24.4748 51.4017 25.4622 52.3004 26.4707L53.4202 25.4727ZM47.3709 19.6208C46.2995 18.7219 45.193 17.8558 44.0582 17.028L43.1742 18.2398C44.2817 19.0477 45.3615 19.8929 46.4068 20.7699L47.3709 19.6208ZM40.5762 14.6649C39.3827 13.9134 38.1672 13.2062 36.9368 12.5491L36.2302 13.8722C37.4283 14.5121 38.6129 15.2013 39.7769 15.9342L40.5762 14.6649ZM33.1483 10.7074C32.5008 10.4235 31.851 10.1545 31.2 9.90123L30.6561 11.2991C31.287 11.5446 31.9173 11.8056 32.5461 12.0812L33.1483 10.7074ZM31.2 9.90123C30.5724 9.657 29.9475 9.41758 29.3261 9.18295L28.7963 10.5862C29.4131 10.8191 30.0332 11.0568 30.6561 11.2991L31.2 9.90123ZM25.5615 7.80277C24.2733 7.34422 23.0076 6.90742 21.7717 6.4923L21.2941 7.91424C22.522 8.32666 23.7791 8.76053 25.0585 9.21591L25.5615 7.80277ZM17.9622 5.24928C16.6338 4.82827 15.3533 4.43531 14.1314 4.07033L13.7021 5.50759C14.9165 5.87031 16.1889 6.26083 17.5091 6.67919L17.9622 5.24928ZM10.2796 2.95455C8.86085 2.55636 7.56318 2.20637 6.41034 1.9044L6.03026 3.35544C7.1752 3.65534 8.46444 4.00306 9.8743 4.39875L10.2796 2.95455ZM2.52682 0.928057C1.89759 0.777195 1.40843 0.664032 1.07597 0.588455C0.909744 0.55067 0.782676 0.522273 0.696865 0.503259C0.653955 0.493753 0.621357 0.486591 0.599335 0.481771C0.588317 0.479359 0.579947 0.477535 0.574253 0.4763C0.571404 0.475678 0.569229 0.47521 0.56772 0.474881C0.566968 0.474719 0.566387 0.474594 0.565967 0.474502C0.565759 0.474454 0.565596 0.47442 0.565468 0.474391C0.565409 0.474382 0.565354 0.474367 0.565314 0.474358C0.565297 0.474356 0.565274 0.474349 0.565265 0.474348C0.56524 0.474344 0.565225 0.474338 0.406817 1.20742C0.248418 1.9405 0.248401 1.9405 0.248392 1.9405C0.248394 1.9405 0.248386 1.94049 0.248386 1.94049C0.248386 1.94049 0.248401 1.9405 0.248426 1.9405C0.248466 1.94051 0.248555 1.94053 0.248685 1.94056C0.248944 1.94061 0.249372 1.94071 0.249969 1.94084C0.251163 1.9411 0.253028 1.9415 0.255557 1.94205C0.260619 1.94315 0.268352 1.94484 0.278726 1.94711C0.299475 1.95165 0.330781 1.95853 0.372385 1.96775C0.455587 1.98618 0.579973 2.01397 0.743471 2.05114C1.07046 2.12547 1.55387 2.2373 2.17708 2.38672L2.52682 0.928057Z" fill="#251238"/>
</svg>
