<svg width="42" height="42" viewBox="0 0 42 42" fill="none" xmlns="http://www.w3.org/2000/svg">
<g opacity="0.6">
<path d="M24.15 17.4004C23.3836 17.3978 22.6242 17.5463 21.9152 17.8375C21.2062 18.1287 20.5616 18.5568 20.0182 19.0974C19.4749 19.6379 19.0434 20.2803 18.7486 20.9878C18.4538 21.6953 18.3014 22.454 18.3 23.2204V29.1004C18.3 29.3391 18.3949 29.568 18.5637 29.7368C18.7324 29.9056 18.9614 30.0004 19.2 30.0004H21.3C21.5387 30.0004 21.7677 29.9056 21.9364 29.7368C22.1052 29.568 22.2 29.3391 22.2 29.1004V23.2204C22.1999 22.9478 22.2571 22.6782 22.3681 22.4293C22.4791 22.1803 22.6413 21.9575 22.8441 21.7754C23.047 21.5933 23.2859 21.456 23.5454 21.3724C23.8049 21.2889 24.0791 21.2609 24.35 21.2904C24.8361 21.3516 25.2827 21.5891 25.6053 21.9577C25.9278 22.3264 26.1039 22.8006 26.1 23.2904V29.1004C26.1 29.3391 26.1949 29.568 26.3637 29.7368C26.5324 29.9056 26.7614 30.0004 27 30.0004H29.1C29.3387 30.0004 29.5677 29.9056 29.7364 29.7368C29.9052 29.568 30 29.3391 30 29.1004V23.2204C29.9987 22.454 29.8463 21.6953 29.5515 20.9878C29.2567 20.2803 28.8252 19.6379 28.2819 19.0974C27.7385 18.5568 27.0939 18.1287 26.3849 17.8375C25.6759 17.5463 24.9165 17.3978 24.15 17.4004Z" fill="#251238"/>
<path d="M15.6 18.3008H12.9C12.4029 18.3008 12 18.7037 12 19.2008V29.1008C12 29.5978 12.4029 30.0008 12.9 30.0008H15.6C16.0971 30.0008 16.5 29.5978 16.5 29.1008V19.2008C16.5 18.7037 16.0971 18.3008 15.6 18.3008Z" fill="#251238"/>
<path d="M14.25 16.5C15.4926 16.5 16.5 15.4926 16.5 14.25C16.5 13.0074 15.4926 12 14.25 12C13.0074 12 12 13.0074 12 14.25C12 15.4926 13.0074 16.5 14.25 16.5Z" fill="#251238"/>
</g>
<rect x="1" y="1" width="40" height="40" rx="12" stroke="#251238" stroke-opacity="0.1"/>
</svg>
