<svg width="42" height="42" viewBox="0 0 42 42" fill="none" xmlns="http://www.w3.org/2000/svg">
<g opacity="0.6">
<path d="M13 12H29C29.2652 12 29.5196 12.1054 29.7071 12.2929C29.8946 12.4804 30 12.7348 30 13V29C30 29.2652 29.8946 29.5196 29.7071 29.7071C29.5196 29.8946 29.2652 30 29 30H13C12.7348 30 12.4804 29.8946 12.2929 29.7071C12.1054 29.5196 12 29.2652 12 29V13C12 12.7348 12.1054 12.4804 12.2929 12.2929C12.4804 12.1054 12.7348 12 13 12ZM14 14V28H28V14H14ZM26.3 24.94L27.255 25.894V25.944H22.334V25.894L23.338 24.94C23.438 24.84 23.488 24.74 23.488 24.589V18.664C23.488 18.412 23.488 18.061 23.539 17.76L20.225 26.045H20.175L16.76 18.412C16.71 18.212 16.66 18.212 16.61 18.112V23.132C16.559 23.484 16.61 23.785 16.76 24.087L18.116 25.894V25.944H14.5V25.894L15.856 24.036C16.006 23.736 16.056 23.384 16.006 23.082V17.56C16.006 17.309 15.956 17.007 15.756 16.807L14.851 15.55V15.5H18.366L21.278 21.978L23.84 15.5H27.255V15.55L26.301 16.655C26.201 16.755 26.151 16.906 26.151 17.006V24.639C26.151 24.739 26.201 24.89 26.301 24.94H26.3Z" fill="#251238"/>
</g>
<rect x="1" y="1" width="40" height="40" rx="12" stroke="#251238" stroke-opacity="0.1"/>
</svg>
