<svg width="42" height="42" viewBox="0 0 42 42" fill="none" xmlns="http://www.w3.org/2000/svg">
<g opacity="0.6">
<path d="M17.08 29.0008C18.5587 29.0503 20.0323 28.8028 21.4138 28.2731C22.7952 27.7433 24.0565 26.9421 25.1229 25.9166C26.1894 24.8911 27.0395 23.6623 27.623 22.3027C28.2065 20.9431 28.5115 19.4803 28.52 18.0008C29.1977 17.1622 29.7009 16.1966 30 15.1608C30.0224 15.0789 30.0206 14.9924 29.9949 14.9116C29.9691 14.8307 29.9206 14.759 29.8551 14.7051C29.7896 14.6513 29.7099 14.6174 29.6256 14.6078C29.5413 14.5982 29.456 14.6131 29.38 14.6508C29.0255 14.8214 28.6264 14.8766 28.2389 14.8084C27.8514 14.7402 27.495 14.5522 27.22 14.2708C26.869 13.8864 26.4444 13.5763 25.9713 13.359C25.4982 13.1417 24.9863 13.0216 24.466 13.0057C23.9456 12.9899 23.4274 13.0786 22.942 13.2667C22.4566 13.4548 22.0138 13.7384 21.64 14.1008C21.1282 14.5964 20.7534 15.2161 20.5519 15.8995C20.3503 16.5828 20.329 17.3067 20.49 18.0008C17.14 18.2008 14.84 16.6108 13 14.4308C12.9448 14.3682 12.8725 14.323 12.7919 14.3008C12.7114 14.2787 12.6262 14.2804 12.5467 14.3059C12.4671 14.3313 12.3967 14.3794 12.344 14.4442C12.2914 14.509 12.2587 14.5877 12.25 14.6708C11.8995 16.6152 12.1524 18.6203 12.9747 20.4168C13.7969 22.2134 15.1493 23.7153 16.85 24.7208C15.7097 26.0286 14.1083 26.8454 12.38 27.0008C12.2875 27.0161 12.202 27.0601 12.1356 27.1264C12.0692 27.1927 12.0252 27.2782 12.0098 27.3707C11.9944 27.4633 12.0083 27.5584 12.0495 27.6427C12.0908 27.727 12.1574 27.7962 12.24 27.8408C13.7436 28.5921 15.3993 28.989 17.08 29.0008Z" fill="#251238"/>
</g>
<rect x="1" y="1" width="40" height="40" rx="12" stroke="#251238" stroke-opacity="0.1"/>
</svg>
