<svg width="50" height="50" viewBox="0 0 50 50" fill="none" xmlns="http://www.w3.org/2000/svg">
<rect width="50" height="50" rx="4" fill="#C8CFF5" fill-opacity="0.4"/>
<path d="M25.5708 15.0996L32.2082 17.3265C32.9512 17.5746 33.4535 18.2571 33.4575 19.022L33.4998 25.6626C33.5129 27.6758 32.779 29.6282 31.435 31.1579C30.8169 31.8601 30.0246 32.4631 29.0128 33.0025L25.4449 34.9097C25.3332 34.9686 25.2103 34.999 25.0865 35C24.9627 35.0009 24.8389 34.9715 24.7281 34.9137L21.127 33.0505C20.1042 32.52 19.3048 31.9258 18.6806 31.2335C17.3145 29.7194 16.5554 27.7758 16.5423 25.7597L16.5 19.124C16.496 18.3581 16.9893 17.6707 17.7283 17.4128L24.3405 15.1064C24.7332 14.9672 25.1711 14.9642 25.5708 15.0996ZM28.7448 22.2187C28.4478 21.9333 27.9696 21.9353 27.6767 22.2245L24.3081 25.5449L22.9289 24.2191C22.6319 23.9337 22.1547 23.9367 21.8607 24.226C21.5678 24.5152 21.5708 24.98 21.8678 25.2654L23.7836 27.1089C23.9326 27.2521 24.1259 27.3227 24.3192 27.3208C24.5125 27.3198 24.7048 27.2472 24.8517 27.1021L28.7508 23.2581C29.0438 22.9688 29.0408 22.504 28.7448 22.2187Z" fill="black"/>
</svg>
