<svg width="50" height="50" viewBox="0 0 50 50" fill="none" xmlns="http://www.w3.org/2000/svg">
<rect width="50" height="50" rx="4" fill="#4971F6" fill-opacity="0.2"/>
<path d="M29.6694 15C33.0704 15 34.9904 16.929 35.0004 20.33V29.67C35.0004 33.07 33.0704 35 29.6694 35H20.3304C16.9294 35 15.0004 33.07 15.0004 29.67V20.33C15.0004 16.929 16.9294 15 20.3304 15H29.6694ZM25.5004 19.13C25.2194 18.96 24.8794 18.96 24.6104 19.13C24.3394 19.299 24.1904 19.61 24.2194 19.92V30.11C24.2704 30.54 24.6294 30.86 25.0494 30.86C25.4804 30.86 25.8394 30.54 25.8794 30.11V19.92C25.9194 19.61 25.7704 19.299 25.5004 19.13ZM20.8304 22.41C20.5604 22.24 20.2194 22.24 19.9504 22.41C19.6794 22.58 19.5304 22.889 19.5604 23.2V30.11C19.5994 30.54 19.9594 30.86 20.3894 30.86C20.8204 30.86 21.1794 30.54 21.2194 30.11V23.2C21.2504 22.889 21.0994 22.58 20.8304 22.41ZM30.0894 26.04C29.8204 25.87 29.4804 25.87 29.2004 26.04C28.9294 26.21 28.7804 26.509 28.8204 26.83V30.11C28.8604 30.54 29.2194 30.86 29.6504 30.86C30.0704 30.86 30.4294 30.54 30.4804 30.11V26.83C30.5094 26.509 30.3604 26.21 30.0894 26.04Z" fill="#251238"/>
</svg>
