<svg width="50" height="50" viewBox="0 0 50 50" fill="none" xmlns="http://www.w3.org/2000/svg">
<rect width="50" height="50" rx="4" fill="#7ADB90" fill-opacity="0.3"/>
<path d="M29.3399 15C32.7289 15 34.9999 17.38 34.9999 20.92V29.09C34.9999 32.62 32.7289 35 29.3399 35H20.6699C17.2799 35 14.9999 32.62 14.9999 29.09V20.92C14.9999 17.38 17.2799 15 20.6699 15H29.3399ZM25.5299 20.38C25.2499 20.1 24.7499 20.1 24.4699 20.38L20.7199 24.15C20.4299 24.44 20.4299 24.92 20.7199 25.21C21.0199 25.5 21.4899 25.5 21.7899 25.21L24.2499 22.73V29.08C24.2499 29.5 24.5899 29.83 24.9999 29.83C25.4199 29.83 25.7499 29.5 25.7499 29.08V22.73L28.2199 25.21C28.3599 25.35 28.5599 25.43 28.7499 25.43C28.9389 25.43 29.1299 25.35 29.2799 25.21C29.5699 24.92 29.5699 24.44 29.2799 24.15L25.5299 20.38Z" fill="#251238"/>
</svg>
