<svg width="50" height="50" viewBox="0 0 50 50" fill="none" xmlns="http://www.w3.org/2000/svg">
<rect width="50" height="50" rx="4" fill="#F8DB88" fill-opacity="0.3"/>
<path d="M21.2798 15.5002C21.9098 15.5193 22.5198 15.6293 23.1108 15.8303H23.1698C23.2098 15.8493 23.2398 15.8703 23.2598 15.8893C23.4808 15.9603 23.6898 16.0403 23.8898 16.1503L24.2698 16.3203C24.4198 16.4003 24.5998 16.5493 24.6998 16.6103C24.7998 16.6693 24.9098 16.7303 24.9998 16.7993C26.1108 15.9503 27.4598 15.4903 28.8498 15.5002C29.4808 15.5002 30.1108 15.5893 30.7098 15.7903C34.4008 16.9903 35.7308 21.0403 34.6198 24.5803C33.9898 26.3893 32.9598 28.0403 31.6108 29.3893C29.6798 31.2593 27.5608 32.9193 25.2798 34.3493L25.0298 34.5003L24.7698 34.3393C22.4808 32.9193 20.3498 31.2593 18.4008 29.3793C17.0608 28.0303 16.0298 26.3893 15.3898 24.5803C14.2598 21.0403 15.5898 16.9903 19.3208 15.7693C19.6108 15.6693 19.9098 15.5993 20.2098 15.5603H20.3298C20.6108 15.5193 20.8898 15.5002 21.1698 15.5002H21.2798ZM30.1898 18.6603C29.7798 18.5193 29.3298 18.7403 29.1798 19.1603C29.0398 19.5803 29.2598 20.0403 29.6798 20.1893C30.3208 20.4293 30.7498 21.0603 30.7498 21.7593V21.7903C30.7308 22.0193 30.7998 22.2403 30.9398 22.4103C31.0798 22.5803 31.2898 22.6793 31.5098 22.7003C31.9198 22.6893 32.2698 22.3603 32.2998 21.9393V21.8203C32.3298 20.4193 31.4808 19.1503 30.1898 18.6603Z" fill="#251238"/>
</svg>
