<svg width="16" height="21" viewBox="0 0 16 21" fill="none" xmlns="http://www.w3.org/2000/svg">
<path d="M1.24977 18.875H14.7478C14.939 18.8733 15.1237 18.9448 15.2641 19.0748C15.4044 19.2048 15.4897 19.3835 15.5026 19.5744C15.5155 19.7652 15.455 19.9538 15.3335 20.1015C15.2119 20.2492 15.0385 20.3449 14.8488 20.369L14.7478 20.375H1.24977C1.05975 20.3749 0.87683 20.3027 0.73798 20.173C0.599129 20.0433 0.514697 19.8657 0.501745 19.6761C0.488793 19.4865 0.548287 19.2991 0.668204 19.1517C0.788121 19.0043 0.959521 18.9079 1.14777 18.882L1.24977 18.875H14.7478H1.24977ZM7.88277 0.377972L7.99977 0.370972C8.2447 0.371004 8.48111 0.460928 8.66414 0.623687C8.84718 0.786446 8.96411 1.01072 8.99277 1.25397L8.99977 1.37097V13.961L12.2938 10.668C12.466 10.4958 12.6951 10.3924 12.9381 10.3771C13.1811 10.3618 13.4214 10.4357 13.6138 10.585L13.7078 10.668C13.8799 10.8402 13.9834 11.0693 13.9987 11.3123C14.0139 11.5553 13.94 11.7956 13.7908 11.988L13.7078 12.083L8.71077 17.079C8.53871 17.2513 8.30967 17.3549 8.06664 17.3704C7.82361 17.3858 7.58329 17.3121 7.39077 17.163L7.29677 17.08L2.29277 12.083C2.11152 11.9034 2.00574 11.6614 1.99709 11.4064C1.98844 11.1514 2.07757 10.9028 2.24624 10.7114C2.41491 10.52 2.65036 10.4003 2.9044 10.3768C3.15843 10.3533 3.41185 10.4277 3.61277 10.585L3.70677 10.668L6.99977 13.955V1.37097C6.9998 1.12604 7.08973 0.889634 7.25249 0.706599C7.41525 0.523565 7.63952 0.406629 7.88277 0.377972L7.99977 0.370972L7.88277 0.377972Z" fill="#6570F1"/>
</svg>
