<svg width="119" height="125" viewBox="0 0 119 125" fill="none" xmlns="http://www.w3.org/2000/svg">
<g filter="url(#filter0_d_511_6363)">
<rect x="20.5" y="16.5" width="78" height="84" rx="16" fill="white"/>
<path fill-rule="evenodd" clip-rule="evenodd" d="M59.6886 26.5488C50.9568 27.5965 44.7192 30.6242 39.2116 36.4879C36.9306 38.9164 35.3628 41.1875 33.9031 44.1774C29.3642 53.4751 29.3657 63.5389 33.9072 72.8051C41.6545 88.6113 60.6482 95.0222 76.2883 87.1097C79.6439 85.4122 83.2093 82.7194 85.4012 80.2276C88.733 76.4399 89.4119 71.6007 87.2376 67.1375C86.5821 65.792 86.1772 65.2846 83.8193 62.8545L81.1446 60.0978L79.0472 62.2148L76.9499 64.332L79.3429 66.7763C82.1871 69.6812 82.5486 70.3134 82.5333 72.355C82.5171 74.5438 81.6546 75.9145 78.7576 78.3561C75.2651 81.2994 71.5342 83.1101 66.9825 84.0705C64.3248 84.6314 60.1964 84.642 57.4606 84.0948C52.0696 83.0169 47.8655 80.7558 44.0215 76.8673C40.1652 72.9666 37.8519 68.5718 36.813 63.1725C36.3318 60.6713 36.3654 55.8027 36.8803 53.4169C38.0396 48.0459 40.2468 43.9341 44.0215 40.114C47.9052 36.1832 52.4001 33.7938 57.7808 32.7996C60.0053 32.3885 64.3761 32.3941 66.5377 32.8106C71.7797 33.8206 76.4251 36.2392 80.0512 39.8461C82.0839 41.8683 82.5217 42.7112 82.5347 44.6286C82.5491 46.7584 82.1641 47.3711 78.4626 51.1078L75.3428 54.257L69.9619 48.8282C66.8451 45.6837 64.1692 43.1374 63.6024 42.777C63.0643 42.4349 62.0236 41.9266 61.2897 41.6475C60.0861 41.1897 59.729 41.1389 57.6428 41.1283C55.8265 41.1191 55.1202 41.1889 54.3517 41.4538C51.1949 42.5418 48.7086 44.6664 47.4494 47.3516C46.3389 49.7193 45.9942 51.7729 46.3347 53.9931C46.5996 55.7208 47.1048 56.6285 48.1742 57.2972C50.1067 58.5056 52.6711 57.6801 53.5426 55.5687C54.0944 54.232 53.8322 52.6924 52.8522 51.5162C52.4097 50.9852 52.3841 50.8772 52.5672 50.316C52.8746 49.3734 54.0672 48.1278 55.2031 47.5634C56.0426 47.1462 56.4519 47.0582 57.5539 47.0582C59.8018 47.0582 60.0839 47.2654 66.003 53.2639L71.1608 58.4912L66.003 63.7186C60.0839 69.7171 59.8018 69.9243 57.5539 69.9243C55.8832 69.9243 54.5392 69.3193 53.4645 68.0837C52.6163 67.1083 52.4209 66.5253 52.797 66.0911C53.5954 65.1687 53.8977 63.3475 53.4513 62.1489C53.2158 61.5168 52.2993 60.5328 51.5942 60.1552C50.8912 59.7786 49.0946 59.7798 48.3812 60.1576C47.5894 60.5767 46.743 61.516 46.4891 62.2573C46.1988 63.105 46.2071 65.8833 46.5037 67.1336C47.4757 71.2325 50.7243 74.5418 54.8158 75.6009C57.4754 76.2894 60.3481 75.9287 62.9442 74.5809C64.1219 73.9695 65.1225 73.0082 75.3675 62.6476C86.4828 51.407 86.512 51.3755 87.2455 49.8489C88.9239 46.356 88.9181 42.8297 87.2284 39.4061C86.5876 38.1078 86.1619 37.5617 84.4219 35.8051C79.6652 31.0034 74.0641 28.096 67.2493 26.8911C65.687 26.6149 60.9318 26.3996 59.6886 26.5488Z" fill="#7265E3"/>
</g>
<defs>
<filter id="filter0_d_511_6363" x="0.5" y="0.5" width="118" height="124" filterUnits="userSpaceOnUse" color-interpolation-filters="sRGB">
<feFlood flood-opacity="0" result="BackgroundImageFix"/>
<feColorMatrix in="SourceAlpha" type="matrix" values="0 0 0 0 0 0 0 0 0 0 0 0 0 0 0 0 0 0 127 0" result="hardAlpha"/>
<feOffset dy="4"/>
<feGaussianBlur stdDeviation="10"/>
<feComposite in2="hardAlpha" operator="out"/>
<feColorMatrix type="matrix" values="0 0 0 0 0 0 0 0 0 0 0 0 0 0 0 0 0 0 0.16 0"/>
<feBlend mode="normal" in2="BackgroundImageFix" result="effect1_dropShadow_511_6363"/>
<feBlend mode="normal" in="SourceGraphic" in2="effect1_dropShadow_511_6363" result="shape"/>
</filter>
</defs>
</svg>
