<svg width="119" height="119" viewBox="0 0 119 119" fill="none" xmlns="http://www.w3.org/2000/svg">
<g filter="url(#filter0_d_511_6340)">
<rect x="20.5" y="16.5" width="78" height="78" rx="16" fill="white"/>
<g clip-path="url(#clip0_511_6340)">
<path d="M59.5 84.5C75.5163 84.5 88.5 71.5163 88.5 55.5C88.5 39.4837 75.5163 26.5 59.5 26.5C43.4837 26.5 30.5 39.4837 30.5 55.5C30.5 71.5163 43.4837 84.5 59.5 84.5Z" fill="white"/>
<g clip-path="url(#clip1_511_6340)">
<path fill-rule="evenodd" clip-rule="evenodd" d="M58.491 73.551L64.6975 79.8076L60.0424 84.5001L53.8359 78.2436L58.491 73.551Z" fill="#005AA4"/>
<path fill-rule="evenodd" clip-rule="evenodd" d="M59.2664 58.6912L63.9212 63.3837L44.5259 82.9357L39.8711 78.2436L59.2664 58.6912Z" fill="#005AA4"/>
<path fill-rule="evenodd" clip-rule="evenodd" d="M66.2486 65.73L78.6615 78.2436L74.0067 82.9357L61.5938 70.4226L66.2486 65.73Z" fill="#005AA4"/>
<path fill-rule="evenodd" clip-rule="evenodd" d="M67.1548 50.7393L86.5499 70.2914L81.8954 74.9839L62.5 55.4317L67.1548 50.7393Z" fill="#005AA4"/>
<path fill-rule="evenodd" clip-rule="evenodd" d="M44.3965 57.7781L49.0512 62.4706L36.6382 74.984L31.9834 70.2914L44.3965 57.7781Z" fill="#005AA4"/>
<path fill-rule="evenodd" clip-rule="evenodd" d="M83.4466 49.957L88.1015 54.6498L81.8951 60.9065L77.2402 56.2138L83.4466 49.957Z" fill="#005AA4"/>
<path fill-rule="evenodd" clip-rule="evenodd" d="M36.6381 49.957L41.293 54.6498L35.0865 60.9065L30.4316 56.2138L36.6381 49.957Z" fill="#005AA4"/>
<path fill-rule="evenodd" clip-rule="evenodd" d="M36.6382 35.8794L56.0335 55.4316L51.3786 60.1241L31.9834 40.5719L36.6382 35.8794Z" fill="#005AA4"/>
<path fill-rule="evenodd" clip-rule="evenodd" d="M81.8956 35.8794L86.5501 40.5719L74.1374 53.0854L69.4824 48.3929L81.8956 35.8794Z" fill="#005AA4"/>
<path fill-rule="evenodd" clip-rule="evenodd" d="M74.0075 27.9275L78.6623 32.6199L59.2671 52.1721L54.6123 47.4796L74.0075 27.9275Z" fill="#005AA4"/>
<path fill-rule="evenodd" clip-rule="evenodd" d="M44.5259 27.9275L56.9389 40.4409L52.2841 45.1333L39.8711 32.6199L44.5259 27.9275Z" fill="#005AA4"/>
<path fill-rule="evenodd" clip-rule="evenodd" d="M58.491 26.3633L64.6975 32.62L60.0424 37.3125L53.8359 31.0558L58.491 26.3633Z" fill="#005AA4"/>
</g>
</g>
</g>
<defs>
<filter id="filter0_d_511_6340" x="0.5" y="0.5" width="118" height="118" filterUnits="userSpaceOnUse" color-interpolation-filters="sRGB">
<feFlood flood-opacity="0" result="BackgroundImageFix"/>
<feColorMatrix in="SourceAlpha" type="matrix" values="0 0 0 0 0 0 0 0 0 0 0 0 0 0 0 0 0 0 127 0" result="hardAlpha"/>
<feOffset dy="4"/>
<feGaussianBlur stdDeviation="10"/>
<feComposite in2="hardAlpha" operator="out"/>
<feColorMatrix type="matrix" values="0 0 0 0 0 0 0 0 0 0 0 0 0 0 0 0 0 0 0.16 0"/>
<feBlend mode="normal" in2="BackgroundImageFix" result="effect1_dropShadow_511_6340"/>
<feBlend mode="normal" in="SourceGraphic" in2="effect1_dropShadow_511_6340" result="shape"/>
</filter>
<clipPath id="clip0_511_6340">
<rect width="58" height="58" fill="white" transform="translate(30.5 26.5)"/>
</clipPath>
<clipPath id="clip1_511_6340">
<rect width="58.1369" height="58.1369" fill="white" transform="translate(30.4316 26.3633)"/>
</clipPath>
</defs>
</svg>
