<svg width="1200" height="550" viewBox="0 0 1200 550" fill="none" xmlns="http://www.w3.org/2000/svg">
<rect x="-1.52588e-05" y="172.424" width="1200" height="377" rx="24" fill="url(#paint0_linear_710_5512)"/>
<path d="M530.827 545.412C531.532 545.777 531.973 546.504 531.973 547.298C531.973 548.472 531.022 549.423 529.848 549.423H28C12.5361 549.423 0 536.887 0 521.423V356.354C0 341.14 12.3339 328.806 27.5486 328.806C32.9027 328.806 38.1408 330.366 42.6223 333.295L90.198 364.396C94.7529 367.373 100.077 368.959 105.519 368.959H147.422C152.863 368.959 158.187 370.545 162.741 373.522L216.371 408.575C219.539 410.646 221.449 414.176 221.449 417.961C221.449 424.154 226.469 429.174 232.662 429.174H242.266C246.311 429.174 250.268 430.353 253.654 432.566L316.244 473.474C320.798 476.45 326.121 478.036 331.562 478.036H364.546C369.988 478.036 375.312 479.622 379.867 482.599L427.769 513.913C432.324 516.891 437.648 518.477 443.089 518.477H472.105C476.595 518.477 481.02 519.556 485.005 521.625L530.827 545.412Z" fill="url(#paint1_linear_710_5512)"/>
<path opacity="0.2" d="M530.827 545.412C531.532 545.777 531.973 546.504 531.973 547.298C531.973 548.472 531.022 549.423 529.848 549.423H18C8.0589 549.423 0 541.364 0 531.423V346.806C0 336.865 8.05884 328.806 18 328.806H30.3928C33.8911 328.806 37.3136 329.825 40.2417 331.739L92.6911 366.026C95.6193 367.94 99.0418 368.959 102.54 368.959H150.4C153.898 368.959 157.32 369.978 160.248 371.892L216.371 408.575C219.539 410.646 221.449 414.176 221.449 417.961C221.449 424.154 226.469 429.174 232.662 429.174H243.104C246.602 429.174 250.024 430.193 252.952 432.107L318.736 475.103C321.664 477.017 325.086 478.036 328.584 478.036H367.525C371.023 478.036 374.446 479.055 377.374 480.969L430.262 515.543C433.19 517.457 436.612 518.477 440.111 518.477H474.546C477.432 518.477 480.277 519.171 482.839 520.501L530.827 545.412Z" fill="black"/>
<path d="M446.167 523.441C458.959 530.082 454.238 549.423 439.825 549.423H18C8.05884 549.423 -3.05176e-05 541.365 -3.05176e-05 531.423V365.487C-3.05176e-05 351.186 15.8742 342.596 27.8463 350.419L56.9379 369.429C59.8655 371.342 63.287 372.361 66.7842 372.361H114.646C118.144 372.361 121.566 373.38 124.494 375.294L180.612 411.974C183.783 414.047 185.695 417.58 185.695 421.368C185.695 427.567 190.72 432.591 196.918 432.591H207.35C210.848 432.591 214.27 433.61 217.198 435.524L282.982 478.52C285.91 480.434 289.332 481.453 292.83 481.453H331.77C335.269 481.453 338.692 482.473 341.62 484.388L394.492 518.959C397.42 520.874 400.844 521.894 404.343 521.894H439.825C442.033 521.894 444.208 522.424 446.167 523.441Z" fill="url(#paint2_linear_710_5512)"/>
<path d="M391.466 141.917C393.583 144.381 396.002 147.133 398.073 149.839C400.144 152.545 402.412 155.297 404.468 158.093C408.569 163.517 412.263 169.237 415.519 175.207L416.623 177.399L417.031 178.231C417.152 178.457 417.243 178.775 417.364 179.047C417.85 180.439 418.239 181.864 418.528 183.31C419.163 186.455 419.646 189.871 420.039 193.333C420.75 200.258 421.219 207.499 421.657 214.605L429.957 215.345C431.56 207.995 432.572 200.528 432.98 193.016C433.195 189.107 433.144 185.187 432.829 181.284C432.674 179.123 432.335 176.978 431.816 174.874C431.65 174.285 431.529 173.725 431.302 173.106C431.076 172.486 430.864 171.805 430.698 171.412L429.564 168.631C428.018 165.001 426.257 161.467 424.288 158.048C422.398 154.662 420.296 151.457 418.24 148.312C416.184 145.167 413.841 142.114 411.467 139.241C410.288 137.729 409.079 136.218 407.854 134.842C406.63 133.466 405.405 132.03 403.984 130.503L391.466 141.917Z" fill="#E4897B"/>
<path d="M388.73 145.727C390.242 148.524 391.95 151.23 393.598 153.755C396.44 158.124 399.192 161.903 401.157 164.504C402.926 166.847 404.06 168.223 404.06 168.223L426.449 152.969C426.449 152.969 412.843 126.482 402.366 124.789C391.572 123.08 381.7 133.179 388.73 145.727Z" fill="url(#paint3_linear_710_5512)"/>
<path opacity="0.3" d="M388.73 145.727C390.242 148.524 391.95 151.23 393.598 153.755C396.44 158.124 399.192 161.903 401.157 164.504C402.926 166.847 404.06 168.223 404.06 168.223L426.449 152.969C426.449 152.969 412.843 126.482 402.366 124.789C391.572 123.08 381.7 133.179 388.73 145.727Z" fill="black"/>
<path d="M349.287 468.739H338.19L337.087 443.023H348.183L349.287 468.739Z" fill="#E4897B"/>
<path d="M457.29 420.829L448.28 427.33L427.024 410.957L436.034 404.456L457.29 420.829Z" fill="#E4897B"/>
<path d="M337.087 443.023L337.646 456.281H348.758L348.198 443.023H337.087Z" fill="#CE6F64"/>
<path d="M436.034 404.456L427.024 410.957L437.999 419.393L446.995 412.892L436.034 404.456Z" fill="#CE6F64"/>
<path d="M360.55 221.361C360.55 221.361 359.28 300.398 369.213 331.39C384.936 380.479 432.436 420.239 432.436 420.239L449.429 407.978C449.429 407.978 409.895 374.386 402.563 333.053C396.047 295.908 398.814 251.703 398.814 221.361H360.55Z" fill="url(#paint4_linear_710_5512)"/>
<path opacity="0.7" d="M360.55 221.361C360.55 221.361 359.28 300.398 369.213 331.39C384.936 380.479 432.436 420.239 432.436 420.239L449.429 407.978C449.429 407.978 409.895 374.386 402.563 333.053C396.047 295.908 398.814 251.703 398.814 221.361H360.55Z" fill="white"/>
<path d="M421.264 212.564L417.258 219.76L431.287 221.846C431.287 221.846 432.723 215.799 429.261 211.626L421.264 212.564Z" fill="#E4897B"/>
<path d="M415.141 229.329L426.812 230.509L431.287 221.846L417.258 219.76L415.141 229.329Z" fill="#E4897B"/>
<path d="M350.436 84.1052C350.3 84.9821 349.725 85.617 349.136 85.617C348.546 85.617 348.214 84.7251 348.35 83.8482C348.486 82.9714 349.06 82.3364 349.65 82.3364C350.239 82.3364 350.572 83.2133 350.436 84.1052Z" fill="#263238"/>
<path d="M349.801 85.6475C348.323 88.1838 346.502 90.5037 344.389 92.5413C344.92 93.0769 345.562 93.4898 346.27 93.751C346.978 94.0121 347.734 94.1152 348.486 94.0531L349.801 85.6475Z" fill="#DE5753"/>
<path d="M354.427 79.6909C354.495 79.6929 354.562 79.6816 354.625 79.6576C354.688 79.6336 354.746 79.5974 354.795 79.5511C354.844 79.5047 354.884 79.4492 354.912 79.3876C354.939 79.3259 354.955 79.2595 354.957 79.192C354.957 79.1186 354.942 79.046 354.913 78.9784C354.885 78.9109 354.843 78.8498 354.79 78.7989C354.21 78.2036 353.495 77.7557 352.706 77.4927C351.917 77.2298 351.077 77.1593 350.255 77.2871C350.187 77.2996 350.122 77.3258 350.064 77.3641C350.006 77.4024 349.957 77.452 349.918 77.5099C349.88 77.5678 349.854 77.6328 349.842 77.7011C349.83 77.7693 349.831 77.8393 349.847 77.9069C349.859 77.9736 349.885 78.037 349.922 78.0936C349.96 78.1503 350.008 78.199 350.064 78.2369C350.12 78.2749 350.183 78.3013 350.25 78.3147C350.316 78.3281 350.385 78.3283 350.451 78.3151C351.105 78.226 351.771 78.2933 352.394 78.5114C353.017 78.7296 353.579 79.0923 354.034 79.5699C354.087 79.6168 354.15 79.6519 354.218 79.6728C354.286 79.6936 354.357 79.6998 354.427 79.6909Z" fill="#263238"/>
<path d="M379.977 93.8569C378.374 101.975 376.787 116.867 382.471 122.279C382.471 122.279 380.249 130.533 365.161 130.533C348.531 130.533 357.224 122.279 357.224 122.279C366.295 120.117 366.053 113.405 364.466 107.161L379.977 93.8569Z" fill="#E4897B"/>
<path d="M388.639 127.781C386.84 124.97 389.864 118.197 389.864 118.197C389.864 118.197 363.12 111.469 352.205 121.795C349.937 123.926 352.447 127.071 352.447 127.071L388.639 127.781Z" fill="url(#paint5_linear_710_5512)"/>
<path d="M443.533 432.652C444.939 432.652 446.995 429.9 447.569 428.917C447.598 428.875 447.613 428.825 447.613 428.774C447.613 428.723 447.598 428.673 447.569 428.63C447.539 428.592 447.5 428.563 447.455 428.544C447.41 428.526 447.361 428.519 447.312 428.524C447.161 428.524 443.518 429.31 442.671 430.747C442.575 430.898 442.513 431.068 442.489 431.246C442.465 431.423 442.481 431.604 442.535 431.775C442.747 432.425 443.14 432.606 443.427 432.636L443.533 432.652ZM446.783 429.19C445.831 430.58 444.259 432.213 443.472 432.122C443.397 432.122 443.17 432.122 443.019 431.608C442.988 431.51 442.981 431.405 442.996 431.303C443.012 431.201 443.051 431.104 443.11 431.019C444.126 430.048 445.402 429.391 446.783 429.129V429.19Z" fill="url(#paint6_linear_710_5512)"/>
<path d="M445.544 429.205C446.181 429.221 446.818 429.144 447.433 428.979C447.471 428.954 447.501 428.92 447.523 428.881C447.544 428.841 447.555 428.797 447.555 428.752C447.555 428.707 447.544 428.663 447.523 428.623C447.501 428.584 447.471 428.55 447.433 428.525C447.328 428.434 444.833 426.439 443.185 426.605C442.984 426.627 442.79 426.689 442.613 426.788C442.436 426.887 442.281 427.02 442.157 427.18C442.018 427.323 441.934 427.511 441.921 427.71C441.907 427.909 441.964 428.107 442.082 428.268C442.626 428.933 444.168 429.205 445.544 429.205ZM446.738 428.601C445.332 428.812 443.019 428.601 442.58 427.966C442.545 427.889 442.533 427.803 442.546 427.72C442.56 427.636 442.598 427.559 442.656 427.497C442.735 427.393 442.835 427.307 442.95 427.244C443.064 427.182 443.191 427.144 443.321 427.134C444.582 427.266 445.774 427.777 446.738 428.601Z" fill="url(#paint7_linear_710_5512)"/>
<path d="M333.731 469.314C334.871 469.299 336.009 469.192 337.132 468.996C337.185 468.987 337.234 468.962 337.272 468.924C337.31 468.886 337.335 468.837 337.344 468.784C337.353 468.731 337.345 468.675 337.32 468.626C337.296 468.577 337.257 468.537 337.208 468.512C337.042 468.422 333.171 466.199 331.312 466.713C331.139 466.752 330.977 466.826 330.834 466.93C330.691 467.034 330.57 467.166 330.48 467.318C330.362 467.486 330.298 467.687 330.298 467.892C330.298 468.098 330.362 468.299 330.48 468.467C330.919 469.117 332.294 469.314 333.731 469.314ZM336.286 468.603C334.214 468.905 331.402 468.875 330.888 468.165C330.814 467.975 330.814 467.764 330.888 467.575C330.945 467.48 331.022 467.399 331.114 467.336C331.205 467.273 331.309 467.231 331.418 467.212C332.597 466.91 334.925 467.908 336.286 468.603Z" fill="url(#paint8_linear_710_5512)"/>
<path d="M337.041 468.935H337.193C337.23 468.908 337.26 468.871 337.279 468.829C337.298 468.786 337.304 468.739 337.298 468.693C337.174 467.112 336.555 465.61 335.53 464.4C335.321 464.227 335.079 464.097 334.82 464.019C334.56 463.942 334.287 463.917 334.018 463.946C333.792 463.92 333.565 463.983 333.384 464.121C333.204 464.259 333.084 464.462 333.05 464.687C332.839 465.942 335.499 468.345 336.83 468.95L337.041 468.935ZM334.32 464.4C334.656 464.405 334.98 464.522 335.242 464.732C336.082 465.697 336.609 466.893 336.754 468.164C335.378 467.332 333.579 465.443 333.731 464.702C333.731 464.702 333.731 464.445 334.245 464.4H334.32Z" fill="url(#paint9_linear_710_5512)"/>
<path d="M446.995 427.239L455.627 418.168C455.782 418.011 455.986 417.91 456.206 417.883C456.425 417.855 456.648 417.903 456.837 418.017L465.469 423.278C465.652 423.387 465.812 423.531 465.939 423.702C466.066 423.873 466.158 424.067 466.21 424.273C466.262 424.48 466.273 424.694 466.242 424.905C466.21 425.116 466.138 425.318 466.028 425.501C465.955 425.616 465.869 425.722 465.771 425.818C462.748 428.842 461.055 430.248 457.26 434.209C454.917 436.643 448.552 445.199 445.332 448.571C442.112 451.942 438.347 449.175 439.375 447.512C443.911 440.044 446.118 432.636 446.239 428.947C446.269 428.304 446.539 427.695 446.995 427.239Z" fill="#263238"/>
<path d="M338.266 467.424H350.36C350.58 467.423 350.793 467.497 350.964 467.635C351.134 467.773 351.252 467.965 351.298 468.18L353.505 478.006C353.6 478.423 353.526 478.861 353.3 479.224C353.073 479.586 352.712 479.844 352.295 479.942C352.165 479.956 352.033 479.956 351.902 479.942C347.518 479.942 341.199 479.609 335.696 479.609C329.271 479.609 323.722 479.957 316.178 479.957C311.643 479.957 310.358 475.346 312.263 474.938C320.956 473.033 328.046 472.821 335.56 468.195C336.374 467.695 337.31 467.428 338.266 467.424Z" fill="#263238"/>
<path opacity="0.3" d="M393.598 153.754C396.44 158.123 399.192 161.903 401.157 164.503C400.93 159.302 399.857 150.897 395.82 144.487C394.354 145.938 393.764 149.687 393.598 153.754Z" fill="black"/>
<path d="M332.506 135.748C331.901 136.7 330.798 138.152 329.785 139.497C328.772 140.843 327.608 142.219 326.459 143.579C324.146 146.285 321.787 148.976 319.323 151.562C314.578 156.699 309.376 161.395 303.782 165.591C302.482 166.541 301.135 167.424 299.745 168.237L298.823 168.766C298.717 168.766 298.672 168.902 298.475 168.962L298.233 169.068L297.901 169.174C297.653 169.25 297.4 169.311 297.145 169.355C294.133 169.776 291.074 169.736 288.074 169.234C280.99 168.114 273.99 166.518 267.12 164.457L263.538 172.016C270.272 176.371 277.572 179.784 285.232 182.16C289.564 183.563 294.106 184.203 298.657 184.05C299.34 184.017 300.022 183.946 300.698 183.839L301.741 183.642L302.86 183.37C303.643 183.157 304.411 182.89 305.157 182.569L305.626 182.372L306.004 182.191L306.76 181.828C308.71 180.875 310.6 179.832 312.444 178.698C319.249 174.267 325.555 169.112 331.251 163.323C334.048 160.496 336.769 157.624 339.324 154.57C340.624 153.058 341.879 151.546 343.134 149.853C344.505 148.101 345.762 146.263 346.898 144.35L332.506 135.748Z" fill="#E4897B"/>
<path d="M268.904 166.468L261.527 157.685L256.508 170.505C256.508 170.505 262.872 173.528 267.831 171.79L268.904 166.468Z" fill="#E4897B"/>
<path d="M250.702 155.78L248.646 166.03L256.508 170.505L261.512 157.685L250.702 155.78Z" fill="#E4897B"/>
<path d="M380.249 86.8419C377.891 97.606 377.044 104.031 370.679 108.748C361.11 115.853 348.471 108.748 347.579 97.5153C346.778 87.3862 350.784 71.482 362.092 68.791C364.587 68.1911 367.194 68.24 369.664 68.9329C372.134 69.6258 374.386 70.9396 376.205 72.7493C378.024 74.559 379.349 76.8042 380.054 79.2711C380.759 81.738 380.821 84.3444 380.234 86.8419H380.249Z" fill="#E4897B"/>
<path d="M384.799 65.8126C394.248 66.0697 395.382 75.3673 390.695 78.1036C390.695 78.1036 396.138 80.719 393.341 86.9628C389.078 96.4418 380.914 106.858 372.569 106.284C362.213 105.573 359.265 94.295 359.628 83.1682C354.17 78.0129 357.466 75.5033 352.069 72.3588C342.514 66.7953 337.676 50.8458 353.581 51.0877C369.878 51.3447 360.686 65.1626 384.799 65.8126Z" fill="#263238"/>
<path d="M389.516 76.7424C389.516 76.7424 393.16 78.6322 398.768 75.3667C396.818 80.144 390.831 82.1093 389.516 76.7424Z" fill="#263238"/>
<path d="M365.312 85.8438C365.019 88.5683 363.834 91.1195 361.941 93.1005C359.431 95.6857 356.967 93.932 356.649 90.6665C356.362 87.7336 357.33 82.8505 360.338 81.4899C363.347 80.1292 365.63 82.5481 365.312 85.8438Z" fill="#E4897B"/>
<path d="M425.21 416.658L432.179 420.815L450.744 407.42L444.561 402.688L425.21 416.658Z" fill="url(#paint10_linear_710_5512)"/>
<path d="M371.647 234.938C373.748 249.18 366.325 288.834 363.755 301.821C361.064 277.541 360.565 248.741 360.52 233.018C365.962 229.33 370.679 228.377 371.647 234.938Z" fill="url(#paint11_linear_710_5512)"/>
<path opacity="0.4" d="M371.647 234.938C373.748 249.18 366.325 288.834 363.755 301.821C361.064 277.541 360.565 248.741 360.52 233.018C365.962 229.33 370.679 228.377 371.647 234.938Z" fill="white"/>
<path d="M339.491 221.361C339.491 221.361 322.755 292.265 321.576 326.129C320.261 364.121 333.519 453.71 333.519 453.71H352.326C352.326 453.71 354.639 363.426 355.486 328.82C356.393 291.101 378.525 221.361 378.525 221.361H339.491Z" fill="url(#paint12_linear_710_5512)"/>
<path opacity="0.7" d="M339.491 221.361C339.491 221.361 322.755 292.265 321.576 326.129C320.261 364.121 333.519 453.71 333.519 453.71H352.326C352.326 453.71 354.639 363.426 355.486 328.82C356.393 291.101 378.525 221.361 378.525 221.361H339.491Z" fill="white"/>
<path d="M329.891 446.258C329.8 446.258 330.949 454.059 330.949 454.059H353.837L354.457 447.089L329.891 446.258Z" fill="url(#paint13_linear_710_5512)"/>
<path d="M334.683 161.57C334.683 165.35 334.774 169.507 334.985 174.088C335.53 186.545 336.89 202.071 339.521 221.362H398.889C399.298 212.291 393.568 167.753 402.367 124.788C395.771 123.522 389.1 122.683 382.396 122.278C373.987 121.795 365.557 121.795 357.148 122.278C351.386 122.854 345.675 123.865 340.065 125.302C340.065 125.302 334.668 131.546 334.683 161.57Z" fill="url(#paint14_linear_710_5512)"/>
<path opacity="0.3" d="M334.683 161.57C334.683 165.35 334.774 169.507 334.985 174.088C335.53 186.545 336.89 202.071 339.521 221.362H398.889C399.298 212.291 393.568 167.753 402.367 124.788C395.771 123.522 389.1 122.683 382.396 122.278C373.987 121.795 365.557 121.795 357.148 122.278C351.386 122.854 345.675 123.865 340.065 125.302C340.065 125.302 334.668 131.546 334.683 161.57Z" fill="black"/>
<path opacity="0.3" d="M334.683 161.57C334.683 165.349 334.773 169.507 334.985 174.088C341.955 167.285 342.423 153.391 342.423 153.391L334.683 161.57Z" fill="black"/>
<path d="M355.969 138.319C354.654 148.901 330.646 171.185 330.646 171.185L309.028 154.056C314.46 146.013 320.818 138.635 327.971 132.075C343.603 118.499 357.557 125.665 355.969 138.319Z" fill="url(#paint15_linear_710_5512)"/>
<path opacity="0.3" d="M355.969 138.319C354.654 148.901 330.646 171.185 330.646 171.185L309.028 154.056C314.46 146.013 320.818 138.635 327.971 132.075C343.603 118.499 357.557 125.665 355.969 138.319Z" fill="black"/>
<path d="M102.666 359.314L113.778 360.403L125.343 333.946L114.232 332.858L102.666 359.314Z" fill="#E4897B"/>
<path d="M28.7091 326.055L38.3847 332.283L55.9216 311.889L46.246 305.661L28.7091 326.055Z" fill="#E4897B"/>
<path d="M125.328 333.962L119.372 347.598H107.776L114.217 332.873L125.328 333.962Z" fill="#CE6F64"/>
<path d="M46.231 305.661L55.9216 311.889L46.8659 322.396L37.1903 316.168L46.231 305.661Z" fill="#CE6F64"/>
<path d="M197.956 76.8645C198.197 80.9766 198.711 84.7259 199.301 88.6263C199.891 92.5268 200.722 96.3063 201.659 100.131C203.487 107.922 206.318 115.443 210.08 122.506C211.071 124.338 212.176 126.105 213.391 127.797C214.57 129.475 215.825 131.017 217.08 132.514C219.589 135.538 222.19 138.334 224.835 141.101C230.172 146.589 235.615 151.835 241.465 156.839L245.668 152.787C241.027 146.906 236.265 141.086 231.744 135.19C227.224 129.294 222.537 123.428 219.65 117.532C216.7 111.103 214.479 104.363 213.028 97.4402C212.227 93.9328 211.622 90.3498 211.048 86.8575C210.473 83.3653 210.05 79.5858 209.732 76.2749L197.956 76.8645Z" fill="#E4897B"/>
<path d="M202.582 1.9086C210.685 1.9086 219.877 10.6015 219.499 23.0739C219.121 35.5462 216.475 54.0658 235.751 71.2097C228.827 86.3277 196.262 100.493 174.523 89.8351C153.917 79.7363 162.428 23.7542 177.108 9.08967C185.332 0.880575 194.932 -1.87091 202.582 1.9086Z" fill="#263238"/>
<path d="M189.127 78.2856C189.731 81.9442 192.77 88.8682 195.174 94.0084C196.958 97.7274 198.409 100.524 198.409 100.524L200.526 99.5869L218.047 91.786C216.717 82.3372 214.555 72.1326 204.139 67.4913C197.638 64.6189 188.053 71.7546 189.127 78.2856Z" fill="url(#paint16_linear_710_5512)"/>
<path opacity="0.6" d="M189.127 78.2856C189.731 81.9442 192.77 88.8682 195.174 94.0084C196.958 97.7274 198.409 100.524 198.409 100.524L200.526 99.5869L218.047 91.786C216.717 82.3372 214.555 72.1326 204.139 67.4913C197.638 64.6189 188.053 71.7546 189.127 78.2856Z" fill="white"/>
<path d="M195.219 94.0079C197.003 97.7269 198.454 100.524 198.454 100.524L200.571 99.5864C200.284 95.8523 199.543 89.9713 197.547 87.3257C196.304 89.3617 195.51 91.64 195.219 94.0079Z" fill="url(#paint17_linear_710_5512)"/>
<path opacity="0.5" d="M195.219 94.1138C197.003 97.8328 198.454 100.63 198.454 100.63L200.571 99.6924C200.284 95.9582 199.543 90.0773 197.547 87.4316C196.304 89.4676 195.51 91.7459 195.219 94.1138Z" fill="white"/>
<path d="M135.971 119.254L180.57 133.314C211.41 72.2979 207.026 69.0626 207.026 69.0626C207.026 69.0626 199.906 64.9959 192.498 61.6094L189.126 60.0976C182.546 57.4784 175.786 55.3361 168.899 53.6876C167.886 53.4155 166.873 53.1736 165.875 52.9317C160.39 51.6954 154.837 50.7817 149.245 50.1953C148.58 58.6463 147.915 65.7971 147.189 72.0106C146.252 80.1139 145.239 86.5995 144.165 92.2083C142.157 101.427 139.417 110.471 135.971 119.254Z" fill="url(#paint18_linear_710_5512)"/>
<path opacity="0.6" d="M135.971 119.254L180.57 133.314C211.41 72.2979 207.026 69.0626 207.026 69.0626C207.026 69.0626 199.906 64.9959 192.498 61.6094L189.126 60.0976C182.546 57.4784 175.786 55.3361 168.899 53.6876C167.886 53.4155 166.873 53.1736 165.875 52.9317C160.39 51.6954 154.837 50.7817 149.245 50.1953C148.58 58.6463 147.915 65.7971 147.189 72.0106C146.252 80.1139 145.239 86.5995 144.165 92.2083C142.157 101.427 139.417 110.471 135.971 119.254Z" fill="white"/>
<path d="M180.57 133.315C180.57 133.315 182.081 224.628 170.153 257.615C158.664 289.242 124.391 343.607 124.391 343.607L104.526 343.093C104.526 343.093 136.077 274.26 141.263 247.033C149.835 201.875 147.945 123.065 147.945 123.065L180.57 133.315Z" fill="url(#paint19_linear_710_5512)"/>
<path opacity="0.4" d="M180.57 133.315C180.57 133.315 182.081 224.628 170.153 257.615C158.664 289.242 124.391 343.607 124.391 343.607L104.526 343.093C104.526 343.093 136.077 274.26 141.263 247.033C149.835 201.875 147.945 123.065 147.945 123.065L180.57 133.315Z" fill="black"/>
<path opacity="0.3" d="M162.73 141.161L157.394 126.043L147.945 123.019C147.945 123.019 148.807 158.894 146.736 196.1C155.307 179.666 162.73 149.43 162.73 141.161Z" fill="black"/>
<path d="M170.743 130.412C170.743 130.412 139.751 201.301 119.72 241.651C103.543 274.23 53.2002 317.967 53.2002 317.967L39.4125 308.397C39.4125 308.397 77.2832 256.603 88.4555 234.5C124.21 163.778 115.396 134.63 135.956 119.255L170.743 130.412Z" fill="url(#paint20_linear_710_5512)"/>
<path opacity="0.4" d="M170.743 130.412C170.743 130.412 139.751 201.301 119.72 241.651C103.543 274.23 53.2002 317.967 53.2002 317.967L39.4125 308.397C39.4125 308.397 77.2832 256.603 88.4555 234.5C124.21 163.778 115.396 134.63 135.956 119.255L170.743 130.412Z" fill="black"/>
<path d="M242.977 151.713L253.076 153.588L245.925 163.264C245.925 163.264 240.649 159.59 239.545 154.934L242.977 151.713Z" fill="#E4897B"/>
<path d="M259.698 161.238L253.061 167.436L245.94 163.263L253.076 153.588L259.698 161.238Z" fill="#E4897B"/>
<path d="M41.9524 329.229L31.4454 321.67C31.2675 321.539 31.0481 321.478 30.8282 321.497C30.6084 321.517 30.4032 321.616 30.2511 321.776L23.0851 329.229C22.7591 329.592 22.5904 330.07 22.6159 330.557C22.6414 331.044 22.8591 331.502 23.2212 331.829L23.3875 331.965C27.1065 334.52 29.0265 335.578 33.6375 338.889C36.4797 340.93 42.4664 345.859 46.3971 348.671C50.3278 351.483 53.3061 347.748 51.9303 346.237C45.7319 339.403 44.0841 334.747 43.1014 330.892C42.9205 330.222 42.5148 329.635 41.9524 329.229Z" fill="#263238"/>
<path d="M115.245 356.971H101.639C101.395 356.978 101.159 357.062 100.966 357.211C100.773 357.361 100.633 357.568 100.565 357.803L97.5416 368.597C97.4794 368.811 97.4601 369.036 97.4849 369.258C97.5098 369.48 97.5783 369.694 97.6865 369.89C97.7947 370.085 97.9405 370.257 98.1154 370.396C98.2903 370.535 98.491 370.637 98.7058 370.698C98.8713 370.721 99.0391 370.721 99.2046 370.698H130.665C135.654 370.698 136.712 365.649 134.626 365.195C125.374 363.139 120.037 360.327 117.18 357.636C116.643 357.177 115.951 356.939 115.245 356.971Z" fill="#263238"/>
<path d="M165.845 52.9624V53.7637C165.845 54.2323 166.162 65.0568 177.229 73.5985L178.347 74.4603L179.708 74.1579C185.574 72.888 189.474 70.454 191.334 66.9315C192.196 65.2964 192.588 63.4544 192.468 61.6099L189.096 60.0981C182.516 57.4788 175.756 55.3366 168.868 53.6881C167.871 53.4462 166.858 53.1892 165.845 52.9624Z" fill="white"/>
<path d="M178.09 31.5703C177.304 38.4793 174.81 50.8156 168.884 53.7182C168.884 53.7182 169.035 63.4543 179.088 71.2098C192.407 68.3071 189.111 60.1283 189.111 60.1283C182.399 56.0918 184.289 50.7702 187.161 46.1139L178.09 31.5703Z" fill="#E4897B"/>
<path d="M181.779 37.4971L187.146 46.0992C186.463 47.1798 185.877 48.318 185.392 49.5008C182.747 48.2158 179.345 44.406 179.98 41.4126C180.341 40.0103 180.95 38.684 181.779 37.4971Z" fill="#CE6F64"/>
<path d="M181.235 16.165C177.425 26.9441 175.596 31.4191 178.604 39.0537C183.14 50.5283 197.2 52.8413 204.154 43.4379C210.398 34.9567 215.568 18.7804 207.072 10.1782C204.161 7.24335 200.203 5.58501 196.069 5.568C191.936 5.55099 187.965 7.17671 185.03 10.0875C183.304 11.7863 182.003 13.8686 181.235 16.165Z" fill="#E4897B"/>
<path d="M195.506 3.60156C199.165 7.57761 191.651 24.2074 180.192 26.7624C168.732 29.3173 177.985 11.2362 177.985 11.2362L195.506 3.60156Z" fill="#263238"/>
<path d="M194.312 8.25802C193.889 12.7934 212.106 19.6419 213.663 22.9981C212.907 17.5405 212.65 11.1456 205.772 6.61015C198.893 2.07474 193.224 3.84356 193.224 3.84356L194.312 8.25802Z" fill="#263238"/>
<path d="M195.657 8.43896C195.657 8.43896 197.668 13.6547 205.333 20.0345C199.29 18.3089 194.112 14.3823 190.82 9.02857L195.657 8.43896Z" fill="#263238"/>
<path d="M174.719 24.9184C174.386 27.1031 174.929 29.331 176.231 31.1168C177.97 33.4752 180.63 32.3565 181.643 29.7864C182.565 27.4582 182.777 23.4368 180.313 22.0006C179.886 21.755 179.416 21.5962 178.927 21.5332C178.439 21.4702 177.944 21.5043 177.469 21.6335C176.994 21.7628 176.549 21.9846 176.16 22.2863C175.772 22.588 175.446 22.9636 175.203 23.3915C174.932 23.8589 174.767 24.3801 174.719 24.9184Z" fill="#E4897B"/>
<path d="M136.183 116.428L132.903 119.784C132.646 120.041 132.903 120.479 133.432 120.631L180.162 135.416C180.315 135.485 180.487 135.501 180.651 135.463C180.815 135.425 180.961 135.334 181.069 135.204L182.732 131.349C182.838 131.077 182.565 130.745 182.127 130.593L137.015 116.322C136.879 116.264 136.731 116.244 136.585 116.263C136.439 116.281 136.3 116.338 136.183 116.428Z" fill="#263238"/>
<path d="M197.23 26.34C196.867 27.1866 197.033 28.0786 197.593 28.3053C198.152 28.5321 198.893 28.0483 199.256 27.1866C199.618 26.3249 199.452 25.448 198.893 25.2212C198.333 24.9945 197.593 25.4782 197.23 26.34Z" fill="#263238"/>
<path d="M206.89 30.4213C206.527 31.2831 206.694 32.1599 207.253 32.4018C207.812 32.6437 208.553 32.1448 208.916 31.2831C209.279 30.4213 209.113 29.5445 208.553 29.3026C207.994 29.0607 207.253 29.5747 206.89 30.4213Z" fill="#263238"/>
<path d="M208.296 29.2568L210.594 29.529C210.594 29.529 208.856 30.693 208.296 29.2568Z" fill="#263238"/>
<path d="M203.489 30.6025C203.424 32.8785 203.673 35.1524 204.23 37.3603C203.66 37.4853 203.071 37.4852 202.502 37.3599C201.933 37.2346 201.398 36.9872 200.934 36.6346L203.489 30.6025Z" fill="#DE5753"/>
<path d="M195.506 38.4641C195.566 38.4603 195.622 38.4369 195.667 38.3978C195.712 38.3587 195.743 38.3058 195.755 38.2475C195.767 38.1891 195.76 38.1284 195.734 38.0746C195.708 38.0209 195.665 37.9772 195.612 37.9501C194.539 37.5211 193.582 36.8461 192.818 35.9796C192.054 35.113 191.504 34.0791 191.213 32.9612C191.209 32.9273 191.199 32.8946 191.182 32.8648C191.166 32.835 191.143 32.8088 191.117 32.7877C191.09 32.7666 191.059 32.751 191.026 32.7419C190.994 32.7327 190.959 32.7302 190.926 32.7344C190.89 32.7399 190.855 32.7525 190.824 32.7715C190.793 32.7906 190.766 32.8156 190.745 32.8452C190.724 32.8748 190.709 32.9084 190.701 32.9439C190.693 32.9794 190.692 33.0161 190.699 33.0519C190.994 34.2641 191.577 35.3874 192.398 36.3268C193.219 37.2662 194.254 37.9941 195.416 38.449L195.506 38.4641Z" fill="#263238"/>
<path d="M195.854 22.0309C195.944 22.0462 196.036 22.0462 196.126 22.0309C196.713 21.6791 197.373 21.4675 198.054 21.4124C198.736 21.3573 199.421 21.4604 200.057 21.7135C200.183 21.7778 200.33 21.7902 200.466 21.7478C200.601 21.7054 200.715 21.6117 200.782 21.4867C200.848 21.3578 200.86 21.2088 200.818 21.0707C200.776 20.9326 200.682 20.8162 200.556 20.7459C199.762 20.401 198.897 20.2525 198.034 20.313C197.171 20.3735 196.335 20.6413 195.597 21.0936C195.473 21.1662 195.383 21.2848 195.346 21.4236C195.309 21.5623 195.329 21.71 195.4 21.8344C195.456 21.8997 195.526 21.9514 195.604 21.9855C195.683 22.0196 195.768 22.0351 195.854 22.0309Z" fill="#263238"/>
<path d="M213.376 27.8811H213.482C213.55 27.8684 213.616 27.8423 213.674 27.8042C213.733 27.7661 213.783 27.7169 213.822 27.6593C213.862 27.6017 213.889 27.5368 213.903 27.4685C213.918 27.4002 213.918 27.3298 213.905 27.2613C213.758 26.4021 213.407 25.5909 212.881 24.8962C212.355 24.2015 211.669 23.6437 210.881 23.2701C210.747 23.2195 210.598 23.2227 210.466 23.279C210.333 23.3353 210.228 23.4404 210.171 23.5725C210.115 23.7049 210.114 23.8538 210.168 23.9869C210.222 24.12 210.326 24.2264 210.458 24.283C211.083 24.5877 211.626 25.0376 212.042 25.5952C212.457 26.1529 212.733 26.8019 212.847 27.4881C212.875 27.6052 212.943 27.7087 213.04 27.7806C213.137 27.8524 213.256 27.888 213.376 27.8811Z" fill="#263238"/>
<path d="M142.397 60.8989C140.598 62.2444 139.086 63.4992 137.514 64.8599C135.941 66.2205 134.49 67.5811 132.978 68.9871C130.03 71.8293 127.218 74.8075 124.512 77.9218C121.79 81.0522 119.265 84.3493 116.953 87.7939C116.348 88.6405 115.819 89.5627 115.26 90.4396C114.701 91.3164 114.141 92.2084 113.642 93.1306C113.143 94.0528 112.614 94.9145 112.13 95.9577L111.329 97.6206L110.679 99.329C109.291 103.618 108.636 108.111 108.744 112.618C108.836 116.811 109.287 120.989 110.09 125.105C110.892 129.111 111.902 133.072 113.113 136.973C114.332 140.852 115.76 144.662 117.392 148.387L122.849 146.361C121.912 142.733 121.02 138.923 120.355 135.159C119.613 131.431 119.073 127.666 118.737 123.881C118.372 120.214 118.286 116.524 118.48 112.845C118.591 111.099 118.808 109.363 119.13 107.644C119.445 106.053 119.906 104.494 120.506 102.988L120.959 101.944L121.473 100.977C121.882 100.281 122.441 99.465 122.985 98.7091C123.529 97.9532 123.983 97.1973 124.497 96.4263C125.011 95.6553 125.525 94.9145 126.115 94.1737C128.307 91.1501 130.801 88.4138 133.281 85.6169C135.76 82.8201 138.481 80.1744 141.248 77.6195C142.624 76.3193 144.014 75.0494 145.436 73.8097C146.857 72.5701 148.338 71.3304 149.578 70.2721L142.397 60.8989Z" fill="#E4897B"/>
<path d="M121.096 142.748L129.38 148.795L118.798 154.389C118.798 154.389 115.638 148.795 116.666 144.124L121.096 142.748Z" fill="#E4897B"/>
<path d="M132.011 158.592L123.333 161.283L118.737 154.419L129.38 148.826L132.011 158.592Z" fill="#E4897B"/>
<path d="M45.9285 333.961H46.1099C46.3734 333.929 46.6239 333.829 46.8362 333.67C47.0485 333.51 47.2151 333.298 47.3194 333.054C47.4016 332.912 47.4449 332.75 47.4449 332.585C47.4449 332.421 47.4016 332.259 47.3194 332.117C46.5786 330.847 42.4211 330.605 41.9525 330.605C41.9021 330.605 41.8529 330.62 41.8101 330.646C41.7674 330.673 41.733 330.711 41.7106 330.756C41.6807 330.801 41.6647 330.854 41.6647 330.907C41.6647 330.961 41.6807 331.014 41.7106 331.059C42.7084 332.162 44.5074 333.961 45.9285 333.961ZM42.6025 331.195C44.2655 331.316 46.4728 331.709 46.8507 332.374C46.8961 332.432 46.9207 332.504 46.9207 332.578C46.9207 332.652 46.8961 332.724 46.8507 332.782C46.7854 332.947 46.6788 333.091 46.541 333.203C46.4033 333.314 46.2392 333.388 46.0646 333.417C45.2633 333.493 44.0085 332.676 42.6025 331.195Z" fill="url(#paint21_linear_710_5512)"/>
<path d="M42.2395 331.165C43.6304 331.165 46.3668 330.394 46.8808 329.275C46.9709 329.078 46.99 328.856 46.9349 328.646C46.8798 328.437 46.7538 328.253 46.5784 328.126C46.4232 327.987 46.2411 327.882 46.0434 327.817C45.8456 327.752 45.6366 327.728 45.4294 327.748C43.7664 327.914 41.8162 330.605 41.7407 330.771C41.7182 330.813 41.7064 330.86 41.7064 330.908C41.7064 330.955 41.7182 331.002 41.7407 331.044C41.7597 331.087 41.7889 331.124 41.8258 331.153C41.8627 331.182 41.9061 331.202 41.9523 331.21L42.2395 331.165ZM45.5957 328.292C45.7076 328.29 45.8188 328.31 45.9228 328.351C46.0267 328.393 46.1211 328.455 46.2005 328.534C46.4575 328.761 46.4272 328.927 46.3819 329.048C46.0493 329.789 43.9025 330.56 42.4966 330.56C43.192 329.698 44.4921 328.337 45.5202 328.232L45.5957 328.292Z" fill="url(#paint22_linear_710_5512)"/>
<path d="M121.307 359.223C122.238 359.29 123.168 359.069 123.968 358.588C124.172 358.433 124.341 358.234 124.461 358.007C124.581 357.78 124.65 357.529 124.663 357.273C124.685 357.129 124.663 356.982 124.601 356.85C124.539 356.718 124.44 356.608 124.316 356.532C123.091 355.701 118.435 357.802 117.513 358.24C117.461 358.263 117.418 358.302 117.391 358.351C117.364 358.4 117.353 358.457 117.361 358.513C117.366 358.57 117.39 358.625 117.428 358.668C117.466 358.712 117.517 358.742 117.573 358.754C118.798 359.039 120.05 359.196 121.307 359.223ZM123.484 356.865C123.669 356.852 123.853 356.894 124.013 356.986C124.05 357.017 124.079 357.057 124.098 357.101C124.116 357.146 124.123 357.194 124.119 357.243C124.115 357.421 124.068 357.596 123.984 357.753C123.9 357.911 123.781 358.046 123.635 358.15C122.849 358.754 120.96 358.83 118.51 358.392C120.077 357.623 121.756 357.108 123.484 356.865Z" fill="url(#paint23_linear_710_5512)"/>
<path d="M117.633 358.755H117.739C119.251 358.12 122.38 355.626 122.199 354.341C122.199 354.053 121.972 353.706 121.277 353.615C118.556 353.298 117.407 358.15 117.361 358.438C117.353 358.487 117.356 358.538 117.372 358.585C117.388 358.633 117.416 358.675 117.452 358.71C117.505 358.747 117.569 358.763 117.633 358.755ZM121.02 354.144H121.201C121.489 354.144 121.655 354.265 121.67 354.401C121.761 355.142 119.614 357.122 118.057 357.984C118.404 356.79 119.342 354.144 121.02 354.144Z" fill="url(#paint24_linear_710_5512)"/>
<path d="M198.636 25.1597L200.934 25.4318C200.934 25.4318 199.21 26.5959 198.636 25.1597Z" fill="#263238"/>
<path d="M127.188 344.665L102.666 344.045L104.072 336.501L130.861 337.771L127.188 344.665Z" fill="url(#paint25_linear_710_5512)"/>
<path opacity="0.5" d="M127.188 344.665L102.666 344.045L104.072 336.501L130.861 337.771L127.188 344.665Z" fill="white"/>
<path d="M52.5048 322.533L36.2983 310.998L39.9719 303.922L57.781 317.393L52.5048 322.533Z" fill="url(#paint26_linear_710_5512)"/>
<path opacity="0.5" d="M52.5048 322.533L36.2983 310.998L39.9719 303.922L57.781 317.393L52.5048 322.533Z" fill="white"/>
<path d="M140.643 123.397L139.434 123.004C139.192 122.928 139.04 122.747 139.116 122.611L141.323 117.607C141.323 117.455 141.626 117.395 141.867 117.471L143.077 117.864C143.319 117.939 143.47 118.121 143.394 118.257L141.202 123.261C141.137 123.342 141.047 123.4 140.946 123.425C140.845 123.449 140.738 123.44 140.643 123.397Z" fill="url(#paint27_linear_710_5512)"/>
<path d="M176.624 134.826L175.414 134.448C175.173 134.357 175.037 134.176 175.097 134.04L177.304 129.036C177.304 128.885 177.622 128.824 177.864 128.9L179.073 129.293C179.315 129.293 179.451 129.55 179.391 129.686L177.183 134.69C177.123 134.826 176.79 134.826 176.624 134.826Z" fill="url(#paint28_linear_710_5512)"/>
<path d="M158.649 129.081L157.439 128.703C157.39 128.702 157.341 128.69 157.297 128.668C157.252 128.646 157.214 128.614 157.183 128.575C157.153 128.536 157.131 128.49 157.121 128.442C157.11 128.394 157.111 128.343 157.122 128.295L159.329 123.291C159.329 123.155 159.647 123.095 159.888 123.17L161.083 123.548C161.325 123.624 161.476 123.805 161.415 123.956L159.208 128.96C159.14 129.037 159.049 129.091 158.948 129.112C158.848 129.134 158.743 129.123 158.649 129.081Z" fill="url(#paint29_linear_710_5512)"/>
<path opacity="0.4" d="M140.643 123.397L139.434 123.004C139.192 122.928 139.04 122.747 139.116 122.611L141.323 117.607C141.323 117.455 141.626 117.395 141.867 117.471L143.077 117.864C143.319 117.939 143.47 118.121 143.394 118.257L141.202 123.261C141.137 123.342 141.047 123.4 140.946 123.425C140.845 123.449 140.738 123.44 140.643 123.397Z" fill="black"/>
<path opacity="0.4" d="M176.624 134.826L175.414 134.448C175.173 134.357 175.037 134.176 175.097 134.04L177.304 129.036C177.304 128.885 177.622 128.824 177.864 128.9L179.073 129.293C179.315 129.293 179.451 129.55 179.391 129.686L177.183 134.69C177.123 134.826 176.79 134.826 176.624 134.826Z" fill="black"/>
<path opacity="0.4" d="M158.649 129.081L157.439 128.703C157.39 128.702 157.341 128.69 157.297 128.668C157.252 128.646 157.214 128.614 157.183 128.575C157.153 128.536 157.131 128.49 157.121 128.442C157.11 128.394 157.111 128.343 157.122 128.295L159.329 123.291C159.329 123.155 159.647 123.095 159.888 123.17L161.083 123.548C161.325 123.624 161.476 123.805 161.415 123.956L159.208 128.96C159.14 129.037 159.049 129.091 158.948 129.112C158.848 129.134 158.743 129.123 158.649 129.081Z" fill="black"/>
<path d="M144.03 92.2391C148.308 86.1919 152.405 72.117 151.347 66.8408L147.114 72.0414C146.176 80.1447 145.163 86.6303 144.03 92.2391Z" fill="url(#paint30_linear_710_5512)"/>
<path opacity="0.5" d="M144.03 92.2391C148.308 86.1919 152.405 72.117 151.347 66.8408L147.114 72.0414C146.176 80.1447 145.163 86.6303 144.03 92.2391Z" fill="white"/>
<path d="M149.17 50.1651C143.379 49.9081 131.995 64.1341 131.995 64.1341L143.818 80.764C143.818 80.764 157.091 70.1813 158.119 62.8189C158.996 56.6809 156.547 50.5581 149.17 50.1651Z" fill="url(#paint31_linear_710_5512)"/>
<path opacity="0.6" d="M149.17 50.1651C143.379 49.9081 131.995 64.1341 131.995 64.1341L143.818 80.764C143.818 80.764 157.091 70.1813 158.119 62.8189C158.996 56.6809 156.547 50.5581 149.17 50.1651Z" fill="white"/>
<defs>
<linearGradient id="paint0_linear_710_5512" x1="-290.87" y1="2.56673" x2="-64.5069" y2="1046.9" gradientUnits="userSpaceOnUse">
<stop stop-color="#2836DD"/>
<stop offset="1" stop-color="#E0C0FF"/>
</linearGradient>
<linearGradient id="paint1_linear_710_5512" x1="265.987" y1="328.806" x2="265.987" y2="549.423" gradientUnits="userSpaceOnUse">
<stop stop-color="#6262E8"/>
<stop offset="1" stop-color="#A292F4"/>
</linearGradient>
<linearGradient id="paint2_linear_710_5512" x1="248.11" y1="332.223" x2="248.11" y2="549.423" gradientUnits="userSpaceOnUse">
<stop stop-color="#6262E8"/>
<stop offset="1" stop-color="#A292F4"/>
</linearGradient>
<linearGradient id="paint3_linear_710_5512" x1="406.408" y1="124.6" x2="406.408" y2="168.223" gradientUnits="userSpaceOnUse">
<stop stop-color="#6262E8"/>
<stop offset="1" stop-color="#A292F4"/>
</linearGradient>
<linearGradient id="paint4_linear_710_5512" x1="404.963" y1="221.361" x2="404.963" y2="420.239" gradientUnits="userSpaceOnUse">
<stop stop-color="#6262E8"/>
<stop offset="1" stop-color="#A292F4"/>
</linearGradient>
<linearGradient id="paint5_linear_710_5512" x1="370.56" y1="116.043" x2="370.56" y2="127.781" gradientUnits="userSpaceOnUse">
<stop stop-color="#6262E8"/>
<stop offset="1" stop-color="#A292F4"/>
</linearGradient>
<linearGradient id="paint6_linear_710_5512" x1="445.046" y1="428.522" x2="445.046" y2="432.652" gradientUnits="userSpaceOnUse">
<stop stop-color="#6262E8"/>
<stop offset="1" stop-color="#A292F4"/>
</linearGradient>
<linearGradient id="paint7_linear_710_5512" x1="444.737" y1="426.595" x2="444.737" y2="429.207" gradientUnits="userSpaceOnUse">
<stop stop-color="#6262E8"/>
<stop offset="1" stop-color="#A292F4"/>
</linearGradient>
<linearGradient id="paint8_linear_710_5512" x1="333.823" y1="466.636" x2="333.823" y2="469.314" gradientUnits="userSpaceOnUse">
<stop stop-color="#6262E8"/>
<stop offset="1" stop-color="#A292F4"/>
</linearGradient>
<linearGradient id="paint9_linear_710_5512" x1="335.169" y1="463.934" x2="335.169" y2="468.95" gradientUnits="userSpaceOnUse">
<stop stop-color="#6262E8"/>
<stop offset="1" stop-color="#A292F4"/>
</linearGradient>
<linearGradient id="paint10_linear_710_5512" x1="437.977" y1="402.688" x2="437.977" y2="420.815" gradientUnits="userSpaceOnUse">
<stop stop-color="#6262E8"/>
<stop offset="1" stop-color="#A292F4"/>
</linearGradient>
<linearGradient id="paint11_linear_710_5512" x1="366.268" y1="230.126" x2="366.268" y2="301.821" gradientUnits="userSpaceOnUse">
<stop stop-color="#6262E8"/>
<stop offset="1" stop-color="#A292F4"/>
</linearGradient>
<linearGradient id="paint12_linear_710_5512" x1="350.005" y1="221.361" x2="350.005" y2="453.71" gradientUnits="userSpaceOnUse">
<stop stop-color="#6262E8"/>
<stop offset="1" stop-color="#A292F4"/>
</linearGradient>
<linearGradient id="paint13_linear_710_5512" x1="342.171" y1="446.258" x2="342.171" y2="454.059" gradientUnits="userSpaceOnUse">
<stop stop-color="#6262E8"/>
<stop offset="1" stop-color="#A292F4"/>
</linearGradient>
<linearGradient id="paint14_linear_710_5512" x1="368.525" y1="121.916" x2="368.525" y2="221.362" gradientUnits="userSpaceOnUse">
<stop stop-color="#6262E8"/>
<stop offset="1" stop-color="#A292F4"/>
</linearGradient>
<linearGradient id="paint15_linear_710_5512" x1="332.56" y1="124.747" x2="332.56" y2="171.185" gradientUnits="userSpaceOnUse">
<stop stop-color="#6262E8"/>
<stop offset="1" stop-color="#A292F4"/>
</linearGradient>
<linearGradient id="paint16_linear_710_5512" x1="203.546" y1="66.8374" x2="203.546" y2="100.524" gradientUnits="userSpaceOnUse">
<stop stop-color="#6262E8"/>
<stop offset="1" stop-color="#A292F4"/>
</linearGradient>
<linearGradient id="paint17_linear_710_5512" x1="197.895" y1="87.3257" x2="197.895" y2="100.524" gradientUnits="userSpaceOnUse">
<stop stop-color="#6262E8"/>
<stop offset="1" stop-color="#A292F4"/>
</linearGradient>
<linearGradient id="paint18_linear_710_5512" x1="171.606" y1="50.1953" x2="171.606" y2="133.314" gradientUnits="userSpaceOnUse">
<stop stop-color="#6262E8"/>
<stop offset="1" stop-color="#A292F4"/>
</linearGradient>
<linearGradient id="paint19_linear_710_5512" x1="142.579" y1="123.065" x2="142.579" y2="343.607" gradientUnits="userSpaceOnUse">
<stop stop-color="#6262E8"/>
<stop offset="1" stop-color="#A292F4"/>
</linearGradient>
<linearGradient id="paint20_linear_710_5512" x1="105.078" y1="119.255" x2="105.078" y2="317.967" gradientUnits="userSpaceOnUse">
<stop stop-color="#6262E8"/>
<stop offset="1" stop-color="#A292F4"/>
</linearGradient>
<linearGradient id="paint21_linear_710_5512" x1="44.5548" y1="330.605" x2="44.5548" y2="333.961" gradientUnits="userSpaceOnUse">
<stop stop-color="#6262E8"/>
<stop offset="1" stop-color="#A292F4"/>
</linearGradient>
<linearGradient id="paint22_linear_710_5512" x1="44.3361" y1="327.741" x2="44.3361" y2="331.21" gradientUnits="userSpaceOnUse">
<stop stop-color="#6262E8"/>
<stop offset="1" stop-color="#A292F4"/>
</linearGradient>
<linearGradient id="paint23_linear_710_5512" x1="121.015" y1="356.339" x2="121.015" y2="359.235" gradientUnits="userSpaceOnUse">
<stop stop-color="#6262E8"/>
<stop offset="1" stop-color="#A292F4"/>
</linearGradient>
<linearGradient id="paint24_linear_710_5512" x1="119.782" y1="353.6" x2="119.782" y2="358.757" gradientUnits="userSpaceOnUse">
<stop stop-color="#6262E8"/>
<stop offset="1" stop-color="#A292F4"/>
</linearGradient>
<linearGradient id="paint25_linear_710_5512" x1="116.764" y1="336.501" x2="116.764" y2="344.665" gradientUnits="userSpaceOnUse">
<stop stop-color="#6262E8"/>
<stop offset="1" stop-color="#A292F4"/>
</linearGradient>
<linearGradient id="paint26_linear_710_5512" x1="47.0396" y1="303.922" x2="47.0396" y2="322.533" gradientUnits="userSpaceOnUse">
<stop stop-color="#6262E8"/>
<stop offset="1" stop-color="#A292F4"/>
</linearGradient>
<linearGradient id="paint27_linear_710_5512" x1="141.255" y1="117.438" x2="141.255" y2="123.438" gradientUnits="userSpaceOnUse">
<stop stop-color="#6262E8"/>
<stop offset="1" stop-color="#A292F4"/>
</linearGradient>
<linearGradient id="paint28_linear_710_5512" x1="177.244" y1="128.867" x2="177.244" y2="134.826" gradientUnits="userSpaceOnUse">
<stop stop-color="#6262E8"/>
<stop offset="1" stop-color="#A292F4"/>
</linearGradient>
<linearGradient id="paint29_linear_710_5512" x1="159.271" y1="123.137" x2="159.271" y2="129.123" gradientUnits="userSpaceOnUse">
<stop stop-color="#6262E8"/>
<stop offset="1" stop-color="#A292F4"/>
</linearGradient>
<linearGradient id="paint30_linear_710_5512" x1="147.773" y1="66.8408" x2="147.773" y2="92.2391" gradientUnits="userSpaceOnUse">
<stop stop-color="#6262E8"/>
<stop offset="1" stop-color="#A292F4"/>
</linearGradient>
<linearGradient id="paint31_linear_710_5512" x1="145.142" y1="50.1616" x2="145.142" y2="80.764" gradientUnits="userSpaceOnUse">
<stop stop-color="#6262E8"/>
<stop offset="1" stop-color="#A292F4"/>
</linearGradient>
</defs>
</svg>
