<svg width="568" height="550" viewBox="0 0 568 550" fill="none" xmlns="http://www.w3.org/2000/svg">
<path d="M530.881 545.988C531.585 546.353 532.027 547.081 532.027 547.874C532.027 549.048 531.076 549.999 529.902 549.999H28.0539C12.59 549.999 0.053894 537.463 0.053894 521.999V356.93C0.053894 341.716 12.3878 329.382 27.6025 329.382C32.9566 329.382 38.1947 330.942 42.6762 333.872L90.2519 364.972C94.8068 367.95 100.131 369.535 105.573 369.535H147.476C152.917 369.535 158.241 371.121 162.795 374.098L216.425 409.151C219.593 411.222 221.503 414.752 221.503 418.537C221.503 424.73 226.523 429.751 232.716 429.751H242.319C246.365 429.751 250.322 430.929 253.708 433.142L316.297 474.05C320.852 477.027 326.175 478.612 331.616 478.612H364.6C370.042 478.612 375.366 480.198 379.921 483.175L427.822 514.489C432.377 517.467 437.701 519.053 443.143 519.053H472.159C476.649 519.053 481.074 520.133 485.059 522.201L530.881 545.988Z" fill="url(#paint0_linear_902_8139)"/>
<path opacity="0.2" d="M530.881 545.988C531.585 546.353 532.027 547.081 532.027 547.874C532.027 549.048 531.076 549.999 529.902 549.999H18.0539C8.11279 549.999 0.053894 541.94 0.053894 531.999V347.382C0.053894 337.441 8.11273 329.382 18.0539 329.382H30.4467C33.9449 329.382 37.3675 330.401 40.2956 332.315L92.745 366.602C95.6732 368.516 99.0957 369.535 102.594 369.535H150.454C153.952 369.535 157.374 370.555 160.302 372.468L216.425 409.151C219.593 411.222 221.503 414.752 221.503 418.537C221.503 424.73 226.523 429.751 232.716 429.751H243.158C246.656 429.751 250.078 430.77 253.006 432.683L318.79 475.679C321.718 477.593 325.14 478.612 328.638 478.612H367.579C371.077 478.612 374.5 479.631 377.428 481.546L430.316 516.119C433.244 518.033 436.666 519.053 440.165 519.053H474.6C477.486 519.053 480.331 519.747 482.893 521.077L530.881 545.988Z" fill="black"/>
<path d="M446.221 524.018C459.013 530.658 454.292 550 439.88 550H18.0541C8.11295 550 0.0540771 541.941 0.0540771 532V366.063C0.0540771 351.762 15.9283 343.172 27.9005 350.995L56.992 370.005C59.9196 371.918 63.3411 372.937 66.8383 372.937H114.7C118.198 372.937 121.62 373.956 124.548 375.87L180.666 412.55C183.838 414.623 185.749 418.156 185.749 421.944C185.749 428.143 190.774 433.167 196.972 433.167H207.404C210.902 433.167 214.324 434.187 217.252 436.1L283.036 479.096C285.964 481.01 289.386 482.029 292.884 482.029H331.824C335.323 482.029 338.746 483.049 341.675 484.964L394.546 519.535C397.475 521.45 400.898 522.47 404.397 522.47H439.88C442.087 522.47 444.262 523.001 446.221 524.018Z" fill="url(#paint1_linear_902_8139)"/>
<path d="M391.521 142.493C393.637 144.957 396.056 147.709 398.127 150.415C400.199 153.121 402.466 155.873 404.522 158.67C408.624 164.093 412.318 169.813 415.574 175.783L416.677 177.975L417.085 178.807C417.206 179.034 417.297 179.351 417.418 179.623C417.905 181.015 418.294 182.44 418.582 183.886C419.217 187.031 419.701 190.448 420.094 193.91C420.804 200.834 421.273 208.075 421.712 215.181L430.011 215.922C431.615 208.571 432.626 201.104 433.035 193.592C433.249 189.683 433.199 185.763 432.884 181.861C432.728 179.699 432.39 177.555 431.871 175.451C431.705 174.861 431.584 174.302 431.357 173.682C431.13 173.062 430.918 172.382 430.752 171.989L429.618 169.207C428.073 165.577 426.311 162.043 424.342 158.624C422.452 155.238 420.351 152.033 418.295 148.888C416.239 145.744 413.896 142.69 411.522 139.817C410.343 138.306 409.133 136.794 407.909 135.418C406.684 134.042 405.46 132.606 404.039 131.079L391.521 142.493Z" fill="#E4897B"/>
<path d="M388.784 146.303C390.296 149.1 392.005 151.806 393.652 154.331C396.495 158.7 399.246 162.48 401.211 165.08C402.98 167.423 404.114 168.799 404.114 168.799L426.504 153.545C426.504 153.545 412.898 127.058 402.421 125.365C391.627 123.657 381.755 133.755 388.784 146.303Z" fill="url(#paint2_linear_902_8139)"/>
<path opacity="0.3" d="M388.784 146.303C390.296 149.1 392.005 151.806 393.652 154.331C396.495 158.7 399.246 162.48 401.211 165.08C402.98 167.423 404.114 168.799 404.114 168.799L426.504 153.545C426.504 153.545 412.898 127.058 402.421 125.365C391.627 123.657 381.755 133.755 388.784 146.303Z" fill="black"/>
<path d="M349.341 469.315H338.244L337.141 443.599H348.237L349.341 469.315Z" fill="#E4897B"/>
<path d="M457.345 421.405L448.334 427.906L427.078 411.533L436.089 405.032L457.345 421.405Z" fill="#E4897B"/>
<path d="M337.141 443.599L337.701 456.858H348.812L348.253 443.599H337.141Z" fill="#CE6F64"/>
<path d="M436.088 405.032L427.078 411.533L438.054 419.969L447.049 413.468L436.088 405.032Z" fill="#CE6F64"/>
<path d="M360.604 221.938C360.604 221.938 359.335 300.975 369.267 331.967C384.99 381.055 432.491 420.815 432.491 420.815L449.483 408.555C449.483 408.555 409.95 374.962 402.617 333.63C396.102 296.485 398.868 252.279 398.868 221.938H360.604Z" fill="url(#paint3_linear_902_8139)"/>
<path opacity="0.7" d="M360.604 221.938C360.604 221.938 359.335 300.975 369.267 331.967C384.99 381.055 432.491 420.815 432.491 420.815L449.483 408.555C449.483 408.555 409.95 374.962 402.617 333.63C396.102 296.485 398.868 252.279 398.868 221.938H360.604Z" fill="white"/>
<path d="M421.318 213.14L417.312 220.336L431.341 222.422C431.341 222.422 432.778 216.375 429.316 212.203L421.318 213.14Z" fill="#E4897B"/>
<path d="M415.196 229.906L426.867 231.085L431.342 222.422L417.312 220.336L415.196 229.906Z" fill="#E4897B"/>
<path d="M350.49 84.6814C350.354 85.5583 349.78 86.1932 349.19 86.1932C348.6 86.1932 348.268 85.3012 348.404 84.4244C348.54 83.5476 349.114 82.9126 349.704 82.9126C350.294 82.9126 350.626 83.7894 350.49 84.6814Z" fill="#263238"/>
<path d="M349.855 86.2236C348.378 88.76 346.556 91.0799 344.443 93.1175C344.974 93.6531 345.617 94.066 346.324 94.3271C347.032 94.5883 347.788 94.6914 348.54 94.6293L349.855 86.2236Z" fill="#DE5753"/>
<path d="M354.482 80.267C354.549 80.269 354.616 80.2577 354.679 80.2338C354.743 80.2098 354.8 80.1736 354.85 80.1272C354.899 80.0809 354.938 80.0253 354.966 79.9637C354.994 79.9021 355.009 79.8356 355.011 79.7681C355.011 79.6948 354.996 79.6222 354.968 79.5546C354.939 79.4871 354.897 79.426 354.844 79.3751C354.264 78.7797 353.549 78.3319 352.76 78.0689C351.971 77.8059 351.131 77.7354 350.309 77.8633C350.241 77.8758 350.176 77.902 350.118 77.9403C350.06 77.9786 350.011 78.0282 349.973 78.0861C349.935 78.144 349.909 78.209 349.896 78.2772C349.884 78.3455 349.885 78.4155 349.901 78.4831C349.914 78.5497 349.939 78.6132 349.977 78.6698C350.014 78.7264 350.062 78.7751 350.118 78.8131C350.174 78.851 350.238 78.8775 350.304 78.8909C350.371 78.9043 350.439 78.9045 350.506 78.8913C351.159 78.8022 351.825 78.8695 352.448 79.0876C353.071 79.3057 353.633 79.6685 354.089 80.1461C354.142 80.193 354.204 80.2281 354.272 80.2489C354.34 80.2698 354.411 80.276 354.482 80.267Z" fill="#263238"/>
<path d="M380.031 94.4331C378.428 102.551 376.841 117.443 382.525 122.855C382.525 122.855 380.303 131.109 365.215 131.109C348.585 131.109 357.278 122.855 357.278 122.855C366.349 120.693 366.107 113.981 364.52 107.737L380.031 94.4331Z" fill="#E4897B"/>
<path d="M388.693 128.358C386.894 125.546 389.918 118.773 389.918 118.773C389.918 118.773 363.174 112.045 352.259 122.371C349.991 124.503 352.501 127.647 352.501 127.647L388.693 128.358Z" fill="url(#paint4_linear_902_8139)"/>
<path d="M443.588 433.228C444.994 433.228 447.05 430.476 447.624 429.494C447.653 429.451 447.668 429.401 447.668 429.35C447.668 429.299 447.653 429.249 447.624 429.206C447.594 429.168 447.554 429.139 447.509 429.12C447.464 429.102 447.415 429.095 447.367 429.101C447.216 429.101 443.572 429.887 442.726 431.323C442.629 431.474 442.567 431.644 442.544 431.822C442.52 431.999 442.536 432.18 442.59 432.351C442.801 433.001 443.195 433.182 443.482 433.213L443.588 433.228ZM446.838 429.766C445.886 431.157 444.313 432.789 443.527 432.699C443.452 432.699 443.225 432.699 443.074 432.185C443.043 432.086 443.035 431.981 443.051 431.879C443.067 431.777 443.105 431.68 443.164 431.595C444.181 430.624 445.457 429.968 446.838 429.705V429.766Z" fill="url(#paint5_linear_902_8139)"/>
<path d="M445.598 429.782C446.235 429.797 446.872 429.72 447.488 429.555C447.525 429.53 447.556 429.496 447.577 429.457C447.598 429.417 447.609 429.373 447.609 429.328C447.609 429.283 447.598 429.239 447.577 429.199C447.556 429.16 447.525 429.126 447.488 429.101C447.382 429.01 444.887 427.015 443.24 427.181C443.038 427.203 442.844 427.266 442.667 427.364C442.491 427.463 442.336 427.596 442.211 427.756C442.073 427.899 441.989 428.087 441.975 428.286C441.961 428.485 442.018 428.683 442.136 428.844C442.68 429.509 444.222 429.782 445.598 429.782ZM446.792 429.177C445.386 429.388 443.073 429.177 442.635 428.542C442.599 428.465 442.587 428.379 442.601 428.296C442.614 428.212 442.652 428.135 442.71 428.073C442.789 427.969 442.889 427.883 443.004 427.82C443.119 427.758 443.245 427.72 443.376 427.71C444.637 427.842 445.828 428.353 446.792 429.177Z" fill="url(#paint6_linear_902_8139)"/>
<path d="M333.785 469.89C334.926 469.875 336.063 469.769 337.187 469.572C337.24 469.564 337.289 469.538 337.327 469.5C337.365 469.463 337.39 469.414 337.399 469.361C337.408 469.307 337.4 469.251 337.375 469.202C337.351 469.153 337.311 469.113 337.263 469.089C337.096 468.998 333.226 466.775 331.367 467.289C331.194 467.328 331.031 467.402 330.888 467.506C330.746 467.61 330.625 467.742 330.535 467.894C330.417 468.062 330.353 468.263 330.353 468.469C330.353 468.674 330.417 468.875 330.535 469.043C330.973 469.693 332.349 469.89 333.785 469.89ZM336.34 469.179C334.269 469.482 331.457 469.451 330.943 468.741C330.868 468.551 330.868 468.341 330.943 468.151C331 468.056 331.077 467.975 331.168 467.912C331.26 467.85 331.363 467.807 331.472 467.788C332.652 467.486 334.98 468.484 336.34 469.179Z" fill="url(#paint7_linear_902_8139)"/>
<path d="M337.095 469.511H337.247C337.284 469.484 337.314 469.447 337.333 469.405C337.352 469.362 337.358 469.315 337.352 469.269C337.228 467.688 336.609 466.186 335.584 464.976C335.375 464.803 335.133 464.674 334.874 464.596C334.614 464.518 334.341 464.493 334.072 464.522C333.846 464.496 333.619 464.559 333.438 464.697C333.258 464.835 333.138 465.038 333.104 465.263C332.893 466.518 335.553 468.922 336.884 469.526L337.095 469.511ZM334.374 464.976C334.71 464.981 335.034 465.098 335.296 465.308C336.136 466.273 336.663 467.47 336.808 468.74C335.432 467.909 333.633 466.019 333.785 465.278C333.785 465.278 333.785 465.021 334.299 464.976H334.374Z" fill="url(#paint8_linear_902_8139)"/>
<path d="M447.049 427.815L455.682 418.745C455.837 418.587 456.041 418.486 456.26 418.459C456.48 418.431 456.702 418.479 456.891 418.593L465.523 423.854C465.706 423.963 465.866 424.107 465.993 424.278C466.12 424.449 466.213 424.643 466.265 424.849C466.317 425.056 466.327 425.271 466.296 425.481C466.265 425.692 466.192 425.894 466.083 426.077C466.009 426.192 465.923 426.298 465.826 426.394C462.802 429.418 461.109 430.824 457.314 434.785C454.971 437.219 448.606 445.776 445.386 449.147C442.166 452.518 438.402 449.752 439.43 448.089C443.965 440.62 446.172 433.212 446.293 429.524C446.324 428.88 446.593 428.271 447.049 427.815Z" fill="#263238"/>
<path d="M338.32 468H350.415C350.634 467.999 350.847 468.073 351.018 468.211C351.189 468.349 351.307 468.541 351.352 468.756L353.559 478.583C353.654 479 353.58 479.437 353.354 479.8C353.127 480.162 352.766 480.421 352.35 480.518C352.219 480.533 352.087 480.533 351.957 480.518C347.572 480.518 341.253 480.185 335.75 480.185C329.325 480.185 323.777 480.533 316.233 480.533C311.697 480.533 310.412 475.922 312.317 475.514C321.01 473.609 328.1 473.397 335.614 468.771C336.428 468.271 337.364 468.004 338.32 468Z" fill="#263238"/>
<path opacity="0.3" d="M393.653 154.33C396.495 158.699 399.247 162.479 401.212 165.079C400.985 159.879 399.912 151.473 395.875 145.063C394.409 146.514 393.819 150.264 393.653 154.33Z" fill="black"/>
<path d="M332.561 136.324C331.956 137.277 330.852 138.728 329.839 140.073C328.827 141.419 327.663 142.795 326.514 144.155C324.2 146.861 321.842 149.553 319.378 152.138C314.633 157.275 309.431 161.971 303.836 166.167C302.537 167.117 301.189 168 299.8 168.813L298.878 169.342C298.772 169.342 298.727 169.478 298.53 169.539L298.288 169.644L297.956 169.75C297.708 169.827 297.455 169.887 297.2 169.932C294.187 170.353 291.129 170.312 288.129 169.811C281.045 168.69 274.045 167.094 267.175 165.033L263.592 172.592C270.327 176.947 277.626 180.36 285.287 182.737C289.618 184.139 294.161 184.779 298.711 184.626C299.395 184.593 300.076 184.523 300.752 184.415L301.796 184.218L302.914 183.946C303.698 183.734 304.466 183.466 305.212 183.145L305.681 182.948L306.059 182.767L306.815 182.404C308.765 181.452 310.655 180.408 312.499 179.275C319.304 174.843 325.61 169.688 331.306 163.9C334.103 161.072 336.824 158.2 339.379 155.146C340.679 153.634 341.934 152.123 343.189 150.429C344.56 148.677 345.817 146.839 346.953 144.926L332.561 136.324Z" fill="#E4897B"/>
<path d="M268.959 167.044L261.581 158.261L256.562 171.081C256.562 171.081 262.927 174.104 267.886 172.366L268.959 167.044Z" fill="#E4897B"/>
<path d="M250.757 156.356L248.701 166.606L256.562 171.081L261.566 158.261L250.757 156.356Z" fill="#E4897B"/>
<path d="M380.304 87.4181C377.945 98.1821 377.099 104.607 370.734 109.324C361.164 116.43 348.525 109.324 347.633 98.0914C346.832 87.9624 350.839 72.0582 362.147 69.3672C364.641 68.7673 367.248 68.8162 369.718 69.509C372.189 70.2019 374.441 71.5158 376.259 73.3255C378.078 75.1352 379.403 77.3804 380.109 79.8473C380.814 82.3141 380.876 84.9205 380.288 87.4181H380.304Z" fill="#E4897B"/>
<path d="M384.853 66.3888C394.302 66.6458 395.436 75.9434 390.75 78.6798C390.75 78.6798 396.192 81.2952 393.395 87.539C389.132 97.018 380.968 107.434 372.623 106.86C362.267 106.149 359.319 94.8712 359.682 83.7443C354.224 78.5891 357.52 76.0795 352.123 72.9349C342.568 67.3715 337.731 51.422 353.635 51.6639C369.932 51.9209 360.74 65.7387 384.853 66.3888Z" fill="#263238"/>
<path d="M389.57 77.3186C389.57 77.3186 393.213 79.2084 398.822 75.9429C396.872 80.7202 390.885 82.6855 389.57 77.3186Z" fill="#263238"/>
<path d="M365.366 86.42C365.073 89.1444 363.888 91.6956 361.995 93.6767C359.485 96.2619 357.021 94.5082 356.703 91.2427C356.416 88.3098 357.384 83.4267 360.392 82.066C363.401 80.7054 365.683 83.1243 365.366 86.42Z" fill="#E4897B"/>
<path d="M425.264 417.234L432.233 421.391L450.798 407.997L444.615 403.265L425.264 417.234Z" fill="url(#paint9_linear_902_8139)"/>
<path d="M371.701 235.515C373.803 249.756 366.38 289.41 363.81 302.397C361.119 278.117 360.62 249.317 360.574 233.595C366.017 229.906 370.734 228.953 371.701 235.515Z" fill="url(#paint10_linear_902_8139)"/>
<path opacity="0.4" d="M371.701 235.515C373.803 249.756 366.38 289.41 363.81 302.397C361.119 278.117 360.62 249.317 360.574 233.595C366.017 229.906 370.734 228.953 371.701 235.515Z" fill="white"/>
<path d="M339.545 221.938C339.545 221.938 322.81 292.841 321.63 326.706C320.315 364.697 333.574 454.287 333.574 454.287H352.381C352.381 454.287 354.694 364.002 355.54 329.397C356.447 291.677 378.58 221.938 378.58 221.938H339.545Z" fill="url(#paint11_linear_902_8139)"/>
<path opacity="0.7" d="M339.545 221.938C339.545 221.938 322.81 292.841 321.63 326.706C320.315 364.697 333.574 454.287 333.574 454.287H352.381C352.381 454.287 354.694 364.002 355.54 329.397C356.447 291.677 378.58 221.938 378.58 221.938H339.545Z" fill="white"/>
<path d="M329.945 446.834C329.854 446.834 331.003 454.635 331.003 454.635H353.892L354.512 447.665L329.945 446.834Z" fill="url(#paint12_linear_902_8139)"/>
<path d="M334.737 162.146C334.737 165.926 334.828 170.083 335.04 174.664C335.584 187.121 336.945 202.648 339.575 221.938H398.944C399.352 212.867 393.622 168.33 402.421 125.364C395.825 124.098 389.154 123.259 382.45 122.855C374.041 122.371 365.612 122.371 357.203 122.855C351.44 123.43 345.73 124.441 340.119 125.878C340.119 125.878 334.722 132.122 334.737 162.146Z" fill="url(#paint13_linear_902_8139)"/>
<path opacity="0.3" d="M334.737 162.146C334.737 165.926 334.828 170.083 335.04 174.664C335.584 187.121 336.945 202.648 339.575 221.938H398.944C399.352 212.867 393.622 168.33 402.421 125.364C395.825 124.098 389.154 123.259 382.45 122.855C374.041 122.371 365.612 122.371 357.203 122.855C351.44 123.43 345.73 124.441 340.119 125.878C340.119 125.878 334.722 132.122 334.737 162.146Z" fill="black"/>
<path opacity="0.3" d="M334.737 162.146C334.737 165.926 334.828 170.083 335.039 174.664C342.009 167.861 342.478 153.967 342.478 153.967L334.737 162.146Z" fill="black"/>
<path d="M356.024 138.895C354.709 149.477 330.701 171.761 330.701 171.761L309.082 154.633C314.514 146.589 320.872 139.211 328.025 132.651C343.657 119.075 357.611 126.241 356.024 138.895Z" fill="url(#paint14_linear_902_8139)"/>
<path opacity="0.3" d="M356.024 138.895C354.709 149.477 330.701 171.761 330.701 171.761L309.082 154.633C314.514 146.589 320.872 139.211 328.025 132.651C343.657 119.075 357.611 126.241 356.024 138.895Z" fill="black"/>
<path d="M102.72 359.891L113.832 360.979L125.397 334.523L114.286 333.434L102.72 359.891Z" fill="#E4897B"/>
<path d="M28.7631 326.631L38.4387 332.86L55.9756 312.465L46.3001 306.237L28.7631 326.631Z" fill="#E4897B"/>
<path d="M125.383 334.538L119.426 348.174H107.831L114.271 333.449L125.383 334.538Z" fill="#CE6F64"/>
<path d="M46.285 306.237L55.9756 312.465L46.9199 322.972L37.2444 316.744L46.285 306.237Z" fill="#CE6F64"/>
<path d="M198.01 77.4407C198.252 81.5528 198.766 85.3021 199.356 89.2025C199.945 93.103 200.777 96.8825 201.714 100.707C203.542 108.498 206.373 116.019 210.135 123.082C211.125 124.914 212.231 126.681 213.446 128.373C214.625 130.051 215.88 131.593 217.134 133.09C219.644 136.114 222.244 138.911 224.89 141.677C230.227 147.165 235.669 152.411 241.52 157.415L245.723 153.363C241.081 147.483 236.319 141.662 231.799 135.766C227.279 129.87 222.592 124.004 219.705 118.108C216.755 111.679 214.534 104.94 213.083 98.0163C212.282 94.5089 211.677 90.926 211.102 87.4337C210.528 83.9414 210.105 80.1619 209.787 76.8511L198.01 77.4407Z" fill="#E4897B"/>
<path d="M202.636 2.48477C210.739 2.48477 219.931 11.1776 219.553 23.65C219.175 36.1224 216.529 54.642 235.805 71.7859C228.881 86.9039 196.316 101.069 174.577 90.4113C153.971 80.3124 162.482 24.3303 177.162 9.66584C185.386 1.45675 194.986 -1.29474 202.636 2.48477Z" fill="#263238"/>
<path d="M189.181 78.8618C189.785 82.5203 192.824 89.4444 195.228 94.5845C197.012 98.3036 198.463 101.1 198.463 101.1L200.58 100.163L218.102 92.3622C216.771 82.9134 214.609 72.7087 204.193 68.0675C197.692 65.1951 188.107 72.3308 189.181 78.8618Z" fill="url(#paint15_linear_902_8139)"/>
<path opacity="0.6" d="M189.181 78.8618C189.785 82.5203 192.824 89.4444 195.228 94.5845C197.012 98.3036 198.463 101.1 198.463 101.1L200.58 100.163L218.102 92.3622C216.771 82.9134 214.609 72.7087 204.193 68.0675C197.692 65.1951 188.107 72.3308 189.181 78.8618Z" fill="white"/>
<path d="M195.273 94.584C197.057 98.3031 198.508 101.1 198.508 101.1L200.625 100.163C200.338 96.4284 199.597 90.5475 197.601 87.9019C196.358 89.9378 195.564 92.2162 195.273 94.584Z" fill="url(#paint16_linear_902_8139)"/>
<path opacity="0.5" d="M195.273 94.69C197.057 98.409 198.508 101.206 198.508 101.206L200.625 100.269C200.338 96.5344 199.597 90.6535 197.601 88.0078C196.358 90.0438 195.564 92.3221 195.273 94.69Z" fill="white"/>
<path d="M136.026 119.831L180.624 133.89C211.465 72.8741 207.081 69.6388 207.081 69.6388C207.081 69.6388 199.96 65.572 192.553 62.1856L189.181 60.6738C182.601 58.0545 175.841 55.9123 168.953 54.2638C167.94 53.9916 166.928 53.7497 165.93 53.5079C160.445 52.2716 154.892 51.3579 149.3 50.7715C148.635 59.2225 147.97 66.3733 147.244 72.5868C146.307 80.6901 145.294 87.1757 144.22 92.7845C142.212 102.003 139.472 111.047 136.026 119.831Z" fill="url(#paint17_linear_902_8139)"/>
<path opacity="0.6" d="M136.026 119.831L180.624 133.89C211.465 72.8741 207.081 69.6388 207.081 69.6388C207.081 69.6388 199.96 65.572 192.553 62.1856L189.181 60.6738C182.601 58.0545 175.841 55.9123 168.953 54.2638C167.94 53.9916 166.928 53.7497 165.93 53.5079C160.445 52.2716 154.892 51.3579 149.3 50.7715C148.635 59.2225 147.97 66.3733 147.244 72.5868C146.307 80.6901 145.294 87.1757 144.22 92.7845C142.212 102.003 139.472 111.047 136.026 119.831Z" fill="white"/>
<path d="M180.624 133.891C180.624 133.891 182.136 225.204 170.207 258.192C158.718 289.819 124.445 344.183 124.445 344.183L104.58 343.669C104.58 343.669 136.131 274.837 141.317 247.609C149.889 202.451 147.999 123.641 147.999 123.641L180.624 133.891Z" fill="url(#paint18_linear_902_8139)"/>
<path opacity="0.4" d="M180.624 133.891C180.624 133.891 182.136 225.204 170.207 258.192C158.718 289.819 124.445 344.183 124.445 344.183L104.58 343.669C104.58 343.669 136.131 274.837 141.317 247.609C149.889 202.451 147.999 123.641 147.999 123.641L180.624 133.891Z" fill="black"/>
<path opacity="0.3" d="M162.785 141.737L157.448 126.619L148 123.595C148 123.595 148.861 159.47 146.79 196.676C155.362 180.242 162.785 150.006 162.785 141.737Z" fill="black"/>
<path d="M170.797 130.989C170.797 130.989 139.805 201.877 119.773 242.227C103.597 274.807 53.2541 318.543 53.2541 318.543L39.4665 308.973C39.4665 308.973 77.3372 257.179 88.5094 235.076C124.264 164.354 115.45 135.207 136.01 119.832L170.797 130.989Z" fill="url(#paint19_linear_902_8139)"/>
<path opacity="0.4" d="M170.797 130.989C170.797 130.989 139.805 201.877 119.773 242.227C103.597 274.807 53.2541 318.543 53.2541 318.543L39.4665 308.973C39.4665 308.973 77.3372 257.179 88.5094 235.076C124.264 164.354 115.45 135.207 136.01 119.832L170.797 130.989Z" fill="black"/>
<path d="M243.031 152.29L253.13 154.164L245.979 163.84C245.979 163.84 240.703 160.166 239.599 155.51L243.031 152.29Z" fill="#E4897B"/>
<path d="M259.752 161.814L253.115 168.012L245.995 163.84L253.13 154.164L259.752 161.814Z" fill="#E4897B"/>
<path d="M42.0064 329.805L31.4994 322.246C31.3215 322.115 31.1021 322.054 30.8823 322.073C30.6624 322.093 30.4572 322.192 30.3051 322.352L23.1391 329.805C22.8131 330.168 22.6444 330.646 22.6699 331.133C22.6954 331.621 22.9131 332.078 23.2752 332.405L23.4415 332.541C27.1605 335.096 29.0805 336.155 33.6915 339.465C36.5337 341.506 42.5204 346.435 46.4511 349.247C50.3818 352.059 53.3601 348.325 51.9843 346.813C45.7859 339.979 44.1381 335.323 43.1554 331.468C42.9745 330.798 42.5688 330.211 42.0064 329.805Z" fill="#263238"/>
<path d="M115.299 357.547H101.693C101.449 357.554 101.213 357.638 101.02 357.788C100.827 357.937 100.687 358.144 100.619 358.379L97.5958 369.173C97.5335 369.388 97.5142 369.612 97.5391 369.834C97.5639 370.056 97.6325 370.271 97.7407 370.466C97.8488 370.661 97.9946 370.833 98.1695 370.972C98.3445 371.111 98.5451 371.214 98.7599 371.274C98.9254 371.298 99.0933 371.298 99.2588 371.274H130.719C135.708 371.274 136.767 366.225 134.68 365.772C125.428 363.715 120.091 360.904 117.234 358.213C116.697 357.753 116.005 357.515 115.299 357.547Z" fill="#263238"/>
<path d="M165.899 53.5386V54.3398C165.899 54.8085 166.216 65.633 177.283 74.1747L178.401 75.0364L179.762 74.7341C185.628 73.4642 189.528 71.0301 191.388 67.5076C192.25 65.8725 192.642 64.0306 192.522 62.1861L189.15 60.6743C182.57 58.055 175.81 55.9128 168.922 54.2642C167.925 54.0224 166.912 53.7653 165.899 53.5386Z" fill="white"/>
<path d="M178.145 32.1465C177.359 39.0554 174.864 51.3917 168.938 54.2944C168.938 54.2944 169.089 64.0304 179.143 71.786C192.462 68.8833 189.166 60.7045 189.166 60.7045C182.454 56.6679 184.343 51.3464 187.216 46.69L178.145 32.1465Z" fill="#E4897B"/>
<path d="M181.833 38.0732L187.2 46.6754C186.518 47.756 185.931 48.8941 185.446 50.077C182.801 48.7919 179.399 44.9822 180.034 41.9888C180.395 40.5864 181.004 39.2602 181.833 38.0732Z" fill="#CE6F64"/>
<path d="M181.289 16.7411C177.48 27.5203 175.65 31.9953 178.659 39.6299C183.194 51.1045 197.254 53.4175 204.208 44.0141C210.452 35.5329 215.622 19.3566 207.126 10.7544C204.215 7.81953 200.258 6.16119 196.124 6.14418C191.99 6.12716 188.019 7.75288 185.084 10.6637C183.358 12.3624 182.058 14.4448 181.289 16.7411Z" fill="#E4897B"/>
<path d="M195.561 4.17773C199.22 8.15378 191.706 24.7836 180.246 27.3386C168.787 29.8935 178.039 11.8123 178.039 11.8123L195.561 4.17773Z" fill="#263238"/>
<path d="M194.367 8.83419C193.943 13.3696 212.161 20.2181 213.718 23.5743C212.962 18.1167 212.705 11.7217 205.826 7.18633C198.947 2.65092 193.278 4.41973 193.278 4.41973L194.367 8.83419Z" fill="#263238"/>
<path d="M195.712 9.01514C195.712 9.01514 197.723 14.2309 205.388 20.6107C199.344 18.885 194.166 14.9585 190.874 9.60474L195.712 9.01514Z" fill="#263238"/>
<path d="M174.773 25.4946C174.44 27.6793 174.983 29.9072 176.285 31.693C178.024 34.0514 180.684 32.9326 181.697 30.3626C182.62 28.0344 182.831 24.013 180.367 22.5768C179.94 22.3312 179.47 22.1723 178.981 22.1093C178.493 22.0463 177.998 22.0804 177.523 22.2097C177.048 22.339 176.603 22.5608 176.214 22.8625C175.826 23.1642 175.5 23.5398 175.257 23.9677C174.986 24.4351 174.821 24.9563 174.773 25.4946Z" fill="#E4897B"/>
<path d="M136.237 117.004L132.957 120.36C132.7 120.617 132.957 121.056 133.486 121.207L180.216 135.992C180.369 136.061 180.541 136.077 180.705 136.039C180.869 136.001 181.015 135.91 181.123 135.781L182.786 131.926C182.892 131.653 182.619 131.321 182.181 131.17L137.069 116.898C136.933 116.841 136.785 116.82 136.639 116.839C136.493 116.857 136.354 116.914 136.237 117.004Z" fill="#263238"/>
<path d="M197.284 26.9161C196.921 27.7628 197.087 28.6547 197.647 28.8815C198.206 29.1083 198.947 28.6245 199.309 27.7628C199.672 26.901 199.506 26.0242 198.947 25.7974C198.387 25.5706 197.646 26.0544 197.284 26.9161Z" fill="#263238"/>
<path d="M206.945 30.9975C206.582 31.8592 206.748 32.7361 207.308 32.978C207.867 33.2199 208.608 32.721 208.971 31.8592C209.333 30.9975 209.167 30.1207 208.608 29.8788C208.048 29.6369 207.308 30.1509 206.945 30.9975Z" fill="#263238"/>
<path d="M208.351 29.833L210.648 30.1051C210.648 30.1051 208.91 31.2692 208.351 29.833Z" fill="#263238"/>
<path d="M203.543 31.1787C203.479 33.4546 203.728 35.7286 204.284 37.9365C203.715 38.0615 203.126 38.0614 202.557 37.9361C201.987 37.8108 201.452 37.5633 200.988 37.2108L203.543 31.1787Z" fill="#DE5753"/>
<path d="M195.561 39.0403C195.621 39.0364 195.677 39.0131 195.722 38.974C195.767 38.9348 195.798 38.882 195.81 38.8236C195.822 38.7652 195.814 38.7045 195.789 38.6508C195.763 38.5971 195.72 38.5533 195.667 38.5263C194.594 38.0973 193.637 37.4223 192.873 36.5557C192.109 35.6892 191.559 34.6553 191.268 33.5373C191.264 33.5035 191.253 33.4707 191.237 33.4409C191.22 33.4112 191.198 33.385 191.171 33.3639C191.145 33.3428 191.114 33.3272 191.081 33.3181C191.048 33.3089 191.014 33.3064 190.98 33.3106C190.944 33.316 190.91 33.3287 190.879 33.3477C190.848 33.3668 190.821 33.3918 190.8 33.4214C190.779 33.451 190.764 33.4845 190.756 33.52C190.748 33.5555 190.747 33.5923 190.754 33.628C191.049 34.8402 191.631 35.9635 192.452 36.903C193.273 37.8424 194.309 38.5703 195.47 39.0252L195.561 39.0403Z" fill="#263238"/>
<path d="M195.908 22.6071C195.998 22.6223 196.09 22.6223 196.18 22.6071C196.767 22.2553 197.426 22.0436 198.108 21.9886C198.79 21.9335 199.475 22.0365 200.111 22.2896C200.237 22.354 200.384 22.3663 200.52 22.324C200.655 22.2816 200.769 22.1879 200.836 22.0629C200.901 21.934 200.914 21.7849 200.872 21.6469C200.83 21.5088 200.736 21.3924 200.61 21.3221C199.816 20.9771 198.951 20.8286 198.088 20.8892C197.224 20.9497 196.389 21.2175 195.651 21.6698C195.527 21.7424 195.437 21.861 195.4 21.9997C195.363 22.1385 195.383 22.2861 195.454 22.4106C195.51 22.4759 195.58 22.5276 195.658 22.5617C195.737 22.5957 195.822 22.6113 195.908 22.6071Z" fill="#263238"/>
<path d="M213.43 28.4573H213.536C213.605 28.4446 213.67 28.4185 213.728 28.3804C213.787 28.3423 213.837 28.293 213.877 28.2354C213.916 28.1778 213.943 28.113 213.958 28.0447C213.972 27.9764 213.972 27.906 213.959 27.8375C213.813 26.9783 213.462 26.1671 212.935 25.4724C212.409 24.7777 211.723 24.2199 210.936 23.8463C210.801 23.7957 210.652 23.7989 210.52 23.8552C210.388 23.9115 210.282 24.0166 210.225 24.1487C210.17 24.2811 210.169 24.43 210.223 24.5631C210.276 24.6962 210.38 24.8026 210.512 24.8592C211.138 25.1638 211.681 25.6138 212.096 26.1714C212.512 26.729 212.788 27.3781 212.901 28.0642C212.929 28.1814 212.998 28.2849 213.094 28.3568C213.191 28.4286 213.31 28.4642 213.43 28.4573Z" fill="#263238"/>
<path d="M142.451 61.4751C140.652 62.8206 139.14 64.0754 137.568 65.436C135.995 66.7967 134.544 68.1573 133.032 69.5632C130.084 72.4054 127.272 75.3837 124.566 78.498C121.844 81.6284 119.319 84.9255 117.007 88.3701C116.402 89.2167 115.873 90.1389 115.314 91.0157C114.755 91.8926 114.195 92.7846 113.696 93.7068C113.197 94.629 112.668 95.4907 112.184 96.5338L111.383 98.1968L110.733 99.9051C109.345 104.194 108.69 108.687 108.798 113.194C108.89 117.387 109.341 121.565 110.144 125.681C110.946 129.687 111.956 133.648 113.167 137.549C114.386 141.428 115.814 145.239 117.446 148.963L122.903 146.937C121.966 143.309 121.074 139.499 120.409 135.735C119.667 132.007 119.127 128.243 118.791 124.457C118.426 120.79 118.34 117.101 118.534 113.421C118.645 111.676 118.862 109.939 119.184 108.22C119.499 106.629 119.96 105.071 120.56 103.564L121.013 102.521L121.527 101.553C121.936 100.858 122.495 100.041 123.039 99.2853C123.583 98.5294 124.037 97.7735 124.551 97.0025C125.065 96.2315 125.579 95.4907 126.169 94.7499C128.361 91.7263 130.855 88.9899 133.335 86.1931C135.814 83.3963 138.535 80.7506 141.302 78.1957C142.678 76.8955 144.068 75.6256 145.49 74.3859C146.911 73.1462 148.392 71.9066 149.632 70.8483L142.451 61.4751Z" fill="#E4897B"/>
<path d="M121.15 143.324L129.435 149.371L118.852 154.965C118.852 154.965 115.692 149.371 116.72 144.7L121.15 143.324Z" fill="#E4897B"/>
<path d="M132.064 159.168L123.387 161.859L118.791 154.996L129.434 149.402L132.064 159.168Z" fill="#E4897B"/>
<path d="M45.9826 334.537H46.164C46.4275 334.506 46.6779 334.405 46.8903 334.246C47.1026 334.087 47.2692 333.874 47.3734 333.63C47.4557 333.488 47.499 333.326 47.499 333.162C47.499 332.997 47.4557 332.835 47.3734 332.693C46.6327 331.423 42.4752 331.181 42.0066 331.181C41.9562 331.182 41.9069 331.196 41.8642 331.222C41.8215 331.249 41.787 331.287 41.7647 331.332C41.7348 331.377 41.7188 331.43 41.7188 331.484C41.7188 331.537 41.7348 331.59 41.7647 331.635C42.7625 332.738 44.5615 334.537 45.9826 334.537ZM42.6566 331.771C44.3196 331.892 46.5268 332.285 46.9048 332.95C46.9501 333.008 46.9748 333.08 46.9748 333.154C46.9748 333.228 46.9501 333.3 46.9048 333.358C46.8395 333.523 46.7328 333.668 46.5951 333.779C46.4574 333.89 46.2933 333.964 46.1187 333.993C45.3174 334.069 44.0626 333.252 42.6566 331.771Z" fill="url(#paint20_linear_902_8139)"/>
<path d="M42.2943 331.741C43.6851 331.741 46.4215 330.97 46.9355 329.851C47.0256 329.654 47.0448 329.432 46.9896 329.222C46.9345 329.013 46.8085 328.829 46.6331 328.702C46.478 328.563 46.2958 328.458 46.0981 328.393C45.9004 328.328 45.6914 328.305 45.4842 328.324C43.8212 328.49 41.871 331.181 41.7954 331.348C41.7729 331.389 41.7611 331.436 41.7611 331.484C41.7611 331.531 41.7729 331.578 41.7954 331.62C41.8144 331.663 41.8436 331.7 41.8805 331.729C41.9174 331.758 41.9609 331.778 42.007 331.786L42.2943 331.741ZM45.6505 328.868C45.7624 328.866 45.8736 328.886 45.9775 328.928C46.0814 328.969 46.1759 329.031 46.2552 329.11C46.5122 329.337 46.482 329.503 46.4366 329.624C46.104 330.365 43.9573 331.136 42.5513 331.136C43.2467 330.274 44.5469 328.914 45.5749 328.808L45.6505 328.868Z" fill="url(#paint21_linear_902_8139)"/>
<path d="M121.361 359.799C122.293 359.867 123.222 359.645 124.022 359.164C124.227 359.009 124.395 358.81 124.515 358.583C124.635 358.356 124.704 358.106 124.718 357.849C124.739 357.705 124.717 357.558 124.655 357.426C124.594 357.295 124.494 357.184 124.37 357.108C123.145 356.277 118.489 358.378 117.567 358.817C117.515 358.839 117.473 358.878 117.445 358.927C117.418 358.976 117.408 359.033 117.416 359.089C117.421 359.146 117.444 359.201 117.482 359.244C117.52 359.288 117.571 359.318 117.627 359.331C118.853 359.615 120.104 359.772 121.361 359.799ZM123.538 357.441C123.723 357.428 123.907 357.47 124.068 357.562C124.105 357.593 124.133 357.633 124.152 357.677C124.17 357.722 124.178 357.771 124.173 357.819C124.169 357.997 124.123 358.172 124.039 358.329C123.955 358.487 123.835 358.623 123.69 358.726C122.904 359.331 121.014 359.406 118.565 358.968C120.131 358.199 121.81 357.684 123.538 357.441Z" fill="url(#paint22_linear_902_8139)"/>
<path d="M117.688 359.331H117.793C119.305 358.696 122.435 356.202 122.253 354.917C122.253 354.63 122.026 354.282 121.331 354.191C118.61 353.874 117.461 358.727 117.415 359.014C117.407 359.063 117.411 359.114 117.426 359.161C117.442 359.209 117.47 359.252 117.506 359.286C117.559 359.323 117.623 359.34 117.688 359.331ZM121.074 354.72H121.255C121.543 354.72 121.709 354.841 121.724 354.977C121.815 355.718 119.668 357.699 118.111 358.56C118.459 357.366 119.396 354.72 121.074 354.72Z" fill="url(#paint23_linear_902_8139)"/>
<path d="M198.69 25.7358L200.988 26.008C200.988 26.008 199.265 27.1721 198.69 25.7358Z" fill="#263238"/>
<path d="M127.242 345.241L102.721 344.622L104.127 337.078L130.916 338.348L127.242 345.241Z" fill="url(#paint24_linear_902_8139)"/>
<path opacity="0.5" d="M127.242 345.241L102.721 344.622L104.127 337.078L130.916 338.348L127.242 345.241Z" fill="white"/>
<path d="M52.5588 323.109L36.3522 311.574L40.0259 304.499L57.835 317.969L52.5588 323.109Z" fill="url(#paint25_linear_902_8139)"/>
<path opacity="0.5" d="M52.5588 323.109L36.3522 311.574L40.0259 304.499L57.835 317.969L52.5588 323.109Z" fill="white"/>
<path d="M140.698 123.973L139.488 123.58C139.246 123.504 139.095 123.323 139.171 123.187L141.378 118.183C141.378 118.032 141.68 117.971 141.922 118.047L143.132 118.44C143.374 118.515 143.525 118.697 143.449 118.833L141.257 123.837C141.192 123.919 141.102 123.976 141.001 124.001C140.899 124.026 140.793 124.016 140.698 123.973Z" fill="url(#paint26_linear_902_8139)"/>
<path d="M176.678 135.402L175.469 135.024C175.227 134.934 175.091 134.752 175.151 134.616L177.358 129.612C177.358 129.461 177.676 129.4 177.918 129.476L179.127 129.869C179.369 129.869 179.505 130.126 179.445 130.262L177.237 135.266C177.177 135.402 176.844 135.402 176.678 135.402Z" fill="url(#paint27_linear_902_8139)"/>
<path d="M158.703 129.657L157.494 129.28C157.445 129.279 157.396 129.267 157.351 129.244C157.307 129.222 157.268 129.19 157.238 129.151C157.207 129.112 157.186 129.067 157.176 129.018C157.165 128.97 157.165 128.92 157.177 128.871L159.384 123.867C159.384 123.731 159.701 123.671 159.943 123.746L161.137 124.124C161.379 124.2 161.531 124.381 161.47 124.532L159.263 129.537C159.195 129.614 159.104 129.667 159.003 129.689C158.902 129.71 158.797 129.699 158.703 129.657Z" fill="url(#paint28_linear_902_8139)"/>
<path opacity="0.4" d="M140.698 123.973L139.488 123.58C139.246 123.504 139.095 123.323 139.171 123.187L141.378 118.183C141.378 118.032 141.68 117.971 141.922 118.047L143.132 118.44C143.374 118.515 143.525 118.697 143.449 118.833L141.257 123.837C141.192 123.919 141.102 123.976 141.001 124.001C140.899 124.026 140.793 124.016 140.698 123.973Z" fill="black"/>
<path opacity="0.4" d="M176.678 135.402L175.469 135.024C175.227 134.934 175.091 134.752 175.151 134.616L177.358 129.612C177.358 129.461 177.676 129.4 177.918 129.476L179.127 129.869C179.369 129.869 179.505 130.126 179.445 130.262L177.237 135.266C177.177 135.402 176.844 135.402 176.678 135.402Z" fill="black"/>
<path opacity="0.4" d="M158.703 129.657L157.494 129.28C157.445 129.279 157.396 129.267 157.351 129.244C157.307 129.222 157.268 129.19 157.238 129.151C157.207 129.112 157.186 129.067 157.176 129.018C157.165 128.97 157.165 128.92 157.177 128.871L159.384 123.867C159.384 123.731 159.701 123.671 159.943 123.746L161.137 124.124C161.379 124.2 161.531 124.381 161.47 124.532L159.263 129.537C159.195 129.614 159.104 129.667 159.003 129.689C158.902 129.71 158.797 129.699 158.703 129.657Z" fill="black"/>
<path d="M144.084 92.8153C148.363 86.7681 152.46 72.6932 151.402 67.417L147.168 72.6176C146.231 80.7209 145.218 87.2065 144.084 92.8153Z" fill="url(#paint29_linear_902_8139)"/>
<path opacity="0.5" d="M144.084 92.8153C148.363 86.7681 152.46 72.6932 151.402 67.417L147.168 72.6176C146.231 80.7209 145.218 87.2065 144.084 92.8153Z" fill="white"/>
<path d="M149.224 50.7412C143.434 50.4842 132.05 64.7103 132.05 64.7103L143.872 81.3401C143.872 81.3401 157.146 70.7575 158.174 63.395C159.051 57.2571 156.602 51.1343 149.224 50.7412Z" fill="url(#paint30_linear_902_8139)"/>
<path opacity="0.6" d="M149.224 50.7412C143.434 50.4842 132.05 64.7103 132.05 64.7103L143.872 81.3401C143.872 81.3401 157.146 70.7575 158.174 63.395C159.051 57.2571 156.602 51.1343 149.224 50.7412Z" fill="white"/>
<defs>
<linearGradient id="paint0_linear_902_8139" x1="266.041" y1="329.382" x2="266.041" y2="549.999" gradientUnits="userSpaceOnUse">
<stop stop-color="#6262E8"/>
<stop offset="1" stop-color="#A292F4"/>
</linearGradient>
<linearGradient id="paint1_linear_902_8139" x1="248.164" y1="332.799" x2="248.164" y2="550" gradientUnits="userSpaceOnUse">
<stop stop-color="#6262E8"/>
<stop offset="1" stop-color="#A292F4"/>
</linearGradient>
<linearGradient id="paint2_linear_902_8139" x1="406.463" y1="125.176" x2="406.463" y2="168.799" gradientUnits="userSpaceOnUse">
<stop stop-color="#6262E8"/>
<stop offset="1" stop-color="#A292F4"/>
</linearGradient>
<linearGradient id="paint3_linear_902_8139" x1="405.018" y1="221.938" x2="405.018" y2="420.815" gradientUnits="userSpaceOnUse">
<stop stop-color="#6262E8"/>
<stop offset="1" stop-color="#A292F4"/>
</linearGradient>
<linearGradient id="paint4_linear_902_8139" x1="370.614" y1="116.619" x2="370.614" y2="128.358" gradientUnits="userSpaceOnUse">
<stop stop-color="#6262E8"/>
<stop offset="1" stop-color="#A292F4"/>
</linearGradient>
<linearGradient id="paint5_linear_902_8139" x1="445.101" y1="429.099" x2="445.101" y2="433.228" gradientUnits="userSpaceOnUse">
<stop stop-color="#6262E8"/>
<stop offset="1" stop-color="#A292F4"/>
</linearGradient>
<linearGradient id="paint6_linear_902_8139" x1="444.791" y1="427.171" x2="444.791" y2="429.783" gradientUnits="userSpaceOnUse">
<stop stop-color="#6262E8"/>
<stop offset="1" stop-color="#A292F4"/>
</linearGradient>
<linearGradient id="paint7_linear_902_8139" x1="333.878" y1="467.212" x2="333.878" y2="469.89" gradientUnits="userSpaceOnUse">
<stop stop-color="#6262E8"/>
<stop offset="1" stop-color="#A292F4"/>
</linearGradient>
<linearGradient id="paint8_linear_902_8139" x1="335.223" y1="464.51" x2="335.223" y2="469.526" gradientUnits="userSpaceOnUse">
<stop stop-color="#6262E8"/>
<stop offset="1" stop-color="#A292F4"/>
</linearGradient>
<linearGradient id="paint9_linear_902_8139" x1="438.031" y1="403.265" x2="438.031" y2="421.391" gradientUnits="userSpaceOnUse">
<stop stop-color="#6262E8"/>
<stop offset="1" stop-color="#A292F4"/>
</linearGradient>
<linearGradient id="paint10_linear_902_8139" x1="366.323" y1="230.702" x2="366.323" y2="302.397" gradientUnits="userSpaceOnUse">
<stop stop-color="#6262E8"/>
<stop offset="1" stop-color="#A292F4"/>
</linearGradient>
<linearGradient id="paint11_linear_902_8139" x1="350.059" y1="221.937" x2="350.059" y2="454.287" gradientUnits="userSpaceOnUse">
<stop stop-color="#6262E8"/>
<stop offset="1" stop-color="#A292F4"/>
</linearGradient>
<linearGradient id="paint12_linear_902_8139" x1="342.226" y1="446.834" x2="342.226" y2="454.635" gradientUnits="userSpaceOnUse">
<stop stop-color="#6262E8"/>
<stop offset="1" stop-color="#A292F4"/>
</linearGradient>
<linearGradient id="paint13_linear_902_8139" x1="368.579" y1="122.492" x2="368.579" y2="221.938" gradientUnits="userSpaceOnUse">
<stop stop-color="#6262E8"/>
<stop offset="1" stop-color="#A292F4"/>
</linearGradient>
<linearGradient id="paint14_linear_902_8139" x1="332.615" y1="125.323" x2="332.615" y2="171.761" gradientUnits="userSpaceOnUse">
<stop stop-color="#6262E8"/>
<stop offset="1" stop-color="#A292F4"/>
</linearGradient>
<linearGradient id="paint15_linear_902_8139" x1="203.6" y1="67.4136" x2="203.6" y2="101.1" gradientUnits="userSpaceOnUse">
<stop stop-color="#6262E8"/>
<stop offset="1" stop-color="#A292F4"/>
</linearGradient>
<linearGradient id="paint16_linear_902_8139" x1="197.949" y1="87.9019" x2="197.949" y2="101.1" gradientUnits="userSpaceOnUse">
<stop stop-color="#6262E8"/>
<stop offset="1" stop-color="#A292F4"/>
</linearGradient>
<linearGradient id="paint17_linear_902_8139" x1="171.661" y1="50.7715" x2="171.661" y2="133.89" gradientUnits="userSpaceOnUse">
<stop stop-color="#6262E8"/>
<stop offset="1" stop-color="#A292F4"/>
</linearGradient>
<linearGradient id="paint18_linear_902_8139" x1="142.633" y1="123.641" x2="142.633" y2="344.183" gradientUnits="userSpaceOnUse">
<stop stop-color="#6262E8"/>
<stop offset="1" stop-color="#A292F4"/>
</linearGradient>
<linearGradient id="paint19_linear_902_8139" x1="105.132" y1="119.832" x2="105.132" y2="318.543" gradientUnits="userSpaceOnUse">
<stop stop-color="#6262E8"/>
<stop offset="1" stop-color="#A292F4"/>
</linearGradient>
<linearGradient id="paint20_linear_902_8139" x1="44.6089" y1="331.181" x2="44.6089" y2="334.537" gradientUnits="userSpaceOnUse">
<stop stop-color="#6262E8"/>
<stop offset="1" stop-color="#A292F4"/>
</linearGradient>
<linearGradient id="paint21_linear_902_8139" x1="44.3908" y1="328.317" x2="44.3908" y2="331.786" gradientUnits="userSpaceOnUse">
<stop stop-color="#6262E8"/>
<stop offset="1" stop-color="#A292F4"/>
</linearGradient>
<linearGradient id="paint22_linear_902_8139" x1="121.069" y1="356.916" x2="121.069" y2="359.811" gradientUnits="userSpaceOnUse">
<stop stop-color="#6262E8"/>
<stop offset="1" stop-color="#A292F4"/>
</linearGradient>
<linearGradient id="paint23_linear_902_8139" x1="119.836" y1="354.176" x2="119.836" y2="359.333" gradientUnits="userSpaceOnUse">
<stop stop-color="#6262E8"/>
<stop offset="1" stop-color="#A292F4"/>
</linearGradient>
<linearGradient id="paint24_linear_902_8139" x1="116.818" y1="337.078" x2="116.818" y2="345.241" gradientUnits="userSpaceOnUse">
<stop stop-color="#6262E8"/>
<stop offset="1" stop-color="#A292F4"/>
</linearGradient>
<linearGradient id="paint25_linear_902_8139" x1="47.0936" y1="304.499" x2="47.0936" y2="323.109" gradientUnits="userSpaceOnUse">
<stop stop-color="#6262E8"/>
<stop offset="1" stop-color="#A292F4"/>
</linearGradient>
<linearGradient id="paint26_linear_902_8139" x1="141.31" y1="118.014" x2="141.31" y2="124.014" gradientUnits="userSpaceOnUse">
<stop stop-color="#6262E8"/>
<stop offset="1" stop-color="#A292F4"/>
</linearGradient>
<linearGradient id="paint27_linear_902_8139" x1="177.298" y1="129.443" x2="177.298" y2="135.402" gradientUnits="userSpaceOnUse">
<stop stop-color="#6262E8"/>
<stop offset="1" stop-color="#A292F4"/>
</linearGradient>
<linearGradient id="paint28_linear_902_8139" x1="159.326" y1="123.713" x2="159.326" y2="129.7" gradientUnits="userSpaceOnUse">
<stop stop-color="#6262E8"/>
<stop offset="1" stop-color="#A292F4"/>
</linearGradient>
<linearGradient id="paint29_linear_902_8139" x1="147.827" y1="67.417" x2="147.827" y2="92.8153" gradientUnits="userSpaceOnUse">
<stop stop-color="#6262E8"/>
<stop offset="1" stop-color="#A292F4"/>
</linearGradient>
<linearGradient id="paint30_linear_902_8139" x1="145.197" y1="50.7378" x2="145.197" y2="81.3401" gradientUnits="userSpaceOnUse">
<stop stop-color="#6262E8"/>
<stop offset="1" stop-color="#A292F4"/>
</linearGradient>
</defs>
</svg>
