<svg width="313" height="65" viewBox="0 0 313 65" fill="none" xmlns="http://www.w3.org/2000/svg">
<path fill-rule="evenodd" clip-rule="evenodd" d="M119.916 2.08351V11.0255H91.4835V28.9095H115.48V37.8933H91.4835V62.5046H79.4629V2.08351H119.916ZM144.6 18.9647C147.469 18.9647 150.108 19.3964 152.518 20.26C154.928 21.1235 157.005 22.3841 158.75 24.0415C160.495 25.699 161.855 27.7325 162.831 30.1421C163.807 32.5518 164.295 35.3026 164.295 38.3947C164.295 39.1747 164.258 39.8223 164.184 40.3377C164.11 40.853 163.977 41.257 163.785 41.5494C163.592 41.8419 163.334 42.0509 163.008 42.1762C162.683 42.3016 162.269 42.3643 161.766 42.3643H133.644C133.97 46.7656 135.226 49.997 137.415 52.0584C139.603 54.1198 142.501 55.1505 146.108 55.1505C147.883 55.1505 149.413 54.9555 150.699 54.5655C151.986 54.1755 153.109 53.7437 154.07 53.2701C155.032 52.7966 155.874 52.3648 156.599 51.9748C157.323 51.5848 158.026 51.3898 158.706 51.3898C159.149 51.3898 159.534 51.4734 159.859 51.6405C160.184 51.8077 160.465 52.0444 160.702 52.3509L163.895 56.1115C162.683 57.4487 161.323 58.5699 159.815 59.4752C158.307 60.3806 156.732 61.1048 155.091 61.648C153.449 62.1912 151.779 62.5743 150.078 62.7971C148.378 63.02 146.729 63.1314 145.133 63.1314C141.969 63.1314 139.026 62.637 136.306 61.648C133.585 60.6591 131.22 59.1967 129.209 57.2606C127.198 55.3246 125.616 52.9289 124.463 50.0736C123.309 47.2183 122.733 43.9103 122.733 40.1497C122.733 37.2247 123.235 34.4739 124.241 31.8971C125.246 29.3204 126.688 27.0779 128.566 25.1697C130.443 23.2615 132.735 21.7503 135.441 20.6361C138.147 19.5218 141.2 18.9647 144.6 18.9647ZM144.822 26.3606C141.628 26.3606 139.13 27.2102 137.326 28.9095C135.522 30.6088 134.369 33.0183 133.866 36.1383H154.448C154.448 34.8012 154.255 33.5407 153.871 32.3568C153.486 31.1728 152.895 30.1352 152.097 29.2438C151.298 28.3523 150.293 27.649 149.08 27.1336C147.868 26.6183 146.449 26.3606 144.822 26.3606ZM191.995 18.9647C194.864 18.9647 197.503 19.3964 199.913 20.26C202.323 21.1235 204.4 22.3841 206.145 24.0415C207.89 25.699 209.25 27.7325 210.226 30.1421C211.202 32.5518 211.69 35.3026 211.69 38.3947C211.69 39.1747 211.653 39.8223 211.579 40.3377C211.505 40.853 211.372 41.257 211.179 41.5494C210.987 41.8419 210.728 42.0509 210.403 42.1762C210.078 42.3016 209.664 42.3643 209.161 42.3643H181.039C181.364 46.7656 182.621 49.997 184.81 52.0584C186.998 54.1198 189.896 55.1505 193.503 55.1505C195.278 55.1505 196.808 54.9555 198.094 54.5655C199.381 54.1755 200.504 53.7437 201.465 53.2701C202.426 52.7966 203.269 52.3648 203.994 51.9748C204.718 51.5848 205.42 51.3898 206.101 51.3898C206.544 51.3898 206.929 51.4734 207.254 51.6405C207.579 51.8077 207.86 52.0444 208.097 52.3509L211.29 56.1115C210.078 57.4487 208.718 58.5699 207.21 59.4752C205.701 60.3806 204.127 61.1048 202.486 61.648C200.844 62.1912 199.174 62.5743 197.473 62.7971C195.773 63.02 194.124 63.1314 192.528 63.1314C189.363 63.1314 186.421 62.637 183.701 61.648C180.98 60.6591 178.614 59.1967 176.604 57.2606C174.593 55.3246 173.011 52.9289 171.857 50.0736C170.704 47.2183 170.128 43.9103 170.128 40.1497C170.128 37.2247 170.63 34.4739 171.636 31.8971C172.641 29.3204 174.083 27.0779 175.96 25.1697C177.838 23.2615 180.13 21.7503 182.836 20.6361C185.541 19.5218 188.595 18.9647 191.995 18.9647ZM192.217 26.3606C189.023 26.3606 186.525 27.2102 184.721 28.9095C182.917 30.6088 181.764 33.0183 181.261 36.1383H201.842C201.842 34.8012 201.65 33.5407 201.266 32.3568C200.881 31.1728 200.29 30.1352 199.491 29.2438C198.693 28.3523 197.688 27.649 196.475 27.1336C195.263 26.6183 193.843 26.3606 192.217 26.3606ZM252.608 62.5046C251.189 62.5046 250.257 61.8779 249.814 60.6243L248.927 56.4876C247.98 57.4904 246.99 58.3958 245.955 59.2036C244.92 60.0115 243.804 60.7079 242.606 61.2929C241.408 61.8779 240.122 62.3305 238.747 62.6509C237.372 62.9712 235.886 63.1314 234.289 63.1314C231.805 63.1314 229.528 62.6439 227.458 61.6689C225.388 60.6939 223.607 59.2802 222.113 57.4277C220.62 55.5753 219.467 53.2841 218.653 50.5541C217.84 47.8242 217.434 44.7042 217.434 41.1943C217.434 38.0186 217.892 35.0658 218.809 32.3359C219.725 29.6059 221.041 27.2381 222.756 25.2324C224.472 23.2267 226.527 21.6598 228.922 20.5316C231.317 19.4034 234.008 18.8393 236.995 18.8393C239.538 18.8393 241.711 19.2223 243.515 19.9884C245.319 20.7544 246.931 21.7782 248.35 23.0596V0.412109H259.306V62.5046H252.608ZM238.015 54.9415C240.292 54.9415 242.229 54.4958 243.826 53.6044C245.423 52.713 246.931 51.4455 248.35 49.802V30.5809C247.108 29.1602 245.755 28.1574 244.292 27.5724C242.828 26.9874 241.253 26.6949 239.568 26.6949C237.912 26.6949 236.411 26.9874 235.065 27.5724C233.72 28.1574 232.581 29.0418 231.65 30.2257C230.718 31.4096 230.001 32.9139 229.499 34.7385C228.996 36.5631 228.745 38.715 228.745 41.1943C228.745 43.7014 228.959 45.8254 229.388 47.5665C229.817 49.3075 230.43 50.7282 231.229 51.8286C232.027 52.9289 233.003 53.7228 234.156 54.2103C235.309 54.6978 236.596 54.9415 238.015 54.9415ZM290.555 18.9647C293.956 18.9647 297.039 19.48 299.804 20.5107C302.569 21.5414 304.927 23.0039 306.878 24.8981C308.83 26.7924 310.338 29.1045 311.403 31.8344C312.467 34.5644 313 37.6147 313 40.9854C313 44.3839 312.467 47.4481 311.403 50.1781C310.338 52.908 308.83 55.234 306.878 57.1561C304.927 59.0783 302.569 60.5547 299.804 61.5854C297.039 62.6161 293.956 63.1314 290.555 63.1314C287.155 63.1314 284.065 62.6161 281.285 61.5854C278.505 60.5547 276.132 59.0783 274.166 57.1561C272.199 55.234 270.676 52.908 269.597 50.1781C268.518 47.4481 267.978 44.3839 267.978 40.9854C267.978 37.6147 268.518 34.5644 269.597 31.8344C270.676 29.1045 272.199 26.7924 274.166 24.8981C276.132 23.0039 278.505 21.5414 281.285 20.5107C284.065 19.48 287.155 18.9647 290.555 18.9647ZM290.555 55.1922C294.34 55.1922 297.142 53.9944 298.961 51.5987C300.78 49.2031 301.689 45.6932 301.689 41.0689C301.689 36.4447 300.78 32.9209 298.961 30.4973C297.142 28.0738 294.34 26.862 290.555 26.862C286.711 26.862 283.872 28.0807 282.039 30.5182C280.205 32.9557 279.289 36.4725 279.289 41.0689C279.289 45.6653 280.205 49.1682 282.039 51.5779C283.872 53.9875 286.711 55.1922 290.555 55.1922Z" fill="#C44125"/>
<path fill-rule="evenodd" clip-rule="evenodd" d="M14.0231 19.7396V63.1314H2.92078V19.7396H14.0231ZM15.6862 7.09427C15.6862 7.99651 15.4914 8.84235 15.1018 9.6318C14.7123 10.4213 14.1954 11.112 13.5511 11.7041C12.9068 12.2962 12.1502 12.7685 11.2812 13.1209C10.4122 13.4733 9.48327 13.6496 8.4944 13.6496C7.53549 13.6496 6.62904 13.4733 5.77501 13.1209C4.92098 12.7685 4.17934 12.2962 3.55006 11.7041C2.92077 11.112 2.41885 10.4213 2.04428 9.6318C1.66971 8.84235 1.48242 7.99651 1.48242 7.09427C1.48242 6.16384 1.66971 5.28981 2.04428 4.47216C2.41885 3.65451 2.92077 2.94964 3.55006 2.35755C4.17934 1.76546 4.92098 1.2932 5.77501 0.940762C6.62904 0.588325 7.53549 0.412109 8.4944 0.412109C9.48327 0.412109 10.4122 0.588325 11.2812 0.940762C12.1502 1.2932 12.9068 1.76546 13.5511 2.35755C14.1954 2.94964 14.7123 3.65451 15.1018 4.47216C15.4914 5.28981 15.6862 6.16384 15.6862 7.09427ZM24.3163 63.1314V19.7396H31.1035C32.5419 19.7396 33.4858 20.374 33.9353 21.6428L34.6994 25.0684C35.6283 24.1662 36.6097 23.3486 37.6435 22.6155C38.6774 21.8824 39.7711 21.2481 40.9248 20.7124C42.0785 20.1766 43.3145 19.7678 44.633 19.4859C45.9515 19.2039 47.3899 19.063 48.9481 19.063C51.4652 19.063 53.6976 19.4647 55.6454 20.2683C57.5932 21.0718 59.2188 22.1996 60.5223 23.6517C61.8259 25.1037 62.8147 26.8377 63.4889 28.8536C64.1632 30.8695 64.5003 33.0899 64.5003 35.5146V63.1314H53.398V35.5146C53.398 32.8643 52.7463 30.8131 51.4427 29.3611C50.1392 27.9091 48.184 27.1831 45.577 27.1831C43.6591 27.1831 41.8612 27.5919 40.1831 28.4095C38.505 29.2272 36.9169 30.3409 35.4186 31.7506V63.1314H24.3163Z" fill="#26497E"/>
</svg>
