<svg width="24" height="24" viewBox="0 0 24 24" fill="none" xmlns="http://www.w3.org/2000/svg">
<path d="M12 20L7.05022 15.3137C6.07127 14.3868 5.40459 13.2059 5.1345 11.9203C4.86441 10.6347 5.00304 9.30219 5.53285 8.0912C6.06267 6.8802 6.95988 5.84514 8.11102 5.11692C9.26216 4.38869 10.6155 4 12 4C13.3845 4 14.7378 4.38869 15.889 5.11692C17.0401 5.84514 17.9373 6.8802 18.4671 8.0912C18.997 9.30219 19.1356 10.6347 18.8655 11.9203C18.5954 13.2059 17.9287 14.3868 16.9498 15.3137L12 20ZM15.85 14.2724C16.6114 13.5515 17.1298 12.6331 17.3399 11.6332C17.5499 10.6333 17.442 9.59687 17.03 8.65501C16.6179 7.71315 15.92 6.90813 15.0247 6.34175C14.1294 5.77538 13.0768 5.47307 12 5.47307C10.9232 5.47307 9.87061 5.77538 8.97529 6.34175C8.07997 6.90813 7.38214 7.71315 6.97004 8.65501C6.55795 9.59687 6.4501 10.6333 6.66013 11.6332C6.87016 12.6331 7.38864 13.5515 8.15 14.2724L12 17.9175L15.85 14.2724ZM12 12.1001C11.5874 12.1001 11.1918 11.945 10.9001 11.6688C10.6083 11.3926 10.4444 11.018 10.4444 10.6274C10.4444 10.2368 10.6083 9.86216 10.9001 9.58596C11.1918 9.30977 11.5874 9.1546 12 9.1546C12.4126 9.1546 12.8082 9.30977 13.0999 9.58596C13.3917 9.86216 13.5556 10.2368 13.5556 10.6274C13.5556 11.018 13.3917 11.3926 13.0999 11.6688C12.8082 11.945 12.4126 12.1001 12 12.1001Z" fill="#4971F6"/>
</svg>
