<svg width="57" height="58" viewBox="0 0 57 58" fill="none" xmlns="http://www.w3.org/2000/svg">
<path d="M28.5524 57.0702C44.0695 57.0702 56.6478 44.5032 56.6478 29C56.6478 13.4969 44.0695 0.929871 28.5524 0.929871C13.0353 0.929871 0.457031 13.4969 0.457031 29C0.457031 44.5032 13.0353 57.0702 28.5524 57.0702ZM42.27 27.1937C42.5828 27.3806 42.8418 27.6453 43.0216 27.962C43.2014 28.2787 43.296 28.6366 43.296 29.0007C43.296 29.3649 43.2014 29.7228 43.0216 30.0395C42.8418 30.3562 42.5828 30.6209 42.27 30.8078L24.907 41.1755C22.7999 42.4344 20.1238 40.9172 20.1238 38.4667V19.5348C20.1238 17.0829 22.7985 15.5657 24.9056 16.8232L42.27 27.1923V27.1937Z" fill="url(#paint0_linear_548_5372)"/>
<defs>
<linearGradient id="paint0_linear_548_5372" x1="-13.1631" y1="-24.3641" x2="62.9204" y2="86.0113" gradientUnits="userSpaceOnUse">
<stop stop-color="#2836DD"/>
<stop offset="1" stop-color="#E0C0FF"/>
</linearGradient>
</defs>
</svg>
