<svg width="42" height="42" viewBox="0 0 42 42" fill="none" xmlns="http://www.w3.org/2000/svg">
<g opacity="0.6">
<path d="M24.15 17.3999C23.3836 17.3973 22.6241 17.5458 21.9151 17.837C21.2061 18.1282 20.5615 18.5563 20.0182 19.0969C19.4748 19.6375 19.0434 20.2799 18.7486 20.9873C18.4537 21.6948 18.3013 22.4535 18.3 23.2199V29.0999C18.3 29.3386 18.3948 29.5676 18.5636 29.7363C18.7324 29.9051 18.9613 29.9999 19.2 29.9999H21.3C21.5387 29.9999 21.7676 29.9051 21.9364 29.7363C22.1052 29.5676 22.2 29.3386 22.2 29.0999V23.2199C22.1998 22.9473 22.2571 22.6778 22.368 22.4288C22.479 22.1798 22.6412 21.957 22.8441 21.7749C23.0469 21.5928 23.2859 21.4555 23.5454 21.3719C23.8048 21.2884 24.079 21.2604 24.35 21.2899C24.836 21.3512 25.2826 21.5886 25.6052 21.9572C25.9278 22.3259 26.1038 22.8001 26.1 23.2899V29.0999C26.1 29.3386 26.1948 29.5676 26.3636 29.7363C26.5324 29.9051 26.7613 29.9999 27 29.9999H29.1C29.3387 29.9999 29.5676 29.9051 29.7364 29.7363C29.9052 29.5676 30 29.3386 30 29.0999V23.2199C29.9987 22.4535 29.8463 21.6948 29.5514 20.9873C29.2566 20.2799 28.8252 19.6375 28.2818 19.0969C27.7385 18.5563 27.0939 18.1282 26.3849 17.837C25.6759 17.5458 24.9164 17.3973 24.15 17.3999Z" fill="#251238"/>
<path d="M15.6 18.2998H12.9C12.4029 18.2998 12 18.7027 12 19.1998V29.0998C12 29.5969 12.4029 29.9998 12.9 29.9998H15.6C16.0971 29.9998 16.5 29.5969 16.5 29.0998V19.1998C16.5 18.7027 16.0971 18.2998 15.6 18.2998Z" fill="#251238"/>
<path d="M14.25 16.5C15.4926 16.5 16.5 15.4926 16.5 14.25C16.5 13.0074 15.4926 12 14.25 12C13.0074 12 12 13.0074 12 14.25C12 15.4926 13.0074 16.5 14.25 16.5Z" fill="#251238"/>
</g>
<rect x="1" y="1" width="40" height="40" rx="12" stroke="#251238" stroke-opacity="0.1"/>
</svg>
