<svg width="25" height="25" viewBox="0 0 25 25" fill="none" xmlns="http://www.w3.org/2000/svg">
<path d="M4.64474 7.43295C4.65699 7.31121 4.64058 7.1883 4.59682 7.07404C4.55306 6.95978 4.48317 6.85735 4.39274 6.77495L2.52474 4.50795V4.16895H8.32274L12.8047 14.0739L16.7447 4.16895H22.2727V4.50795L20.6757 6.04895C20.6081 6.10119 20.5559 6.17084 20.5247 6.25045C20.4935 6.33006 20.4845 6.41664 20.4987 6.50095V17.8349C20.4845 17.9193 20.4935 18.0058 20.5247 18.0854C20.5559 18.1651 20.6081 18.2347 20.6757 18.2869L22.2357 19.8289V20.1689H14.3917V19.8299L16.0077 18.2499C16.1667 18.0899 16.1667 18.0429 16.1667 17.7989V8.63695L11.6747 20.1309H11.0687L5.83874 8.63695V16.3409C5.79574 16.6639 5.90274 16.9909 6.12874 17.2249L8.22974 19.7929V20.1309H2.27274V19.7929L4.37274 17.2249C4.48385 17.109 4.56631 16.9687 4.61354 16.8152C4.66077 16.6617 4.67145 16.4993 4.64474 16.3409V7.43295Z" fill="#413E49"/>
</svg>
