<svg width="26" height="26" viewBox="0 0 26 26" fill="none" xmlns="http://www.w3.org/2000/svg">
<path d="M13.0022 22.7944C10.3372 22.7944 10.023 22.7803 8.98303 22.7348C8.17201 22.7081 7.37149 22.5433 6.61595 22.2473C5.96939 21.9957 5.38223 21.6124 4.89174 21.1217C4.40125 20.631 4.01815 20.0437 3.76678 19.397C3.4822 18.6388 3.3287 17.8376 3.31286 17.0278C3.2522 15.99 3.2522 15.6498 3.2522 13.0054C3.2522 10.3328 3.26628 10.0208 3.31286 8.98621C3.32905 8.17752 3.48254 7.37746 3.76678 6.6202C4.01786 5.97274 4.40122 5.38475 4.89236 4.89379C5.3835 4.40284 5.97163 4.01971 6.6192 3.76887C7.37606 3.48309 8.17632 3.32919 8.9852 3.31387C10.0198 3.25537 10.3599 3.25537 13.0022 3.25537C15.6889 3.25537 15.9976 3.26945 17.0214 3.31387C17.8317 3.32904 18.6355 3.48287 19.3939 3.76887C20.0413 4.02 20.6292 4.40323 21.1204 4.89415C21.6115 5.38507 21.9949 5.9729 22.2463 6.6202C22.5355 7.38937 22.6904 8.20187 22.7024 9.02196C22.763 10.0598 22.763 10.3989 22.763 13.0422C22.763 15.6855 22.7479 16.0322 22.7024 17.0581C22.6862 17.8687 22.5323 18.6706 22.2474 19.4295C21.9954 20.0766 21.6115 20.6643 21.1203 21.1551C20.6291 21.646 20.0412 22.0294 19.3939 22.2809C18.6355 22.5647 17.8349 22.7185 17.0257 22.7348C15.9911 22.7944 15.652 22.7944 13.0022 22.7944V22.7944ZM12.9654 4.97029C10.3155 4.97029 10.0404 4.98329 9.00578 5.02987C8.3879 5.03795 7.77598 5.15191 7.19661 5.36679C6.77404 5.52876 6.3901 5.77749 6.06953 6.09693C5.74897 6.41638 5.4989 6.79945 5.33545 7.22145C5.11878 7.80645 5.00503 8.42504 4.99853 9.04904C4.94111 10.0988 4.94111 10.374 4.94111 13.0054C4.94111 15.6054 4.95086 15.9206 4.99853 16.9639C5.00828 17.5814 5.12203 18.1935 5.33545 18.773C5.66695 19.6256 6.34295 20.2995 7.1977 20.6266C7.77632 20.8429 8.38812 20.9569 9.00578 20.9635C10.0544 21.0242 10.3307 21.0242 12.9654 21.0242C15.6228 21.0242 15.8979 21.0112 16.9239 20.9635C17.5418 20.9561 18.1538 20.8421 18.733 20.6266C19.1534 20.4634 19.5351 20.2145 19.854 19.8958C20.173 19.577 20.4221 19.1954 20.5855 18.7752C20.8022 18.1902 20.9159 17.5705 20.9224 16.9465H20.9344C20.9809 15.9109 20.9809 15.6346 20.9809 12.988C20.9809 10.3415 20.969 10.063 20.9224 9.02845C20.9127 8.41145 20.7987 7.80053 20.5855 7.22145C20.4225 6.80063 20.1735 6.41838 19.8546 6.09907C19.5356 5.77975 19.1537 5.53036 18.733 5.36679C18.1534 5.15012 17.5414 5.03745 16.9239 5.02987C15.8763 4.97029 15.6022 4.97029 12.9654 4.97029V4.97029ZM13.0022 18.0093C12.0116 18.0099 11.043 17.7168 10.219 17.1669C9.39499 16.617 8.75256 15.8351 8.37297 14.9201C7.99337 14.0051 7.89367 12.9981 8.08645 12.0264C8.27924 11.0547 8.75587 10.162 9.45605 9.46121C10.1562 8.76042 11.0485 8.28302 12.02 8.08939C12.9916 7.89576 13.9987 7.9946 14.914 8.3734C15.8294 8.7522 16.6118 9.39395 17.1624 10.2175C17.713 11.041 18.007 12.0093 18.0072 13C18.0055 14.3272 17.4778 15.5997 16.5396 16.5387C15.6015 17.4776 14.3295 18.0064 13.0022 18.0093V18.0093ZM13.0022 9.74779C12.3594 9.74779 11.7311 9.9384 11.1966 10.2955C10.6621 10.6526 10.2456 11.1602 9.99959 11.7541C9.7536 12.3479 9.68924 13.0014 9.81465 13.6318C9.94005 14.2623 10.2496 14.8414 10.7041 15.2959C11.1586 15.7504 11.7377 16.0599 12.3682 16.1853C12.9986 16.3107 13.6521 16.2464 14.2459 16.0004C14.8398 15.7544 15.3474 15.3379 15.7045 14.8034C16.0616 14.2689 16.2522 13.6406 16.2522 12.9978C16.2502 12.1365 15.9071 11.311 15.2981 10.7019C14.689 10.0928 13.8635 9.74979 13.0022 9.74779ZM18.2022 8.97537C18.0488 8.9748 17.8971 8.94403 17.7556 8.88482C17.6141 8.8256 17.4857 8.7391 17.3777 8.63026C17.1595 8.41043 17.0375 8.11293 17.0387 7.80321C17.0398 7.49348 17.164 7.19689 17.3838 6.97869C17.6036 6.76049 17.9011 6.63856 18.2109 6.63971C18.5206 6.64085 18.8172 6.765 19.0354 6.98482C19.2536 7.20464 19.3755 7.50214 19.3744 7.81187C19.3732 8.1216 19.2491 8.41819 19.0293 8.63639C18.8094 8.85458 18.5119 8.97652 18.2022 8.97537Z" fill="#413E49"/>
</svg>
