<svg width="50" height="50" viewBox="0 0 50 50" fill="none" xmlns="http://www.w3.org/2000/svg">
<path d="M27.0834 24.4791H41.0729C41.7813 23.7562 42.6979 23.2395 43.7292 23.025C43.2417 12.527 34.5771 4.16663 23.9584 4.16663C18.7093 4.16663 13.6752 6.25181 9.96353 9.96347C6.25187 13.6751 4.16669 18.7092 4.16669 23.9583C4.16669 34.5395 12.4709 43.1812 22.9167 43.7229V40.5937C18.6377 40.3289 14.6254 38.4254 11.7136 35.2789C8.80176 32.1324 7.21442 27.9848 7.28148 23.6982C7.34854 19.4116 9.06483 15.3157 12.0737 12.2617C15.0825 9.20782 19.1524 7.43078 23.4375 7.29996V20.8333C23.4375 22.8458 25.0709 24.4791 27.0834 24.4791ZM27.0834 21.3541C26.9452 21.3541 26.8127 21.2993 26.7151 21.2016C26.6174 21.1039 26.5625 20.9714 26.5625 20.8333V7.49371C30.0401 8.04529 33.2539 9.68325 35.7436 12.173C38.2334 14.6628 39.8714 17.8766 40.4229 21.3541H27.0834ZM44.7917 25C43.9629 25 43.168 25.3292 42.582 25.9152C41.9959 26.5013 41.6667 27.2962 41.6667 28.125V44.7916C41.6667 45.6204 41.9959 46.4153 42.582 47.0013C43.168 47.5874 43.9629 47.9166 44.7917 47.9166C45.6205 47.9166 46.4153 47.5874 47.0014 47.0013C47.5874 46.4153 47.9167 45.6204 47.9167 44.7916V28.125C47.9167 27.2962 47.5874 26.5013 47.0014 25.9152C46.4153 25.3292 45.6205 25 44.7917 25ZM28.125 37.5C27.2962 37.5 26.5014 37.8292 25.9153 38.4153C25.3293 39.0013 25 39.7962 25 40.625V44.7916C25 45.6204 25.3293 46.4153 25.9153 47.0013C26.5014 47.5874 27.2962 47.9166 28.125 47.9166C28.9538 47.9166 29.7487 47.5874 30.3347 47.0013C30.9208 46.4153 31.25 45.6204 31.25 44.7916V40.625C31.25 39.7962 30.9208 39.0013 30.3347 38.4153C29.7487 37.8292 28.9538 37.5 28.125 37.5ZM33.3334 34.375C33.3334 33.5462 33.6626 32.7513 34.2486 32.1652C34.8347 31.5792 35.6296 31.25 36.4584 31.25C37.2872 31.25 38.082 31.5792 38.6681 32.1652C39.2541 32.7513 39.5834 33.5462 39.5834 34.375V44.7916C39.5834 45.6204 39.2541 46.4153 38.6681 47.0013C38.082 47.5874 37.2872 47.9166 36.4584 47.9166C35.6296 47.9166 34.8347 47.5874 34.2486 47.0013C33.6626 46.4153 33.3334 45.6204 33.3334 44.7916V34.375Z" fill="url(#paint0_linear_183_878)"/>
<defs>
<linearGradient id="paint0_linear_183_878" x1="-6.43795" y1="-15.5449" x2="52.8726" y2="70.4206" gradientUnits="userSpaceOnUse">
<stop stop-color="#2836DD"/>
<stop offset="1" stop-color="#E0C0FF"/>
</linearGradient>
</defs>
</svg>
