<svg width="30" height="30" viewBox="0 0 30 30" fill="none" xmlns="http://www.w3.org/2000/svg">
<path d="M21.1366 17.2562C21.4565 17.2562 21.7733 17.3218 22.0688 17.4494C22.3644 17.5769 22.6329 17.7639 22.8591 17.9996C23.0852 18.2353 23.2646 18.5151 23.3869 18.823C23.5092 19.1309 23.5721 19.4609 23.572 19.7941V20.4427C23.572 21.4512 23.2255 22.4269 22.5963 23.1928C20.8962 25.2604 18.3114 26.2812 14.9058 26.2812C11.4991 26.2812 8.91536 25.2604 7.21959 23.1905C6.5918 22.4252 6.24662 21.4517 6.24609 20.445V19.793C6.24609 19.4597 6.30916 19.1296 6.43168 18.8217C6.55421 18.5138 6.73379 18.234 6.96016 17.9984C7.18654 17.7628 7.45527 17.576 7.75099 17.4486C8.04671 17.3213 8.36363 17.2559 8.68363 17.2562H21.1366ZM21.1366 18.9481H8.68146C8.57486 18.9481 8.46931 18.97 8.37083 19.0126C8.27236 19.0551 8.1829 19.1174 8.10757 19.196C8.03224 19.2746 7.97252 19.3678 7.93182 19.4705C7.89113 19.5731 7.87025 19.6831 7.8704 19.7941V20.445C7.8704 21.0485 8.07831 21.6328 8.45514 22.0919C9.81198 23.7489 11.9409 24.5892 14.9058 24.5892C17.8707 24.5892 20.0018 23.7489 21.3619 22.093C21.7394 21.6331 21.9468 21.0478 21.9466 20.4427V19.793C21.9466 19.5691 21.8613 19.3544 21.7094 19.196C21.5576 19.0376 21.3515 18.9484 21.1366 18.9481ZM14.9058 3.72595C15.6168 3.72595 16.3209 3.87183 16.9778 4.15527C17.6347 4.4387 18.2315 4.85414 18.7343 5.37785C19.2371 5.90157 19.6359 6.52331 19.908 7.20758C20.1801 7.89185 20.3201 8.62524 20.3201 9.36589C20.3201 10.1065 20.1801 10.8399 19.908 11.5242C19.6359 12.2085 19.2371 12.8302 18.7343 13.3539C18.2315 13.8776 17.6347 14.2931 16.9778 14.5765C16.3209 14.8599 15.6168 15.0058 14.9058 15.0058C13.4698 15.0058 12.0927 14.4116 11.0773 13.3539C10.0619 12.2962 9.49145 10.8617 9.49145 9.36589C9.49145 7.87009 10.0619 6.43555 11.0773 5.37785C12.0927 4.32016 13.4698 3.72595 14.9058 3.72595ZM14.9058 5.41793C14.4081 5.41793 13.9152 5.52005 13.4554 5.71845C12.9956 5.91686 12.5778 6.20766 12.2258 6.57426C11.8739 6.94087 11.5947 7.37609 11.4043 7.85507C11.2138 8.33406 11.1158 8.84744 11.1158 9.36589C11.1158 9.88434 11.2138 10.3977 11.4043 10.8767C11.5947 11.3557 11.8739 11.7909 12.2258 12.1575C12.5778 12.5241 12.9956 12.8149 13.4554 13.0133C13.9152 13.2117 14.4081 13.3138 14.9058 13.3138C15.911 13.3138 16.875 12.8979 17.5858 12.1575C18.2965 11.4171 18.6958 10.413 18.6958 9.36589C18.6958 8.31883 18.2965 7.31465 17.5858 6.57426C16.875 5.83388 15.911 5.41793 14.9058 5.41793Z" fill="#6570F1"/>
</svg>
