<svg width="42" height="40" viewBox="0 0 42 40" fill="none" xmlns="http://www.w3.org/2000/svg">
<path d="M29.8607 20C32.2918 20 34.6234 20.9658 36.3425 22.6849C38.0616 24.4039 39.0273 26.7355 39.0273 29.1667C39.0273 31.5978 38.0616 33.9294 36.3425 35.6485C34.6234 37.3676 32.2918 38.3333 29.8607 38.3333C27.4295 38.3333 25.0979 37.3676 23.3789 35.6485C21.6598 33.9294 20.694 31.5978 20.694 29.1667C20.694 26.7355 21.6598 24.4039 23.3789 22.6849C25.0979 20.9658 27.4295 20 29.8607 20ZM24.4507 16.6667C25.1104 16.6668 25.7585 16.841 26.3294 17.1717C26.9003 17.5023 27.3739 17.9778 27.7023 18.55C26.827 18.7264 25.9771 19.0114 25.1723 19.3983C24.9623 19.2469 24.7097 19.1658 24.4507 19.1667H16.9473C16.6158 19.1667 16.2979 19.2984 16.0635 19.5328C15.829 19.7672 15.6973 20.0851 15.6973 20.4167V27.4983C15.6973 29.8483 17.3207 31.8217 19.5073 32.3567C19.794 33.3 20.2107 34.1883 20.7323 35.0017L20.699 35C18.7094 35 16.8014 34.2096 15.3945 32.8028C13.9877 31.396 13.1973 29.4879 13.1973 27.4983V20.4167C13.1973 19.4221 13.5924 18.4683 14.2957 17.765C14.999 17.0618 15.9528 16.6667 16.9473 16.6667H24.4507ZM25.8507 24.9433L25.734 25.04L25.6373 25.1567C25.5413 25.2958 25.4899 25.4609 25.4899 25.63C25.4899 25.7991 25.5413 25.9642 25.6373 26.1033L25.734 26.22L28.684 29.1683L25.7373 32.1117L25.6407 32.2283C25.5446 32.3675 25.4932 32.5326 25.4932 32.7017C25.4932 32.8707 25.5446 33.0358 25.6407 33.175L25.7373 33.2917L25.854 33.3867C25.9932 33.4827 26.1583 33.5341 26.3273 33.5341C26.4964 33.5341 26.6615 33.4827 26.8007 33.3867L26.9173 33.2917L29.8607 30.3467L32.8107 33.295L32.9257 33.3917C33.0648 33.4877 33.2299 33.5391 33.399 33.5391C33.5681 33.5391 33.7332 33.4877 33.8723 33.3917L33.989 33.295L34.084 33.1783C34.18 33.0392 34.2315 32.8741 34.2315 32.705C34.2315 32.5359 34.18 32.3708 34.084 32.2317L33.9873 32.115L31.039 29.1683L33.9923 26.2183L34.089 26.1033C34.1854 25.964 34.2371 25.7986 34.2371 25.6292C34.2371 25.4597 34.1854 25.2943 34.089 25.155L33.9923 25.04L33.8773 24.9433C33.738 24.8469 33.5726 24.7953 33.4032 24.7953C33.2337 24.7953 33.0683 24.8469 32.929 24.9433L32.814 25.04L29.8607 27.99L26.9107 25.04L26.7973 24.9433C26.6784 24.8611 26.5401 24.8113 26.396 24.7987C26.2519 24.7861 26.1071 24.8113 25.9757 24.8717L25.849 24.9433H25.8507ZM13.0357 16.6667C12.3665 17.3633 11.8963 18.2266 11.674 19.1667H7.77734C7.44582 19.1667 7.12788 19.2984 6.89346 19.5328C6.65904 19.7672 6.52734 20.0851 6.52734 20.4167V24.9983C6.52724 25.6281 6.66985 26.2498 6.94446 26.8166C7.21908 27.3833 7.61856 27.8805 8.1129 28.2708C8.60723 28.661 9.18357 28.9342 9.79862 29.0697C10.4137 29.2052 11.0514 29.1996 11.664 29.0533C11.8057 29.8933 12.064 30.695 12.419 31.44C11.4311 31.7043 10.3957 31.7378 9.39283 31.538C8.38994 31.3382 7.44642 30.9104 6.63526 30.2878C5.82409 29.6651 5.16699 28.8642 4.71478 27.947C4.26257 27.0298 4.02736 26.0209 4.02734 24.9983V20.4167C4.02723 19.4665 4.38784 18.5516 5.03629 17.8571C5.68475 17.1625 6.57269 16.74 7.52068 16.675L7.77734 16.6667H13.0373H13.0357ZM33.609 16.6667C34.6036 16.6667 35.5574 17.0618 36.2607 17.765C36.9639 18.4683 37.359 19.4221 37.359 20.4167V21.35C35.344 19.4111 32.6553 18.3297 29.859 18.3333L29.4507 18.3417C29.1958 17.7198 28.826 17.1516 28.3607 16.6667H33.6107H33.609ZM31.5257 6.66667C32.6307 6.66667 33.6906 7.10565 34.472 7.88705C35.2534 8.66846 35.6923 9.72826 35.6923 10.8333C35.6923 11.9384 35.2534 12.9982 34.472 13.7796C33.6906 14.561 32.6307 15 31.5257 15C30.4206 15 29.3608 14.561 28.5794 13.7796C27.798 12.9982 27.359 11.9384 27.359 10.8333C27.359 9.72826 27.798 8.66846 28.5794 7.88705C29.3608 7.10565 30.4206 6.66667 31.5257 6.66667ZM20.6923 5C22.0184 5 23.2902 5.52678 24.2279 6.46447C25.1656 7.40215 25.6923 8.67392 25.6923 10C25.6923 11.3261 25.1656 12.5979 24.2279 13.5355C23.2902 14.4732 22.0184 15 20.6923 15C19.3663 15 18.0945 14.4732 17.1568 13.5355C16.2191 12.5979 15.6923 11.3261 15.6923 10C15.6923 8.67392 16.2191 7.40215 17.1568 6.46447C18.0945 5.52678 19.3663 5 20.6923 5ZM9.85901 6.66667C10.9641 6.66667 12.0239 7.10565 12.8053 7.88705C13.5867 8.66846 14.0257 9.72826 14.0257 10.8333C14.0257 11.9384 13.5867 12.9982 12.8053 13.7796C12.0239 14.561 10.9641 15 9.85901 15C8.75394 15 7.69413 14.561 6.91273 13.7796C6.13133 12.9982 5.69234 11.9384 5.69234 10.8333C5.69234 9.72826 6.13133 8.66846 6.91273 7.88705C7.69413 7.10565 8.75394 6.66667 9.85901 6.66667ZM31.5257 9.16667C31.0836 9.16667 30.6597 9.34226 30.3472 9.65482C30.0346 9.96738 29.859 10.3913 29.859 10.8333C29.859 11.2754 30.0346 11.6993 30.3472 12.0118C30.6597 12.3244 31.0836 12.5 31.5257 12.5C31.9677 12.5 32.3916 12.3244 32.7042 12.0118C33.0167 11.6993 33.1923 11.2754 33.1923 10.8333C33.1923 10.3913 33.0167 9.96738 32.7042 9.65482C32.3916 9.34226 31.9677 9.16667 31.5257 9.16667ZM20.6923 7.5C20.0293 7.5 19.3934 7.76339 18.9246 8.23223C18.4557 8.70107 18.1923 9.33696 18.1923 10C18.1923 10.663 18.4557 11.2989 18.9246 11.7678C19.3934 12.2366 20.0293 12.5 20.6923 12.5C21.3554 12.5 21.9913 12.2366 22.4601 11.7678C22.929 11.2989 23.1923 10.663 23.1923 10C23.1923 9.33696 22.929 8.70107 22.4601 8.23223C21.9913 7.76339 21.3554 7.5 20.6923 7.5ZM9.85901 9.16667C9.41698 9.16667 8.99306 9.34226 8.6805 9.65482C8.36794 9.96738 8.19234 10.3913 8.19234 10.8333C8.19234 11.2754 8.36794 11.6993 8.6805 12.0118C8.99306 12.3244 9.41698 12.5 9.85901 12.5C10.301 12.5 10.725 12.3244 11.0375 12.0118C11.3501 11.6993 11.5257 11.2754 11.5257 10.8333C11.5257 10.3913 11.3501 9.96738 11.0375 9.65482C10.725 9.34226 10.301 9.16667 9.85901 9.16667Z" fill="#6570F1"/>
</svg>
