<svg width="40" height="40" viewBox="0 0 40 40" fill="none" xmlns="http://www.w3.org/2000/svg">
<path d="M20.3982 4.94002C20.213 4.94009 20.0302 4.98141 19.863 5.06098C19.6958 5.14055 19.5484 5.25637 19.4316 5.40002L19.3349 5.47169C17.5226 4.92014 15.5949 4.86953 13.7562 5.32524C11.9175 5.78095 10.2365 6.72598 8.89155 8.06002C7.69949 9.2405 6.81304 10.6937 6.3089 12.2938C5.80477 13.8939 5.69813 15.5928 5.99822 17.2434L5.97322 17.2684L4.37655 18.8534C4.04684 19.18 3.78512 19.5688 3.60651 19.9972C3.4279 20.4255 3.33594 20.8851 3.33594 21.3492C3.33594 21.8133 3.4279 22.2729 3.60651 22.7012C3.78512 23.1296 4.04684 23.5184 4.37655 23.845C4.76435 24.2302 5.23561 24.5209 5.75383 24.6946C6.27205 24.8683 6.82331 24.9203 7.36489 24.8467C7.55802 25.5494 7.96285 26.1756 8.52434 26.6402C9.08584 27.1048 9.77677 27.3852 10.5032 27.4434C10.5779 28.298 10.9595 29.0967 11.5775 29.6917C12.1955 30.2867 13.0081 30.6378 13.8649 30.68C13.9082 31.525 14.2532 32.355 14.9016 32.9984C16.1682 34.2584 18.1549 34.3667 19.5466 33.3267L20.1916 33.9667C20.8629 34.6319 21.7698 35.0051 22.7149 35.0051C23.66 35.0051 24.5669 34.6319 25.2382 33.9667C25.8549 33.3534 26.1999 32.57 26.2716 31.77C27.1032 31.6996 27.8834 31.338 28.4748 30.7491C29.0662 30.1601 29.431 29.3814 29.5049 28.55C30.2375 28.4827 30.931 28.1892 31.4894 27.7103C32.0478 27.2313 32.4435 26.5905 32.6215 25.8767C33.155 25.9406 33.696 25.8829 34.204 25.708C34.712 25.5331 35.1739 25.2455 35.5549 24.8667C35.8843 24.5401 36.1459 24.1514 36.3243 23.7232C36.5028 23.295 36.5947 22.8356 36.5947 22.3717C36.5947 21.9078 36.5028 21.4484 36.3243 21.0202C36.1459 20.592 35.8843 20.2033 35.5549 19.8767L34.1665 18.495L34.4532 17.385C35.0734 14.9695 34.761 12.4089 33.5782 10.2134C32.7176 8.61941 31.4416 7.28818 29.8855 6.36092C28.3294 5.43365 26.5513 4.94496 24.7399 4.94669H22.0616C21.9472 4.94169 21.8327 4.93947 21.7182 4.94002H20.3999H20.3982ZM25.2732 13.1817L31.0466 18.9184L31.0516 18.925L31.0749 18.9467L33.7832 21.6384C33.88 21.7344 33.9568 21.8487 34.0092 21.9745C34.0616 22.1004 34.0885 22.2354 34.0885 22.3717C34.0885 22.508 34.0616 22.643 34.0092 22.7689C33.9568 22.8947 33.88 23.009 33.7832 23.105C33.5866 23.2994 33.3213 23.4085 33.0449 23.4085C32.7684 23.4085 32.5031 23.2994 32.3066 23.105L29.5982 20.4134C29.3623 20.1797 29.0436 20.0486 28.7116 20.0486C28.3795 20.0486 28.0608 20.1797 27.8249 20.4134L27.7982 20.4417C27.6819 20.557 27.5895 20.6942 27.5265 20.8454C27.4634 20.9966 27.431 21.1587 27.431 21.3225C27.431 21.4863 27.4634 21.6485 27.5265 21.7997C27.5895 21.9509 27.6819 22.0881 27.7982 22.2034L29.9082 24.3017C30.005 24.3977 30.0818 24.512 30.1342 24.6379C30.1866 24.7637 30.2135 24.8987 30.2135 25.035C30.2135 25.1714 30.1866 25.3063 30.1342 25.4322C30.0818 25.5581 30.005 25.6723 29.9082 25.7684C29.7302 25.9455 29.4947 26.053 29.2442 26.0713C28.9938 26.0897 28.7451 26.0177 28.5432 25.8684C28.3008 25.6869 28.0011 25.5988 27.699 25.6202C27.3969 25.6416 27.1126 25.7711 26.8982 25.985C26.6847 26.1985 26.5564 26.4825 26.5374 26.7838C26.5183 27.0852 26.6099 27.3831 26.7949 27.6217C26.9486 27.8213 27.0242 28.0702 27.0073 28.3215C26.9904 28.5729 26.8823 28.8095 26.7032 28.9867C26.5221 29.1662 26.2818 29.2737 26.0273 29.289C25.7727 29.3043 25.5213 29.2265 25.3199 29.07C25.0789 28.8821 24.7779 28.7881 24.4728 28.8056C24.1678 28.8231 23.8794 28.9508 23.6616 29.165C23.4444 29.3787 23.3135 29.6648 23.2938 29.9689C23.2741 30.2729 23.3671 30.5735 23.5549 30.8134C23.7123 31.016 23.7901 31.2693 23.7736 31.5254C23.757 31.7815 23.6472 32.0227 23.4649 32.2034C23.2652 32.4008 22.9957 32.5116 22.7149 32.5116C22.4341 32.5116 22.1646 32.4008 21.9649 32.2034L21.3449 31.5884L21.5199 31.4134C21.8493 31.0867 22.1109 30.6981 22.2893 30.2699C22.4678 29.8416 22.5597 29.3823 22.5597 28.9184C22.5597 28.4544 22.4678 27.9951 22.2893 27.5669C22.1109 27.1386 21.8493 26.75 21.5199 26.4234C20.8966 25.8028 20.0651 25.4358 19.1866 25.3934C19.139 24.5371 18.7829 23.727 18.1842 23.113C17.5855 22.499 16.7847 22.1225 15.9299 22.0534C15.8616 21.2186 15.4969 20.4358 14.9016 19.8467C14.5138 19.4615 14.0425 19.1708 13.5243 18.9971C13.0061 18.8234 12.4548 18.7714 11.9132 18.845C11.7016 18.0779 11.2388 17.4039 10.5988 16.931C9.95881 16.4581 9.17865 16.2136 8.38322 16.2367C8.25666 15.0644 8.39608 13.8787 8.79111 12.7677C9.18615 11.6568 9.82663 10.6492 10.6649 9.82003C11.446 9.04401 12.3799 8.43883 13.4074 8.04289C14.4348 7.64696 15.5333 7.4689 16.6332 7.52002L14.1382 9.40836C13.7328 9.71521 13.392 10.0992 13.1355 10.5383C12.879 10.9773 12.7119 11.4628 12.6438 11.9666C12.5756 12.4705 12.6078 12.9829 12.7384 13.4743C12.869 13.9658 13.0955 14.4265 13.4049 14.83C14.0297 15.6445 14.9512 16.1788 15.9684 16.3165C16.9856 16.4542 18.016 16.1841 18.8349 15.565L21.9832 13.18H25.2732V13.1817ZM15.6466 11.4034L20.8782 7.44002H21.7182C21.8222 7.43927 21.9261 7.44205 22.0299 7.44836H24.7399C26.0996 7.44653 27.4345 7.81275 28.6029 8.50817C29.7714 9.2036 30.7298 10.2023 31.3766 11.3984C32.2015 12.9317 32.4599 14.695 32.1166 16.39L26.7649 11.0634C26.6484 10.9427 26.5088 10.8468 26.3545 10.7812C26.2002 10.7157 26.0342 10.6818 25.8666 10.6817H21.5649C21.2923 10.6816 21.0272 10.7705 20.8099 10.935L17.3266 13.5734C17.0344 13.7938 16.6671 13.89 16.3044 13.841C15.9417 13.792 15.613 13.6018 15.3899 13.3117C15.2809 13.1697 15.2011 13.0075 15.1551 12.8345C15.1091 12.6615 15.0977 12.4811 15.1217 12.3037C15.1458 12.1263 15.2046 11.9555 15.295 11.8009C15.3854 11.6464 15.5054 11.5113 15.6482 11.4034H15.6466ZM10.0566 24.6617C9.9598 24.5656 9.88301 24.4514 9.83061 24.3255C9.77821 24.1997 9.75123 24.0647 9.75123 23.9284C9.75123 23.792 9.77821 23.657 9.83061 23.5312C9.88301 23.4053 9.9598 23.2911 10.0566 23.195L11.6516 21.6084C11.8481 21.414 12.1134 21.3049 12.3899 21.3049C12.6663 21.3049 12.9317 21.414 13.1282 21.6084C13.3214 21.8001 13.4311 22.0602 13.4336 22.3323C13.4361 22.6044 13.3311 22.8665 13.1416 23.0617L13.1282 23.075L11.5332 24.66L11.5182 24.675C11.3206 24.8631 11.0575 24.967 10.7847 24.9645C10.5119 24.962 10.2507 24.8534 10.0566 24.6617ZM9.23822 19.0467C9.42716 19.2418 9.53141 19.5036 9.52829 19.7751C9.52517 20.0467 9.41493 20.306 9.22155 20.4967L7.62655 22.0834C7.42999 22.2778 7.16468 22.3868 6.88822 22.3868C6.61176 22.3868 6.34646 22.2778 6.14989 22.0834C6.05314 21.9873 5.97635 21.8731 5.92394 21.7472C5.87154 21.6213 5.84456 21.4864 5.84456 21.35C5.84456 21.2137 5.87154 21.0787 5.92394 20.9529C5.97635 20.827 6.05314 20.7127 6.14989 20.6167L7.74655 19.0317C7.94312 18.8373 8.20843 18.7283 8.48489 18.7283C8.76135 18.7283 9.02665 18.8373 9.22322 19.0317L9.23822 19.0467ZM18.1516 31.2367C17.955 31.4311 17.6897 31.5401 17.4132 31.5401C17.1368 31.5401 16.8715 31.4311 16.6749 31.2367C16.5781 31.1406 16.5013 31.0264 16.4489 30.9005C16.3965 30.7747 16.3696 30.6397 16.3696 30.5034C16.3696 30.367 16.3965 30.232 16.4489 30.1062C16.5013 29.9803 16.5781 29.8661 16.6749 29.77L18.2699 28.185C18.4665 27.9906 18.7318 27.8816 19.0082 27.8816C19.2847 27.8816 19.55 27.9906 19.7466 28.185C19.8433 28.2811 19.9201 28.3953 19.9725 28.5212C20.0249 28.647 20.0519 28.782 20.0519 28.9184C20.0519 29.0547 20.0249 29.1897 19.9725 29.3155C19.9201 29.4414 19.8433 29.5556 19.7466 29.6517L18.1516 31.2367ZM14.7832 27.89C14.5869 28.0848 14.3215 28.1941 14.0449 28.1941C13.7683 28.1941 13.5029 28.0848 13.3066 27.89C13.1132 27.6986 13.0032 27.4385 13.0004 27.1664C12.9976 26.8943 13.1022 26.6321 13.2916 26.4367L13.3066 26.4234L14.9016 24.8384L14.9149 24.8234C15.1128 24.635 15.3764 24.5311 15.6496 24.5339C15.9228 24.5367 16.1842 24.6459 16.3782 24.8384C16.475 24.9344 16.5518 25.0487 16.6042 25.1745C16.6566 25.3004 16.6835 25.4354 16.6835 25.5717C16.6835 25.708 16.6566 25.843 16.6042 25.9689C16.5518 26.0947 16.475 26.209 16.3782 26.305L14.7832 27.89Z" fill="#6570F1"/>
</svg>
