<svg width="24" height="24" viewBox="0 0 24 24" fill="none" xmlns="http://www.w3.org/2000/svg">
<path d="M5.5875 4.3999H18.4125C19.2011 4.39985 19.9599 4.70158 20.5331 5.24319C21.1064 5.7848 21.4506 6.52524 21.4953 7.3126L21.5 7.4874V16.5124C21.5001 17.301 21.1983 18.0598 20.6567 18.633C20.1151 19.2063 19.3747 19.5505 18.5873 19.5952L18.4125 19.5999H5.5875C4.79887 19.6 4.04011 19.2982 3.46688 18.7566C2.89365 18.215 2.5494 17.4746 2.50475 16.6872L2.5 16.5124V7.4874C2.49995 6.69877 2.80168 5.94002 3.34329 5.36678C3.8849 4.79355 4.62533 4.4493 5.4127 4.40465L5.5875 4.3999H18.4125H5.5875ZM20.075 9.50425L12.3325 13.5798C12.2451 13.6259 12.149 13.6534 12.0504 13.6605C11.9517 13.6675 11.8527 13.6539 11.7596 13.6206L11.6685 13.5807L3.925 9.5052V16.5124C3.92502 16.9296 4.08191 17.3316 4.36455 17.6385C4.64718 17.9454 5.03488 18.1349 5.4507 18.1692L5.5875 18.1749H18.4125C18.8299 18.1749 19.232 18.0178 19.5389 17.735C19.8459 17.4522 20.0352 17.0642 20.0693 16.6483L20.075 16.5124V9.50425ZM18.4125 5.8249H5.5875C5.17027 5.82492 4.7683 5.98181 4.46138 6.26445C4.15446 6.54708 3.96503 6.93479 3.9307 7.3506L3.925 7.4874V7.89495L12 12.1443L20.075 7.894V7.4874C20.075 7.07002 19.9179 6.66792 19.6351 6.36098C19.3523 6.05404 18.9643 5.86471 18.5483 5.8306L18.4125 5.8249Z" fill="#413E49"/>
</svg>
