<svg width="68" height="68" viewBox="0 0 68 68" fill="none" xmlns="http://www.w3.org/2000/svg">
<path d="M39.2532 42.9136C40.1365 43.8007 40.801 44.8814 41.194 46.0699L42.4634 49.9714C42.5695 50.2722 42.7663 50.5326 43.0266 50.7168C43.2869 50.901 43.598 50.9999 43.9169 50.9999C44.2358 50.9999 44.5468 50.901 44.8072 50.7168C45.0675 50.5326 45.2643 50.2722 45.3704 49.9714L46.6397 46.0699C47.0347 44.884 47.7009 43.8066 48.5852 42.9233C49.4696 42.0399 50.5477 41.375 51.734 40.9813L55.6384 39.7119C55.9369 39.604 56.1948 39.4066 56.3771 39.1468C56.5595 38.887 56.6573 38.5773 56.6573 38.2598C56.6573 37.9424 56.5595 37.6327 56.3771 37.3729C56.1948 37.1131 55.9369 36.9157 55.6384 36.8078L55.559 36.7879L51.6547 35.5186C50.4687 35.1243 49.3909 34.4592 48.5066 33.5759C47.6223 32.6926 46.956 31.6155 46.5604 30.4299L45.2939 26.5284C45.1884 26.2267 44.9916 25.9653 44.731 25.7803C44.4703 25.5953 44.1586 25.4959 43.839 25.4959C43.5193 25.4959 43.2076 25.5953 42.9469 25.7803C42.6863 25.9653 42.4896 26.2267 42.384 26.5284L41.1147 30.4299L41.0835 30.5263C40.6873 31.6827 40.0324 32.7335 39.1688 33.5986C38.3051 34.4637 37.2555 35.1204 36.0997 35.5186L32.1954 36.7879C31.8969 36.8959 31.6389 37.0932 31.4566 37.3531C31.2743 37.6129 31.1765 37.9226 31.1765 38.24C31.1765 38.5574 31.2743 38.8671 31.4566 39.127C31.6389 39.3868 31.8969 39.5841 32.1954 39.6921L36.0997 40.9614C37.2897 41.3581 38.3664 42.0268 39.2532 42.9136ZM45.3335 16.9999V22.9301C44.6238 22.6721 43.8593 22.6023 43.1145 22.7275C42.3698 22.8526 41.6701 23.1684 41.0835 23.6441V16.9999C41.0835 15.1213 40.3373 13.3196 39.0089 11.9913C37.6805 10.6629 35.8788 9.9166 34.0002 9.9166C32.1216 9.9166 30.3199 10.6629 28.9915 11.9913C27.6632 13.3196 26.9169 15.1213 26.9169 16.9999V33.9999C26.9169 35.5951 27.4439 37.0656 28.3335 38.2499C28.3353 39.1535 28.6167 40.0344 29.1393 40.7715C29.6618 41.5087 30.3998 42.066 31.2519 42.3668L31.2887 42.3781L35.2129 43.6531C35.9609 43.9024 36.6437 44.3218 37.2075 44.8714C35.517 45.3702 33.7335 45.4679 31.9986 45.1566C30.2638 44.8453 28.6254 44.1337 27.2138 43.0782C25.8022 42.0228 24.6562 40.6527 23.8668 39.0768C23.0775 37.5008 22.6666 35.7625 22.6669 33.9999V17.0028C22.6669 13.997 23.8609 11.1143 25.9863 8.98889C28.1117 6.86348 30.9944 5.66943 34.0002 5.66943C37.006 5.66943 39.8887 6.86348 42.0141 8.98889C44.1395 11.1143 45.3335 13.997 45.3335 17.0028V16.9999ZM34.7085 49.5833C36.2499 49.5833 37.7402 49.3481 39.1399 48.9118L39.7802 50.8809L39.7915 50.9149C40.0437 51.6289 40.4772 52.2636 41.0439 52.7566C39.4577 53.3141 37.8048 53.6589 36.128 53.7823L36.1252 60.2083C36.125 60.7467 35.9205 61.2649 35.553 61.6583C35.1854 62.0518 34.6822 62.291 34.145 62.3277C33.6079 62.3644 33.0768 62.1958 32.6592 61.856C32.2415 61.5163 31.9684 61.0306 31.895 60.4973L31.8752 60.2083V53.7823C27.1762 53.4333 22.7713 51.3619 19.5055 47.9653C16.2396 44.5687 14.3426 40.086 14.1782 35.3769L14.1669 34.7083V33.2916C14.167 32.7532 14.3716 32.2349 14.7391 31.8415C15.1067 31.4481 15.6099 31.2089 16.147 31.1722C16.6842 31.1355 17.2152 31.3041 17.6329 31.6438C18.0505 31.9836 18.3237 32.4692 18.397 33.0026L18.4169 33.2916V34.7083C18.4165 38.5476 19.9007 42.2384 22.559 45.0086C25.2173 47.7789 28.8438 49.414 32.6799 49.5719L33.2919 49.5833H34.7085ZM62.3817 53.7341L64.5521 54.4368L64.5945 54.4481C64.7195 54.4922 64.8326 54.5647 64.9249 54.6598C65.0172 54.7549 65.0862 54.8701 65.1265 54.9963C65.1669 55.1226 65.1774 55.2564 65.1574 55.3874C65.1374 55.5184 65.0873 55.643 65.011 55.7514C64.9079 55.896 64.7624 56.005 64.5945 56.0631L62.4271 56.7658C61.7675 56.9845 61.1681 57.354 60.6763 57.8448C60.1844 58.3356 59.8138 58.9344 59.5937 59.5934L58.891 61.7609C58.8324 61.9283 58.7232 62.0733 58.5785 62.1759C58.4339 62.2785 58.2609 62.3336 58.0835 62.3336C57.9062 62.3336 57.7332 62.2785 57.5886 62.1759C57.4439 62.0733 57.3347 61.9283 57.276 61.7609L56.5705 59.5963C56.3529 58.9351 55.9835 58.334 55.492 57.841C55.0006 57.3481 54.4006 56.9769 53.74 56.7573L51.5725 56.0518C51.4476 56.0077 51.3345 55.9352 51.2422 55.8401C51.1499 55.745 51.0809 55.6298 51.0406 55.5036C51.0002 55.3773 50.9897 55.2434 51.0097 55.1124C51.0297 54.9814 51.0798 54.8568 51.156 54.7484C51.2592 54.6038 51.4047 54.4949 51.5725 54.4368L53.74 53.7341C54.3913 53.5096 54.9818 53.1375 55.4654 52.647C55.9491 52.1565 56.3127 51.5608 56.528 50.9064L57.2335 48.7389C57.2922 48.5716 57.4014 48.4266 57.5461 48.324C57.6907 48.2214 57.8637 48.1663 58.041 48.1663C58.2184 48.1663 58.3913 48.2214 58.536 48.324C58.6807 48.4266 58.7899 48.5716 58.8485 48.7389L59.554 50.9036C59.7726 51.5629 60.142 52.1621 60.6329 52.6535C61.1238 53.1449 61.7226 53.5149 62.3817 53.7341Z" fill="#FAFAFA"/>
</svg>
