<svg width="40" height="40" viewBox="0 0 40 40" fill="none" xmlns="http://www.w3.org/2000/svg">
<path d="M8.7487 6.66663C7.31211 6.66663 5.93436 7.23731 4.91854 8.25313C3.90271 9.26895 3.33203 10.6467 3.33203 12.0833V24.5833C3.33203 26.0199 3.90271 27.3976 4.91854 28.4135C5.93436 29.4293 7.31211 30 8.7487 30H18.332V27.5H8.7487C7.97515 27.5 7.23328 27.1927 6.6863 26.6457C6.13932 26.0987 5.83203 25.3568 5.83203 24.5833V15H34.1654V19.25C34.9149 19.6325 35.5447 20.214 35.9857 20.9307C36.4267 21.6474 36.6618 22.4718 36.6654 23.3133V12.0833C36.6654 11.372 36.5253 10.6676 36.253 10.0104C35.9808 9.35324 35.5818 8.75611 35.0789 8.25313C34.5759 7.75015 33.9787 7.35116 33.3216 7.07895C32.6644 6.80673 31.96 6.66663 31.2487 6.66663H8.7487ZM34.1654 12.5H5.83203V12.0833C5.83203 10.4733 7.1387 9.16663 8.7487 9.16663H31.2487C32.8587 9.16663 34.1654 10.4733 34.1654 12.0833V12.5ZM23.332 25H22.4987C21.8357 25 21.1998 25.2633 20.7309 25.7322C20.2621 26.201 19.9987 26.8369 19.9987 27.5V30H24.1654V29.5833C24.1654 29.2518 24.2971 28.9338 24.5315 28.6994C24.7659 28.465 25.0838 28.3333 25.4154 28.3333C25.7469 28.3333 26.0648 28.465 26.2992 28.6994C26.5337 28.9338 26.6654 29.2518 26.6654 29.5833V30H31.6654V29.5833C31.6654 29.2518 31.7971 28.9338 32.0315 28.6994C32.2659 28.465 32.5838 28.3333 32.9154 28.3333C33.2469 28.3333 33.5648 28.465 33.7992 28.6994C34.0337 28.9338 34.1654 29.2518 34.1654 29.5833V30H38.332V27.5C38.332 26.8369 38.0686 26.201 37.5998 25.7322C37.131 25.2633 36.4951 25 35.832 25H34.9987V23.3333C34.9987 22.5597 34.6914 21.8179 34.1444 21.2709C33.5974 20.7239 32.8556 20.4166 32.082 20.4166H26.2487C25.4751 20.4166 24.7333 20.7239 24.1863 21.2709C23.6393 21.8179 23.332 22.5597 23.332 23.3333V25ZM25.832 23.3333C25.832 23.2228 25.8759 23.1168 25.9541 23.0387C26.0322 22.9605 26.1382 22.9166 26.2487 22.9166H32.082C32.1925 22.9166 32.2985 22.9605 32.3767 23.0387C32.4548 23.1168 32.4987 23.2228 32.4987 23.3333V25H25.832V23.3333ZM19.9987 35.8333V32.5H24.1654V33.75C24.1654 34.0815 24.2971 34.3994 24.5315 34.6338C24.7659 34.8683 25.0838 35 25.4154 35C25.7469 35 26.0648 34.8683 26.2992 34.6338C26.5337 34.3994 26.6654 34.0815 26.6654 33.75V32.5H31.6654V33.75C31.6654 34.0815 31.7971 34.3994 32.0315 34.6338C32.2659 34.8683 32.5838 35 32.9154 35C33.2469 35 33.5648 34.8683 33.7992 34.6338C34.0337 34.3994 34.1654 34.0815 34.1654 33.75V32.5H38.332V35.8333C38.332 36.4963 38.0686 37.1322 37.5998 37.6011C37.131 38.0699 36.4951 38.3333 35.832 38.3333H22.4987C21.8357 38.3333 21.1998 38.0699 20.7309 37.6011C20.2621 37.1322 19.9987 36.4963 19.9987 35.8333Z" fill="#6570F1"/>
</svg>
