<svg width="69" height="68" viewBox="0 0 69 68" fill="none" xmlns="http://www.w3.org/2000/svg">
<path d="M17.9689 9.9165C17.3971 9.9165 16.8486 10.1404 16.4442 10.5389C16.0399 10.9374 15.8127 11.4779 15.8127 12.0415V55.9582C15.8127 57.1312 16.7787 58.0832 17.9689 58.0832H28.8364C28.5394 59.5456 28.8168 61.0646 29.6127 62.3332H17.9689C16.2533 62.3332 14.608 61.6615 13.3948 60.466C12.1817 59.2704 11.5002 57.6489 11.5002 55.9582V12.0415C11.5002 10.3507 12.1817 8.72924 13.3948 7.5337C14.608 6.33815 16.2533 5.6665 17.9689 5.6665H35.4662C36.8002 5.6665 38.0796 6.18784 39.0226 7.12L56.0253 23.8763C56.9712 24.8057 57.5002 26.0665 57.5002 27.3812V28.3332H57.1264C56.8085 28.3175 56.4899 28.3175 56.1719 28.3332H40.2502C38.7252 28.3332 37.2627 27.7361 36.1843 26.6734C35.106 25.6107 34.5002 24.1694 34.5002 22.6665V9.9165H17.9689ZM38.8127 12.9198V22.6665C38.8127 23.0422 38.9641 23.4026 39.2337 23.6682C39.5033 23.9339 39.8689 24.0832 40.2502 24.0832H50.1402L38.8127 12.9198Z" fill="#FAFAFA"/>
<path d="M56.675 31.1665H56.6808C57.98 31.1676 59.2498 31.5481 60.3297 32.2601C61.4096 32.972 62.2511 33.9834 62.748 35.1665C63.2449 36.3496 63.3748 37.6513 63.1213 38.9071C62.8678 40.1629 62.2424 41.3165 61.3239 42.2222L44.3557 58.9445C43.367 59.9202 42.1278 60.6126 40.7705 60.9477L35.5064 62.2425C34.9829 62.3713 34.4346 62.3644 33.9146 62.2224C33.3947 62.0804 32.9209 61.8082 32.5394 61.4322C32.1578 61.0562 31.8816 60.5893 31.7375 60.0769C31.5934 59.5645 31.5864 59.024 31.7172 58.5082L33.031 53.3232C33.3703 51.983 34.0718 50.7618 35.0637 49.7872L52.0319 33.0648C52.6408 32.4626 53.3645 31.9849 54.1613 31.6592C54.9581 31.3334 55.8124 31.166 56.675 31.1665Z" fill="#FAFAFA"/>
</svg>
