<svg width="50" height="50" viewBox="0 0 50 50" fill="none" xmlns="http://www.w3.org/2000/svg">
<path d="M21.875 16.6666C21.0542 16.6666 20.2415 16.8283 19.4832 17.1424C18.7249 17.4565 18.0359 17.9168 17.4556 18.4972C16.8752 19.0776 16.4148 19.7666 16.1008 20.5249C15.7867 21.2831 15.625 22.0959 15.625 22.9166C15.625 23.7374 15.7867 24.5501 16.1008 25.3084C16.4148 26.0667 16.8752 26.7557 17.4556 27.336C18.0359 27.9164 18.7249 28.3768 19.4832 28.6909C20.2415 29.005 21.0542 29.1666 21.875 29.1666C23.5326 29.1666 25.1223 28.5081 26.2944 27.336C27.4665 26.1639 28.125 24.5742 28.125 22.9166C28.125 21.259 27.4665 19.6693 26.2944 18.4972C25.1223 17.3251 23.5326 16.6666 21.875 16.6666ZM18.75 22.9166C18.75 22.0878 19.0792 21.293 19.6653 20.7069C20.2513 20.1209 21.0462 19.7916 21.875 19.7916C22.7038 19.7916 23.4987 20.1209 24.0847 20.7069C24.6708 21.293 25 22.0878 25 22.9166C25 23.7454 24.6708 24.5403 24.0847 25.1263C23.4987 25.7124 22.7038 26.0416 21.875 26.0416C21.0462 26.0416 20.2513 25.7124 19.6653 25.1263C19.0792 24.5403 18.75 23.7454 18.75 22.9166Z" fill="url(#paint0_linear_183_864)"/>
<path d="M4.16669 15.1041C4.16669 13.8609 4.66055 12.6686 5.53962 11.7896C6.4187 10.9105 7.61099 10.4166 8.85419 10.4166H34.8959C35.5114 10.4166 36.121 10.5379 36.6897 10.7734C37.2584 11.009 37.7751 11.3543 38.2104 11.7896C38.6457 12.2248 38.991 12.7416 39.2265 13.3103C39.4621 13.879 39.5834 14.4886 39.5834 15.1041V30.7291C39.5834 31.3447 39.4621 31.9542 39.2265 32.523C38.991 33.0917 38.6457 33.6084 38.2104 34.0437C37.7751 34.479 37.2584 34.8242 36.6897 35.0598C36.121 35.2954 35.5114 35.4166 34.8959 35.4166H8.85419C7.61099 35.4166 6.4187 34.9228 5.53962 34.0437C4.66055 33.1646 4.16669 31.9723 4.16669 30.7291V15.1041ZM8.85419 13.5416C8.43979 13.5416 8.04236 13.7062 7.74933 13.9993C7.45631 14.2923 7.29169 14.6897 7.29169 15.1041V16.6666H8.85419C9.26859 16.6666 9.66602 16.502 9.95904 16.209C10.2521 15.916 10.4167 15.5185 10.4167 15.1041V13.5416H8.85419ZM7.29169 26.0416H8.85419C10.0974 26.0416 11.2897 26.5355 12.1687 27.4146C13.0478 28.2936 13.5417 29.4859 13.5417 30.7291V32.2916H30.2084V30.7291C30.2084 29.4859 30.7022 28.2936 31.5813 27.4146C32.4604 26.5355 33.6527 26.0416 34.8959 26.0416H36.4584V19.7916H34.8959C33.6527 19.7916 32.4604 19.2978 31.5813 18.4187C30.7022 17.5396 30.2084 16.3473 30.2084 15.1041V13.5416H13.5417V15.1041C13.5417 15.7197 13.4204 16.3292 13.1849 16.898C12.9493 17.4667 12.604 17.9834 12.1687 18.4187C11.7335 18.854 11.2167 19.1992 10.648 19.4348C10.0793 19.6704 9.46976 19.7916 8.85419 19.7916H7.29169V26.0416ZM36.4584 16.6666V15.1041C36.4584 14.6897 36.2937 14.2923 36.0007 13.9993C35.7077 13.7062 35.3103 13.5416 34.8959 13.5416H33.3334V15.1041C33.3334 15.9666 34.0334 16.6666 34.8959 16.6666H36.4584ZM36.4584 29.1666H34.8959C34.4815 29.1666 34.084 29.3313 33.791 29.6243C33.498 29.9173 33.3334 30.3147 33.3334 30.7291V32.2916H34.8959C35.3103 32.2916 35.7077 32.127 36.0007 31.834C36.2937 31.541 36.4584 31.1435 36.4584 30.7291V29.1666ZM7.29169 30.7291C7.29169 31.5916 7.99169 32.2916 8.85419 32.2916H10.4167V30.7291C10.4167 30.3147 10.2521 29.9173 9.95904 29.6243C9.66602 29.3313 9.26859 29.1666 8.85419 29.1666H7.29169V30.7291Z" fill="url(#paint1_linear_183_864)"/>
<path d="M9.16876 38.5416C9.71732 39.4922 10.5066 40.2815 11.4571 40.83C12.4076 41.3786 13.4859 41.6672 14.5833 41.6666H35.9375C37.2371 41.6666 38.5239 41.4107 39.7245 40.9133C40.9251 40.416 42.016 39.6871 42.9349 38.7682C43.8538 37.8493 44.5828 36.7584 45.0801 35.5578C45.5774 34.3571 45.8333 33.0703 45.8333 31.7708V20.8333C45.8333 18.5208 44.5771 16.5 42.7083 15.4187V31.7708C42.7083 33.5665 41.995 35.2887 40.7252 36.5585C39.4554 37.8283 37.7332 38.5416 35.9375 38.5416H9.16876Z" fill="url(#paint2_linear_183_864)"/>
<defs>
<linearGradient id="paint0_linear_183_864" x1="12.5951" y1="11.0348" x2="29.541" y2="35.5963" gradientUnits="userSpaceOnUse">
<stop stop-color="#2836DD"/>
<stop offset="1" stop-color="#E0C0FF"/>
</linearGradient>
<linearGradient id="paint1_linear_183_864" x1="-4.41802" y1="-0.84711" x2="24.1239" y2="57.7589" gradientUnits="userSpaceOnUse">
<stop stop-color="#2836DD"/>
<stop offset="1" stop-color="#E0C0FF"/>
</linearGradient>
<linearGradient id="paint2_linear_183_864" x1="0.281575" y1="3.59272" x2="30.5076" y2="64.789" gradientUnits="userSpaceOnUse">
<stop stop-color="#2836DD"/>
<stop offset="1" stop-color="#E0C0FF"/>
</linearGradient>
</defs>
</svg>
