<svg width="68" height="68" viewBox="0 0 68 68" fill="none" xmlns="http://www.w3.org/2000/svg">
<path d="M48.1669 37.5415C48.1669 36.2265 47.6445 34.9653 46.7146 34.0354C45.7847 33.1056 44.5236 32.5832 43.2085 32.5832H24.7919C23.6075 32.5832 22.5195 32.9997 21.6667 33.691L27.951 36.8332H28.3335V37.0258L30.0279 37.873C31.0592 38.3887 31.9262 39.1338 32.5835 40.032V36.8332H43.2085C43.3964 36.8332 43.5766 36.9078 43.7094 37.0406C43.8422 37.1735 43.9169 37.3536 43.9169 37.5415V41.0832H33.2182C33.6885 42.038 33.9435 43.1033 33.9435 44.2083V45.3332H43.9169V48.8748C43.9169 49.0627 43.8422 49.2429 43.7094 49.3757C43.5766 49.5085 43.3964 49.5832 43.2085 49.5832H33.9435V53.8332H43.2085C44.5236 53.8332 45.7847 53.3108 46.7146 52.3809C47.6445 51.451 48.1669 50.1899 48.1669 48.8748V37.5415ZM33.6177 58.0832H51.0002C51.3759 58.0832 51.7362 57.9339 52.0019 57.6682C52.2676 57.4026 52.4169 57.0422 52.4169 56.6665V28.3332H39.6669C38.164 28.3332 36.7226 27.7361 35.6599 26.6734C34.5972 25.6107 34.0002 24.1694 34.0002 22.6665V9.9165H17.0002C16.6245 9.9165 16.2641 10.0658 15.9985 10.3314C15.7328 10.5971 15.5835 10.9574 15.5835 11.3332V32.2998C14.956 32.4222 14.3479 32.629 13.7759 32.9147L11.3335 34.1358V11.3332C11.3335 9.83028 11.9305 8.38894 12.9932 7.32623C14.056 6.26353 15.4973 5.6665 17.0002 5.6665H34.4875C34.5669 5.6665 34.6434 5.67784 34.7199 5.68634C34.7765 5.69484 34.8332 5.70334 34.887 5.70617C35.4962 5.74867 36.0969 5.86484 36.655 6.09717C36.8165 6.16517 36.9724 6.25584 37.1254 6.34367L37.267 6.42584L37.4002 6.49384C37.4795 6.52993 37.5562 6.57159 37.6297 6.6185C37.8507 6.76867 38.049 6.94717 38.2502 7.1285C38.2831 7.15809 38.3171 7.18645 38.3522 7.2135C38.4009 7.24826 38.4472 7.28611 38.491 7.32684L55.0065 23.8395C56.0693 24.902 56.6665 26.3431 56.6669 27.8458V56.6665C56.6669 58.1694 56.0698 59.6107 55.0071 60.6734C53.9444 61.7361 52.5031 62.3332 51.0002 62.3332H29.9429L30.0279 62.2907C30.8778 61.866 31.6337 61.2746 32.2504 60.5518C32.8671 59.8289 33.3321 58.9894 33.6177 58.0832ZM39.6669 24.0832H49.2379L38.2502 13.0927V22.6665C38.2502 23.0422 38.3994 23.4026 38.6651 23.6682C38.9308 23.9339 39.2911 24.0832 39.6669 24.0832ZM2.77686 55.9525V44.2055C2.77741 43.4163 2.9977 42.6428 3.41306 41.9718C3.82841 41.3007 4.42241 40.7585 5.12852 40.406L15.0452 35.4477C15.6351 35.1529 16.2855 34.9994 16.9449 34.9994C17.6044 34.9994 18.2548 35.1529 18.8447 35.4477L28.7614 40.406C29.4675 40.7585 30.0615 41.3007 30.4768 41.9718C30.8922 42.6428 31.1125 43.4163 31.113 44.2055V55.9525C31.113 56.7422 30.893 57.5163 30.4776 58.1879C30.0622 58.8595 29.4679 59.4021 28.7614 59.7548L18.8447 64.7132C18.2548 65.0079 17.6044 65.1614 16.9449 65.1614C16.2855 65.1614 15.6351 65.0079 15.0452 64.7132L5.12852 59.7548C4.42198 59.4021 3.82769 58.8595 3.41231 58.1879C2.99693 57.5163 2.77688 56.7422 2.77686 55.9525ZM7.17702 44.4888C7.00981 44.8248 6.98272 45.2134 7.10171 45.5693C7.2207 45.9252 7.47604 46.2193 7.81169 46.3872L15.5269 50.249V58.579C15.5269 58.9547 15.6761 59.3151 15.9418 59.5807C16.2075 59.8464 16.5678 59.9957 16.9435 59.9957C17.3192 59.9957 17.6796 59.8464 17.9453 59.5807C18.2109 59.3151 18.3602 58.9547 18.3602 58.579V50.249L26.0782 46.39C26.2447 46.3068 26.3932 46.1917 26.5152 46.0512C26.6372 45.9106 26.7303 45.7474 26.7893 45.5709C26.8482 45.3943 26.8718 45.2079 26.8587 45.0223C26.8456 44.8366 26.796 44.6553 26.7129 44.4888C26.6297 44.3223 26.5146 44.1738 26.374 44.0518C26.2335 43.9298 26.0703 43.8367 25.8937 43.7778C25.5372 43.6587 25.148 43.6862 24.8117 43.8542L16.9435 47.7868L9.07819 43.8542C8.74223 43.687 8.35366 43.6599 7.99775 43.7789C7.64184 43.8979 7.34769 44.1532 7.17985 44.4888H7.17702Z" fill="#FAFAFA"/>
</svg>
