<svg width="40" height="40" viewBox="0 0 40 40" fill="none" xmlns="http://www.w3.org/2000/svg">
<path d="M20.832 4.58337C20.832 4.25185 20.7003 3.93391 20.4659 3.69949C20.2315 3.46507 19.9135 3.33337 19.582 3.33337C19.2505 3.33337 18.9326 3.46507 18.6981 3.69949C18.4637 3.93391 18.332 4.25185 18.332 4.58337V5.00004H8.7487C7.31211 5.00004 5.93436 5.57072 4.91854 6.58655C3.90271 7.60237 3.33203 8.98012 3.33203 10.4167V26.25C3.33203 27.6866 3.90271 29.0644 4.91854 30.0802C5.93436 31.096 7.31211 31.6667 8.7487 31.6667H12.7454L10.287 34.6167C10.0749 34.8715 9.9726 35.2002 10.0028 35.5304C10.0329 35.8606 10.193 36.1654 10.4479 36.3775C10.7027 36.5897 11.0314 36.692 11.3616 36.6618C11.6918 36.6316 11.9965 36.4715 12.2087 36.2167L15.9987 31.6667H21.8454C22.14 30.6534 22.7722 29.7713 23.637 29.1667H8.7487C7.97515 29.1667 7.23328 28.8594 6.6863 28.3124C6.13932 27.7655 5.83203 27.0236 5.83203 26.25V10.4167C5.83203 8.80671 7.1387 7.50004 8.7487 7.50004H31.2487C32.8587 7.50004 34.1654 8.80671 34.1654 10.4167V19.3784C34.9376 19.9154 35.5684 20.6315 36.0038 21.4653C36.4391 22.2992 36.6661 23.226 36.6654 24.1667V10.4167C36.6654 9.70538 36.5253 9.00102 36.253 8.34384C35.9808 7.68666 35.5818 7.08953 35.0789 6.58655C34.5759 6.08356 33.9787 5.68457 33.3216 5.41236C32.6644 5.14015 31.96 5.00004 31.2487 5.00004H20.832V4.58337ZM9.9987 12.9167C9.9987 12.5852 10.1304 12.2672 10.3648 12.0328C10.5992 11.7984 10.9172 11.6667 11.2487 11.6667H17.9154C18.2469 11.6667 18.5648 11.7984 18.7992 12.0328C19.0337 12.2672 19.1654 12.5852 19.1654 12.9167C19.1654 13.2482 19.0337 13.5662 18.7992 13.8006C18.5648 14.035 18.2469 14.1667 17.9154 14.1667H11.2487C10.9172 14.1667 10.5992 14.035 10.3648 13.8006C10.1304 13.5662 9.9987 13.2482 9.9987 12.9167ZM11.2487 16.6667C10.9172 16.6667 10.5992 16.7984 10.3648 17.0328C10.1304 17.2672 9.9987 17.5852 9.9987 17.9167C9.9987 18.2482 10.1304 18.5662 10.3648 18.8006C10.5992 19.035 10.9172 19.1667 11.2487 19.1667H22.082C22.4135 19.1667 22.7315 19.035 22.9659 18.8006C23.2003 18.5662 23.332 18.2482 23.332 17.9167C23.332 17.5852 23.2003 17.2672 22.9659 17.0328C22.7315 16.7984 22.4135 16.6667 22.082 16.6667H11.2487ZM9.9987 22.9167C9.9987 22.5852 10.1304 22.2672 10.3648 22.0328C10.5992 21.7984 10.9172 21.6667 11.2487 21.6667H20.4154C20.7469 21.6667 21.0648 21.7984 21.2992 22.0328C21.5337 22.2672 21.6654 22.5852 21.6654 22.9167C21.6654 23.2482 21.5337 23.5662 21.2992 23.8006C21.0648 24.035 20.7469 24.1667 20.4154 24.1667H11.2487C10.9172 24.1667 10.5992 24.035 10.3648 23.8006C10.1304 23.5662 9.9987 23.2482 9.9987 22.9167ZM34.9987 24.1667C34.9987 25.2718 34.5597 26.3316 33.7783 27.113C32.9969 27.8944 31.9371 28.3334 30.832 28.3334C29.727 28.3334 28.6672 27.8944 27.8857 27.113C27.1043 26.3316 26.6654 25.2718 26.6654 24.1667C26.6654 23.0616 27.1043 22.0018 27.8857 21.2204C28.6672 20.439 29.727 20 30.832 20C31.9371 20 32.9969 20.439 33.7783 21.2204C34.5597 22.0018 34.9987 23.0616 34.9987 24.1667ZM38.332 33.125C38.332 35.7184 36.1887 38.3334 30.832 38.3334C25.4754 38.3334 23.332 35.7284 23.332 33.125V32.9534C23.332 31.32 24.6554 30 26.287 30H35.377C37.0104 30 38.332 31.3217 38.332 32.9534V33.125Z" fill="#6570F1"/>
</svg>
