<svg width="354" height="80" viewBox="0 0 354 80" fill="none" xmlns="http://www.w3.org/2000/svg">
<g opacity="0.7">
<path opacity="0.2" fill-rule="evenodd" clip-rule="evenodd" d="M5.71322 11.4264C8.86855 11.4264 11.4264 8.86855 11.4264 5.71322C11.4264 2.5579 8.86855 0 5.71322 0C2.5579 0 0 2.5579 0 5.71322C0 8.86855 2.5579 11.4264 5.71322 11.4264ZM5.71322 34.279C8.86855 34.279 11.4264 31.7211 11.4264 28.5658C11.4264 25.4104 8.86855 22.8525 5.71322 22.8525C2.5579 22.8525 0 25.4104 0 28.5658C0 31.7211 2.5579 34.279 5.71322 34.279ZM11.4264 51.4188C11.4264 54.5741 8.86855 57.132 5.71322 57.132C2.5579 57.132 0 54.5741 0 51.4188C0 48.2635 2.5579 45.7056 5.71322 45.7056C8.86855 45.7056 11.4264 48.2635 11.4264 51.4188ZM5.71322 79.9855C8.86855 79.9855 11.4264 77.4276 11.4264 74.2723C11.4264 71.117 8.86855 68.5591 5.71322 68.5591C2.5579 68.5591 0 71.117 0 74.2723C0 77.4276 2.5579 79.9855 5.71322 79.9855ZM34.2793 5.71322C34.2793 8.86855 31.7215 11.4264 28.5661 11.4264C25.4108 11.4264 22.8529 8.86855 22.8529 5.71322C22.8529 2.5579 25.4108 0 28.5661 0C31.7215 0 34.2793 2.5579 34.2793 5.71322ZM28.5661 34.279C31.7215 34.279 34.2793 31.7211 34.2793 28.5658C34.2793 25.4104 31.7215 22.8525 28.5661 22.8525C25.4108 22.8525 22.8529 25.4104 22.8529 28.5658C22.8529 31.7211 25.4108 34.279 28.5661 34.279ZM34.2793 51.4188C34.2793 54.5741 31.7215 57.132 28.5661 57.132C25.4108 57.132 22.8529 54.5741 22.8529 51.4188C22.8529 48.2635 25.4108 45.7056 28.5661 45.7056C31.7215 45.7056 34.2793 48.2635 34.2793 51.4188ZM28.5661 79.9855C31.7215 79.9855 34.2793 77.4276 34.2793 74.2723C34.2793 71.117 31.7215 68.5591 28.5661 68.5591C25.4108 68.5591 22.8529 71.117 22.8529 74.2723C22.8529 77.4276 25.4108 79.9855 28.5661 79.9855ZM57.1321 5.71322C57.1321 8.86855 54.5742 11.4264 51.4189 11.4264C48.2636 11.4264 45.7057 8.86855 45.7057 5.71322C45.7057 2.5579 48.2636 0 51.4189 0C54.5742 0 57.1321 2.5579 57.1321 5.71322ZM51.4189 34.279C54.5742 34.279 57.1321 31.7211 57.1321 28.5658C57.1321 25.4104 54.5742 22.8525 51.4189 22.8525C48.2636 22.8525 45.7057 25.4104 45.7057 28.5658C45.7057 31.7211 48.2636 34.279 51.4189 34.279ZM57.1321 51.4188C57.1321 54.5741 54.5742 57.132 51.4189 57.132C48.2636 57.132 45.7057 54.5741 45.7057 51.4188C45.7057 48.2635 48.2636 45.7056 51.4189 45.7056C54.5742 45.7056 57.1321 48.2635 57.1321 51.4188ZM51.4189 79.9855C54.5742 79.9855 57.1321 77.4276 57.1321 74.2723C57.1321 71.117 54.5742 68.5591 51.4189 68.5591C48.2636 68.5591 45.7057 71.117 45.7057 74.2723C45.7057 77.4276 48.2636 79.9855 51.4189 79.9855ZM79.985 5.71322C79.985 8.86855 77.4271 11.4264 74.2718 11.4264C71.1165 11.4264 68.5586 8.86855 68.5586 5.71322C68.5586 2.5579 71.1165 0 74.2718 0C77.4271 0 79.985 2.5579 79.985 5.71322ZM74.2718 34.279C77.4271 34.279 79.985 31.7211 79.985 28.5658C79.985 25.4104 77.4271 22.8525 74.2718 22.8525C71.1165 22.8525 68.5586 25.4104 68.5586 28.5658C68.5586 31.7211 71.1165 34.279 74.2718 34.279ZM79.985 51.4188C79.985 54.5741 77.4271 57.132 74.2718 57.132C71.1165 57.132 68.5586 54.5741 68.5586 51.4188C68.5586 48.2635 71.1165 45.7056 74.2718 45.7056C77.4271 45.7056 79.985 48.2635 79.985 51.4188ZM74.2718 79.9855C77.4271 79.9855 79.985 77.4276 79.985 74.2723C79.985 71.117 77.4271 68.5591 74.2718 68.5591C71.1165 68.5591 68.5586 71.117 68.5586 74.2723C68.5586 77.4276 71.1165 79.9855 74.2718 79.9855ZM102.838 5.71322C102.838 8.86855 100.28 11.4264 97.1248 11.4264C93.9695 11.4264 91.4116 8.86855 91.4116 5.71322C91.4116 2.5579 93.9695 0 97.1248 0C100.28 0 102.838 2.5579 102.838 5.71322ZM97.1248 34.279C100.28 34.279 102.838 31.7211 102.838 28.5658C102.838 25.4104 100.28 22.8525 97.1248 22.8525C93.9695 22.8525 91.4116 25.4104 91.4116 28.5658C91.4116 31.7211 93.9695 34.279 97.1248 34.279ZM102.838 51.4188C102.838 54.5741 100.28 57.132 97.1247 57.132C93.9694 57.132 91.4115 54.5741 91.4115 51.4188C91.4115 48.2635 93.9694 45.7056 97.1247 45.7056C100.28 45.7056 102.838 48.2635 102.838 51.4188ZM97.1248 79.9855C100.28 79.9855 102.838 77.4276 102.838 74.2723C102.838 71.117 100.28 68.5591 97.1248 68.5591C93.9695 68.5591 91.4116 71.117 91.4116 74.2723C91.4116 77.4276 93.9695 79.9855 97.1248 79.9855ZM125.691 5.71322C125.691 8.86855 123.133 11.4264 119.978 11.4264C116.822 11.4264 114.264 8.86855 114.264 5.71322C114.264 2.5579 116.822 0 119.978 0C123.133 0 125.691 2.5579 125.691 5.71322ZM119.978 34.279C123.133 34.279 125.691 31.7211 125.691 28.5658C125.691 25.4104 123.133 22.8525 119.978 22.8525C116.822 22.8525 114.264 25.4104 114.264 28.5658C114.264 31.7211 116.822 34.279 119.978 34.279ZM125.691 51.4188C125.691 54.5741 123.133 57.132 119.978 57.132C116.822 57.132 114.264 54.5741 114.264 51.4188C114.264 48.2635 116.822 45.7056 119.978 45.7056C123.133 45.7056 125.691 48.2635 125.691 51.4188ZM119.978 79.9855C123.133 79.9855 125.691 77.4276 125.691 74.2723C125.691 71.117 123.133 68.5591 119.978 68.5591C116.822 68.5591 114.264 71.117 114.264 74.2723C114.264 77.4276 116.822 79.9855 119.978 79.9855ZM148.544 5.71322C148.544 8.86855 145.986 11.4264 142.831 11.4264C139.675 11.4264 137.117 8.86855 137.117 5.71322C137.117 2.5579 139.675 0 142.831 0C145.986 0 148.544 2.5579 148.544 5.71322ZM142.831 34.279C145.986 34.279 148.544 31.7211 148.544 28.5658C148.544 25.4104 145.986 22.8525 142.831 22.8525C139.675 22.8525 137.117 25.4104 137.117 28.5658C137.117 31.7211 139.675 34.279 142.831 34.279ZM148.544 51.4188C148.544 54.5741 145.986 57.132 142.83 57.132C139.675 57.132 137.117 54.5741 137.117 51.4188C137.117 48.2635 139.675 45.7056 142.83 45.7056C145.986 45.7056 148.544 48.2635 148.544 51.4188ZM142.831 79.9855C145.986 79.9855 148.544 77.4276 148.544 74.2723C148.544 71.117 145.986 68.5591 142.831 68.5591C139.675 68.5591 137.117 71.117 137.117 74.2723C137.117 77.4276 139.675 79.9855 142.831 79.9855ZM171.397 5.71322C171.397 8.86855 168.839 11.4264 165.683 11.4264C162.528 11.4264 159.97 8.86855 159.97 5.71322C159.97 2.5579 162.528 0 165.683 0C168.839 0 171.397 2.5579 171.397 5.71322ZM165.683 34.279C168.839 34.279 171.397 31.7211 171.397 28.5658C171.397 25.4104 168.839 22.8525 165.683 22.8525C162.528 22.8525 159.97 25.4104 159.97 28.5658C159.97 31.7211 162.528 34.279 165.683 34.279ZM171.397 51.4188C171.397 54.5741 168.839 57.132 165.683 57.132C162.528 57.132 159.97 54.5741 159.97 51.4188C159.97 48.2635 162.528 45.7056 165.683 45.7056C168.839 45.7056 171.397 48.2635 171.397 51.4188ZM165.683 79.9855C168.839 79.9855 171.397 77.4276 171.397 74.2723C171.397 71.117 168.839 68.5591 165.683 68.5591C162.528 68.5591 159.97 71.117 159.97 74.2723C159.97 77.4276 162.528 79.9855 165.683 79.9855Z" fill="url(#paint0_linear_183_362)"/>
<path opacity="0.2" fill-rule="evenodd" clip-rule="evenodd" d="M348.258 11.4264C345.103 11.4264 342.545 8.86855 342.545 5.71322C342.545 2.5579 345.103 0 348.258 0C351.414 0 353.972 2.5579 353.972 5.71322C353.972 8.86855 351.414 11.4264 348.258 11.4264ZM348.258 34.279C345.103 34.279 342.545 31.7211 342.545 28.5658C342.545 25.4104 345.103 22.8525 348.258 22.8525C351.414 22.8525 353.972 25.4104 353.972 28.5658C353.972 31.7211 351.414 34.279 348.258 34.279ZM342.545 51.4188C342.545 54.5741 345.103 57.132 348.258 57.132C351.414 57.132 353.972 54.5741 353.972 51.4188C353.972 48.2635 351.414 45.7056 348.258 45.7056C345.103 45.7056 342.545 48.2635 342.545 51.4188ZM348.258 79.9855C345.103 79.9855 342.545 77.4276 342.545 74.2723C342.545 71.117 345.103 68.5591 348.258 68.5591C351.414 68.5591 353.972 71.117 353.972 74.2723C353.972 77.4276 351.414 79.9855 348.258 79.9855ZM319.692 5.71322C319.692 8.86855 322.25 11.4264 325.406 11.4264C328.561 11.4264 331.119 8.86855 331.119 5.71322C331.119 2.5579 328.561 0 325.406 0C322.25 0 319.692 2.5579 319.692 5.71322ZM325.406 34.279C322.25 34.279 319.692 31.7211 319.692 28.5658C319.692 25.4104 322.25 22.8525 325.406 22.8525C328.561 22.8525 331.119 25.4104 331.119 28.5658C331.119 31.7211 328.561 34.279 325.406 34.279ZM319.692 51.4188C319.692 54.5741 322.25 57.132 325.406 57.132C328.561 57.132 331.119 54.5741 331.119 51.4188C331.119 48.2635 328.561 45.7056 325.406 45.7056C322.25 45.7056 319.692 48.2635 319.692 51.4188ZM325.406 79.9855C322.25 79.9855 319.692 77.4276 319.692 74.2723C319.692 71.117 322.25 68.5591 325.406 68.5591C328.561 68.5591 331.119 71.117 331.119 74.2723C331.119 77.4276 328.561 79.9855 325.406 79.9855ZM296.839 5.71322C296.839 8.86855 299.397 11.4264 302.553 11.4264C305.708 11.4264 308.266 8.86855 308.266 5.71322C308.266 2.5579 305.708 0 302.553 0C299.397 0 296.839 2.5579 296.839 5.71322ZM302.553 34.279C299.397 34.279 296.839 31.7211 296.839 28.5658C296.839 25.4104 299.397 22.8525 302.553 22.8525C305.708 22.8525 308.266 25.4104 308.266 28.5658C308.266 31.7211 305.708 34.279 302.553 34.279ZM296.839 51.4188C296.839 54.5741 299.397 57.132 302.553 57.132C305.708 57.132 308.266 54.5741 308.266 51.4188C308.266 48.2635 305.708 45.7056 302.553 45.7056C299.397 45.7056 296.839 48.2635 296.839 51.4188ZM302.553 79.9855C299.397 79.9855 296.839 77.4276 296.839 74.2723C296.839 71.117 299.397 68.5591 302.553 68.5591C305.708 68.5591 308.266 71.117 308.266 74.2723C308.266 77.4276 305.708 79.9855 302.553 79.9855ZM273.987 5.71322C273.987 8.86855 276.544 11.4264 279.7 11.4264C282.855 11.4264 285.413 8.86855 285.413 5.71322C285.413 2.5579 282.855 0 279.7 0C276.544 0 273.987 2.5579 273.987 5.71322ZM279.7 34.279C276.544 34.279 273.987 31.7211 273.987 28.5658C273.987 25.4104 276.544 22.8525 279.7 22.8525C282.855 22.8525 285.413 25.4104 285.413 28.5658C285.413 31.7211 282.855 34.279 279.7 34.279ZM273.987 51.4188C273.987 54.5741 276.544 57.132 279.7 57.132C282.855 57.132 285.413 54.5741 285.413 51.4188C285.413 48.2635 282.855 45.7056 279.7 45.7056C276.544 45.7056 273.987 48.2635 273.987 51.4188ZM279.7 79.9855C276.544 79.9855 273.987 77.4276 273.987 74.2723C273.987 71.117 276.544 68.5591 279.7 68.5591C282.855 68.5591 285.413 71.117 285.413 74.2723C285.413 77.4276 282.855 79.9855 279.7 79.9855ZM251.134 5.71322C251.134 8.86855 253.692 11.4264 256.847 11.4264C260.002 11.4264 262.56 8.86855 262.56 5.71322C262.56 2.5579 260.002 0 256.847 0C253.692 0 251.134 2.5579 251.134 5.71322ZM256.847 34.279C253.692 34.279 251.134 31.7211 251.134 28.5658C251.134 25.4104 253.692 22.8525 256.847 22.8525C260.002 22.8525 262.56 25.4104 262.56 28.5658C262.56 31.7211 260.002 34.279 256.847 34.279ZM251.134 51.4188C251.134 54.5741 253.692 57.132 256.847 57.132C260.002 57.132 262.56 54.5741 262.56 51.4188C262.56 48.2635 260.002 45.7056 256.847 45.7056C253.692 45.7056 251.134 48.2635 251.134 51.4188ZM256.847 79.9855C253.692 79.9855 251.134 77.4276 251.134 74.2723C251.134 71.117 253.692 68.5591 256.847 68.5591C260.002 68.5591 262.56 71.117 262.56 74.2723C262.56 77.4276 260.002 79.9855 256.847 79.9855ZM228.281 5.71322C228.281 8.86855 230.839 11.4264 233.994 11.4264C237.149 11.4264 239.707 8.86855 239.707 5.71322C239.707 2.5579 237.149 0 233.994 0C230.839 0 228.281 2.5579 228.281 5.71322ZM233.994 34.279C230.839 34.279 228.281 31.7211 228.281 28.5658C228.281 25.4104 230.839 22.8525 233.994 22.8525C237.149 22.8525 239.707 25.4104 239.707 28.5658C239.707 31.7211 237.149 34.279 233.994 34.279ZM228.281 51.4188C228.281 54.5741 230.839 57.132 233.994 57.132C237.149 57.132 239.707 54.5741 239.707 51.4188C239.707 48.2635 237.149 45.7056 233.994 45.7056C230.839 45.7056 228.281 48.2635 228.281 51.4188ZM233.994 79.9855C230.839 79.9855 228.281 77.4276 228.281 74.2723C228.281 71.117 230.839 68.5591 233.994 68.5591C237.149 68.5591 239.707 71.117 239.707 74.2723C239.707 77.4276 237.149 79.9855 233.994 79.9855ZM205.428 5.71322C205.428 8.86855 207.986 11.4264 211.141 11.4264C214.296 11.4264 216.854 8.86855 216.854 5.71322C216.854 2.5579 214.296 0 211.141 0C207.986 0 205.428 2.5579 205.428 5.71322ZM211.141 34.279C207.986 34.279 205.428 31.7211 205.428 28.5658C205.428 25.4104 207.986 22.8525 211.141 22.8525C214.296 22.8525 216.854 25.4104 216.854 28.5658C216.854 31.7211 214.296 34.279 211.141 34.279ZM205.428 51.4188C205.428 54.5741 207.986 57.132 211.141 57.132C214.296 57.132 216.854 54.5741 216.854 51.4188C216.854 48.2635 214.296 45.7056 211.141 45.7056C207.986 45.7056 205.428 48.2635 205.428 51.4188ZM211.141 79.9855C207.986 79.9855 205.428 77.4276 205.428 74.2723C205.428 71.117 207.986 68.5591 211.141 68.5591C214.296 68.5591 216.854 71.117 216.854 74.2723C216.854 77.4276 214.296 79.9855 211.141 79.9855ZM182.575 5.71322C182.575 8.86855 185.133 11.4264 188.288 11.4264C191.444 11.4264 194.001 8.86855 194.001 5.71322C194.001 2.5579 191.444 0 188.288 0C185.133 0 182.575 2.5579 182.575 5.71322ZM188.288 34.279C185.133 34.279 182.575 31.7211 182.575 28.5658C182.575 25.4104 185.133 22.8525 188.288 22.8525C191.444 22.8525 194.001 25.4104 194.001 28.5658C194.001 31.7211 191.444 34.279 188.288 34.279ZM182.575 51.4188C182.575 54.5741 185.133 57.132 188.288 57.132C191.444 57.132 194.001 54.5741 194.001 51.4188C194.001 48.2635 191.444 45.7056 188.288 45.7056C185.133 45.7056 182.575 48.2635 182.575 51.4188ZM188.288 79.9855C185.133 79.9855 182.575 77.4276 182.575 74.2723C182.575 71.117 185.133 68.5591 188.288 68.5591C191.444 68.5591 194.001 71.117 194.001 74.2723C194.001 77.4276 191.444 79.9855 188.288 79.9855Z" fill="url(#paint1_linear_183_362)"/>
</g>
<defs>
<linearGradient id="paint0_linear_183_362" x1="171.397" y1="79.9855" x2="-0.000306255" y2="0.000656264" gradientUnits="userSpaceOnUse">
<stop stop-color="#7E7E7E"/>
<stop offset="1" stop-color="#7C7C7C" stop-opacity="0"/>
</linearGradient>
<linearGradient id="paint1_linear_183_362" x1="182.575" y1="79.9855" x2="353.972" y2="0.00064457" gradientUnits="userSpaceOnUse">
<stop stop-color="#7E7E7E"/>
<stop offset="1" stop-color="#7C7C7C" stop-opacity="0"/>
</linearGradient>
</defs>
</svg>
