<svg width="28" height="28" viewBox="0 0 28 28" fill="none" xmlns="http://www.w3.org/2000/svg">
<path d="M16.3295 14.169L12.4517 16.3849V11.9531L16.3295 14.169Z" fill="#413E49" stroke="#413E49" stroke-width="1.66193" stroke-linecap="round" stroke-linejoin="round"/>
<path d="M3.03415 14.9525V13.3848C3.03415 10.1772 3.03415 8.57293 4.03684 7.54142C5.04065 6.50881 6.62059 6.4645 9.77935 6.37475C11.2751 6.33265 12.8041 6.30273 14.1137 6.30273C15.4221 6.30273 16.9511 6.33265 18.448 6.37475C21.6067 6.4645 23.1867 6.50881 24.1894 7.54142C25.1932 8.57293 25.1932 10.1783 25.1932 13.3848V14.9525C25.1932 18.1611 25.1932 19.7643 24.1905 20.7969C23.1867 21.8284 21.6078 21.8739 18.448 21.9625C16.9522 22.0057 15.4233 22.0356 14.1137 22.0356C12.8052 22.0356 11.2762 22.0057 9.77935 21.9625C6.62059 21.8739 5.04065 21.8296 4.03684 20.7969C3.03415 19.7643 3.03415 18.16 3.03415 14.9536V14.9525Z" stroke="#413E49" stroke-width="1.66193"/>
</svg>
