<svg width="26" height="26" viewBox="0 0 26 26" fill="none" xmlns="http://www.w3.org/2000/svg">
<path d="M22.7841 4.9982C22.7841 4.9982 20.9891 6.05845 19.9912 6.35908C19.4555 5.74314 18.7435 5.30657 17.9516 5.10843C17.1597 4.91029 16.3261 4.96013 15.5635 5.25121C14.8008 5.5423 14.146 6.06058 13.6875 6.73597C13.229 7.41135 12.989 8.21125 12.9999 9.02748V9.91695C11.4368 9.95748 9.88795 9.61081 8.49125 8.9078C7.09455 8.2048 5.8934 7.16729 4.99475 5.88767C4.99475 5.88767 1.43689 13.8929 9.44208 17.4507C7.61025 18.6942 5.42806 19.3177 3.21582 19.2297C11.221 23.677 21.0051 19.2297 21.0051 9.0008C21.0051 8.75353 20.9802 8.50626 20.934 8.26254C21.8412 7.36774 22.7841 4.9982 22.7841 4.9982Z" stroke="#413E49" stroke-width="1.63548" stroke-linecap="round" stroke-linejoin="round"/>
</svg>
