<svg width="26" height="26" viewBox="0 0 26 26" fill="none" xmlns="http://www.w3.org/2000/svg">
<path d="M19.5 4.3335H6.50004C5.30342 4.3335 4.33337 5.30355 4.33337 6.50016V19.5002C4.33337 20.6968 5.30342 21.6668 6.50004 21.6668H19.5C20.6967 21.6668 21.6667 20.6968 21.6667 19.5002V6.50016C21.6667 5.30355 20.6967 4.3335 19.5 4.3335Z" stroke="#413E49" stroke-width="1.63548" stroke-linecap="round" stroke-linejoin="round"/>
<path d="M8.66675 11.9165V17.3332" stroke="#413E49" stroke-width="1.63548" stroke-linecap="round" stroke-linejoin="round"/>
<path d="M8.66675 8.66675V8.67937" stroke="#413E49" stroke-width="2.18064" stroke-linecap="round" stroke-linejoin="round"/>
<path d="M13.0001 17.3332V11.9165" stroke="#413E49" stroke-width="1.63548" stroke-linecap="round" stroke-linejoin="round"/>
<path d="M17.3335 17.3332V14.0832C17.3335 13.5085 17.1052 12.9574 16.6989 12.5511C16.2925 12.1448 15.7414 11.9165 15.1668 11.9165C14.5922 11.9165 14.0411 12.1448 13.6347 12.5511C13.2284 12.9574 13.0001 13.5085 13.0001 14.0832" stroke="#413E49" stroke-width="1.63548" stroke-linecap="round" stroke-linejoin="round"/>
</svg>
