<svg width="44" height="35" viewBox="0 0 44 35" fill="none" xmlns="http://www.w3.org/2000/svg">
<path opacity="0.3" d="M3.73488 29.9863C-0.413418 25.5063 0.00426978 19.7531 0.0174599 19.6875V2.1875C0.0174599 1.60734 0.24907 1.05094 0.661342 0.640704C1.07361 0.230469 1.63278 0 2.21582 0H15.406C17.8308 0 19.8027 1.96219 19.8027 4.375V19.6875C19.8027 20.2677 19.5711 20.8241 19.1588 21.2343C18.7465 21.6445 18.1874 21.875 17.6043 21.875H10.8378C10.8842 22.9565 11.209 24.008 11.7809 24.9287C12.8976 26.6809 15.0015 27.8775 18.0374 28.4813L19.8027 28.8313V35H17.6043C11.4863 35 6.81918 33.3134 3.73488 29.9863ZM27.9322 29.9863C23.7817 25.5063 24.2016 19.7531 24.2148 19.6875V2.1875C24.2148 1.60734 24.4464 1.05094 24.8587 0.640704C25.2709 0.230469 25.8301 0 26.4131 0H39.6033C42.0281 0 44 1.96219 44 4.375V19.6875C44 20.2677 43.7684 20.8241 43.3561 21.2343C42.9438 21.6445 42.3847 21.875 41.8016 21.875H35.0351C35.0815 22.9565 35.4063 24.008 35.9782 24.9287C37.095 26.6809 39.1988 27.8775 42.2347 28.4813L44 28.8313V35H41.8016C35.6836 35 31.0165 33.3134 27.9322 29.9863V29.9863Z" fill="url(#paint0_linear_511_6413)"/>
<defs>
<linearGradient id="paint0_linear_511_6413" x1="54.6652" y1="-15.7692" x2="11.8513" y2="62.2427" gradientUnits="userSpaceOnUse">
<stop stop-color="#2836DD"/>
<stop offset="1" stop-color="#E0C0FF"/>
</linearGradient>
</defs>
</svg>
