<svg width="26" height="26" viewBox="0 0 26 26" fill="none" xmlns="http://www.w3.org/2000/svg">
<path d="M19.6309 6.33155C18.7686 5.46053 17.7415 4.76992 16.6095 4.3C15.4775 3.83009 14.2633 3.59027 13.0376 3.59454C7.90219 3.59454 3.71672 7.78001 3.71672 12.9154C3.71672 14.5614 4.14938 16.1604 4.95826 17.5712L3.64148 22.4056L8.57939 21.1077C9.9432 21.8507 11.4763 22.2457 13.0376 22.2457C18.1731 22.2457 22.3585 18.0603 22.3585 12.9248C22.3585 10.4324 21.3898 8.09039 19.6309 6.33155V6.33155ZM13.0376 20.6656C11.6456 20.6656 10.2818 20.2894 9.08729 19.584L8.80513 19.4147L5.8706 20.1859L6.65126 17.3266L6.46315 17.0351C5.68977 15.8001 5.27912 14.3726 5.27805 12.9154C5.27805 8.64532 8.7581 5.16527 13.0282 5.16527C15.0974 5.16527 17.0444 5.97414 18.5023 7.44141C19.2241 8.15996 19.7962 9.01464 20.1853 9.95591C20.5744 10.8972 20.7728 11.9063 20.769 12.9248C20.7878 17.195 17.3077 20.6656 13.0376 20.6656V20.6656ZM17.2889 14.8718C17.0538 14.7589 15.9063 14.1946 15.6994 14.1099C15.4831 14.0347 15.3326 13.9971 15.1727 14.2228C15.0128 14.458 14.5707 14.9847 14.4391 15.1352C14.3074 15.295 14.1663 15.3139 13.9312 15.1916C13.696 15.0787 12.9436 14.8248 12.0594 14.0347C11.3634 13.4139 10.9026 12.6521 10.7615 12.4169C10.6298 12.1818 10.7427 12.0595 10.8649 11.9373C10.9684 11.8338 11.1001 11.6645 11.2129 11.5328C11.3258 11.4011 11.3728 11.2977 11.4481 11.1472C11.5233 10.9873 11.4857 10.8556 11.4293 10.7428C11.3728 10.6299 10.9026 9.48241 10.7145 9.01214C10.5263 8.56067 10.3288 8.6171 10.1877 8.6077H9.73628C9.57638 8.6077 9.33184 8.66413 9.11551 8.89927C8.90859 9.13441 8.30663 9.69874 8.30663 10.8462C8.30663 11.9937 9.14373 13.1036 9.25659 13.254C9.36946 13.4139 10.9026 15.7653 13.2351 16.7717C13.7901 17.0163 14.2227 17.1573 14.5613 17.2608C15.1163 17.4395 15.6242 17.4113 16.0286 17.3549C16.4801 17.289 17.4112 16.7905 17.5993 16.245C17.7968 15.6995 17.7968 15.2386 17.731 15.1352C17.6652 15.0317 17.5241 14.9847 17.2889 14.8718V14.8718Z" fill="#413E49"/>
</svg>
