<svg width="230" height="68" viewBox="0 0 230 68" fill="none" xmlns="http://www.w3.org/2000/svg">
<g clip-path="url(#clip0_908_23060)">
<path fill-rule="evenodd" clip-rule="evenodd" d="M32.8198 55.1934L40.0792 62.5114L34.6344 68L27.375 60.682L32.8198 55.1934Z" fill="#005AA4"/>
<path fill-rule="evenodd" clip-rule="evenodd" d="M33.7268 37.8125L39.1713 43.3011L16.4855 66.1702L11.041 60.682L33.7268 37.8125Z" fill="#005AA4"/>
<path fill-rule="evenodd" clip-rule="evenodd" d="M41.8938 46.0454L56.4126 60.682L50.968 66.1702L36.4492 51.5341L41.8938 46.0454Z" fill="#005AA4"/>
<path fill-rule="evenodd" clip-rule="evenodd" d="M42.9533 28.5112L65.6388 51.3804L60.1947 56.8691L37.5088 33.9998L42.9533 28.5112Z" fill="#005AA4"/>
<path fill-rule="evenodd" clip-rule="evenodd" d="M16.3344 36.7441L21.7789 42.2327L7.25996 56.8691L1.81543 51.3804L16.3344 36.7441Z" fill="#005AA4"/>
<path fill-rule="evenodd" clip-rule="evenodd" d="M107.819 14.4814V22.5311H90.7782V30.6617H99.8063V38.0383H90.7782V53.5184H82.4443V14.4814H107.819Z" fill="#005AA4"/>
<path fill-rule="evenodd" clip-rule="evenodd" d="M143.7 14.4814V21.9657H124.682V30.4463H135.714V37.6076H124.682V45.9804H143.727V53.5184H116.349V14.4814H143.7Z" fill="#005AA4"/>
<path fill-rule="evenodd" clip-rule="evenodd" d="M169.195 14.4814C174.453 14.4814 179.036 16.1866 182.944 19.5969L183.203 19.8267L178.864 26.1439C177.186 24.6682 175.641 23.6512 174.231 23.0934C172.82 22.5356 171.293 22.2564 169.651 22.2564C166.472 22.2564 163.794 23.3452 161.615 25.5231C159.437 27.7007 158.347 30.5715 158.347 34.1351C158.347 37.6985 159.392 40.5511 161.481 42.6928C163.57 44.8345 166.062 45.9054 168.954 45.9054C171.731 45.9054 174.064 45.3914 175.952 44.3628L176.186 44.2317V33.8649H184.596V47.2553C180.882 51.4311 175.739 53.5184 169.168 53.5184C163.669 53.5184 159.053 51.6828 155.321 48.0113C151.589 44.3397 149.724 39.7052 149.724 34.1079C149.724 28.5106 151.625 23.8403 155.428 20.0967C159.231 16.3531 163.821 14.4814 169.195 14.4814Z" fill="#005AA4"/>
<path fill-rule="evenodd" clip-rule="evenodd" d="M210.157 14.4814C215.7 14.4814 220.367 16.3467 224.157 20.0775C227.948 23.8081 229.844 28.4489 229.844 33.9999C229.844 39.551 227.948 44.2007 224.157 47.9494C220.367 51.662 215.7 53.5183 210.157 53.5183C204.614 53.5183 199.947 51.653 196.156 47.9225C192.365 44.1918 190.47 39.551 190.47 33.9999C190.47 28.4489 192.365 23.8081 196.156 20.0775C199.947 16.3467 204.614 14.4814 210.157 14.4814ZM210.184 21.8346C207.055 21.8346 204.417 23.0243 202.271 25.403C200.126 27.7821 199.053 30.6568 199.053 34.0271C199.053 37.3973 200.126 40.2628 202.271 42.6237C204.417 44.9848 207.055 46.1653 210.184 46.1653C213.312 46.1653 215.95 44.9848 218.096 42.6237C220.241 40.2628 221.315 37.4064 221.315 34.0541C221.315 30.6659 220.241 27.7821 218.096 25.403C215.95 23.0243 213.312 21.8346 210.184 21.8346Z" fill="#005AA4"/>
<path fill-rule="evenodd" clip-rule="evenodd" d="M62.0093 27.5967L67.4539 33.0856L60.1946 40.4037L54.75 34.9149L62.0093 27.5967Z" fill="#005AA4"/>
<path fill-rule="evenodd" clip-rule="evenodd" d="M7.25943 27.5967L12.704 33.0856L5.44454 40.4037L0 34.9149L7.25943 27.5967Z" fill="#005AA4"/>
<path fill-rule="evenodd" clip-rule="evenodd" d="M7.25996 11.1309L29.9457 34.0002L24.5012 39.4888L1.81543 16.6194L7.25996 11.1309Z" fill="#005AA4"/>
<path fill-rule="evenodd" clip-rule="evenodd" d="M60.1949 11.1309L65.639 16.6195L51.1205 31.2559L45.6758 25.7673L60.1949 11.1309Z" fill="#005AA4"/>
<path fill-rule="evenodd" clip-rule="evenodd" d="M50.9679 1.82959L56.4124 7.31806L33.7268 30.1874L28.2822 24.6988L50.9679 1.82959Z" fill="#005AA4"/>
<path fill-rule="evenodd" clip-rule="evenodd" d="M16.4855 1.82959L31.0045 16.466L25.56 21.9545L11.041 7.31806L16.4855 1.82959Z" fill="#005AA4"/>
<path fill-rule="evenodd" clip-rule="evenodd" d="M32.8198 0L40.0792 7.31818L34.6344 12.8068L27.375 5.4886L32.8198 0Z" fill="#005AA4"/>
</g>
<defs>
<clipPath id="clip0_908_23060">
<rect width="230" height="68" fill="white"/>
</clipPath>
</defs>
</svg>
