<svg width="410" height="626" viewBox="0 0 410 626" fill="none" xmlns="http://www.w3.org/2000/svg">
<path fill-rule="evenodd" clip-rule="evenodd" d="M544.67 614.23L712.827 323.386C716.542 316.959 716.542 309.041 712.827 302.614L544.67 11.7704C540.955 5.34374 534.088 1.38475 526.656 1.38475L190.344 1.38473C182.912 1.38473 176.045 5.34372 172.33 11.7704L4.17345 302.614C0.457811 309.041 0.457811 316.959 4.17345 323.386L172.33 614.23C176.045 620.656 182.912 624.615 190.344 624.615L526.656 624.615C534.088 624.615 540.955 620.656 544.67 614.23ZM714.027 324.078C717.991 317.223 717.991 308.777 714.027 301.922L545.871 11.078C541.908 4.22292 534.583 -7.9737e-06 526.656 -8.32019e-06L190.344 -2.30209e-05C182.417 -2.33674e-05 175.092 4.22291 171.129 11.078L2.97252 301.922C-0.990858 308.777 -0.990859 317.223 2.97252 324.078L171.129 614.922C175.092 621.777 182.417 626 190.344 626L526.656 626C534.583 626 541.908 621.777 545.871 614.922L714.027 324.078Z" fill="#7ADB90" fill-opacity="0.4"/>
</svg>
