<svg width="427" height="487" viewBox="0 0 427 487" fill="none" xmlns="http://www.w3.org/2000/svg">
<g clip-path="url(#clip0_286_1831)">
<rect width="427" height="487" fill="#B1EAC1"/>
<g filter="url(#filter0_f_286_1831)">
<circle cx="978" cy="267" r="203" fill="#C9D0F6"/>
</g>
<g opacity="0.6">
<g filter="url(#filter1_f_286_1831)">
<ellipse cx="201.5" cy="676.5" rx="201.5" ry="201.5" fill="#C9D0F6"/>
</g>
<g filter="url(#filter2_f_286_1831)">
<ellipse cx="77" cy="552" rx="73" ry="73" fill="#7ADB90" fill-opacity="0.6"/>
</g>
</g>
<path d="M224.075 641.998C215.163 508.985 264.662 250.036 533.954 278.349" stroke="black" stroke-opacity="0.1"/>
<path d="M151.238 631.098C209.508 511.196 380.983 310.944 600.729 469.158" stroke="black" stroke-opacity="0.1"/>
<path d="M234.683 744.651C204.395 614.826 211.4 351.282 481.728 335.707" stroke="black" stroke-opacity="0.1"/>
<path d="M356.984 -1.72017C230.346 -43.3702 -32.7853 -59.6971 -72.2032 208.195" stroke="black" stroke-opacity="0.1"/>
<path d="M364.505 -74.9808C233.891 -48.2976 -2.65746 68.104 96.0594 320.245" stroke="black" stroke-opacity="0.1"/>
<path d="M453.792 34.039C335.548 -27.5272 78.5129 -86.1591 -3.67585 171.843" stroke="black" stroke-opacity="0.1"/>
</g>
<defs>
<filter id="filter0_f_286_1831" x="375" y="-336" width="1206" height="1206" filterUnits="userSpaceOnUse" color-interpolation-filters="sRGB">
<feFlood flood-opacity="0" result="BackgroundImageFix"/>
<feBlend mode="normal" in="SourceGraphic" in2="BackgroundImageFix" result="shape"/>
<feGaussianBlur stdDeviation="200" result="effect1_foregroundBlur_286_1831"/>
</filter>
<filter id="filter1_f_286_1831" x="-400" y="75" width="1203" height="1203" filterUnits="userSpaceOnUse" color-interpolation-filters="sRGB">
<feFlood flood-opacity="0" result="BackgroundImageFix"/>
<feBlend mode="normal" in="SourceGraphic" in2="BackgroundImageFix" result="shape"/>
<feGaussianBlur stdDeviation="200" result="effect1_foregroundBlur_286_1831"/>
</filter>
<filter id="filter2_f_286_1831" x="-196" y="279" width="546" height="546" filterUnits="userSpaceOnUse" color-interpolation-filters="sRGB">
<feFlood flood-opacity="0" result="BackgroundImageFix"/>
<feBlend mode="normal" in="SourceGraphic" in2="BackgroundImageFix" result="shape"/>
<feGaussianBlur stdDeviation="100" result="effect1_foregroundBlur_286_1831"/>
</filter>
<clipPath id="clip0_286_1831">
<rect width="427" height="487" fill="white"/>
</clipPath>
</defs>
</svg>
