<svg width="40" height="40" viewBox="0 0 40 40" fill="none" xmlns="http://www.w3.org/2000/svg">
<rect width="40" height="40" rx="12" fill="#251238"/>
<path d="M23.15 16.3999C22.3836 16.3973 21.6242 16.5458 20.9152 16.837C20.2062 17.1282 19.5616 17.5563 19.0182 18.0969C18.4749 18.6375 18.0434 19.2799 17.7486 19.9873C17.4538 20.6948 17.3014 21.4535 17.3 22.2199V28.0999C17.3 28.3386 17.3949 28.5676 17.5637 28.7363C17.7324 28.9051 17.9614 28.9999 18.2 28.9999H20.3C20.5387 28.9999 20.7677 28.9051 20.9364 28.7363C21.1052 28.5676 21.2 28.3386 21.2 28.0999V22.2199C21.1999 21.9473 21.2571 21.6778 21.3681 21.4288C21.4791 21.1798 21.6413 20.957 21.8441 20.7749C22.047 20.5928 22.2859 20.4555 22.5454 20.3719C22.8049 20.2884 23.0791 20.2604 23.35 20.2899C23.8361 20.3512 24.2827 20.5886 24.6053 20.9572C24.9278 21.3259 25.1039 21.8001 25.1 22.2899V28.0999C25.1 28.3386 25.1949 28.5676 25.3637 28.7363C25.5324 28.9051 25.7614 28.9999 26 28.9999H28.1C28.3387 28.9999 28.5677 28.9051 28.7364 28.7363C28.9052 28.5676 29 28.3386 29 28.0999V22.2199C28.9987 21.4535 28.8463 20.6948 28.5515 19.9873C28.2567 19.2799 27.8252 18.6375 27.2819 18.0969C26.7385 17.5563 26.0939 17.1282 25.3849 16.837C24.6759 16.5458 23.9165 16.3973 23.15 16.3999Z" fill="#FEFEFE"/>
<path d="M14.6 17.2998H11.9C11.4029 17.2998 11 17.7027 11 18.1998V28.0998C11 28.5969 11.4029 28.9998 11.9 28.9998H14.6C15.0971 28.9998 15.5 28.5969 15.5 28.0998V18.1998C15.5 17.7027 15.0971 17.2998 14.6 17.2998Z" fill="#FEFEFE"/>
<path d="M13.25 15.5C14.4926 15.5 15.5 14.4926 15.5 13.25C15.5 12.0074 14.4926 11 13.25 11C12.0074 11 11 12.0074 11 13.25C11 14.4926 12.0074 15.5 13.25 15.5Z" fill="#FEFEFE"/>
</svg>
