<svg width="50" height="50" viewBox="0 0 50 50" fill="none" xmlns="http://www.w3.org/2000/svg">
<rect width="50" height="50" rx="4" fill="#251238" fill-opacity="0.05"/>
<path d="M20.67 35C17.28 35 15 32.62 15 29.09L15 20.92C15 17.38 17.28 15 20.67 15L29.34 15C32.729 15 35 17.38 35 20.92L35 29.09C35 32.62 32.729 35 29.34 35L20.67 35ZM25 29.83C25.42 29.83 25.75 29.5 25.75 29.08L25.75 22.73L28.22 25.21C28.36 25.35 28.56 25.43 28.75 25.43C28.939 25.43 29.13 25.35 29.28 25.21C29.57 24.92 29.57 24.44 29.28 24.15L25.53 20.38C25.25 20.1 24.75 20.1 24.47 20.38L20.72 24.15C20.43 24.44 20.43 24.92 20.72 25.21C21.02 25.5 21.49 25.5 21.79 25.21L24.25 22.73L24.25 29.08C24.25 29.5 24.59 29.83 25 29.83Z" fill="#251238"/>
</svg>
