<svg width="507" height="443" viewBox="0 0 507 443" fill="none" xmlns="http://www.w3.org/2000/svg">
<path d="M338.886 76.0917C340.236 76.0917 341.53 76.6279 342.485 77.5824C343.439 78.537 343.976 79.8316 343.976 81.1815V247.343C343.976 248.693 343.439 249.988 342.485 250.942C341.53 251.897 340.236 252.433 338.886 252.433H115.779C114.43 252.433 113.135 251.897 112.18 250.942C111.226 249.988 110.69 248.693 110.69 247.343V81.1C110.69 79.7501 111.226 78.4555 112.18 77.501C113.135 76.5465 114.43 76.0102 115.779 76.0102H338.886V76.0917ZM338.886 74.7378H115.779C114.946 74.7378 114.12 74.9026 113.351 75.2229C112.581 75.5431 111.883 76.0124 111.295 76.6037C110.707 77.195 110.243 77.8967 109.927 78.6684C109.612 79.4401 109.453 80.2665 109.458 81.1V247.343C109.458 249.02 110.124 250.628 111.309 251.813C112.495 252.999 114.103 253.665 115.779 253.665H338.886C340.562 253.665 342.17 252.999 343.356 251.813C344.541 250.628 345.207 249.02 345.207 247.343V81.1C345.207 79.4235 344.541 77.8156 343.356 76.63C342.17 75.4445 340.562 74.7785 338.886 74.7785V74.7378Z" fill="#407BFF"/>
<path opacity="0.7" d="M338.886 74.8193H115.78C112.288 74.8193 109.458 77.6496 109.458 81.1409V247.343C109.458 250.835 112.288 253.665 115.78 253.665H338.886C342.377 253.665 345.208 250.835 345.208 247.343V81.1409C345.208 77.6496 342.377 74.8193 338.886 74.8193Z" fill="white"/>
<path d="M318.903 93.3662H315.982V95.7991H318.903V93.3662Z" fill="#407BFF"/>
<path d="M318.893 229.722H315.982V224.938H318.893V229.722ZM318.893 220.153H315.982V215.369H318.893V220.153ZM318.893 210.595H315.982V205.81H318.893V210.595ZM318.893 201.026H315.982V196.252H318.893V201.026ZM318.893 191.467H315.982V186.683H318.893V191.467ZM318.893 181.898H315.982V177.124H318.893V181.898ZM318.893 172.34H315.982V167.555H318.893V172.34ZM318.893 162.781H315.982V157.997H318.893V162.781ZM318.893 153.212H315.982V148.428H318.893V153.212ZM318.893 143.654H315.982V138.869H318.893V143.654ZM318.893 134.085H315.982V129.311H318.893V134.085ZM318.893 124.526H315.982V119.742H318.893V124.526ZM318.893 114.957H315.982V110.183H318.893V114.957ZM318.893 105.399H315.982V100.614H318.893V105.399Z" fill="#407BFF"/>
<path d="M318.903 234.456H315.982V236.889H318.903V234.456Z" fill="#407BFF"/>
<path d="M142.44 229.722H139.518V224.938H142.44V229.722Z" fill="#407BFF"/>
<path d="M142.44 234.456H139.518V236.889H142.44V234.456Z" fill="#407BFF"/>
<path d="M177.733 229.723H174.811V224.938H177.733V229.723ZM177.733 220.154H174.811V215.369H177.733V220.154ZM177.733 210.595H174.811V205.811H177.733V210.595ZM177.733 201.026H174.811V196.252H177.733V201.026Z" fill="#407BFF"/>
<path d="M177.733 234.456H174.811V236.889H177.733V234.456Z" fill="#407BFF"/>
<path d="M213.025 229.722H210.104V224.938H213.025V229.722ZM213.025 220.154H210.104V215.369H213.025V220.154ZM213.025 210.595H210.104V205.811H213.025V210.595ZM213.025 201.026H210.104V196.252H213.025V201.026ZM213.025 191.468H210.104V186.683H213.025V191.468Z" fill="#407BFF"/>
<path d="M213.025 234.456H210.104V236.889H213.025V234.456Z" fill="#407BFF"/>
<path d="M248.318 229.722H245.396V224.938H248.318V229.722ZM248.318 220.153H245.396V215.369H248.318V220.153ZM248.318 210.595H245.396V205.81H248.318V210.595ZM248.318 201.026H245.396V196.252H248.318V201.026ZM248.318 191.467H245.396V186.683H248.318V191.467ZM248.318 181.898H245.396V177.124H248.318V181.898ZM248.318 172.34H245.396V167.555H248.318V172.34ZM248.318 162.781H245.396V157.997H248.318V162.781Z" fill="#407BFF"/>
<path d="M248.318 234.456H245.396V236.889H248.318V234.456Z" fill="#407BFF"/>
<path d="M283.611 229.722H280.689V224.938H283.611V229.722ZM283.611 220.153H280.689V215.369H283.611V220.153ZM283.611 210.595H280.689V205.81H283.611V210.595ZM283.611 201.026H280.689V196.252H283.611V201.026ZM283.611 191.467H280.689V186.683H283.611V191.467ZM283.611 181.898H280.689V177.124H283.611V181.898ZM283.611 172.34H280.689V167.555H283.611V172.34ZM283.611 162.781H280.689V157.997H283.611V162.781ZM283.611 153.212H280.689V148.428H283.611V153.212ZM283.611 143.654H280.689V138.869H283.611V143.654Z" fill="#407BFF"/>
<path d="M283.611 234.456H280.689V236.889H283.611V234.456Z" fill="#407BFF"/>
<g opacity="0.7">
<path opacity="0.7" d="M318.903 93.3662H315.982V95.7991H318.903V93.3662Z" fill="white"/>
<path opacity="0.7" d="M318.893 229.722H315.982V224.938H318.893V229.722ZM318.893 220.153H315.982V215.369H318.893V220.153ZM318.893 210.595H315.982V205.81H318.893V210.595ZM318.893 201.026H315.982V196.252H318.893V201.026ZM318.893 191.467H315.982V186.683H318.893V191.467ZM318.893 181.898H315.982V177.124H318.893V181.898ZM318.893 172.34H315.982V167.555H318.893V172.34ZM318.893 162.781H315.982V157.997H318.893V162.781ZM318.893 153.212H315.982V148.428H318.893V153.212ZM318.893 143.654H315.982V138.869H318.893V143.654ZM318.893 134.085H315.982V129.311H318.893V134.085ZM318.893 124.526H315.982V119.742H318.893V124.526ZM318.893 114.957H315.982V110.183H318.893V114.957ZM318.893 105.399H315.982V100.614H318.893V105.399Z" fill="white"/>
<path opacity="0.7" d="M318.903 234.456H315.982V236.888H318.903V234.456Z" fill="white"/>
<path opacity="0.7" d="M142.44 229.722H139.518V224.938H142.44V229.722Z" fill="white"/>
<path opacity="0.7" d="M142.44 234.456H139.518V236.888H142.44V234.456Z" fill="white"/>
<path opacity="0.7" d="M177.732 229.722H174.811V224.938H177.732V229.722ZM177.732 220.153H174.811V215.369H177.732V220.153ZM177.732 210.595H174.811V205.81H177.732V210.595ZM177.732 201.026H174.811V196.251H177.732V201.026Z" fill="white"/>
<path opacity="0.7" d="M177.732 234.456H174.811V236.888H177.732V234.456Z" fill="white"/>
<path opacity="0.7" d="M213.025 229.722H210.104V224.938H213.025V229.722ZM213.025 220.153H210.104V215.369H213.025V220.153ZM213.025 210.595H210.104V205.81H213.025V210.595ZM213.025 201.026H210.104V196.251H213.025V201.026ZM213.025 191.467H210.104V186.683H213.025V191.467Z" fill="white"/>
<path opacity="0.7" d="M213.025 234.456H210.104V236.888H213.025V234.456Z" fill="white"/>
<path opacity="0.7" d="M248.318 229.722H245.396V224.938H248.318V229.722ZM248.318 220.153H245.396V215.369H248.318V220.153ZM248.318 210.595H245.396V205.81H248.318V210.595ZM248.318 201.026H245.396V196.252H248.318V201.026ZM248.318 191.467H245.396V186.683H248.318V191.467ZM248.318 181.898H245.396V177.124H248.318V181.898ZM248.318 172.34H245.396V167.555H248.318V172.34ZM248.318 162.781H245.396V157.997H248.318V162.781Z" fill="white"/>
<path opacity="0.7" d="M248.318 234.456H245.396V236.888H248.318V234.456Z" fill="white"/>
<path opacity="0.7" d="M283.611 229.722H280.689V224.938H283.611V229.722ZM283.611 220.153H280.689V215.369H283.611V220.153ZM283.611 210.595H280.689V205.81H283.611V210.595ZM283.611 201.026H280.689V196.252H283.611V201.026ZM283.611 191.467H280.689V186.683H283.611V191.467ZM283.611 181.898H280.689V177.124H283.611V181.898ZM283.611 172.34H280.689V167.555H283.611V172.34ZM283.611 162.781H280.689V157.997H283.611V162.781ZM283.611 153.212H280.689V148.428H283.611V153.212ZM283.611 143.654H280.689V138.869H283.611V143.654Z" fill="white"/>
<path opacity="0.7" d="M283.611 234.456H280.689V236.888H283.611V234.456Z" fill="white"/>
</g>
<path d="M317.437 88.48C316.622 88.4803 315.819 88.6851 315.103 89.0757C314.388 89.4663 313.781 90.0303 313.34 90.7159C312.898 91.4015 312.635 92.187 312.576 93.0003C312.516 93.8137 312.662 94.629 312.999 95.3716L283.875 126.175C283.137 125.887 282.339 125.783 281.552 125.873C280.764 125.963 280.011 126.243 279.357 126.691C278.702 127.138 278.168 127.739 277.798 128.44C277.429 129.142 277.237 129.923 277.238 130.715C277.228 130.878 277.228 131.041 277.238 131.204L249.835 145.883C248.979 145.163 247.899 144.763 246.781 144.753C245.488 144.756 244.25 145.27 243.336 146.184C242.422 147.098 241.907 148.337 241.905 149.629C241.914 150.088 241.986 150.543 242.118 150.983L213.829 173.52C213.111 173.106 212.297 172.885 211.468 172.879C210.278 172.883 209.13 173.322 208.242 174.113C207.353 174.905 206.784 175.993 206.642 177.175L179.982 184.484C179.364 183.675 178.508 183.081 177.535 182.786C176.561 182.49 175.519 182.508 174.556 182.837C173.593 183.165 172.758 183.788 172.168 184.617C171.578 185.446 171.263 186.439 171.268 187.456C171.272 187.916 171.344 188.372 171.482 188.81L143.193 211.399C142.475 210.983 141.661 210.762 140.831 210.757C139.864 210.755 138.918 211.041 138.113 211.577C137.308 212.113 136.68 212.876 136.309 213.769C135.938 214.662 135.84 215.646 136.028 216.594C136.217 217.543 136.682 218.415 137.366 219.099C138.05 219.783 138.922 220.248 139.87 220.436C140.819 220.625 141.802 220.527 142.696 220.156C143.589 219.785 144.352 219.157 144.888 218.352C145.424 217.547 145.709 216.601 145.707 215.633C145.698 215.175 145.626 214.719 145.494 214.28L173.793 191.742C174.511 192.158 175.325 192.379 176.155 192.383C177.341 192.377 178.485 191.938 179.371 191.15C180.258 190.361 180.826 189.276 180.97 188.098L207.63 180.778C208.246 181.591 209.103 182.189 210.079 182.487C211.054 182.785 212.099 182.769 213.064 182.44C214.03 182.111 214.867 181.486 215.458 180.654C216.048 179.823 216.362 178.826 216.354 177.806C216.345 177.347 216.273 176.892 216.14 176.452L244.429 153.914C245.148 154.329 245.961 154.55 246.791 154.556C248.085 154.556 249.326 154.042 250.242 153.128C251.158 152.214 251.674 150.974 251.677 149.68C251.677 149.507 251.677 149.354 251.626 149.181L279.03 134.512C279.875 135.216 280.935 135.613 282.036 135.636C283.136 135.658 284.212 135.307 285.086 134.638C285.961 133.97 286.582 133.024 286.848 131.956C287.115 130.888 287.01 129.762 286.552 128.761L315.686 97.947C316.243 98.1719 316.837 98.2893 317.437 98.2931C318.693 98.2357 319.879 97.6964 320.747 96.7873C321.616 95.8782 322.101 94.6693 322.101 93.412C322.101 92.1547 321.616 90.9458 320.747 90.0367C319.879 89.1276 318.693 88.5883 317.437 88.5309V88.48Z" fill="#407BFF"/>
<path d="M205.666 167.413C205.394 167.412 205.127 167.489 204.898 167.635C204.668 167.781 204.486 167.99 204.373 168.237H175.503C174.998 168.237 174.514 168.037 174.157 167.68C173.8 167.323 173.6 166.839 173.6 166.334V136.07H172.378V166.354C172.381 167.181 172.711 167.974 173.297 168.557C173.883 169.141 174.676 169.469 175.503 169.469H204.373C204.482 169.699 204.651 169.896 204.862 170.039C205.073 170.182 205.318 170.265 205.573 170.281C205.827 170.296 206.081 170.244 206.308 170.128C206.535 170.012 206.727 169.837 206.863 169.622C207 169.407 207.076 169.159 207.085 168.905C207.093 168.65 207.033 168.398 206.911 168.174C206.788 167.951 206.608 167.764 206.389 167.634C206.17 167.503 205.92 167.434 205.666 167.433V167.413Z" fill="#407BFF"/>
<path d="M189.928 127.631H156.04C154.584 127.631 153.403 128.811 153.403 130.267V139.846C153.403 141.302 154.584 142.483 156.04 142.483H189.928C191.384 142.483 192.564 141.302 192.564 139.846V130.267C192.564 128.811 191.384 127.631 189.928 127.631Z" fill="#407BFF"/>
<g opacity="0.4">
<path opacity="0.4" d="M205.665 167.413C205.393 167.412 205.127 167.489 204.897 167.635C204.668 167.781 204.486 167.99 204.372 168.237H175.503C174.998 168.237 174.514 168.037 174.157 167.68C173.8 167.323 173.599 166.839 173.599 166.334V136.07H172.378V166.354C172.381 167.181 172.711 167.974 173.297 168.557C173.883 169.141 174.676 169.469 175.503 169.469H204.372C204.482 169.699 204.651 169.896 204.862 170.039C205.073 170.182 205.318 170.265 205.573 170.281C205.827 170.296 206.081 170.244 206.308 170.128C206.535 170.012 206.727 169.837 206.863 169.622C207 169.407 207.076 169.159 207.084 168.905C207.093 168.65 207.033 168.398 206.91 168.174C206.788 167.951 206.608 167.764 206.389 167.634C206.17 167.503 205.92 167.434 205.665 167.433V167.413Z" fill="white"/>
<path opacity="0.4" d="M189.928 127.631H156.04C154.583 127.631 153.403 128.811 153.403 130.267V139.846C153.403 141.302 154.583 142.483 156.04 142.483H189.928C191.384 142.483 192.564 141.302 192.564 139.846V130.267C192.564 128.811 191.384 127.631 189.928 127.631Z" fill="white"/>
</g>
<path d="M247.402 136.65V93.0103H246.19V136.65C245.894 136.788 245.654 137.023 245.509 137.316C245.365 137.609 245.324 137.943 245.395 138.262C245.465 138.581 245.643 138.866 245.898 139.071C246.152 139.275 246.469 139.387 246.796 139.387C247.123 139.387 247.44 139.275 247.695 139.071C247.95 138.866 248.127 138.581 248.198 138.262C248.268 137.943 248.228 137.609 248.083 137.316C247.938 137.023 247.698 136.788 247.402 136.65Z" fill="#407BFF"/>
<path d="M263.74 85.5791H229.852C228.396 85.5791 227.215 86.7595 227.215 88.2156V97.7946C227.215 99.2507 228.396 100.431 229.852 100.431H263.74C265.196 100.431 266.376 99.2507 266.376 97.7946V88.2156C266.376 86.7595 265.196 85.5791 263.74 85.5791Z" fill="#407BFF"/>
<g opacity="0.4">
<path opacity="0.4" d="M247.401 136.65V93.0103H246.19V136.65C245.894 136.788 245.654 137.023 245.509 137.316C245.364 137.609 245.324 137.943 245.394 138.262C245.465 138.581 245.642 138.866 245.897 139.071C246.152 139.275 246.469 139.387 246.796 139.387C247.123 139.387 247.44 139.275 247.694 139.071C247.949 138.866 248.127 138.581 248.197 138.262C248.268 137.943 248.227 137.609 248.083 137.316C247.938 137.023 247.698 136.788 247.401 136.65Z" fill="white"/>
<path opacity="0.4" d="M263.74 85.5791H229.852C228.396 85.5791 227.215 86.7595 227.215 88.2156V97.7946C227.215 99.2507 228.396 100.431 229.852 100.431H263.74C265.196 100.431 266.376 99.2507 266.376 97.7946V88.2156C266.376 86.7595 265.196 85.5791 263.74 85.5791Z" fill="white"/>
</g>
<path d="M328.492 243.281H127.119C127.119 242.26 127.524 241.28 128.246 240.557C128.967 239.834 129.946 239.426 130.967 239.423H324.634C325.657 239.423 326.639 239.83 327.362 240.553C328.086 241.277 328.492 242.258 328.492 243.281Z" fill="#407BFF"/>
<path opacity="0.4" d="M328.492 243.281H127.119C127.119 242.26 127.524 241.28 128.246 240.557C128.967 239.834 129.946 239.426 130.967 239.423H324.634C325.657 239.423 326.639 239.83 327.362 240.553C328.086 241.277 328.492 242.258 328.492 243.281Z" fill="white"/>
<path opacity="0.2" d="M176.155 190.948C178.083 190.948 179.646 189.385 179.646 187.456C179.646 185.528 178.083 183.965 176.155 183.965C174.226 183.965 172.663 185.528 172.663 187.456C172.663 189.385 174.226 190.948 176.155 190.948Z" fill="white"/>
<path opacity="0.4" d="M211.478 181.257C213.406 181.257 214.97 179.694 214.97 177.766C214.97 175.837 213.406 174.274 211.478 174.274C209.55 174.274 207.986 175.837 207.986 177.766C207.986 179.694 209.55 181.257 211.478 181.257Z" fill="white"/>
<path opacity="0.6" d="M246.791 153.121C248.719 153.121 250.283 151.558 250.283 149.629C250.283 147.701 248.719 146.138 246.791 146.138C244.863 146.138 243.299 147.701 243.299 149.629C243.299 151.558 244.863 153.121 246.791 153.121Z" fill="white"/>
<path opacity="0.8" d="M282.114 134.207C284.043 134.207 285.606 132.644 285.606 130.715C285.606 128.787 284.043 127.224 282.114 127.224C280.186 127.224 278.623 128.787 278.623 130.715C278.623 132.644 280.186 134.207 282.114 134.207Z" fill="white"/>
<path d="M317.437 96.8582C319.366 96.8582 320.929 95.295 320.929 93.3666C320.929 91.4382 319.366 89.875 317.437 89.875C315.509 89.875 313.946 91.4382 313.946 93.3666C313.946 95.295 315.509 96.8582 317.437 96.8582Z" fill="white"/>
<path d="M471.795 225.144L477.466 240.053C477.466 240.053 483.962 243.714 484.454 244.752C484.947 245.79 486.384 258.489 485.359 259.834C484.334 261.178 471.103 257.677 471.076 256.293C471.049 254.909 470.424 243.567 470.424 243.567L462.81 227.274L471.795 225.144Z" fill="#E4897B"/>
<path d="M444.36 107.51C454.224 113.421 455.275 167.106 456.859 172.124C458.443 177.143 477.945 232.425 477.945 232.425L464.234 237.75C464.234 237.75 444.732 196.684 440.526 185.063C436.32 173.442 433.498 147.125 433.498 147.125L444.36 107.51Z" fill="#407BFF"/>
<path opacity="0.2" d="M444.36 107.51C454.224 113.421 455.275 167.106 456.859 172.124C458.443 177.143 477.945 232.425 477.945 232.425L464.234 237.75C464.234 237.75 444.732 196.684 440.526 185.063C436.32 173.442 433.498 147.125 433.498 147.125L444.36 107.51Z" fill="black"/>
<path d="M430.942 100.508C416.086 92.3485 396.891 94.0657 396.891 94.0657L379.773 118.266L355.612 204.644L359.166 207.879L360.684 201.024L426.376 207.679L427.481 216.625L431.262 214.774L433.498 108.589L430.942 100.508Z" fill="#407BFF"/>
<path opacity="0.4" d="M430.942 100.508C416.086 92.3485 396.891 94.0657 396.891 94.0657L379.773 118.266L355.612 204.644L359.166 207.879L360.684 201.024L426.376 207.679L427.481 216.625L431.262 214.774L433.498 108.589L430.942 100.508Z" fill="black"/>
<path d="M337.828 37.5451L333.089 21.4781C333.638 18.0889 333.918 14.6616 333.928 11.2283C333.648 8.29973 326.766 2.69559 324.61 0.725489C322.453 -1.24461 313.535 5.1449 313.961 6.52929C314.387 7.91368 319.591 18.7626 321.242 20.0138L323.904 21.518L328.017 41.7515L337.828 37.5451Z" fill="#E4897B"/>
<path d="M383.713 95.3833C368.644 87.6627 357.156 75.7356 352.937 68.7604C348.717 61.7851 336.297 25.2983 336.297 25.2983L323.186 27.2951C323.186 27.2951 331.079 72.1148 335.299 81.8722C339.519 91.6295 378.255 127.038 378.255 127.038L383.713 95.3833Z" fill="#407BFF"/>
<path opacity="0.2" d="M383.713 95.3833C368.644 87.6627 357.156 75.7356 352.937 68.7604C348.717 61.7851 336.297 25.2983 336.297 25.2983L323.186 27.2951C323.186 27.2951 331.079 72.1148 335.299 81.8722C339.519 91.6295 378.255 127.038 378.255 127.038L383.713 95.3833Z" fill="black"/>
<path d="M373.916 432.204L363.12 433.349L361.083 410.054L371.892 408.909L373.916 432.204Z" fill="#E4897B"/>
<path d="M427.8 431.419H417.337L416.472 407.179H426.948L427.8 431.419Z" fill="#E4897B"/>
<path d="M415.887 430.207H428.599C428.808 430.208 429.009 430.28 429.171 430.411C429.333 430.541 429.446 430.723 429.491 430.926L431.555 440.244C431.637 440.645 431.557 441.062 431.333 441.404C431.108 441.746 430.757 441.985 430.357 442.068C430.246 442.081 430.134 442.081 430.024 442.068C425.911 442.001 422.915 441.748 417.751 441.748C414.569 441.748 404.972 442.081 400.579 442.081C396.186 442.081 395.614 437.742 397.411 437.342C405.477 435.585 411.547 433.149 414.13 430.833C414.614 430.407 415.243 430.183 415.887 430.207Z" fill="#263238"/>
<path d="M412.426 432.044C411.715 432.1 411.006 431.912 410.416 431.512C410.222 431.353 410.072 431.148 409.981 430.914C409.89 430.681 409.861 430.428 409.896 430.181C409.891 430.036 409.929 429.893 410.005 429.77C410.08 429.647 410.191 429.549 410.322 429.488C411.48 428.889 414.862 430.966 415.234 431.206C415.276 431.229 415.309 431.264 415.331 431.307C415.352 431.35 415.36 431.398 415.354 431.445C415.348 431.495 415.327 431.542 415.293 431.58C415.26 431.618 415.217 431.645 415.168 431.658C414.27 431.885 413.351 432.015 412.426 432.044ZM410.868 429.874C410.757 429.862 410.645 429.885 410.549 429.941C410.482 429.941 410.402 430.034 410.389 430.234C410.368 430.398 410.388 430.565 410.445 430.721C410.503 430.876 410.598 431.015 410.722 431.126C411.896 431.658 413.228 431.725 414.449 431.312C413.36 430.605 412.144 430.116 410.868 429.874Z" fill="#407BFF"/>
<path d="M415.101 431.672H414.981C413.903 431.086 411.813 428.783 412.026 427.678C412.063 427.494 412.163 427.328 412.309 427.209C412.454 427.09 412.637 427.025 412.825 427.026C413.013 427.001 413.204 427.017 413.385 427.072C413.567 427.127 413.734 427.22 413.877 427.345C415.088 428.33 415.341 431.339 415.354 431.485C415.353 431.53 415.341 431.573 415.32 431.612C415.3 431.651 415.27 431.685 415.234 431.712C415.187 431.713 415.14 431.699 415.101 431.672ZM412.998 427.479H412.878C412.559 427.479 412.532 427.665 412.519 427.731C412.386 428.41 413.717 430.154 414.795 430.966C414.725 429.774 414.293 428.632 413.557 427.692C413.401 427.558 413.203 427.483 412.998 427.479Z" fill="#407BFF"/>
<path d="M361.975 429.874H374.688C374.896 429.875 375.097 429.947 375.26 430.078C375.422 430.208 375.534 430.39 375.58 430.593L377.643 439.911C377.726 440.312 377.646 440.729 377.421 441.071C377.197 441.413 376.845 441.652 376.445 441.735C376.334 441.748 376.223 441.748 376.112 441.735C371.999 441.668 369.004 441.415 363.839 441.415C360.658 441.415 351.06 441.748 346.667 441.748C342.274 441.748 341.702 437.409 343.499 437.009C351.566 435.252 357.636 432.816 360.218 430.5C360.702 430.074 361.331 429.85 361.975 429.874Z" fill="#263238"/>
<path d="M358.514 431.712C357.803 431.767 357.094 431.58 356.504 431.179C356.31 431.021 356.16 430.815 356.069 430.582C355.978 430.349 355.949 430.096 355.985 429.848C355.98 429.704 356.017 429.561 356.093 429.437C356.169 429.314 356.279 429.216 356.411 429.156C357.569 428.557 360.95 430.633 361.323 430.873C361.364 430.896 361.398 430.932 361.419 430.975C361.441 431.017 361.449 431.065 361.443 431.113C361.436 431.163 361.415 431.21 361.382 431.248C361.349 431.286 361.305 431.313 361.256 431.326C360.359 431.553 359.439 431.682 358.514 431.712ZM356.957 429.542C356.846 429.529 356.734 429.553 356.637 429.608C356.571 429.608 356.491 429.702 356.477 429.901C356.457 430.066 356.476 430.233 356.534 430.388C356.592 430.544 356.687 430.683 356.81 430.793C357.984 431.325 359.316 431.392 360.537 430.98C359.449 430.272 358.232 429.784 356.957 429.542Z" fill="#407BFF"/>
<path d="M361.19 431.339H361.07C359.992 430.753 357.902 428.45 358.115 427.345C358.152 427.161 358.252 426.995 358.398 426.876C358.543 426.757 358.726 426.692 358.914 426.693C359.102 426.668 359.293 426.684 359.474 426.739C359.655 426.794 359.823 426.887 359.965 427.012C361.177 427.997 361.43 431.006 361.443 431.152C361.441 431.197 361.43 431.24 361.409 431.279C361.388 431.318 361.359 431.352 361.323 431.379C361.276 431.38 361.229 431.366 361.19 431.339ZM359.087 427.092H358.967C358.647 427.092 358.621 427.279 358.607 427.345C358.474 428.024 359.806 429.768 360.884 430.58C360.814 429.388 360.382 428.246 359.646 427.305C359.49 427.172 359.292 427.097 359.087 427.092Z" fill="#407BFF"/>
<path opacity="0.2" d="M371.892 408.909L361.083 410.054L362.148 422.074L372.944 420.929L371.892 408.909Z" fill="black"/>
<path opacity="0.2" d="M426.948 407.192H416.472L416.925 419.691H427.401L426.948 407.192Z" fill="black"/>
<path d="M422.622 194.527H367.087C361.762 223.373 345.269 325.419 357.13 416.337L375.939 414.007C375.939 414.007 374.195 293.325 390.781 248.705C392.698 272.586 394.961 297.958 396.931 311.522C401.763 344.801 412.106 417.521 412.106 417.521H431.248C431.248 417.521 427.335 347.916 425.524 315.209C423.554 279.721 422.729 201.849 422.622 194.527Z" fill="#263238"/>
<path opacity="0.2" d="M390.781 248.705C388.048 256.528 385.973 264.565 384.578 272.733C383.02 251.434 389.237 228.951 389.237 228.951L390.781 248.705Z" fill="black"/>
<path d="M354.987 420.743L378.255 417.282L377.55 410.839L353.336 414.021L354.987 420.743Z" fill="#407BFF"/>
<path opacity="0.6" d="M354.987 420.743L378.255 417.282L377.55 410.839L353.336 414.021L354.987 420.743Z" fill="white"/>
<path d="M409.817 417.681H432.393V410.932L408.965 410.493L409.817 417.681Z" fill="#407BFF"/>
<path opacity="0.6" d="M409.817 417.681H432.393V410.932L408.965 410.493L409.817 417.681Z" fill="white"/>
<path d="M366.621 195.22H422.529V201.875L365.902 201.197L366.621 195.22Z" fill="#263238"/>
<path opacity="0.2" d="M366.621 195.22H422.529V201.875L365.902 201.197L366.621 195.22Z" fill="white"/>
<path d="M404.558 192.225H402.562V204.045H404.558V192.225Z" fill="#263238"/>
<path d="M376.272 192.225H374.275V204.045H376.272V192.225Z" fill="#263238"/>
<path d="M383.713 95.3833C383.713 95.3833 418.988 97.8459 444.36 107.51C444.36 107.51 426.003 164.257 422.569 197.363L366.661 195.219C366.661 195.219 370.601 128.422 383.713 95.3833Z" fill="#407BFF"/>
<path opacity="0.7" d="M444.36 107.51C444.36 107.51 440.699 118.825 436.373 134.279C434.762 140.03 433.045 146.353 431.381 152.916C427.521 168.171 423.927 184.557 422.596 197.389L366.687 195.246C366.687 195.246 370.681 128.449 383.779 95.4099C383.713 95.3833 418.988 97.8459 444.36 107.51Z" fill="white"/>
<path d="M424.845 101.467C419.241 105.46 407.035 102.319 407.035 102.319C407.035 102.319 399.54 99.2971 401.444 97.0608C406.09 96.8478 408.552 94.9709 409.79 92.3618C410.481 90.727 410.843 88.9719 410.855 87.197C410.908 86.2171 410.908 85.235 410.855 84.2552L427.481 74.7241C424.593 81.9523 420.519 95.4501 424.845 101.467Z" fill="#E4897B"/>
<path opacity="0.2" d="M423.088 81.4995C421.411 90.6179 413.544 92.2818 409.777 92.3617C410.468 90.7268 410.83 88.9717 410.842 87.1968L423.088 81.4995Z" fill="black"/>
<path d="M414.476 45.1992C414.476 45.1992 404.878 56.1812 408.352 64.9668C411.827 73.7524 426.256 51.1228 426.256 51.1228L414.476 45.1992Z" fill="#263238"/>
<path d="M420.932 86.5847C418.302 87.7245 415.371 87.9693 412.588 87.2815C409.806 86.5937 407.326 85.0114 405.53 82.7776C403.149 79.9373 401.945 76.2941 402.162 72.5943C402.183 72.0768 402.237 71.5611 402.322 71.0502C403.88 61.5991 411.148 47.9548 422.116 48.0879C424.544 48.0942 426.929 48.7231 429.044 49.9144C431.159 51.1057 432.933 52.8197 434.196 54.8924C435.46 56.9651 436.17 59.3272 436.26 61.7529C436.35 64.1787 435.816 66.5869 434.709 68.7473C430.077 78.052 427.827 83.7361 420.932 86.5847Z" fill="#E4897B"/>
<path d="M419.015 65.3263C418.749 66.1116 418.016 66.5642 417.511 66.3379C417.005 66.1116 416.858 65.3129 417.178 64.5409C417.497 63.7688 418.189 63.3162 418.695 63.5292C419.201 63.7422 419.348 64.5276 419.015 65.3263Z" fill="#263238"/>
<path d="M410.229 61.6256C409.95 62.4109 409.218 62.8502 408.712 62.6372C408.206 62.4242 408.059 61.6123 408.379 60.8402C408.698 60.0681 409.391 59.6155 409.896 59.8285C410.402 60.0415 410.535 60.8801 410.229 61.6256Z" fill="#263238"/>
<path d="M412.851 63.1831C410.928 65.1721 408.738 66.8836 406.342 68.2681C406.714 68.8775 407.216 69.3975 407.812 69.7909C408.408 70.1843 409.083 70.4416 409.79 70.5444L412.851 63.1831Z" fill="#DE5753"/>
<path d="M422.942 63.6223C422.855 63.6007 422.776 63.5559 422.712 63.4925C422.649 63.4292 422.604 63.3498 422.582 63.2629C422.444 62.6546 422.164 62.0873 421.767 61.6065C421.369 61.1257 420.864 60.7447 420.293 60.4941C420.169 60.4517 420.068 60.362 420.01 60.2447C419.953 60.1274 419.944 59.992 419.987 59.8685C420.032 59.747 420.122 59.6475 420.238 59.5905C420.355 59.5336 420.489 59.5235 420.612 59.5623C421.34 59.8601 421.985 60.329 422.492 60.9292C423 61.5294 423.355 62.2432 423.528 63.01C423.548 63.072 423.555 63.1375 423.549 63.2025C423.543 63.2675 423.524 63.3306 423.493 63.3879C423.462 63.4452 423.419 63.4956 423.368 63.5359C423.317 63.5762 423.258 63.6056 423.195 63.6223H422.942Z" fill="#263238"/>
<path d="M409.417 75.11C410.461 75.7447 411.641 76.1194 412.86 76.2028C414.078 76.2862 415.299 76.0758 416.419 75.5893C416.471 75.5543 416.509 75.5022 416.526 75.442C416.544 75.3818 416.539 75.3175 416.514 75.2603C416.488 75.2031 416.443 75.1566 416.387 75.1292C416.331 75.1017 416.267 75.0949 416.206 75.11C415.16 75.5379 414.029 75.7174 412.902 75.6342C411.774 75.5511 410.682 75.2076 409.71 74.6308C409.655 74.5947 409.588 74.5815 409.523 74.5939C409.459 74.6063 409.402 74.6435 409.364 74.6974C409.327 74.7545 409.313 74.8235 409.326 74.8903C409.338 74.9572 409.376 75.0167 409.43 75.0568L409.417 75.11Z" fill="#263238"/>
<path d="M407.727 57.0065C407.628 56.9977 407.532 56.9658 407.447 56.9133C407.355 56.8189 407.304 56.6924 407.304 56.5606C407.304 56.4288 407.355 56.3023 407.447 56.2078C408.024 55.671 408.723 55.2827 409.484 55.0763C410.245 54.8699 411.044 54.8516 411.814 55.0231C411.938 55.0574 412.045 55.1395 412.109 55.2516C412.174 55.3637 412.192 55.4968 412.16 55.6221C412.12 55.7455 412.034 55.8489 411.92 55.9108C411.806 55.9727 411.673 55.9885 411.547 55.9549C410.935 55.8407 410.304 55.8716 409.705 56.0449C409.106 56.2183 408.557 56.5294 408.1 56.9533C407.985 57.0136 407.854 57.0324 407.727 57.0065Z" fill="#263238"/>
<path d="M432.646 53.8784L430.17 57.7654C430.709 58.4303 430.977 59.2742 430.92 60.1283C430.863 60.9824 430.486 61.7835 429.864 62.3712C426.882 65.2065 426.283 71.5295 427.907 74.9372C427.907 74.9372 428.719 73.4729 429.81 74.4314C430.902 75.3898 426.815 83.0572 422.569 85.5997C422.569 85.5997 427.894 84.0156 433.95 76.8141C439.528 70.1584 442.802 63.9419 442.643 60.2546L432.646 53.8784Z" fill="#263238"/>
<path d="M435.521 78.3445C434.546 79.1955 433.413 79.8454 432.186 80.2566C430.959 80.6678 429.663 80.8323 428.373 80.7406C424.925 80.4877 424.379 77.1198 426.309 74.4709C428.053 72.128 431.967 69.3592 434.949 70.9566C437.93 72.554 437.917 76.2014 435.521 78.3445Z" fill="#E4897B"/>
<path d="M426.256 52.9729C426.256 52.9729 427.907 51.4288 428.04 54.9031C428.173 58.3774 430.263 60.7335 435.002 63.1828C439.741 65.6321 441.245 65.8451 441.245 65.8451C441.245 65.8451 448.952 58.5637 440.899 50.2707C440.899 50.2707 441.272 45.9977 436.2 43.2156C427.481 38.4234 415.514 40.4068 411.308 45.2522C410.403 46.1992 409.781 47.3807 409.512 48.6628C409.244 49.945 409.34 51.2766 409.79 52.507C409.79 52.507 423.554 45.199 426.256 52.9729Z" fill="#263238"/>
<path d="M423.261 95.3569L407.833 100.256L407.594 94.8511L401.976 96.1157C400.998 96.3372 400.123 96.882 399.492 97.6622C398.862 98.4424 398.513 99.4123 398.502 100.415L398.422 106.299L404.559 103.823C404.559 103.823 395.414 125.281 394.216 155.738C394.216 155.738 397.703 122.912 407.181 104.648L409.431 108.788L428.067 102.372L423.261 95.3569Z" fill="#407BFF"/>
<path opacity="0.6" d="M423.261 95.3569L407.833 100.256L407.594 94.8511L401.976 96.1157C400.998 96.3372 400.123 96.882 399.492 97.6622C398.862 98.4424 398.513 99.4123 398.502 100.415L398.422 106.299L404.559 103.823C404.559 103.823 395.414 125.281 394.216 155.738C394.216 155.738 397.703 122.912 407.181 104.648L409.431 108.788L428.067 102.372L423.261 95.3569Z" fill="white"/>
<path d="M392.099 194.062H381.756V201.516H392.099V194.062Z" fill="#407BFF"/>
<path opacity="0.4" d="M392.099 194.062H381.756V201.516H392.099V194.062Z" fill="white"/>
<path d="M394.215 96.4349C394.215 96.4349 366.634 169.329 360.311 204.125L356.171 201.875C356.171 201.875 372.065 122.113 383.779 95.3833L394.215 96.4349Z" fill="#407BFF"/>
<path d="M432.606 103.716C432.606 103.716 420.918 162.393 426.256 210.488L432.606 209.077C432.606 209.077 440.287 132.323 444.36 107.51L432.606 103.716Z" fill="#407BFF"/>
<path d="M390.781 105.78L391.859 96.1953L396.918 94.0654C396.984 96.3802 396.455 98.6733 395.381 100.725C394.306 102.776 392.722 104.517 390.781 105.78Z" fill="#407BFF"/>
<path opacity="0.2" d="M390.781 105.78L391.859 96.1953L396.918 94.0654C396.984 96.3802 396.455 98.6733 395.381 100.725C394.306 102.776 392.722 104.517 390.781 105.78Z" fill="black"/>
<path d="M430.942 113.154C429.376 109.084 429.376 104.578 430.942 100.508L435.667 104.701L430.942 113.154Z" fill="#407BFF"/>
<path opacity="0.2" d="M430.942 113.154C429.376 109.084 429.376 104.578 430.942 100.508L435.667 104.701L430.942 113.154Z" fill="black"/>
<path d="M506.655 275.123L499.682 243.905C499.492 243.051 498.645 242.513 497.791 242.704L450.424 253.283C449.571 253.474 449.033 254.321 449.224 255.174L456.196 286.393C456.387 287.247 457.234 287.784 458.087 287.594L505.454 277.015C506.308 276.824 506.845 275.977 506.655 275.123Z" fill="#263238"/>
<path opacity="0.2" d="M506.655 275.123L499.682 243.905C499.492 243.051 498.645 242.513 497.791 242.704L450.424 253.283C449.571 253.474 449.033 254.321 449.224 255.174L456.196 286.393C456.387 287.247 457.234 287.784 458.087 287.594L505.454 277.015C506.308 276.824 506.845 275.977 506.655 275.123Z" fill="white"/>
<path d="M484.947 300.008L465.325 281.931C467.988 254.256 496.142 245.391 496.142 245.391L502.797 275.288C502.797 275.288 479.848 277.365 484.947 300.008Z" fill="#407BFF"/>
<path opacity="0.7" d="M484.947 300.008L465.325 281.931C467.988 254.256 496.142 245.391 496.142 245.391L502.797 275.288C502.797 275.288 479.848 277.365 484.947 300.008Z" fill="white"/>
<path d="M497.486 266.316L495.13 255.76C495.08 255.539 495.074 255.31 495.114 255.086C495.154 254.863 495.239 254.649 495.363 254.459C495.487 254.269 495.649 254.106 495.837 253.98C496.026 253.853 496.238 253.766 496.461 253.724L499.376 253.071C499.598 253.023 499.827 253.019 500.049 253.06C500.272 253.101 500.485 253.185 500.674 253.309C500.864 253.433 501.027 253.594 501.154 253.782C501.281 253.969 501.369 254.18 501.413 254.403L503.769 264.959C503.818 265.18 503.822 265.409 503.781 265.631C503.74 265.854 503.655 266.067 503.531 266.256C503.407 266.446 503.247 266.609 503.059 266.736C502.871 266.863 502.66 266.951 502.438 266.995L499.523 267.648C499.302 267.696 499.073 267.7 498.85 267.659C498.627 267.618 498.415 267.534 498.225 267.41C498.035 267.286 497.872 267.125 497.746 266.937C497.619 266.75 497.531 266.539 497.486 266.316ZM500.149 254.629C500.12 254.505 500.044 254.398 499.937 254.331C499.829 254.264 499.7 254.242 499.576 254.269L496.661 254.922C496.599 254.934 496.539 254.959 496.487 254.995C496.434 255.031 496.389 255.077 496.355 255.13C496.32 255.183 496.296 255.243 496.285 255.305C496.273 255.368 496.275 255.432 496.288 255.494L498.644 266.05C498.676 266.172 498.753 266.277 498.859 266.344C498.966 266.41 499.093 266.434 499.217 266.41L502.145 265.757C502.269 265.729 502.376 265.652 502.443 265.545C502.51 265.438 502.533 265.308 502.505 265.185L500.149 254.629Z" fill="#407BFF"/>
<g opacity="0.4">
<path opacity="0.4" d="M497.486 266.316L495.13 255.76C495.08 255.539 495.074 255.31 495.114 255.086C495.154 254.863 495.239 254.649 495.363 254.459C495.487 254.269 495.649 254.106 495.837 253.98C496.026 253.853 496.238 253.766 496.461 253.724L499.376 253.071C499.598 253.023 499.827 253.019 500.049 253.06C500.272 253.101 500.485 253.185 500.674 253.309C500.864 253.433 501.027 253.594 501.154 253.782C501.281 253.969 501.369 254.18 501.413 254.403L503.769 264.959C503.818 265.18 503.822 265.409 503.781 265.631C503.74 265.854 503.655 266.067 503.531 266.256C503.407 266.446 503.247 266.609 503.059 266.736C502.871 266.863 502.66 266.951 502.438 266.995L499.523 267.648C499.302 267.696 499.073 267.7 498.85 267.659C498.627 267.618 498.415 267.534 498.225 267.41C498.035 267.286 497.872 267.125 497.746 266.937C497.619 266.75 497.531 266.539 497.486 266.316ZM500.149 254.629C500.12 254.505 500.044 254.398 499.937 254.331C499.829 254.264 499.7 254.242 499.576 254.269L496.661 254.922C496.599 254.934 496.539 254.959 496.487 254.995C496.434 255.031 496.389 255.077 496.355 255.13C496.32 255.183 496.296 255.243 496.285 255.305C496.273 255.368 496.275 255.432 496.288 255.494L498.644 266.05C498.676 266.172 498.753 266.277 498.859 266.344C498.966 266.41 499.093 266.434 499.217 266.41L502.145 265.757C502.269 265.729 502.376 265.652 502.443 265.545C502.51 265.438 502.533 265.308 502.505 265.185L500.149 254.629Z" fill="white"/>
</g>
<path d="M87.8872 156.64H95.6828C95.6828 156.64 100.251 158.698 102.605 158.199C104.96 157.7 119.755 149.016 118.929 147.535C118.103 146.054 86.5464 149.203 86.5464 149.203L87.8872 156.64Z" fill="#EBB376"/>
<path d="M97.1171 243.826C97.1171 243.826 96.3376 255.441 94.7317 273.449C94.1548 280.028 93.4688 287.481 92.6581 295.495C89.1657 330.294 83.5529 376.428 75.617 413.706L67.8214 413.582C67.8214 413.582 62.0371 357.298 71.7192 319.739L70.7369 293.062L70.0509 274.68L68.9128 243.763L97.1171 243.826Z" fill="#EBB376"/>
<path d="M62.2867 249.282C62.2867 249.282 59.8233 259.463 55.5981 275.46C54.3508 280.137 52.9632 285.376 51.4353 290.973C42.0806 325.382 27.5809 374.635 12.1924 413.098L4.50598 411.648C4.50598 411.648 8.38817 355.193 24.3223 319.832L28.5475 288.431L30.1066 276.722L34.4565 244.48L62.2867 249.282Z" fill="#EBB376"/>
<path opacity="0.2" d="M30.1223 276.723L55.5982 275.46C54.3509 280.137 52.9633 285.376 51.4354 290.973L28.5476 288.432L30.1223 276.723Z" fill="black"/>
<path opacity="0.2" d="M94.7319 273.511C94.155 280.09 93.469 287.543 92.6583 295.557L70.7215 293.124L70.0355 274.742L94.7319 273.511Z" fill="black"/>
<path d="M26.0063 105.485C20.9236 107.481 22.7166 154.738 31.6191 167.522C40.5217 180.307 92.674 160.725 92.674 160.725L91.4267 149.281L44.934 149.421L26.0063 105.485Z" fill="#263238"/>
<path d="M146.837 143.106L91.4265 146.427L98.0216 105.89C98.1042 105.468 98.3255 105.085 98.6503 104.803C98.975 104.521 99.3848 104.355 99.8145 104.331L152.341 101.213C152.502 101.204 152.663 101.231 152.812 101.292C152.96 101.354 153.094 101.448 153.201 101.568C153.309 101.687 153.389 101.83 153.434 101.984C153.479 102.139 153.49 102.301 153.464 102.46L146.837 143.106Z" fill="#263238"/>
<path opacity="0.2" d="M146.837 143.106L91.4265 146.427L98.0216 105.89C98.1042 105.468 98.3255 105.085 98.6503 104.803C98.975 104.521 99.3848 104.355 99.8145 104.331L152.341 101.213C152.502 101.204 152.663 101.231 152.812 101.292C152.96 101.354 153.094 101.448 153.201 101.568C153.309 101.687 153.389 101.83 153.434 101.984C153.479 102.139 153.49 102.301 153.464 102.46L146.837 143.106Z" fill="white"/>
<path d="M146.12 143.153L90.7095 146.474L97.3045 105.937C97.3846 105.514 97.6051 105.13 97.9305 104.847C98.2558 104.564 98.6669 104.399 99.0975 104.378L151.624 101.26C151.784 101.248 151.945 101.273 152.094 101.333C152.243 101.392 152.376 101.485 152.484 101.603C152.592 101.722 152.672 101.864 152.718 102.017C152.763 102.171 152.773 102.334 152.747 102.492L146.12 143.153Z" fill="#263238"/>
<path d="M144.577 141.922L92.6738 145.04L99.0818 105.594L150.985 102.476L144.577 141.922Z" fill="#407BFF"/>
<path opacity="0.4" d="M144.577 141.922L92.6738 145.04L99.0818 105.594L150.985 102.476L144.577 141.922Z" fill="white"/>
<path d="M146.12 143.153L146.229 145.149C146.259 145.682 146.078 146.205 145.725 146.605C145.372 147.004 144.875 147.249 144.343 147.285L64.3292 152.118C64.065 152.135 63.8 152.1 63.5495 152.014C63.299 151.928 63.0679 151.794 62.8694 151.619C62.671 151.443 62.5091 151.231 62.3931 150.993C62.277 150.755 62.2091 150.496 62.1932 150.232L62.0685 148.252L146.12 143.153Z" fill="#263238"/>
<path opacity="0.2" d="M146.12 143.153L146.229 145.149C146.259 145.682 146.078 146.205 145.725 146.605C145.372 147.004 144.875 147.249 144.343 147.285L64.3292 152.118C64.065 152.135 63.8 152.1 63.5495 152.014C63.299 151.928 63.0679 151.794 62.8694 151.619C62.671 151.443 62.5091 151.231 62.3931 150.993C62.277 150.755 62.2091 150.496 62.1932 150.232L62.0685 148.252L146.12 143.153Z" fill="white"/>
<path opacity="0.2" d="M146.12 143.153L146.229 145.149C146.259 145.682 146.078 146.205 145.725 146.605C145.372 147.004 144.875 147.249 144.343 147.285L111.009 149.281C110.48 149.319 109.958 149.148 109.555 148.803C109.152 148.459 108.901 147.969 108.857 147.441L108.733 145.445L146.12 143.153Z" fill="white"/>
<g opacity="0.4">
<path opacity="0.4" d="M101.467 136.902L99.3469 137.026L100.236 131.944L102.356 131.819L101.467 136.902Z" fill="white"/>
<path opacity="0.4" d="M105.505 136.652L103.369 136.777L104.804 128.545L106.94 128.42L105.505 136.652Z" fill="white"/>
<path opacity="0.4" d="M109.528 136.403L107.408 136.527L109.388 125.146L111.508 125.021L109.528 136.403Z" fill="white"/>
<path opacity="0.4" d="M113.566 136.153L111.43 136.278L113.691 123.322L115.827 123.197L113.566 136.153Z" fill="white"/>
<path opacity="0.4" d="M117.588 135.904L115.468 136.028L117.994 121.497L120.13 121.373L117.588 135.904Z" fill="white"/>
<path opacity="0.4" d="M121.626 135.654L119.49 135.779L122.578 118.098L124.698 117.958L121.626 135.654Z" fill="white"/>
<path opacity="0.4" d="M125.649 135.405L123.529 135.53L126.335 119.424L128.456 119.284L125.649 135.405Z" fill="white"/>
<path opacity="0.4" d="M129.687 135.155L127.551 135.28L130.093 120.749L132.213 120.609L129.687 135.155Z" fill="white"/>
<path opacity="0.4" d="M133.71 134.906L131.574 135.031L134.661 117.35L136.797 117.21L133.71 134.906Z" fill="white"/>
<path opacity="0.4" d="M137.748 134.656L135.612 134.781L139.51 112.361L141.646 112.236L137.748 134.656Z" fill="white"/>
</g>
<path d="M98.6297 287.231C108.109 201.246 91.7228 171.997 91.7228 171.997L45.4795 164.092C43.6475 172.63 42.3509 181.274 41.5973 189.974C41.5973 189.974 37.1538 205.877 35.7351 210.242C27.9905 235.124 24.5372 261.143 25.5229 287.184L98.6297 287.231Z" fill="#407BFF"/>
<g opacity="0.2">
<path opacity="0.2" d="M98.6294 287.231H25.5227C25.5227 287.231 25.1485 281.727 25.4135 272.7C25.9607 251.535 29.4341 230.548 35.7348 210.335C37.1536 205.923 41.5971 190.067 41.5971 190.067C41.7114 189.027 41.8206 187.988 41.9245 186.949C42.6416 179.3 43.8288 171.704 45.4793 164.201L91.707 171.997C91.707 171.997 108.109 201.246 98.6294 287.231Z" fill="black"/>
</g>
<path opacity="0.2" d="M69.5522 240.302C69.5522 240.302 50.8428 264.063 25.4137 272.7C25.9609 251.536 29.4342 230.548 35.735 210.336C37.1538 205.924 41.5973 190.067 41.5973 190.067C41.7116 189.028 41.8208 187.989 41.9247 186.949L89.6024 183.301C89.6024 183.301 72.3274 200.623 53.7428 205.128C53.8207 205.128 54.5847 230.838 69.5522 240.302Z" fill="black"/>
<path d="M70.0823 64.8081C70.0823 65.7903 70.5968 66.5855 71.2516 66.5855C71.9064 66.5855 72.4209 65.7747 72.4209 64.7769C72.4209 63.7791 71.8753 62.9995 71.236 62.9995C70.5968 62.9995 70.0823 63.8414 70.0823 64.8081Z" fill="#263238"/>
<path d="M68.0397 62.4693C68.1456 62.4846 68.2538 62.471 68.3526 62.4298C68.4515 62.3886 68.5373 62.3215 68.601 62.2354C69.022 61.6435 69.5752 61.1578 70.2166 60.8169C70.8579 60.4759 71.5699 60.289 72.2961 60.2709C72.4507 60.2795 72.6026 60.2272 72.7192 60.1252C72.8357 60.0233 72.9077 59.8797 72.9197 59.7252C72.9239 59.6495 72.9131 59.5736 72.888 59.502C72.8628 59.4304 72.8238 59.3644 72.7731 59.308C72.7224 59.2515 72.661 59.2055 72.5926 59.1728C72.5241 59.1401 72.4498 59.1212 72.374 59.1172C71.4583 59.1187 70.5562 59.3387 69.7427 59.7591C68.9292 60.1794 68.2277 60.7878 67.6967 61.5338C67.6496 61.5932 67.6146 61.6612 67.5938 61.7341C67.573 61.807 67.5668 61.8833 67.5755 61.9586C67.5841 62.0339 67.6076 62.1067 67.6444 62.1729C67.6813 62.2391 67.7308 62.2975 67.7902 62.3445L68.0397 62.4693Z" fill="#263238"/>
<path d="M70.8464 67.2715C71.5295 69.4092 72.4999 71.4443 73.7307 73.3208C73.2407 73.6277 72.6892 73.823 72.1154 73.893C71.5415 73.9631 70.9592 73.9061 70.4098 73.7262L70.8464 67.2715Z" fill="#DE726F"/>
<path d="M47.2723 84.5618C47.3864 84.6688 47.5119 84.7629 47.6465 84.8425C49.4251 86.1988 51.4545 87.1897 53.6179 87.758C59.9323 89.2236 64.251 88.3505 67.073 85.4973C71.0176 81.2097 71.9998 73.6168 71.4385 64.4493C71.3466 60.8006 70.6729 57.19 69.4429 53.7538C69.4429 53.7538 69.4429 53.6134 69.4429 53.5822C69.4429 53.5511 69.3493 53.3172 69.287 53.1925C68.5141 51.2534 67.267 49.5394 65.6598 48.2074C64.0527 46.8754 62.137 45.968 60.0882 45.5684C58.312 45.1713 56.4981 44.9674 54.6781 44.9604C36.7951 44.7733 33.5833 74.3652 47.2723 84.5618Z" fill="#EBB376"/>
<path opacity="0.2" d="M47.9117 85.5909C49.7367 86.8194 51.7877 87.6727 53.9455 88.1011C60.2911 89.3952 64.5787 88.2102 67.3227 85.2323C63.5734 86.276 59.5848 86.0569 55.9724 84.6087C54.6426 84.1482 53.2253 83.9973 51.8284 84.1675C50.4316 84.3377 49.092 84.8246 47.9117 85.5909Z" fill="black"/>
<path d="M45.8378 100.979C44.7308 106.062 51.3259 108.136 51.3259 108.136C62.0994 103.536 64.095 97.7989 64.095 97.7989C55.0989 93.1216 57.7027 79.8535 57.7027 79.8535L55.8785 80.7578L43.047 83.268C43.047 83.268 46.6018 90.0969 47.0695 91.656C49.5017 99.8414 45.8378 100.979 45.8378 100.979Z" fill="#EBB376"/>
<path d="M69.4586 53.6289C69.4586 53.6289 70.4409 66.1018 58.5448 71.5431C58.5448 71.5431 53.4465 84.5617 45.9472 84.7332C35.7038 84.9827 26.6922 70.4362 30.2313 55.609C34.8619 36.3695 64.0017 34.8104 69.4586 53.6289Z" fill="#263238"/>
<path d="M64.5941 67.9263C64.5941 65.9774 63.035 62.6877 59.9168 63.1398C56.7986 63.592 55.0212 71.3564 62.7544 73.087C63.9237 73.352 64.5941 72.0268 64.5941 67.9263Z" fill="#EBB376"/>
<path d="M47.6467 40.3142C47.6467 40.3142 59.6051 37.2896 66.2002 42.1072C73.9957 47.72 76.8489 53.5199 67.7593 62.5316C67.7593 62.5316 47.6935 56.0301 41.0205 57.4021C37.1201 58.1888 33.2922 59.2997 29.5766 60.723C28.1266 47.4706 40.9737 37.6014 47.6467 40.3142Z" fill="#263238"/>
<path d="M71.5947 48.3281C71.5947 48.3281 77.1295 52.1012 74.5881 57.9167C72.0468 63.7322 64.5942 63.8725 64.5942 63.8725" stroke="#263238" stroke-width="0.5" stroke-linecap="round" stroke-linejoin="round"/>
<path d="M64.5943 64.9329C64.5943 64.9329 61.4761 79.3703 66.3717 91.6872C66.3717 91.6872 37.9959 101.525 28.1267 96.1775C18.2575 90.8297 27.3003 72.8843 27.7213 62.5318C28.1423 52.1793 32.6325 36.8844 47.6468 40.3145C62.661 43.7445 64.5943 64.9329 64.5943 64.9329Z" fill="#263238"/>
<path d="M90.8651 439.556C89.4136 438.383 87.7597 437.485 85.9851 436.906C85.9851 436.906 80.6685 431.621 78.1895 415.749L71.2203 413.925C70.0383 413.643 68.7983 413.729 67.6668 414.172C66.5354 414.615 65.5665 415.394 64.8903 416.404C64.6983 416.686 64.5511 416.996 64.4537 417.324C64.0943 419.026 63.8443 420.75 63.7053 422.484C63.3189 428.287 63.2876 434.108 63.6118 439.915H64.8591L65.358 429.001C65.5451 425.275 68.4762 429.641 69.209 433.679C69.9418 437.717 71.7504 441.942 79.9045 442.129C89.3216 442.254 93.2661 441.88 90.8651 439.556Z" fill="#263238"/>
<path d="M64.5632 416.528C64.111 412.818 63.9707 406.363 63.9707 406.363L79.4371 408.078C79.4371 408.078 77.5662 415.421 79.1097 420.941C71.3141 418.882 64.5632 416.528 64.5632 416.528Z" fill="#263238"/>
<path d="M27.9394 439.556C26.4879 438.383 24.8341 437.485 23.0594 436.906C23.0594 436.906 17.7428 431.621 15.2638 415.749L8.29461 413.925C7.11261 413.643 5.87266 413.729 4.74118 414.172C3.6097 414.615 2.64084 415.394 1.96462 416.404C1.77268 416.686 1.62544 416.996 1.52807 417.324C1.16866 419.026 0.918687 420.75 0.779692 422.484C0.393195 428.287 0.361953 434.108 0.686143 439.915H1.93343L2.43235 429.001C2.61944 425.275 5.55057 429.641 6.28336 433.679C7.01614 437.717 8.82471 441.942 16.9789 442.129C26.3959 442.254 30.3405 441.88 27.9394 439.556Z" fill="#263238"/>
<path d="M1.65261 416.528C1.18487 412.818 1.04456 406.363 1.04456 406.363L16.511 408.078C16.511 408.078 14.64 415.421 16.1835 420.941C8.38797 418.882 1.65261 416.528 1.65261 416.528Z" fill="#263238"/>
<path d="M26.0062 105.485C26.0062 105.485 35.8754 101.618 44.7156 99.2485C51.6152 97.5352 58.6282 96.316 65.7012 95.6002C72.3776 94.852 79.0992 94.5863 85.8138 94.8051C85.6267 98.048 85.4864 101.042 85.3616 103.973C85.1901 107.761 85.0654 111.269 84.9874 114.528C84.8315 120.64 84.8471 125.878 84.9874 130.524C85.2276 140.66 86.4547 150.749 88.6514 160.646L98.6297 184.859L38.8065 192.483L42.1898 168.645C32.2738 139.754 28.0175 124.537 26.4116 115.9C24.6654 106.249 26.0062 105.485 26.0062 105.485Z" fill="#263238"/>
<path opacity="0.1" d="M26.0062 105.485C26.0062 105.485 35.8754 101.618 44.7156 99.2485C51.6152 97.5352 58.6282 96.316 65.7012 95.6002C72.3776 94.852 79.0992 94.5863 85.8138 94.8051C85.6267 98.048 85.4864 101.042 85.3616 103.973C85.1901 107.761 85.0654 111.269 84.9874 114.528C84.8315 120.64 84.8471 125.878 84.9874 130.524C85.2276 140.66 86.4547 150.749 88.6514 160.646L98.6297 184.859L38.8065 192.483L42.1898 168.645C32.2738 139.754 28.0175 124.537 26.4116 115.9C24.6654 106.249 26.0062 105.485 26.0062 105.485Z" fill="white"/>
<path d="M144.717 158.354L158.281 162.393C159.894 161.899 161.548 161.554 163.224 161.364C164.658 161.364 176.991 166.041 178.643 167.6C180.296 169.159 170.848 177.469 170.333 177.875C169.819 178.28 157.049 173.197 156.441 172.948C155.833 172.698 155.615 170.781 155.615 170.781L140.601 166.976L144.717 158.354Z" fill="#EBB376"/>
<path d="M85.8292 94.7432C93.2974 99.67 112.069 146.381 114.532 147.613C116.996 148.844 153.51 159.322 153.51 159.322L148.958 170.703C148.958 170.703 108.982 163.578 104.975 160.787C100.968 157.996 85.0029 128.981 85.0029 128.981C83.0176 122.68 81.885 116.141 81.6352 109.539C81.4968 104.296 82.9598 99.1342 85.8292 94.7432Z" fill="#263238"/>
<path d="M262.904 393.568H253.793V442.119H262.904V393.568Z" fill="#407BFF"/>
<path d="M262.904 393.568H257.632V442.119H262.904V393.568Z" fill="#407BFF"/>
<path opacity="0.2" d="M262.904 393.568H257.632V442.119H262.904V393.568Z" fill="black"/>
<path opacity="0.2" d="M262.904 393.568V413.57L257.632 411.778L253.793 410.473V393.568H262.904Z" fill="black"/>
<path d="M301.295 393.568H292.184V442.119H301.295V393.568Z" fill="#407BFF"/>
<path d="M183.564 393.568H174.453V442.119H183.564V393.568Z" fill="#407BFF"/>
<path opacity="0.2" d="M183.564 393.568H174.453V442.119H183.564V393.568Z" fill="black"/>
<path d="M302.754 370.56V442.119H295.946V397.958H211.576V442.119H199.087V397.958H178.497V442.119H174.453V370.56H302.754Z" fill="#407BFF"/>
<path d="M202.363 370.56H200.098V359.312H204.628L202.363 370.56Z" fill="#263238"/>
<path opacity="0.2" d="M302.754 370.56V442.119H295.946V397.958H211.576V442.119H204.628V370.56H302.754Z" fill="black"/>
<path d="M276.328 349.227H276.405L254.343 343.891C253.85 343.738 253.337 343.656 252.821 343.648H203.13C201.759 343.645 200.437 344.156 199.423 345.08C198.409 346.004 197.778 347.273 197.653 348.639L196.655 359.235C196.542 360.47 196.85 361.707 197.532 362.744C198.213 363.781 199.226 364.556 200.405 364.942L200.75 365.031L201.173 365.134L222.71 370.393C223.16 370.517 223.625 370.582 224.092 370.585H273.705C275.075 370.585 276.396 370.073 277.409 369.15C278.422 368.227 279.054 366.959 279.182 365.595L280.18 354.999C280.298 353.741 279.98 352.48 279.279 351.429C278.577 350.378 277.535 349.601 276.328 349.227Z" fill="#263238"/>
<path opacity="0.2" d="M276.328 349.227H276.405L254.343 343.891C253.85 343.738 253.337 343.656 252.821 343.648H203.13C201.759 343.645 200.437 344.156 199.423 345.08C198.409 346.004 197.778 347.273 197.653 348.639L196.655 359.235C196.542 360.47 196.85 361.707 197.532 362.744C198.213 363.781 199.226 364.556 200.405 364.942L200.75 365.031L201.173 365.134L222.71 370.393C223.16 370.517 223.625 370.582 224.092 370.585H273.705C275.075 370.585 276.396 370.073 277.409 369.15C278.422 368.227 279.054 366.959 279.182 365.595L280.18 354.999C280.298 353.741 279.98 352.48 279.279 351.429C278.577 350.378 277.535 349.601 276.328 349.227Z" fill="white"/>
<path opacity="0.1" d="M273.705 370.56H224.04C223.274 370.56 222.517 370.4 221.816 370.09C221.115 369.781 220.486 369.329 219.97 368.763C219.453 368.197 219.06 367.53 218.816 366.804C218.572 366.078 218.481 365.308 218.551 364.545L219.549 353.95C219.676 352.585 220.308 351.317 221.321 350.394C222.334 349.471 223.655 348.959 225.026 348.959H274.716C275.482 348.959 276.24 349.119 276.94 349.429C277.641 349.738 278.27 350.19 278.786 350.756C279.303 351.322 279.696 351.989 279.94 352.715C280.185 353.441 280.275 354.21 280.206 354.973L279.207 365.569C279.08 366.938 278.444 368.21 277.425 369.133C276.407 370.057 275.08 370.566 273.705 370.56Z" fill="white"/>
<g opacity="0.1">
<path opacity="0.1" d="M260.064 360.63C259.866 362.126 259.134 363.501 258.003 364.5C256.872 365.5 255.418 366.057 253.908 366.068C253.207 366.094 252.508 365.967 251.86 365.696C251.212 365.426 250.63 365.018 250.154 364.501C249.679 363.984 249.321 363.371 249.105 362.702C248.89 362.034 248.821 361.327 248.905 360.63C249.108 359.137 249.841 357.767 250.972 356.77C252.102 355.774 253.553 355.218 255.06 355.204C255.761 355.177 256.46 355.302 257.108 355.571C257.756 355.84 258.338 356.246 258.814 356.762C259.29 357.278 259.648 357.891 259.863 358.559C260.079 359.226 260.148 359.933 260.064 360.63Z" fill="white"/>
<path opacity="0.1" d="M274.498 362.588H266.398C266.292 362.592 266.186 362.574 266.088 362.533C265.99 362.493 265.902 362.431 265.831 362.353C265.759 362.275 265.705 362.183 265.672 362.082C265.64 361.981 265.63 361.874 265.643 361.769L265.886 359.465C265.917 359.239 266.029 359.032 266.2 358.881C266.372 358.731 266.592 358.647 266.82 358.646H274.985C275.091 358.642 275.196 358.66 275.294 358.701C275.392 358.741 275.48 358.803 275.552 358.881C275.624 358.958 275.678 359.051 275.71 359.152C275.743 359.253 275.753 359.36 275.74 359.465L275.497 361.769C275.465 362.006 275.344 362.223 275.159 362.375C274.974 362.527 274.738 362.603 274.498 362.588Z" fill="white"/>
<path opacity="0.1" d="M230.989 367.182H228.11L228.404 364.392H231.284L230.989 367.182Z" fill="white"/>
<path opacity="0.1" d="M234.944 367.182H232.077L232.371 364.392H235.238L234.944 367.182Z" fill="white"/>
</g>
<path d="M123.253 286.293C122.95 286.291 122.657 286.188 122.421 285.999L119.286 283.35C119.026 283.131 118.864 282.818 118.835 282.479C118.806 282.141 118.913 281.805 119.132 281.545C119.351 281.286 119.664 281.124 120.002 281.095C120.341 281.066 120.677 281.173 120.936 281.392L124.072 284.041C124.27 284.21 124.411 284.436 124.478 284.688C124.544 284.94 124.532 285.206 124.443 285.451C124.354 285.696 124.192 285.907 123.979 286.058C123.767 286.208 123.513 286.29 123.253 286.293Z" fill="#407BFF"/>
<path d="M139.338 299.781C139.036 299.779 138.743 299.675 138.506 299.486C135.094 296.611 131.681 293.749 128.269 290.9C128.126 290.797 128.006 290.666 127.917 290.515C127.827 290.363 127.769 290.195 127.748 290.021C127.726 289.846 127.74 289.669 127.79 289.501C127.839 289.332 127.923 289.175 128.036 289.041C128.149 288.906 128.288 288.796 128.445 288.717C128.603 288.638 128.774 288.593 128.95 288.584C129.125 288.575 129.301 288.602 129.466 288.663C129.63 288.725 129.781 288.82 129.907 288.942C133.319 291.791 136.732 294.653 140.144 297.529C140.342 297.698 140.484 297.923 140.55 298.175C140.617 298.427 140.604 298.694 140.515 298.938C140.426 299.183 140.265 299.395 140.052 299.546C139.839 299.696 139.586 299.778 139.325 299.781H139.338Z" fill="#407BFF"/>
<path d="M152.135 310.645C151.83 310.645 151.535 310.536 151.303 310.338L145.225 305.219C145.096 305.11 144.99 304.976 144.913 304.826C144.836 304.676 144.79 304.512 144.776 304.344C144.763 304.176 144.782 304.007 144.834 303.846C144.886 303.686 144.968 303.537 145.078 303.408C145.187 303.28 145.32 303.174 145.47 303.097C145.621 303.02 145.784 302.973 145.953 302.96C146.121 302.946 146.29 302.966 146.45 303.017C146.611 303.069 146.76 303.152 146.888 303.261L152.954 308.38C153.083 308.488 153.189 308.621 153.266 308.77C153.343 308.92 153.391 309.083 153.405 309.25C153.419 309.418 153.4 309.587 153.349 309.747C153.298 309.907 153.216 310.056 153.108 310.184C152.989 310.327 152.84 310.442 152.672 310.522C152.504 310.601 152.321 310.643 152.135 310.645Z" fill="#407BFF"/>
<path d="M179.763 334.127C179.464 334.128 179.175 334.024 178.944 333.833C171.821 327.861 164.723 321.838 157.65 315.764L157.343 315.495C157.215 315.387 157.109 315.254 157.031 315.105C156.954 314.955 156.907 314.792 156.893 314.625C156.878 314.457 156.897 314.288 156.948 314.128C156.999 313.968 157.081 313.819 157.19 313.691C157.299 313.563 157.432 313.458 157.582 313.382C157.732 313.306 157.895 313.26 158.063 313.247C158.23 313.233 158.399 313.254 158.559 313.306C158.718 313.358 158.866 313.441 158.994 313.55L159.314 313.819C166.386 319.842 173.48 325.86 180.595 331.875C180.794 332.045 180.936 332.272 181.002 332.525C181.068 332.778 181.055 333.045 180.964 333.291C180.873 333.536 180.71 333.748 180.495 333.897C180.28 334.047 180.025 334.127 179.763 334.127Z" fill="#407BFF"/>
<path d="M192.675 344.864C192.376 344.864 192.087 344.76 191.856 344.569L185.727 339.451C185.598 339.342 185.492 339.21 185.415 339.06C185.337 338.911 185.29 338.748 185.276 338.58C185.262 338.413 185.28 338.244 185.332 338.084C185.383 337.924 185.465 337.775 185.573 337.646C185.792 337.39 186.102 337.231 186.437 337.202C186.773 337.173 187.106 337.278 187.365 337.493L193.494 342.612C193.624 342.719 193.731 342.851 193.81 343C193.888 343.149 193.936 343.312 193.952 343.479C193.967 343.647 193.95 343.816 193.9 343.977C193.85 344.137 193.768 344.287 193.661 344.416C193.539 344.558 193.388 344.672 193.218 344.749C193.047 344.827 192.862 344.866 192.675 344.864Z" fill="#407BFF"/>
<path d="M176.18 265.716C175.936 265.716 175.696 265.647 175.489 265.515C175.283 265.384 175.119 265.196 175.016 264.973L173.288 261.134C173.149 260.827 173.137 260.477 173.254 260.161C173.372 259.844 173.609 259.587 173.915 259.445C174.068 259.374 174.234 259.334 174.402 259.327C174.57 259.32 174.738 259.347 174.897 259.405C175.055 259.463 175.2 259.552 175.323 259.667C175.447 259.781 175.547 259.919 175.617 260.072L177.345 263.911C177.484 264.219 177.496 264.569 177.379 264.885C177.262 265.201 177.024 265.458 176.718 265.6C176.55 265.681 176.366 265.721 176.18 265.716Z" fill="#407BFF"/>
<path d="M187.608 290.157C187.363 290.158 187.123 290.088 186.917 289.957C186.711 289.825 186.546 289.637 186.443 289.415C183.73 283.452 181.325 278.282 178.97 273.624C178.895 273.473 178.851 273.308 178.84 273.14C178.829 272.971 178.851 272.802 178.905 272.643C178.959 272.483 179.044 272.335 179.155 272.208C179.266 272.081 179.401 271.977 179.552 271.903C179.704 271.828 179.868 271.784 180.036 271.772C180.205 271.761 180.374 271.783 180.533 271.837C180.693 271.891 180.841 271.976 180.968 272.087C181.095 272.199 181.199 272.334 181.273 272.485C183.602 277.181 186.047 282.364 188.772 288.353C188.911 288.662 188.921 289.013 188.801 289.33C188.681 289.646 188.441 289.902 188.133 290.042C187.968 290.117 187.789 290.156 187.608 290.157Z" fill="#407BFF"/>
<path d="M194.544 305.757C194.295 305.759 194.052 305.688 193.843 305.554C193.634 305.42 193.468 305.228 193.366 305.002C192.432 302.865 191.498 300.74 190.551 298.603C190.436 298.297 190.443 297.957 190.57 297.655C190.698 297.353 190.936 297.112 191.236 296.981C191.537 296.849 191.876 296.838 192.184 296.95C192.492 297.061 192.746 297.287 192.893 297.58C193.84 299.704 194.774 301.841 195.708 303.978C195.776 304.132 195.813 304.297 195.818 304.466C195.822 304.634 195.793 304.801 195.732 304.958C195.671 305.115 195.58 305.258 195.464 305.38C195.348 305.502 195.209 305.599 195.055 305.667C194.893 305.732 194.719 305.762 194.544 305.757Z" fill="#407BFF"/>
<path d="M209.388 338.325C209.148 338.325 208.913 338.258 208.709 338.131C208.506 338.005 208.342 337.823 208.236 337.608C204.039 329.124 200.123 320.383 196.527 312.194C196.459 312.04 196.422 311.874 196.418 311.706C196.414 311.538 196.443 311.371 196.503 311.214C196.564 311.057 196.655 310.913 196.771 310.792C196.887 310.67 197.026 310.572 197.18 310.504C197.334 310.436 197.499 310.399 197.668 310.395C197.836 310.391 198.003 310.42 198.16 310.481C198.317 310.541 198.46 310.632 198.582 310.748C198.704 310.864 198.801 311.003 198.869 311.157C202.452 319.321 206.355 328.036 210.527 336.469C210.625 336.664 210.672 336.881 210.663 337.099C210.654 337.316 210.589 337.528 210.475 337.714C210.361 337.9 210.201 338.054 210.011 338.161C209.821 338.268 209.606 338.324 209.388 338.325Z" fill="#407BFF"/>
<path d="M224.847 271.257C224.507 271.257 224.182 271.122 223.942 270.882C223.702 270.642 223.567 270.316 223.567 269.977V256.566C223.567 256.226 223.702 255.901 223.942 255.661C224.182 255.421 224.507 255.286 224.847 255.286C225.186 255.286 225.511 255.421 225.751 255.661C225.991 255.901 226.126 256.226 226.126 256.566V269.99C226.123 270.327 225.987 270.649 225.747 270.886C225.507 271.124 225.184 271.257 224.847 271.257Z" fill="#407BFF"/>
<path d="M224.923 286.625C224.584 286.625 224.258 286.491 224.018 286.251C223.778 286.011 223.644 285.685 223.644 285.346L223.567 278.627C223.567 278.288 223.702 277.962 223.942 277.722C224.182 277.482 224.507 277.348 224.847 277.348C225.186 277.348 225.511 277.482 225.751 277.722C225.991 277.962 226.126 278.288 226.126 278.627L226.203 285.358C226.203 285.698 226.068 286.023 225.828 286.263C225.588 286.503 225.263 286.638 224.923 286.638V286.625Z" fill="#407BFF"/>
<path d="M224.987 321.586C224.648 321.586 224.322 321.452 224.082 321.212C223.842 320.972 223.708 320.646 223.708 320.307C223.708 311.349 223.708 302.225 223.708 293.011C223.708 292.672 223.842 292.346 224.082 292.106C224.322 291.866 224.648 291.731 224.987 291.731C225.327 291.731 225.652 291.866 225.892 292.106C226.132 292.346 226.267 292.672 226.267 293.011C226.267 302.225 226.331 311.413 226.267 320.332C226.26 320.667 226.123 320.986 225.883 321.221C225.644 321.455 225.322 321.586 224.987 321.586Z" fill="#407BFF"/>
<path d="M224.847 338.324C224.507 338.324 224.182 338.19 223.942 337.95C223.702 337.71 223.567 337.384 223.567 337.045C223.567 334.396 223.631 331.76 223.656 329.111C223.656 328.771 223.791 328.446 224.031 328.206C224.271 327.966 224.597 327.831 224.936 327.831C225.276 327.831 225.601 327.966 225.841 328.206C226.081 328.446 226.216 328.771 226.216 329.111C226.216 331.76 226.216 334.396 226.126 337.045C226.126 337.384 225.991 337.71 225.751 337.95C225.511 338.19 225.186 338.324 224.847 338.324Z" fill="#407BFF"/>
<path d="M271.862 284.911C271.61 284.912 271.363 284.846 271.145 284.719C271 284.632 270.874 284.517 270.773 284.381C270.673 284.246 270.6 284.091 270.56 283.927C270.519 283.763 270.512 283.592 270.537 283.425C270.563 283.258 270.622 283.097 270.71 282.953L274.549 276.631C274.619 276.462 274.724 276.31 274.858 276.185C274.991 276.06 275.15 275.965 275.323 275.906C275.497 275.848 275.681 275.827 275.863 275.846C276.045 275.865 276.221 275.922 276.378 276.014C276.536 276.107 276.673 276.232 276.778 276.381C276.884 276.531 276.956 276.701 276.99 276.881C277.024 277.061 277.019 277.246 276.975 277.423C276.932 277.601 276.851 277.767 276.738 277.911L272.899 284.245C272.796 284.435 272.647 284.595 272.466 284.711C272.284 284.827 272.077 284.896 271.862 284.911Z" fill="#407BFF"/>
<path d="M254.254 313.691C254.024 313.69 253.799 313.629 253.601 313.511C253.309 313.338 253.098 313.056 253.014 312.728C252.93 312.399 252.98 312.05 253.153 311.758C256.813 305.539 261.689 297.375 266.871 289.428C267.057 289.145 267.347 288.947 267.678 288.878C268.009 288.808 268.354 288.873 268.637 289.057C268.779 289.149 268.901 289.268 268.997 289.407C269.092 289.546 269.159 289.703 269.193 289.869C269.228 290.034 269.229 290.205 269.198 290.371C269.166 290.536 269.102 290.694 269.008 290.835C263.89 298.731 259.001 306.857 255.354 313.063C255.241 313.254 255.08 313.413 254.887 313.523C254.694 313.633 254.476 313.69 254.254 313.691Z" fill="#407BFF"/>
<path d="M246.012 327.742C245.783 327.738 245.559 327.677 245.36 327.563C245.068 327.39 244.857 327.108 244.773 326.779C244.689 326.45 244.739 326.101 244.912 325.81L248.853 319.091C249.024 318.801 249.303 318.589 249.629 318.503C249.955 318.417 250.301 318.463 250.594 318.631C250.739 318.715 250.867 318.828 250.969 318.962C251.071 319.096 251.145 319.249 251.188 319.411C251.231 319.574 251.241 319.744 251.218 319.911C251.195 320.078 251.14 320.238 251.054 320.384L247.113 327.115C247 327.306 246.839 327.464 246.646 327.574C246.453 327.684 246.235 327.742 246.012 327.742Z" fill="#407BFF"/>
<path d="M238.424 340.346C238.189 340.345 237.959 340.278 237.759 340.154C237.614 340.067 237.489 339.951 237.39 339.815C237.291 339.678 237.219 339.523 237.18 339.359C237.141 339.195 237.134 339.025 237.161 338.858C237.188 338.692 237.248 338.532 237.336 338.388C238.394 336.682 239.443 334.976 240.484 333.27C240.671 333.013 240.945 332.836 241.255 332.77C241.565 332.705 241.889 332.757 242.162 332.916C242.436 333.075 242.641 333.33 242.738 333.632C242.835 333.934 242.816 334.261 242.685 334.549C241.636 336.277 240.587 338.005 239.512 339.732C239.398 339.919 239.238 340.073 239.048 340.181C238.858 340.288 238.643 340.345 238.424 340.346Z" fill="#407BFF"/>
<g opacity="0.7">
<path opacity="0.7" d="M123.253 286.293C122.95 286.291 122.657 286.188 122.421 285.999L119.286 283.35C119.026 283.131 118.864 282.818 118.835 282.479C118.806 282.141 118.913 281.805 119.132 281.545C119.351 281.286 119.664 281.124 120.002 281.095C120.341 281.066 120.677 281.173 120.936 281.392L124.072 284.041C124.27 284.21 124.411 284.436 124.478 284.688C124.544 284.94 124.532 285.206 124.443 285.451C124.354 285.696 124.192 285.907 123.979 286.058C123.767 286.208 123.513 286.29 123.253 286.293Z" fill="white"/>
<path opacity="0.7" d="M139.338 299.781C139.036 299.779 138.743 299.675 138.506 299.486C135.094 296.611 131.681 293.749 128.269 290.9C128.126 290.797 128.006 290.666 127.917 290.515C127.827 290.363 127.769 290.195 127.748 290.021C127.726 289.846 127.74 289.669 127.79 289.501C127.839 289.332 127.923 289.175 128.036 289.041C128.149 288.906 128.288 288.796 128.445 288.717C128.603 288.638 128.774 288.593 128.95 288.584C129.125 288.575 129.301 288.602 129.466 288.663C129.63 288.725 129.781 288.82 129.907 288.942C133.319 291.791 136.732 294.653 140.144 297.529C140.342 297.698 140.484 297.923 140.55 298.175C140.617 298.427 140.604 298.694 140.515 298.938C140.426 299.183 140.265 299.395 140.052 299.546C139.839 299.696 139.586 299.778 139.325 299.781H139.338Z" fill="white"/>
<path opacity="0.7" d="M152.135 310.645C151.83 310.645 151.535 310.536 151.303 310.338L145.225 305.219C145.096 305.11 144.99 304.976 144.913 304.826C144.836 304.676 144.79 304.512 144.776 304.344C144.763 304.176 144.782 304.007 144.834 303.846C144.886 303.686 144.968 303.537 145.078 303.408C145.187 303.28 145.32 303.174 145.47 303.097C145.621 303.02 145.784 302.973 145.953 302.96C146.121 302.946 146.29 302.966 146.45 303.017C146.611 303.069 146.76 303.152 146.888 303.261L152.954 308.38C153.083 308.488 153.189 308.621 153.266 308.77C153.343 308.92 153.391 309.083 153.405 309.25C153.419 309.418 153.4 309.587 153.349 309.747C153.298 309.907 153.216 310.056 153.108 310.184C152.989 310.327 152.84 310.442 152.672 310.522C152.504 310.601 152.321 310.643 152.135 310.645Z" fill="white"/>
<path opacity="0.7" d="M179.763 334.127C179.464 334.128 179.175 334.024 178.944 333.833C171.821 327.861 164.723 321.838 157.65 315.764L157.343 315.495C157.215 315.387 157.109 315.254 157.031 315.105C156.954 314.955 156.907 314.792 156.893 314.625C156.878 314.457 156.897 314.288 156.948 314.128C156.999 313.968 157.081 313.819 157.19 313.691C157.299 313.563 157.432 313.458 157.582 313.382C157.732 313.306 157.895 313.26 158.063 313.247C158.23 313.233 158.399 313.254 158.559 313.306C158.718 313.358 158.866 313.441 158.994 313.55L159.314 313.819C166.386 319.842 173.48 325.86 180.595 331.875C180.794 332.045 180.936 332.272 181.002 332.525C181.068 332.778 181.055 333.045 180.964 333.291C180.873 333.536 180.71 333.748 180.495 333.897C180.28 334.047 180.025 334.127 179.763 334.127Z" fill="white"/>
<path opacity="0.7" d="M192.675 344.864C192.376 344.864 192.087 344.76 191.856 344.569L185.727 339.451C185.598 339.342 185.492 339.21 185.415 339.06C185.337 338.911 185.29 338.748 185.276 338.58C185.262 338.413 185.28 338.244 185.332 338.084C185.383 337.924 185.465 337.775 185.573 337.646C185.792 337.39 186.102 337.231 186.437 337.202C186.773 337.173 187.106 337.278 187.365 337.493L193.494 342.612C193.624 342.719 193.731 342.851 193.81 343C193.888 343.149 193.936 343.312 193.952 343.479C193.967 343.647 193.95 343.816 193.9 343.977C193.85 344.137 193.768 344.287 193.661 344.416C193.539 344.558 193.388 344.672 193.218 344.749C193.047 344.827 192.862 344.866 192.675 344.864Z" fill="white"/>
<path opacity="0.7" d="M176.18 265.716C175.936 265.716 175.696 265.647 175.489 265.515C175.283 265.384 175.119 265.196 175.016 264.973L173.288 261.134C173.149 260.827 173.137 260.477 173.254 260.161C173.372 259.844 173.609 259.587 173.915 259.445C174.068 259.374 174.234 259.334 174.402 259.327C174.57 259.32 174.738 259.347 174.897 259.405C175.055 259.463 175.2 259.552 175.323 259.667C175.447 259.781 175.547 259.919 175.617 260.072L177.345 263.911C177.484 264.219 177.496 264.569 177.379 264.885C177.262 265.201 177.024 265.458 176.718 265.6C176.55 265.681 176.366 265.721 176.18 265.716Z" fill="white"/>
<path opacity="0.7" d="M187.608 290.157C187.363 290.158 187.123 290.088 186.917 289.957C186.711 289.825 186.546 289.637 186.443 289.415C183.73 283.452 181.325 278.282 178.97 273.624C178.895 273.473 178.851 273.308 178.84 273.14C178.829 272.971 178.851 272.802 178.905 272.643C178.959 272.483 179.044 272.335 179.155 272.208C179.266 272.081 179.401 271.977 179.552 271.903C179.704 271.828 179.868 271.784 180.036 271.772C180.205 271.761 180.374 271.783 180.533 271.837C180.693 271.891 180.841 271.976 180.968 272.087C181.095 272.199 181.199 272.334 181.273 272.485C183.602 277.181 186.047 282.364 188.772 288.353C188.911 288.662 188.921 289.013 188.801 289.33C188.681 289.646 188.441 289.902 188.133 290.042C187.968 290.117 187.789 290.156 187.608 290.157Z" fill="white"/>
<path opacity="0.7" d="M194.544 305.757C194.295 305.759 194.052 305.688 193.843 305.554C193.634 305.42 193.468 305.228 193.366 305.002C192.432 302.865 191.498 300.74 190.551 298.603C190.436 298.297 190.443 297.957 190.57 297.655C190.698 297.353 190.936 297.112 191.236 296.981C191.537 296.849 191.876 296.838 192.184 296.95C192.492 297.061 192.746 297.287 192.893 297.58C193.84 299.704 194.774 301.841 195.708 303.978C195.776 304.132 195.813 304.297 195.818 304.466C195.822 304.634 195.793 304.801 195.732 304.958C195.671 305.115 195.58 305.258 195.464 305.38C195.348 305.502 195.209 305.599 195.055 305.667C194.893 305.732 194.719 305.762 194.544 305.757Z" fill="white"/>
<path opacity="0.7" d="M209.388 338.325C209.148 338.325 208.913 338.258 208.709 338.131C208.506 338.005 208.342 337.823 208.236 337.608C204.039 329.124 200.123 320.383 196.527 312.194C196.459 312.04 196.422 311.874 196.418 311.706C196.414 311.538 196.443 311.371 196.503 311.214C196.564 311.057 196.655 310.913 196.771 310.792C196.887 310.67 197.026 310.572 197.18 310.504C197.334 310.436 197.499 310.399 197.668 310.395C197.836 310.391 198.003 310.42 198.16 310.481C198.317 310.541 198.46 310.632 198.582 310.748C198.704 310.864 198.801 311.003 198.869 311.157C202.452 319.321 206.355 328.036 210.527 336.469C210.625 336.664 210.672 336.881 210.663 337.099C210.654 337.316 210.589 337.528 210.475 337.714C210.361 337.9 210.201 338.054 210.011 338.161C209.821 338.268 209.606 338.324 209.388 338.325Z" fill="white"/>
<path opacity="0.7" d="M224.847 271.257C224.507 271.257 224.182 271.122 223.942 270.882C223.702 270.642 223.567 270.316 223.567 269.977V256.566C223.567 256.226 223.702 255.901 223.942 255.661C224.182 255.421 224.507 255.286 224.847 255.286C225.186 255.286 225.511 255.421 225.751 255.661C225.991 255.901 226.126 256.226 226.126 256.566V269.99C226.123 270.327 225.987 270.649 225.747 270.886C225.507 271.124 225.184 271.257 224.847 271.257Z" fill="white"/>
<path opacity="0.7" d="M224.923 286.625C224.584 286.625 224.258 286.491 224.018 286.251C223.778 286.011 223.644 285.685 223.644 285.346L223.567 278.627C223.567 278.288 223.702 277.962 223.942 277.722C224.182 277.482 224.507 277.348 224.847 277.348C225.186 277.348 225.511 277.482 225.751 277.722C225.991 277.962 226.126 278.288 226.126 278.627L226.203 285.358C226.203 285.698 226.068 286.023 225.828 286.263C225.588 286.503 225.263 286.638 224.923 286.638V286.625Z" fill="white"/>
<path opacity="0.7" d="M224.987 321.586C224.648 321.586 224.322 321.452 224.082 321.212C223.842 320.972 223.708 320.646 223.708 320.307C223.708 311.349 223.708 302.225 223.708 293.011C223.708 292.672 223.842 292.346 224.082 292.106C224.322 291.866 224.648 291.731 224.987 291.731C225.327 291.731 225.652 291.866 225.892 292.106C226.132 292.346 226.267 292.672 226.267 293.011C226.267 302.225 226.331 311.413 226.267 320.332C226.26 320.667 226.123 320.986 225.883 321.221C225.644 321.455 225.322 321.586 224.987 321.586Z" fill="white"/>
<path opacity="0.7" d="M224.847 338.324C224.507 338.324 224.182 338.19 223.942 337.95C223.702 337.71 223.567 337.384 223.567 337.045C223.567 334.396 223.631 331.76 223.656 329.111C223.656 328.771 223.791 328.446 224.031 328.206C224.271 327.966 224.597 327.831 224.936 327.831C225.276 327.831 225.601 327.966 225.841 328.206C226.081 328.446 226.216 328.771 226.216 329.111C226.216 331.76 226.216 334.396 226.126 337.045C226.126 337.384 225.991 337.71 225.751 337.95C225.511 338.19 225.186 338.324 224.847 338.324Z" fill="white"/>
<path opacity="0.7" d="M271.862 284.911C271.61 284.912 271.363 284.846 271.145 284.719C271 284.632 270.874 284.517 270.773 284.381C270.673 284.246 270.6 284.091 270.56 283.927C270.519 283.763 270.512 283.592 270.537 283.425C270.563 283.258 270.622 283.097 270.71 282.953L274.549 276.631C274.619 276.462 274.724 276.31 274.858 276.185C274.991 276.06 275.15 275.965 275.323 275.906C275.497 275.848 275.681 275.827 275.863 275.846C276.045 275.865 276.221 275.922 276.378 276.014C276.536 276.107 276.673 276.232 276.778 276.381C276.884 276.531 276.956 276.701 276.99 276.881C277.024 277.061 277.019 277.246 276.975 277.423C276.932 277.601 276.851 277.767 276.738 277.911L272.899 284.245C272.796 284.435 272.647 284.595 272.466 284.711C272.284 284.827 272.077 284.896 271.862 284.911Z" fill="white"/>
<path opacity="0.7" d="M254.254 313.691C254.024 313.69 253.799 313.629 253.601 313.511C253.309 313.338 253.098 313.056 253.014 312.728C252.93 312.399 252.98 312.05 253.153 311.758C256.813 305.539 261.689 297.375 266.871 289.428C267.057 289.145 267.347 288.947 267.678 288.878C268.009 288.808 268.354 288.873 268.637 289.057C268.779 289.149 268.901 289.268 268.997 289.407C269.092 289.546 269.159 289.703 269.193 289.869C269.228 290.034 269.229 290.205 269.198 290.371C269.166 290.536 269.102 290.694 269.008 290.835C263.89 298.731 259.001 306.857 255.354 313.063C255.241 313.254 255.08 313.413 254.887 313.523C254.694 313.633 254.476 313.69 254.254 313.691Z" fill="white"/>
<path opacity="0.7" d="M246.012 327.742C245.783 327.738 245.559 327.677 245.36 327.563C245.068 327.39 244.857 327.108 244.773 326.779C244.689 326.45 244.739 326.101 244.912 325.81L248.853 319.091C249.024 318.801 249.303 318.589 249.629 318.503C249.955 318.417 250.301 318.463 250.594 318.631C250.739 318.715 250.867 318.828 250.969 318.962C251.071 319.096 251.145 319.249 251.188 319.411C251.231 319.574 251.241 319.744 251.218 319.911C251.195 320.078 251.14 320.238 251.054 320.384L247.113 327.115C247 327.306 246.839 327.464 246.646 327.574C246.453 327.684 246.235 327.742 246.012 327.742Z" fill="white"/>
<path opacity="0.7" d="M238.424 340.346C238.189 340.345 237.959 340.278 237.759 340.154C237.614 340.067 237.489 339.951 237.39 339.815C237.291 339.678 237.219 339.523 237.18 339.359C237.141 339.195 237.134 339.025 237.161 338.858C237.188 338.692 237.248 338.532 237.336 338.388C238.394 336.682 239.443 334.976 240.484 333.27C240.671 333.013 240.945 332.836 241.255 332.77C241.565 332.705 241.889 332.757 242.162 332.916C242.436 333.075 242.641 333.33 242.738 333.632C242.835 333.934 242.816 334.261 242.685 334.549C241.636 336.277 240.587 338.005 239.512 339.732C239.398 339.919 239.238 340.073 239.048 340.181C238.858 340.288 238.643 340.345 238.424 340.346Z" fill="white"/>
</g>
</svg>
