<svg width="42" height="42" viewBox="0 0 42 42" fill="none" xmlns="http://www.w3.org/2000/svg">
<g opacity="0.6">
<path d="M17.08 28.9998C18.5587 29.0493 20.0323 28.8018 21.4138 28.2721C22.7952 27.7424 24.0565 26.9411 25.1229 25.9156C26.1894 24.8901 27.0395 23.6613 27.623 22.3017C28.2065 20.9421 28.5115 19.4793 28.52 17.9998C29.1977 17.1612 29.7009 16.1956 30 15.1598C30.0224 15.078 30.0206 14.9914 29.9949 14.9106C29.9691 14.8297 29.9206 14.7581 29.8551 14.7042C29.7896 14.6503 29.7099 14.6165 29.6256 14.6068C29.5413 14.5972 29.456 14.6121 29.38 14.6498C29.0255 14.8205 28.6264 14.8756 28.2389 14.8074C27.8514 14.7392 27.495 14.5512 27.22 14.2698C26.869 13.8854 26.4444 13.5753 25.9713 13.358C25.4982 13.1407 24.9863 13.0206 24.466 13.0047C23.9456 12.9889 23.4274 13.0776 22.942 13.2657C22.4566 13.4538 22.0138 13.7375 21.64 14.0998C21.1282 14.5955 20.7534 15.2151 20.5519 15.8985C20.3503 16.5819 20.329 17.3058 20.49 17.9998C17.14 18.1998 14.84 16.6098 13 14.4298C12.9448 14.3672 12.8725 14.3221 12.7919 14.2999C12.7114 14.2777 12.6262 14.2794 12.5467 14.3049C12.4671 14.3303 12.3967 14.3784 12.344 14.4432C12.2914 14.508 12.2587 14.5867 12.25 14.6698C11.8995 16.6142 12.1524 18.6193 12.9747 20.4159C13.7969 22.2124 15.1493 23.7143 16.85 24.7198C15.7097 26.0276 14.1083 26.8445 12.38 26.9998C12.2875 27.0152 12.202 27.0591 12.1356 27.1254C12.0692 27.1917 12.0252 27.2772 12.0098 27.3698C11.9944 27.4623 12.0083 27.5574 12.0495 27.6417C12.0908 27.726 12.1574 27.7952 12.24 27.8398C13.7436 28.5912 15.3993 28.988 17.08 28.9998Z" fill="#251238"/>
</g>
<rect x="1" y="1" width="40" height="40" rx="12" stroke="#251238" stroke-opacity="0.1"/>
</svg>
