<svg width="298" height="41" viewBox="0 0 298 41" fill="none" xmlns="http://www.w3.org/2000/svg">
<g clip-path="url(#clip0_908_26355)">
<path d="M56.5723 0.908807C54.4681 0.971006 52.3736 1.14802 50.2839 1.38745C43.4758 2.19093 36.5958 2.18134 29.7898 1.35869C27.0228 1.01041 24.2385 0.814018 21.45 0.769924C9.70885 0.559255 0 0.109375 0 0.109375C2.42614 3.99556 2.64232 9.20284 2.65664 10.4903V13.783C2.65664 13.783 2.90637 26.8775 9.43987 33.3054C9.43987 33.3054 13.3841 39.2256 23.8519 39.9244C28.56 39.891 31.2023 38.5318 31.2023 38.5318C33.6513 37.6126 35.879 36.1908 37.7405 34.3584C38.7349 33.3934 39.6107 32.3136 40.349 31.1421C41.0858 32.3133 41.9599 33.3931 42.9528 34.3584C44.8153 36.19 47.0426 37.6116 49.491 38.5318C49.491 38.5318 52.1334 39.891 56.8413 39.9244C67.2998 39.1061 71.2534 33.3054 71.2534 33.3054C77.4748 26.3752 78.0127 13.783 78.0127 13.783V10.8013C78.5124 3.69393 81.9377 0.109375 81.9377 0.109375L56.5723 0.908807ZM29.9628 27.232C29.3316 27.871 28.5651 28.3615 27.7192 28.6679C25.8976 29.3536 23.9048 29.4475 22.0264 28.9358C16.9259 27.5855 13.3764 22.9845 13.3792 17.7269V13.8022H24.4284C26.509 13.7931 28.5071 14.6133 29.9771 16.0804C33.0707 19.1363 33.092 24.1119 30.0245 27.1941C30.0087 27.2098 29.9929 27.2255 29.9771 27.2413L29.9628 27.232ZM67.2709 17.7171C67.2737 22.9747 63.724 27.5757 58.6237 28.926C56.7451 29.4373 54.7526 29.3435 52.9308 28.6581C52.0851 28.3517 51.3184 27.8614 50.6873 27.2222C47.5937 24.1663 47.5725 19.1905 50.6399 16.1085C50.6557 16.0927 50.6715 16.077 50.6873 16.0612C52.1573 14.5941 54.1554 13.7739 56.236 13.783H67.2852L67.2709 17.7171Z" fill="#888888"/>
<path d="M97.8701 32.2841L119.575 10.186H98.5401V2.4126H132.264V9.01754L110.465 31.1244H132.911V38.8891H97.8701V32.2841Z" fill="#888888"/>
<path d="M136.051 20.6212C136.051 10.9614 142.764 1.68945 154.577 1.68945C166.389 1.68945 173.107 10.9614 173.107 20.6212C173.107 30.2809 166.389 39.5974 154.577 39.5974C142.764 39.5974 136.051 30.2855 136.051 20.6212ZM164.321 20.6212C164.321 15.1804 160.903 9.79725 154.577 9.79725C148.249 9.79725 144.895 15.1801 144.895 20.6212C144.895 26.062 148.309 31.396 154.577 31.396C160.845 31.396 164.321 26.1202 164.321 20.6212Z" fill="#888888"/>
<path d="M178.427 38.8887V2.4126H203.787C211.175 2.4126 214.812 7.76434 214.812 13.6288C214.812 18.5703 212.015 23.1237 206.472 24.2342C206.658 24.4805 206.827 24.7398 206.976 25.0103L215.375 38.8891H205.802L197.178 24.5107H186.935V38.8891H178.427V38.8887ZM186.933 16.7373H203.787C205.411 16.7373 206.306 15.5688 206.306 13.959V12.96C206.306 11.2965 205.406 10.186 203.787 10.186H186.933V16.7373Z" fill="#888888"/>
<path d="M220.968 38.8887V2.4126H246.33C253.718 2.4126 257.36 7.76434 257.36 13.6288C257.36 18.5703 254.558 23.1237 249.019 24.2342C249.207 24.4801 249.377 24.7395 249.527 25.0103L257.921 38.8891H248.344L239.724 24.5107H229.481V38.8891H220.968V38.8887ZM229.481 16.7373H246.33C247.953 16.7373 248.848 15.5688 248.848 13.959V12.96C248.848 11.2965 247.949 10.186 246.33 10.186H229.481V16.7373Z" fill="#888888"/>
<path d="M260.939 20.6212C260.939 10.9614 267.658 1.68945 279.47 1.68945C291.283 1.68945 298 10.9614 298 20.6212C298 30.2809 291.283 39.5974 279.47 39.5974C267.656 39.5974 260.939 30.2855 260.939 20.6212ZM289.209 20.6212C289.209 15.1804 285.797 9.79725 279.47 9.79725C273.143 9.79725 269.785 15.1801 269.785 20.6212C269.785 26.062 273.201 31.396 279.47 31.396C285.738 31.396 289.209 26.1202 289.209 20.6212Z" fill="#888888"/>
</g>
<defs>
<clipPath id="clip0_908_26355">
<rect width="298" height="40.6111" fill="white" transform="translate(0 0.0146484)"/>
</clipPath>
</defs>
</svg>
