<svg width="228" height="73" viewBox="0 0 228 73" fill="none" xmlns="http://www.w3.org/2000/svg">
<path d="M12.6101 53.695H33.4373C39.6172 53.695 42.5379 46.0943 37.9397 41.9781L34.1371 38.5741C28.9917 33.9681 27.7342 26.4228 31.109 20.4055L35.7331 12.1609C36.5535 10.6982 36.5579 8.91671 35.7449 7.44985C33.9221 4.16115 29.2017 4.1 27.2938 7.34035L6.38356 42.8535C3.55824 47.6518 7.02902 53.695 12.6101 53.695Z" fill="#FEB701"/>
<path d="M65.8419 19.2812H45.0148C38.8349 19.2812 35.9142 26.882 40.5124 30.9982L44.315 34.4021C49.4604 39.0081 50.7181 46.5535 47.3431 52.5706L42.7191 60.8155C41.8987 62.2779 41.8942 64.0597 42.7073 65.5264C44.5301 68.8153 49.2502 68.8762 51.1583 65.6358L72.0685 30.1228C74.894 25.3244 71.4233 19.2812 65.8419 19.2812Z" fill="#FE8600"/>
<path d="M128.614 21.6792V27.3282H120.499V51.6792H114.558V27.3282H106.471V21.6792H128.614Z" fill="#29293E"/>
<path d="M152.447 51.6792L146.368 41.2588H140.509V51.6792H134.568V21.6792H147.991C150.769 21.6792 153.135 22.639 155.088 24.586C157.041 26.533 158.004 28.8639 158.004 31.6061C158.004 33.4709 157.481 35.1985 156.408 36.7616C155.335 38.3521 153.933 39.5312 152.2 40.3265L158.857 51.6519H152.447V51.6792ZM140.509 27.2186V36.1034H147.991C149.119 36.1034 150.082 35.6646 150.879 34.7872C151.677 33.9096 152.09 32.8676 152.09 31.6336C152.09 30.3995 151.677 29.3575 150.879 28.5074C150.082 27.6573 149.119 27.2186 147.991 27.2186H140.509Z" fill="#29293E"/>
<path d="M164.644 21.6792H170.586V51.6792H164.644V21.6792Z" fill="#29293E"/>
<path d="M93.6248 21.6792H99.5665V51.6792H93.6248V21.6792Z" fill="#29293E"/>
<path d="M197.053 36.1308C199.694 37.6391 201.014 39.9426 201.014 42.9865C201.014 45.5368 200.106 47.6209 198.318 49.2389C196.53 50.8567 194.302 51.6792 191.661 51.6792H177.522V21.6792H190.754C193.339 21.6792 195.512 22.4744 197.273 24.0649C199.033 25.6554 199.914 27.6847 199.914 30.1253C199.886 32.6208 198.951 34.6226 197.053 36.1308ZM190.726 27.2186H183.437V33.8274H190.754C191.661 33.8274 192.432 33.5257 193.064 32.895C193.67 32.2643 194 31.469 194 30.5367C194 29.6043 193.697 28.809 193.092 28.1783C192.459 27.5202 191.689 27.2186 190.726 27.2186ZM191.634 46.1401C192.624 46.1401 193.477 45.811 194.137 45.1254C194.797 44.4673 195.127 43.6172 195.127 42.5751C195.127 41.5879 194.797 40.7378 194.137 40.0797C193.477 39.4216 192.652 39.065 191.634 39.065H183.437V46.1401H191.634Z" fill="#29293E"/>
<path d="M227.982 21.6792H206.609V27.246H227.982V21.6792Z" fill="#29293E"/>
<path d="M227.982 45.7627H206.609V51.3296H227.982V45.7627Z" fill="#29293E"/>
<path d="M221.6 33.7212H206.609V39.288H221.6V33.7212Z" fill="#29293E"/>
</svg>
