<svg width="245" height="48" viewBox="0 0 245 48" fill="none" xmlns="http://www.w3.org/2000/svg">
<g clip-path="url(#clip0_907_20529)">
<path d="M69.9008 40.7897C68.3082 40.714 67.5244 39.8056 67.5244 38.2412V17.9037C67.5244 16.3393 68.1817 15.4561 69.4458 15.3804C71.9485 15.2543 74.6028 15.1533 77.8638 15.1533C86.1557 15.1533 89.1387 17.9794 89.1387 28.0725C89.1387 38.1656 86.1557 40.9915 77.8638 40.9915C74.8555 40.9915 72.2771 40.9159 69.9008 40.7897ZM81.9086 28.0725C81.9086 21.8905 81.0238 20.2503 77.8386 20.2503C76.9032 20.2503 75.9931 20.2503 75.1336 20.2503C74.628 20.2503 74.35 20.5279 74.35 21.0325V35.0366C74.35 35.5413 74.6028 35.8188 75.0831 35.8442C75.9426 35.8442 76.878 35.8442 77.8386 35.8442C81.0238 35.8694 81.9086 34.2545 81.9086 28.0725Z" fill="#635BFF"/>
<path d="M90.832 31.6309C90.832 24.7172 93.4358 22.0425 100.565 22.0425C107.643 22.0425 110.272 24.692 110.272 31.6309C110.272 38.4689 107.643 41.093 100.565 41.093C93.4358 41.093 90.832 38.4689 90.832 31.6309ZM103.346 31.6309C103.346 27.6946 102.764 26.7106 100.59 26.7106C98.3402 26.7106 97.8091 27.7198 97.8091 31.6309C97.8091 35.4663 98.3654 36.4503 100.59 36.4503C102.739 36.4503 103.346 35.4663 103.346 31.6309Z" fill="#635BFF"/>
<path d="M119.55 41.1182C116.137 41.1182 114.039 39.2258 114.039 35.9961V27.3916C114.039 26.9375 113.812 26.7104 113.356 26.7104H112.952C111.562 26.6851 110.904 26.0039 110.904 24.7169C110.904 23.3796 111.612 22.6985 112.977 22.6226L113.382 22.5974C113.837 22.5722 114.039 22.3199 114.039 21.8909V19.7209C114.039 18.3836 114.772 17.6519 116.112 17.6519H118.615C119.955 17.6519 120.688 18.3836 120.688 19.7209V21.8657C120.688 22.3199 120.915 22.547 121.37 22.547H123.241C124.656 22.547 125.364 23.2787 125.364 24.6161C125.364 26.0039 124.656 26.7104 123.241 26.7104H121.37C120.915 26.7104 120.688 26.9375 120.688 27.3916V34.3812C120.688 35.5167 121.067 35.9454 122.179 35.9454H122.66C124.303 35.9961 124.859 36.9044 124.935 38.2922C125.01 39.7052 124.48 40.6136 123.216 40.8155C121.825 41.0174 120.536 41.1182 119.55 41.1182Z" fill="#635BFF"/>
<path d="M127.235 38.5691V17.7775C127.235 16.2888 127.994 15.4309 129.536 15.33C131.735 15.2038 133.985 15.1533 137.17 15.1533C144.148 15.1533 147.535 16.5916 147.535 22.6727C147.535 26.281 145.917 27.9463 143.136 28.6528C142.706 28.779 142.656 29.0061 143.111 29.1322C144.4 29.5359 145.866 30.3181 146.448 32.8413L147.914 38.3168C148.268 39.7552 147.611 40.613 146.119 40.613H143.212C141.948 40.613 141.215 40.0075 140.912 38.8216L139.572 33.0684C139.218 31.605 138.586 31.176 137.17 31.176H134.642C134.187 31.176 133.96 31.4031 133.96 31.8573V38.5691C133.96 39.9065 133.227 40.6382 131.887 40.6382H129.283C127.968 40.6382 127.235 39.9065 127.235 38.5691ZM137.372 26.2051C139.926 26.2051 140.659 25.5745 140.659 23.1521C140.659 20.755 139.926 20.1494 137.221 20.1494C136.412 20.1494 135.578 20.1494 134.794 20.1494C134.238 20.1494 133.985 20.4017 133.985 20.9316V25.4986C133.985 25.9528 134.212 26.1799 134.668 26.1799H137.372V26.2051Z" fill="#635BFF"/>
<path d="M159.265 41.0678C152.01 41.0678 149.33 38.0652 149.33 31.6813C149.33 24.5405 152.06 22.0425 159.138 22.0425C165.661 22.0425 168.163 24.2378 168.189 28.4263C168.214 31.7571 166.647 33.3216 162.147 33.3216H157.167C156.61 33.3216 156.459 33.498 156.56 33.9774C156.813 35.5167 158.001 35.9205 159.998 35.9205C161.161 35.9205 163.183 35.7942 165.206 35.6177C166.546 35.5167 167.354 36.1224 167.557 37.4597C167.784 38.9231 167.405 39.7559 166.141 40.1594C164.119 40.7903 161.54 41.0678 159.265 41.0678ZM160.099 29.8899C161.515 29.8899 161.793 29.4103 161.793 28.2749C161.793 26.8871 161.11 26.5339 159.341 26.5087C157.091 26.4835 156.383 27.089 156.307 29.158C156.307 29.7133 156.459 29.8899 156.939 29.8899H160.099Z" fill="#635BFF"/>
<path d="M176.96 40.6385C174.988 40.6385 173.775 39.7553 173.193 37.9133L168.921 24.8933C168.466 23.4551 169.098 22.5467 170.64 22.5467H173.294C174.558 22.5467 175.291 23.1271 175.595 24.3382L177.769 33.1443C177.996 34.0275 178.148 34.9863 178.3 35.8191C178.375 36.248 178.476 36.4499 178.653 36.4499C178.805 36.4499 178.906 36.248 178.982 35.8191C179.134 34.9611 179.311 34.0275 179.538 33.1191L181.712 24.313C181.991 23.1017 182.724 22.5215 183.987 22.5215H186.642C188.159 22.5215 188.816 23.4299 188.361 24.8681L184.114 37.9133C183.507 39.7553 182.294 40.6133 180.347 40.6133L176.96 40.6385Z" fill="#635BFF"/>
<path d="M192.406 40.6382C191.041 40.6382 190.308 39.9065 190.308 38.5439V24.6407C190.308 23.2781 191.041 22.5464 192.406 22.5464H194.807C196.173 22.5464 196.906 23.2781 196.906 24.6407V38.5439C196.906 39.9065 196.173 40.6382 194.807 40.6382H192.406Z" fill="#635BFF"/>
<path d="M190.182 17.3238C190.182 15.4062 191.547 14.1445 193.645 14.1445C195.718 14.1445 197.083 15.4062 197.083 17.3238C197.083 19.2415 195.718 20.5032 193.645 20.5032C191.572 20.5032 190.182 19.2415 190.182 17.3238Z" fill="#3DBCBC"/>
<path d="M209.141 41.0678C201.886 41.0678 199.206 38.0652 199.206 31.6813C199.206 24.5405 201.936 22.0425 209.015 22.0425C215.538 22.0425 218.04 24.2378 218.065 28.4263C218.091 31.7571 216.522 33.3216 212.023 33.3216H207.043C206.487 33.3216 206.335 33.498 206.436 33.9774C206.689 35.5167 207.877 35.9205 209.874 35.9205C211.037 35.9205 213.059 35.7942 215.082 35.6177C216.422 35.5167 217.231 36.1224 217.432 37.4597C217.661 38.9231 217.282 39.7559 216.017 40.1594C213.969 40.7903 211.391 41.0678 209.141 41.0678ZM209.975 29.8899C211.391 29.8899 211.669 29.4103 211.669 28.2749C211.669 26.8871 210.986 26.5339 209.217 26.5087C206.967 26.4835 206.259 27.089 206.183 29.158C206.183 29.7133 206.335 29.8899 206.815 29.8899H209.975Z" fill="#635BFF"/>
<path d="M244.306 29.3844L242.384 40.8907C241.776 41.0167 240.235 41.1178 239.199 41.1178C236.821 41.1178 235.584 40.6131 234.775 38.0899L232.196 33.0686L228.607 40.8148C227.873 40.9663 227.064 41.0926 226.053 41.0926C223.348 41.0926 221.959 40.6384 221.199 38.4178L220.214 26.8866L219.228 26.9118C218.798 26.3313 218.622 25.5996 218.622 24.7165C218.622 22.7484 219.885 22.1427 223.778 22.1427C225.927 22.1427 226.584 22.8241 226.989 24.2119L227.999 33.9011L230.351 26.7603L229.442 23.682C229.996 22.4203 230.704 22.1427 232.626 22.1427C234.825 22.1427 235.659 22.6222 236.115 24.1108L239.047 33.9263L240.109 22.5211C240.74 22.1932 241.423 22.0923 242.485 22.0923C244.052 22.0923 244.912 22.9501 244.912 24.5904C244.886 25.7005 244.711 27.1389 244.306 29.3844Z" fill="#635BFF"/>
<path d="M53.7464 21.7396C56.9018 21.7396 59.4597 19.1865 59.4597 16.037C59.4597 12.8876 56.9018 10.3345 53.7464 10.3345C50.5911 10.3345 48.0332 12.8876 48.0332 16.037C48.0332 19.1865 50.5911 21.7396 53.7464 21.7396Z" fill="#3DBCBC"/>
<path d="M29.2508 23.8086C29.1243 26.8364 26.5963 29.2588 23.5375 29.2588C20.3775 29.2588 17.8243 26.7104 17.8243 23.5562C17.8243 20.4021 20.3775 17.8536 23.5375 17.8536C25.7368 17.8536 27.6581 19.09 28.6187 20.932L43.6601 13.1099C39.8682 5.89335 32.3096 0.947754 23.5628 0.947754C11.0493 0.947754 0.912109 11.066 0.912109 23.5562C0.912109 36.0463 11.0493 46.1647 23.5628 46.1647C35.7223 46.1647 45.632 36.6015 46.188 24.6159L29.2508 23.8086Z" fill="#635BFF"/>
</g>
<defs>
<clipPath id="clip0_907_20529">
<rect width="244" height="47" fill="white" transform="translate(0.912109 0.947754)"/>
</clipPath>
</defs>
</svg>
