<svg width="317" height="107" viewBox="0 0 317 107" fill="none" xmlns="http://www.w3.org/2000/svg">
<path d="M155.691 64.7311C155.691 71.7356 155.691 78.257 155.691 84.7785C155.691 88.482 155.691 92.1856 155.691 95.8891C155.691 99.5926 153.444 101.847 149.913 101.847C146.703 101.847 144.456 99.3511 144.456 95.8891C144.456 76.8078 144.375 57.7266 144.456 38.6453C144.536 22.704 156.895 8.61446 172.624 6.27962C188.595 3.94478 201.355 11.4324 208.096 24.2337C214.115 35.6664 212.831 51.3662 203.201 61.9132C195.497 70.3669 186.027 74.0704 174.711 73.1043C167.89 72.5407 161.79 69.9643 156.574 65.5362C156.413 65.3752 156.253 65.2142 155.691 64.7311ZM178.162 61.9937C190.681 62.1547 200.874 51.2051 200.553 38.8868C200.232 27.1321 190.12 17.0682 178.082 17.0682C165.723 17.0682 155.691 27.2932 155.771 39.692C155.771 52.0908 165.723 61.9937 178.162 61.9937Z" fill="#1E1E1E"/>
<path d="M18.5384 45.3283C21.3473 53.8626 26.7243 59.5789 35.3916 61.4307C43.4972 63.1214 51.1212 61.6722 58.023 56.8415C60.9121 54.8287 64.363 55.3923 66.2891 58.1297C68.1349 60.7866 67.2521 64.1681 64.363 66.1809C53.7696 73.2659 42.2131 75.4397 30.0949 71.6556C17.4952 67.7106 9.55009 58.7738 7.22275 45.6504C5.21642 34.4593 8.10553 24.4758 16.0506 16.1831C22.5511 9.42013 30.4962 6.03864 39.966 5.95813C50.9607 5.87762 59.7083 10.2252 66.6101 18.679C71.4253 24.5563 73.6724 31.3193 73.7526 38.8069C73.8329 43.074 71.5858 45.2478 67.2521 45.2478C55.8562 45.2478 44.4602 45.2478 33.0643 45.2478C28.3293 45.3283 23.5141 45.3283 18.5384 45.3283ZM18.6187 33.8957C32.663 33.8957 46.6271 33.8957 60.5911 33.8957C61.7146 33.8957 61.7949 33.6541 61.4739 32.527C58.344 22.5435 48.0716 15.9416 37.4782 17.3103C28.2491 18.5985 20.946 24.9589 18.6187 33.8957Z" fill="#1E1E1E"/>
<path d="M283.454 5.95761C292.844 5.8771 300.949 8.05091 308.092 13.2037C309.135 13.9283 310.178 14.8139 311.061 15.6995C313.308 17.8733 313.389 20.9328 311.382 23.1871C309.376 25.4414 306.246 25.844 303.999 23.7507C297.659 17.9539 290.035 16.2631 281.769 16.6657C277.275 16.9072 272.861 17.7928 269.009 20.3692C266.842 21.8184 265.237 23.6702 265.397 26.4881C265.638 29.8696 267.644 31.7213 270.614 32.6875C275.67 34.2172 280.886 34.1367 286.103 34.2172C291.239 34.3782 296.375 34.4587 301.351 35.9885C310.339 38.6454 314.271 45.6499 313.469 54.5867C312.747 63.0404 307.129 67.7101 299.906 70.367C285.461 75.6002 271.657 74.151 258.977 65.0532C257.532 64.0065 256.008 62.9599 255.285 61.2691C254.242 58.9343 254.964 56.2774 257.131 54.5867C259.057 53.1375 261.946 53.2985 264.033 55.0697C265.718 56.5189 267.404 57.8876 269.41 58.8538C278.318 63.2819 287.467 63.6845 296.696 59.9809C297.82 59.4979 298.863 58.8538 299.906 58.1292C302.474 56.3579 303.196 53.8621 302.635 50.9636C302.073 48.2262 300.227 46.6965 297.579 46.1329C293.887 45.2473 290.195 45.2473 286.424 45.0863C280.565 44.9253 274.707 45.0058 268.928 43.4761C262.267 41.7048 256.971 38.4038 255.205 31.1578C253.118 22.704 256.088 15.5385 263.551 10.9493C268.286 8.21194 275.67 5.71608 283.454 5.95761Z" fill="#1E1E1E"/>
<path d="M132.257 6.03862C134.263 5.8776 136.27 5.8776 137.875 7.72937C139.4 9.50062 139.961 11.6744 138.918 13.7677C137.955 15.7805 136.27 17.0687 133.862 17.0687C127.763 17.1492 122.306 18.679 117.892 23.1071C113.317 27.7768 111.472 33.4931 111.632 39.934C111.712 45.0063 111.231 50.0785 109.305 54.7482C105.613 63.846 98.7915 69.5623 89.4019 72.1387C86.1115 73.0243 82.6606 73.3464 79.2097 73.2659C76.1601 73.1853 73.8328 70.8505 73.8328 67.63C73.8328 64.4901 75.9996 62.2358 79.1295 62.1552C85.1485 61.9137 90.7662 60.545 95.2604 56.0364C99.594 51.6082 101.52 46.1334 101.6 40.0951C101.681 34.6203 101.841 29.226 103.928 24.1537C107.619 15.2975 114.361 9.66165 123.59 7.08527C126.318 6.36067 129.207 5.79709 132.257 6.03862Z" fill="#EC1E26"/>
<path d="M218.77 50.0781C218.931 45.2474 218.609 39.209 218.931 33.1706C219.412 25.683 222.542 19.4836 227.758 14.3309C233.216 9.01711 239.796 6.11869 247.42 5.71614C250.31 5.55511 252.717 7.80944 252.797 10.4663C252.958 14.0088 251.273 16.2632 248.062 16.7462C239.395 18.0344 233.216 22.3821 230.567 31.1578C230.166 32.607 229.925 34.0562 229.925 35.5055C229.925 46.133 229.925 56.68 229.925 67.3076C229.925 70.7696 227.758 73.1849 224.709 73.2654C221.178 73.3459 218.77 71.0916 218.77 67.4686C218.77 62.0743 218.77 56.5995 218.77 50.0781Z" fill="#1E1E1E"/>
<path d="M110.188 64.4094C113.719 61.5915 115.564 58.049 115.404 53.2988C116.929 54.6675 117.812 56.1167 119.096 57.1634C123.429 60.7864 128.565 61.9136 134.103 62.1551C137.072 62.2356 139.48 64.7315 139.48 67.6299C139.48 70.6893 136.992 73.1852 134.023 73.2657C125.997 73.4267 118.614 71.414 112.274 66.3417C111.552 65.7781 110.91 65.134 110.188 64.4094Z" fill="#EC1E26"/>
<path d="M97.7484 26.0856C94.2975 21.3355 89.9638 18.6786 84.6671 17.6319C82.9015 17.3099 81.2162 17.0683 79.3704 17.0683C76.08 17.0683 73.7527 14.7335 73.7527 11.5935C73.7527 8.29256 75.9998 6.11875 79.2902 6.03824C86.5932 5.7967 93.4147 7.56796 99.4337 11.8351C99.5139 11.9156 99.6744 11.9156 99.7547 11.9961C100.718 12.8012 102.082 13.4453 102.483 14.492C103.045 15.7801 101.119 16.0217 100.557 16.9073C98.7917 19.5642 97.5076 22.3016 97.7484 26.0856Z" fill="#EC1E26"/>
<path d="M178.162 61.9939C165.723 61.9939 155.771 52.1714 155.691 39.6921C155.611 27.2933 165.643 17.1489 178.002 17.0684C190.039 17.0684 200.232 27.1323 200.472 38.887C200.793 51.2053 190.682 62.1549 178.162 61.9939Z" fill="#FEFEFE"/>
</svg>
