<svg width="24" height="24" viewBox="0 0 24 24" fill="none" xmlns="http://www.w3.org/2000/svg">
<path opacity="0.4" d="M4.08243 9.69266H19.9259" stroke="#4971F6" stroke-width="1.5" stroke-linecap="round" stroke-linejoin="round"/>
<path opacity="0.4" d="M8.05148 16.6188H8.05972M15.9485 13.1642H15.9567H15.9485ZM12.0041 13.1642H12.0123H12.0041ZM8.05148 13.1642H8.05972H8.05148ZM15.9485 16.6188H15.9567H15.9485ZM12.0041 16.6188H12.0123H12.0041Z" stroke="#4971F6" stroke-width="1.5" stroke-linecap="round" stroke-linejoin="round"/>
<path d="M15.5944 3.11115V6.03627" stroke="#4971F6" stroke-width="1.5" stroke-linecap="round" stroke-linejoin="round"/>
<path d="M8.41379 3.11115V6.03627" stroke="#4971F6" stroke-width="1.5" stroke-linecap="round" stroke-linejoin="round"/>
<path fill-rule="evenodd" clip-rule="evenodd" d="M15.7674 4.51489H8.2409C5.63052 4.51489 4.00006 5.96905 4.00006 8.64201V16.6861C4.00006 19.4011 5.63052 20.8889 8.2409 20.8889H15.7591C18.3777 20.8889 20 19.4263 20 16.7533V8.64201C20.0082 5.96905 18.386 4.51489 15.7674 4.51489Z" stroke="#4971F6" stroke-width="1.5" stroke-linecap="round" stroke-linejoin="round"/>
</svg>
