<svg width="20" height="20" viewBox="0 0 20 20" fill="none" xmlns="http://www.w3.org/2000/svg">
<g opacity="0.6">
<path opacity="0.4" d="M3.40202 8.07715H16.6049" stroke="#251238" stroke-width="1.5" stroke-linecap="round" stroke-linejoin="round"/>
<path opacity="0.4" d="M6.70957 13.8489H6.71643M13.2904 10.97H13.2973H13.2904ZM10.0034 10.97H10.0103H10.0034ZM6.70957 10.97H6.71643H6.70957ZM13.2904 13.8489H13.2973H13.2904ZM10.0034 13.8489H10.0103H10.0034Z" stroke="#251238" stroke-width="1.5" stroke-linecap="round" stroke-linejoin="round"/>
<path d="M12.9954 2.59253V5.03013" stroke="#251238" stroke-width="1.5" stroke-linecap="round" stroke-linejoin="round"/>
<path d="M7.01149 2.59253V5.03013" stroke="#251238" stroke-width="1.5" stroke-linecap="round" stroke-linejoin="round"/>
<path fill-rule="evenodd" clip-rule="evenodd" d="M13.1395 3.76221H6.86742C4.69211 3.76221 3.33339 4.97401 3.33339 7.20147V13.9049C3.33339 16.1674 4.69211 17.4072 6.86742 17.4072H13.1326C15.3148 17.4072 16.6667 16.1884 16.6667 13.9609V7.20147C16.6735 4.97401 15.3217 3.76221 13.1395 3.76221Z" stroke="#251238" stroke-width="1.5" stroke-linecap="round" stroke-linejoin="round"/>
</g>
</svg>
