<svg width="56" height="56" viewBox="0 0 56 56" fill="none" xmlns="http://www.w3.org/2000/svg">
<path d="M38.8953 4.6676C46.8309 4.6676 51.3109 9.1686 51.3343 17.1043V38.8976C51.3343 46.8309 46.8309 51.3343 38.8953 51.3343H17.1043C9.1686 51.3343 4.6676 46.8309 4.6676 38.8976V17.1043C4.6676 9.1686 9.1686 4.6676 17.1043 4.6676H38.8953ZM29.1676 14.3043C28.5119 13.9076 27.7186 13.9076 27.0909 14.3043C26.4586 14.6986 26.1109 15.4243 26.1786 16.1476V39.9243C26.2976 40.9276 27.1353 41.6743 28.1153 41.6743C29.1209 41.6743 29.9586 40.9276 30.0519 39.9243V16.1476C30.1453 15.4243 29.7976 14.6986 29.1676 14.3043ZM18.2709 21.9576C17.6409 21.5609 16.8453 21.5609 16.2176 21.9576C15.5853 22.3543 15.2376 23.0753 15.3076 23.8009V39.9243C15.3986 40.9276 16.2386 41.6743 17.2419 41.6743C18.2476 41.6743 19.0853 40.9276 19.1786 39.9243V23.8009C19.2509 23.0753 18.8986 22.3543 18.2709 21.9576ZM39.8753 30.4276C39.2476 30.0309 38.4543 30.0309 37.8009 30.4276C37.1686 30.8243 36.8209 31.5219 36.9143 32.2709V39.9243C37.0076 40.9276 37.8453 41.6743 38.8509 41.6743C39.8309 41.6743 40.6686 40.9276 40.7876 39.9243V32.2709C40.8553 31.5219 40.5076 30.8243 39.8753 30.4276Z" fill="#251238"/>
</svg>
