<svg width="56" height="56" viewBox="0 0 56 56" fill="none" xmlns="http://www.w3.org/2000/svg">
<path d="M29.3318 4.89894L44.8191 10.0952C46.5527 10.674 47.7249 12.2666 47.7343 14.0513L47.8329 29.5461C47.8635 34.2435 46.151 38.7991 43.015 42.3685C41.5727 44.0068 39.724 45.4139 37.3632 46.6724L29.0381 51.1227C28.7774 51.26 28.4908 51.3309 28.2019 51.3332C27.9129 51.3355 27.624 51.2668 27.3656 51.1318L18.963 46.7845C16.5764 45.5466 14.7112 44.1601 13.2548 42.5447C10.0672 39.0119 8.29598 34.4769 8.26544 29.7726L8.16672 14.2892C8.15738 12.5022 9.30842 10.8983 11.0326 10.2965L26.4612 4.91496C27.3774 4.59005 28.3992 4.58319 29.3318 4.89894ZM36.7379 21.5102C36.0449 20.8443 34.9291 20.8489 34.2455 21.5239L26.3856 29.2713L23.1674 26.1778C22.4744 25.512 21.361 25.5189 20.675 26.1939C19.9915 26.8688 19.9985 27.9534 20.6915 28.6192L25.1617 32.9208C25.5094 33.2549 25.9604 33.4196 26.4114 33.4151C26.8624 33.4127 27.3111 33.2434 27.6541 32.9048L36.752 23.9355C37.4355 23.2605 37.4285 22.176 36.7379 21.5102Z" fill="#251238"/>
</svg>
