<svg width="16" height="17" viewBox="0 0 16 17" fill="none" xmlns="http://www.w3.org/2000/svg">
<g opacity="0.63">
<path d="M7.93512 4.48633C7.53956 4.48633 7.15288 4.60363 6.82398 4.82339C6.49508 5.04315 6.23874 5.35551 6.08736 5.72096C5.93599 6.08641 5.89638 6.48854 5.97355 6.8765C6.05072 7.26447 6.2412 7.62083 6.52091 7.90054C6.80061 8.18024 7.15698 8.37072 7.54494 8.44789C7.9329 8.52506 8.33504 8.48546 8.70049 8.33408C9.06594 8.1827 9.3783 7.92636 9.59806 7.59746C9.81782 7.26857 9.93512 6.88189 9.93512 6.48632C9.93452 5.95608 9.72361 5.44772 9.34867 5.07278C8.97373 4.69784 8.46537 4.48693 7.93512 4.48633ZM7.93512 7.48632C7.73734 7.48632 7.544 7.42767 7.37955 7.31779C7.2151 7.20791 7.08693 7.05173 7.01124 6.86901C6.93555 6.68628 6.91575 6.48521 6.95433 6.29123C6.99292 6.09725 7.08816 5.91907 7.22801 5.77922C7.36787 5.63937 7.54605 5.54413 7.74003 5.50554C7.93401 5.46696 8.13508 5.48676 8.3178 5.56245C8.50053 5.63813 8.65671 5.76631 8.76659 5.93076C8.87647 6.0952 8.93512 6.28854 8.93512 6.48632C8.93481 6.75145 8.82936 7.00562 8.64189 7.19309C8.45442 7.38056 8.20024 7.48602 7.93512 7.48632Z" fill="#251238"/>
<path d="M11.7784 2.64219C10.8281 1.6922 9.5597 1.12787 8.21786 1.05812C6.87601 0.988358 5.55589 1.41812 4.51228 2.26445C3.46867 3.11078 2.77555 4.31369 2.56669 5.64101C2.35783 6.96833 2.64804 8.32597 3.38131 9.4519L7.15965 15.2523C7.24373 15.3814 7.35869 15.4874 7.49412 15.5608C7.62955 15.6342 7.78115 15.6727 7.93519 15.6727C8.08924 15.6727 8.24084 15.6342 8.37627 15.5608C8.51169 15.4874 8.62666 15.3814 8.71074 15.2523L12.4892 9.4519C13.1696 8.40744 13.4703 7.16084 13.3409 5.92104C13.2114 4.68125 12.6598 3.52362 11.7784 2.64219ZM11.6513 8.90606L7.93521 14.6107L4.21906 8.90606C3.08156 7.15984 3.32553 4.82297 4.79915 3.34928C5.21098 2.93744 5.69989 2.61075 6.23798 2.38787C6.77607 2.16498 7.35279 2.05026 7.93521 2.05026C8.51763 2.05026 9.09435 2.16498 9.63244 2.38787C10.1705 2.61075 10.6594 2.93744 11.0713 3.34928C12.5449 4.82297 12.7888 7.15984 11.6513 8.90606Z" fill="#251238"/>
</g>
</svg>
