<svg width="56" height="56" viewBox="0 0 56 56" fill="none" xmlns="http://www.w3.org/2000/svg">
<path d="M23.0189 6.73397C25.7499 3.98297 30.2082 3.98297 32.9625 6.71297L34.6665 8.41397C35.32 9.06731 36.207 9.44297 37.1407 9.44297H39.5449C43.4196 9.44297 46.5708 12.5906 46.5708 16.464V18.8696C46.5708 19.8006 46.9442 20.6873 47.5978 21.3406L49.2784 23.0206C50.6089 24.3273 51.3325 26.1006 51.3325 27.9673C51.3558 29.834 50.6323 31.6096 49.3251 32.9373L47.5978 34.664C46.9442 35.3173 46.5708 36.204 46.5708 37.1396V39.5406C46.5708 43.414 43.4196 46.5663 39.5449 46.5663H37.1407C36.207 46.5663 35.32 46.9373 34.6665 47.5906L32.9859 49.2706C31.6087 50.6496 29.8114 51.324 28.014 51.324C26.2167 51.324 24.4194 50.6496 23.0422 49.2963L21.3383 47.5906C20.6847 46.9373 19.7977 46.5663 18.8641 46.5663H16.4599C12.5851 46.5663 9.43398 43.414 9.43398 39.5406V37.1396C9.43398 36.204 9.06051 35.3173 8.40694 34.6406L6.72633 32.984C3.99534 30.2563 3.972 25.7973 6.70299 23.0463L8.40694 21.3406C9.06051 20.6873 9.43398 19.8006 9.43398 18.844V16.464C9.43398 12.5906 12.5851 9.44297 16.4599 9.44297H18.8641C19.7977 9.44297 20.6847 9.06731 21.3383 8.41397L23.0189 6.73397ZM34.0129 31.9573C32.8691 31.9573 31.9588 32.8696 31.9588 33.9873C31.9588 35.1306 32.8691 36.0406 34.0129 36.0406C35.1333 36.0406 36.0436 35.1306 36.0436 33.9873C36.0436 32.8696 35.1333 31.9573 34.0129 31.9573ZM35.4367 20.5473C34.6431 19.7563 33.3593 19.7563 32.5657 20.5473L20.568 32.5406C19.7744 33.334 19.7744 34.6406 20.568 35.434C20.9415 35.8306 21.455 36.0406 21.9919 36.0406C22.5521 36.0406 23.0656 35.8306 23.4391 35.434L35.4367 23.443C36.2304 22.6496 36.2304 21.3406 35.4367 20.5473ZM22.0152 19.964C20.8948 19.964 19.9611 20.874 19.9611 21.994C19.9611 23.1396 20.8948 24.0473 22.0152 24.0473C23.1356 24.0473 24.0459 23.1396 24.0459 21.994C24.0459 20.874 23.1356 19.964 22.0152 19.964Z" fill="#251238"/>
</svg>
