<svg width="50" height="50" viewBox="0 0 50 50" fill="none" xmlns="http://www.w3.org/2000/svg">
<rect width="50" height="50" rx="4" fill="#251238" fill-opacity="0.05"/>
<path d="M24.949 27.5396C28.3802 27.5396 31.31 28.0836 31.31 30.2604C31.31 32.4362 28.399 33 24.949 33C21.5178 33 18.5881 32.456 18.5881 30.2802C18.5881 28.1034 21.499 27.5396 24.949 27.5396ZM30.4351 26.2289C31.7468 26.2046 33.1571 26.3847 33.6782 26.5126C34.7823 26.7296 35.5084 27.1727 35.8093 27.8166C36.0636 28.3453 36.0636 28.9586 35.8093 29.4864C35.349 30.4851 33.8654 30.8058 33.2887 30.8886C33.1696 30.9066 33.0738 30.8031 33.0864 30.6833C33.3809 27.9157 31.0377 26.6035 30.4315 26.3018C30.4055 26.2883 30.4002 26.2676 30.4028 26.255C30.4046 26.246 30.4154 26.2316 30.4351 26.2289ZM19.3186 26.227L19.5656 26.2292C19.5853 26.2319 19.5951 26.2464 19.5969 26.2545C19.5996 26.268 19.5943 26.2878 19.5692 26.3022C18.9621 26.6039 16.6188 27.9161 16.9134 30.6827C16.926 30.8034 16.831 30.9061 16.712 30.889C16.1353 30.8061 14.6516 30.4855 14.1914 29.4867C13.9362 28.9581 13.9362 28.3457 14.1914 27.817C14.4922 27.1731 15.2175 26.73 16.3216 26.512C16.8436 26.385 18.2529 26.2049 19.5656 26.2292L19.3186 26.227ZM24.949 17C27.2851 17 29.1583 18.8823 29.1583 21.2329C29.1583 23.5825 27.2851 25.4666 24.949 25.4666C22.6129 25.4666 20.7397 23.5825 20.7397 21.2329C20.7397 18.8823 22.6129 17 24.949 17ZM30.6634 17.7059C32.9198 17.7059 34.6918 19.8412 34.0883 22.2197C33.6809 23.821 32.2062 24.8846 30.5631 24.8414C30.3984 24.8369 30.2363 24.8216 30.0796 24.7946C29.9659 24.7748 29.9086 24.646 29.973 24.5505C30.5998 23.6229 30.9571 22.507 30.9571 21.3092C30.9571 20.0592 30.5667 18.8938 29.8889 17.9383C29.8674 17.9085 29.8513 17.8626 29.8728 17.8284C29.8907 17.8005 29.9238 17.786 29.9551 17.7788C30.1835 17.732 30.4181 17.7059 30.6634 17.7059ZM19.3359 17.7058C19.5813 17.7058 19.8159 17.7319 20.0451 17.7788C20.0755 17.786 20.1096 17.8013 20.1275 17.8283C20.1481 17.8625 20.1328 17.9084 20.1113 17.9382C19.4335 18.8937 19.0431 20.0591 19.0431 21.3091C19.0431 22.5069 19.4004 23.6228 20.0272 24.5504C20.0916 24.6459 20.0343 24.7747 19.9206 24.7945C19.763 24.8224 19.6019 24.8368 19.4371 24.8413C17.794 24.8845 16.3193 23.8209 15.9119 22.2196C15.3075 19.8411 17.0795 17.7058 19.3359 17.7058Z" fill="#251238"/>
</svg>
