<svg width="42" height="42" viewBox="0 0 42 42" fill="none" xmlns="http://www.w3.org/2000/svg">
<g opacity="0.6">
<path d="M24.15 17.4C23.3836 17.3974 22.6242 17.5459 21.9152 17.8371C21.2062 18.1283 20.5616 18.5564 20.0182 19.0969C19.4749 19.6375 19.0434 20.2799 18.7486 20.9874C18.4538 21.6949 18.3014 22.4535 18.3 23.22V29.1C18.3 29.3387 18.3949 29.5676 18.5637 29.7364C18.7324 29.9052 18.9614 30 19.2 30H21.3C21.5387 30 21.7677 29.9052 21.9364 29.7364C22.1052 29.5676 22.2 29.3387 22.2 29.1V23.22C22.1999 22.9474 22.2571 22.6778 22.3681 22.4288C22.4791 22.1798 22.6413 21.957 22.8441 21.7749C23.047 21.5928 23.2859 21.4555 23.5454 21.372C23.8049 21.2884 24.0791 21.2605 24.35 21.29C24.8361 21.3512 25.2827 21.5887 25.6053 21.9573C25.9278 22.326 26.1039 22.8002 26.1 23.29V29.1C26.1 29.3387 26.1949 29.5676 26.3637 29.7364C26.5324 29.9052 26.7614 30 27 30H29.1C29.3387 30 29.5677 29.9052 29.7364 29.7364C29.9052 29.5676 30 29.3387 30 29.1V23.22C29.9987 22.4535 29.8463 21.6949 29.5515 20.9874C29.2567 20.2799 28.8252 19.6375 28.2819 19.0969C27.7385 18.5564 27.0939 18.1283 26.3849 17.8371C25.6759 17.5459 24.9165 17.3974 24.15 17.4Z" fill="#251238"/>
<path d="M15.6 18.3H12.9C12.4029 18.3 12 18.7029 12 19.2V29.1C12 29.597 12.4029 30 12.9 30H15.6C16.0971 30 16.5 29.597 16.5 29.1V19.2C16.5 18.7029 16.0971 18.3 15.6 18.3Z" fill="#251238"/>
<path d="M14.25 16.5C15.4926 16.5 16.5 15.4926 16.5 14.25C16.5 13.0074 15.4926 12 14.25 12C13.0074 12 12 13.0074 12 14.25C12 15.4926 13.0074 16.5 14.25 16.5Z" fill="#251238"/>
</g>
<rect x="1" y="1" width="40" height="40" rx="12" stroke="#251238" stroke-opacity="0.1"/>
</svg>
