<svg width="32" height="32" viewBox="0 0 32 32" fill="none" xmlns="http://www.w3.org/2000/svg">
<g clip-path="url(#clip0_62_359)">
<path d="M15.8616 30.835C24.2713 30.835 31.0888 24.0176 31.0888 15.6079C31.0888 7.19817 24.2713 0.380737 15.8616 0.380737C7.45189 0.380737 0.63446 7.19817 0.63446 15.6079C0.63446 24.0176 7.45189 30.835 15.8616 30.835Z" fill="#29293E"/>
<path d="M9.82957 20.0492H14.3848C15.7364 20.0492 16.3752 18.2685 15.3695 17.3042L14.5378 16.5068C13.4125 15.4277 13.1374 13.6601 13.8755 12.2504L14.8869 10.319C15.0663 9.97627 15.0673 9.55893 14.8895 9.21529C14.4908 8.44485 13.4584 8.43052 13.0411 9.18964L8.46772 17.5093C7.84979 18.6334 8.6089 20.0492 9.82957 20.0492Z" fill="#FEB701"/>
<path d="M21.8937 11.8011H17.3385C15.9869 11.8011 15.3481 13.5818 16.3538 14.5461L17.1854 15.3435C18.3108 16.4226 18.5859 18.1902 17.8477 19.5998L16.8364 21.5314C16.6569 21.874 16.656 22.2914 16.8338 22.635C17.2325 23.4055 18.2648 23.4198 18.6822 22.6606L23.2555 14.341C23.8735 13.2169 23.1144 11.8011 21.8937 11.8011Z" fill="#FE8600"/>
</g>
<defs>
<clipPath id="clip0_62_359">
<rect width="31.6486" height="31.6486" fill="white"/>
</clipPath>
</defs>
</svg>
