<svg width="32" height="32" viewBox="0 0 32 32" fill="none" xmlns="http://www.w3.org/2000/svg">
<g clip-path="url(#clip0_84_2313)">
<path d="M15.8243 31.6486C24.5638 31.6486 31.6486 24.5638 31.6486 15.8243C31.6486 7.08477 24.5638 0 15.8243 0C7.08477 0 0 7.08477 0 15.8243C0 24.5638 7.08477 31.6486 15.8243 31.6486Z" fill="#2F2F2F"/>
<g clip-path="url(#clip1_84_2313)">
<path d="M19.9238 11.0139C19.3951 11.0295 18.8689 11.0739 18.3439 11.1339C16.6335 11.3355 14.9051 11.3331 13.1952 11.1267C12.5 11.0394 11.8005 10.9901 11.1 10.979C8.15022 10.9262 5.71106 10.8134 5.71106 10.8134C6.32058 11.7881 6.37489 13.0943 6.37849 13.4173V14.2432C6.37849 14.2432 6.44123 17.5277 8.08265 19.1401C8.08265 19.1401 9.07355 20.6251 11.7034 20.8004C12.8862 20.792 13.55 20.451 13.55 20.451C14.1653 20.2205 14.725 19.8638 15.1926 19.4042C15.4425 19.1621 15.6625 18.8913 15.848 18.5975C16.0331 18.8912 16.2527 19.1621 16.5021 19.4042C16.9701 19.8636 17.5296 20.2202 18.1447 20.451C18.1447 20.451 18.8086 20.792 19.9914 20.8004C22.6188 20.5951 23.6121 19.1401 23.6121 19.1401C25.1751 17.4017 25.3103 14.2432 25.3103 14.2432V13.4953C25.4358 11.7125 26.2964 10.8134 26.2964 10.8134L19.9238 11.0139ZM13.2386 17.6167C13.0801 17.777 12.8875 17.9 12.675 17.9768C12.2173 18.1488 11.7167 18.1724 11.2448 18.044C9.96338 17.7053 9.07164 16.5512 9.07232 15.2325V14.248H11.8482C12.371 14.2457 12.8729 14.4514 13.2422 14.8194C14.0194 15.586 14.0248 16.834 13.2542 17.6071C13.2502 17.6111 13.2462 17.615 13.2422 17.619L13.2386 17.6167ZM22.6116 15.23C22.6123 16.5488 21.7205 17.7029 20.4391 18.0416C19.9672 18.1698 19.4666 18.1463 19.0089 17.9744C18.7964 17.8975 18.6038 17.7745 18.4453 17.6142C17.6681 16.8477 17.6628 15.5996 18.4334 14.8265C18.4373 14.8225 18.4413 14.8186 18.4453 14.8146C18.8146 14.4466 19.3166 14.2409 19.8393 14.2432H22.6152L22.6116 15.23Z" fill="white"/>
</g>
</g>
<defs>
<clipPath id="clip0_84_2313">
<rect width="31.6486" height="31.6486" fill="white"/>
</clipPath>
<clipPath id="clip1_84_2313">
<rect width="20.6009" height="10.0334" fill="white" transform="translate(5.71106 10.7859)"/>
</clipPath>
</defs>
</svg>
