<svg width="136" height="56" viewBox="0 0 136 56" fill="none" xmlns="http://www.w3.org/2000/svg">
<path opacity="0.3" d="M1.25527 30.9758C0.841948 30.9486 0.528932 30.5915 0.556128 30.1781L0.999301 23.4427C1.0265 23.0294 1.38361 22.7164 1.79692 22.7436C2.21024 22.7708 2.52326 23.1279 2.49606 23.5412L2.10213 29.5282L8.08919 29.9222C8.50251 29.9494 8.81552 30.3065 8.78833 30.7198C8.76113 31.1331 8.40402 31.4461 7.9907 31.4189L1.25527 30.9758ZM94.1349 38.415L94.8409 38.6682L94.1349 38.415ZM30.8605 10.5645L31.1194 11.2684L30.8605 10.5645ZM99.6281 1.28583L99.7051 0.539794L99.6281 1.28583ZM50.6401 39.5L51.2948 39.1341L50.6401 39.5ZM1.30451 30.2274C0.810142 29.6634 0.810156 29.6634 0.810171 29.6633C0.810179 29.6633 0.810197 29.6633 0.810213 29.6633C0.810246 29.6633 0.810288 29.6632 0.81034 29.6632C0.810443 29.6631 0.810584 29.663 0.810763 29.6628C0.811119 29.6625 0.811625 29.6621 0.81228 29.6615C0.813591 29.6604 0.815498 29.6587 0.817996 29.6565C0.822993 29.6521 0.830358 29.6457 0.840053 29.6372C0.859442 29.6203 0.888155 29.5953 0.925899 29.5626C1.00139 29.4971 1.113 29.4006 1.2584 29.2757C1.5492 29.0261 1.9752 28.6633 2.51769 28.2088L3.48095 29.3586C2.94342 29.809 2.52201 30.1679 2.23541 30.4139C2.09211 30.5369 1.98253 30.6317 1.90899 30.6955C1.87222 30.7274 1.84447 30.7516 1.82602 30.7677C1.81679 30.7757 1.80989 30.7817 1.80536 30.7857C1.80309 30.7877 1.80141 30.7892 1.80033 30.7901C1.79979 30.7906 1.7994 30.7909 1.79916 30.7911C1.79903 30.7912 1.79895 30.7913 1.7989 30.7914C1.79888 30.7914 1.79887 30.7914 1.79886 30.7914C1.79886 30.7914 1.79886 30.7914 1.79886 30.7914C1.79887 30.7914 1.79888 30.7914 1.30451 30.2274ZM5.98167 25.3791C7.0406 24.5345 8.2276 23.6058 9.50894 22.6321L10.4165 23.8264C9.14556 24.7922 7.96785 25.7136 6.91696 26.5518L5.98167 25.3791ZM13.1096 19.9678C14.2963 19.1141 15.5284 18.2528 16.7863 17.4065L17.6236 18.6511C16.3802 19.4875 15.1611 20.3398 13.9856 21.1854L13.1096 19.9678ZM20.556 14.9738C21.8507 14.1762 23.1534 13.4154 24.4441 12.715L25.1596 14.0333C23.8967 14.7187 22.618 15.4653 21.3428 16.2509L20.556 14.9738ZM28.4976 10.7126C29.2096 10.3998 29.9122 10.1143 30.6015 9.86066L31.1194 11.2684C30.4622 11.5102 29.7883 11.784 29.1009 12.0859L28.4976 10.7126ZM30.6015 9.86066C31.2098 9.63686 31.8369 9.42036 32.4812 9.21148L32.9438 10.6384C32.3171 10.8416 31.7084 11.0517 31.1194 11.2684L30.6015 9.86066ZM36.309 8.11072C37.5618 7.79215 38.8604 7.49948 40.1956 7.23474L40.4873 8.70609C39.1768 8.96593 37.9043 9.25279 36.6786 9.56446L36.309 8.11072ZM44.11 6.55494C45.4007 6.36126 46.7158 6.19301 48.0483 6.05183L48.2063 7.54348C46.8951 7.68241 45.6015 7.84792 44.3325 8.03833L44.11 6.55494ZM52.0079 5.71636C53.3222 5.63269 54.6465 5.57581 55.9743 5.54726L56.0065 7.04691C54.7 7.07501 53.3968 7.13097 52.1032 7.21333L52.0079 5.71636ZM59.9463 5.54774C61.2741 5.5771 62.5993 5.63628 63.9156 5.72683L63.8126 7.22329C62.5204 7.1344 61.2185 7.07624 59.9132 7.04738L59.9463 5.54774ZM67.8754 6.09947C69.2076 6.25996 70.5238 6.45556 71.817 6.68804L71.5516 8.16438C70.2886 7.93731 69.0011 7.74592 67.696 7.5887L67.8754 6.09947ZM75.7136 7.52119C77.0306 7.85083 78.3142 8.22444 79.5556 8.64432L79.075 10.0652C77.8749 9.65932 76.6303 9.2969 75.3494 8.97631L75.7136 7.52119ZM83.2881 10.1098C84.5407 10.6778 85.7332 11.3048 86.8537 11.994L86.0678 13.2716C85.0059 12.6184 83.8695 12.0205 82.6686 11.4759L83.2881 10.1098ZM90.1273 14.3719C91.1755 15.2748 92.1224 16.2574 92.9512 17.3238L91.7668 18.2442C91.004 17.2627 90.1272 16.3516 89.1483 15.5084L90.1273 14.3719ZM95.0847 20.82C95.6468 22.0388 96.0758 23.3381 96.3576 24.7201L94.8879 25.0198C94.629 23.7505 94.236 22.5614 93.7226 21.4482L95.0847 20.82ZM96.7511 28.7763C96.7488 30.0675 96.6337 31.4158 96.3989 32.8228L94.9194 32.5759C95.1417 31.2439 95.249 29.9774 95.2511 28.7737L96.7511 28.7763ZM95.4807 36.7271C95.2899 37.3634 95.0768 38.0104 94.8409 38.6682L93.429 38.1619C93.6562 37.528 93.861 36.9062 94.0439 36.2962L95.4807 36.7271ZM94.8409 38.6682C94.6007 39.3381 94.3491 39.9862 94.0865 40.6128L92.703 40.0331C92.9552 39.4314 93.1973 38.8078 93.429 38.1619L94.8409 38.6682ZM92.2496 44.3551C91.5219 45.6253 90.7392 46.7794 89.9084 47.8215L88.7355 46.8864C89.516 45.9074 90.2562 44.8171 90.948 43.6095L92.2496 44.3551ZM87.0034 50.8585C85.8974 51.8133 84.7362 52.6141 83.5328 53.2688L82.816 51.9512C83.9236 51.3486 84.9968 50.6092 86.0231 49.7231L87.0034 50.8585ZM79.6079 54.8598C78.2388 55.2412 76.8416 55.463 75.4337 55.5377L75.3543 54.0398C76.6574 53.9707 77.946 53.7657 79.2054 53.4148L79.6079 54.8598ZM71.223 55.3371C69.85 55.1376 68.4831 54.811 67.1372 54.3689L67.6054 52.9438C68.8734 53.3604 70.1559 53.6663 71.4386 53.8527L71.223 55.3371ZM63.2748 52.757C62.0458 52.1319 60.8479 51.4118 59.6939 50.606L60.5527 49.3761C61.6513 50.1433 62.7896 50.8273 63.9548 51.42L63.2748 52.757ZM56.4405 47.9998C55.4211 47.0685 54.4535 46.0653 53.5491 44.9983L54.6934 44.0284C55.5565 45.0467 56.4798 46.004 57.4522 46.8923L56.4405 47.9998ZM51.0623 41.6528C50.6849 41.0704 50.3255 40.4744 49.9854 39.8658L51.2948 39.1341C51.6188 39.7139 51.9613 40.2818 52.3211 40.8371L51.0623 41.6528ZM49.9854 39.8658C49.622 39.2157 49.2924 38.5697 48.9955 37.9283L50.3568 37.2983C50.6371 37.9039 50.9493 38.5159 51.2948 39.1341L49.9854 39.8658ZM47.5227 33.8364C47.1458 32.3642 46.9436 30.9216 46.9039 29.5123L48.4033 29.4701C48.4397 30.764 48.6255 32.0961 48.9758 33.4644L47.5227 33.8364ZM47.311 25.1495C47.6232 23.7195 48.1061 22.3393 48.7399 21.0129L50.0933 21.6597C49.5065 22.8877 49.0627 24.1586 48.7765 25.4695L47.311 25.1495ZM51.0045 17.2929C51.85 16.1607 52.8095 15.0781 53.8674 14.0476L54.9141 15.1221C53.9073 16.1028 53.0008 17.1267 52.2064 18.1905L51.0045 17.2929ZM57.1387 11.2512C58.2565 10.4072 59.4448 9.60679 60.6926 8.8518L61.4691 10.1352C60.262 10.8655 59.1166 11.6374 58.0426 12.4483L57.1387 11.2512ZM64.4489 6.80088C65.7096 6.18008 67.0139 5.59974 68.3535 5.06142L68.9128 6.45324C67.6066 6.97814 66.3368 7.54319 65.1116 8.14657L64.4489 6.80088ZM72.3599 3.60956C73.7018 3.1735 75.0691 2.77724 76.4544 2.42221L76.8267 3.87525C75.4715 4.22258 74.1347 4.61005 72.8235 5.03613L72.3599 3.60956ZM80.6112 1.49103C82.0045 1.22292 83.4087 0.99615 84.8168 0.812166L85.0111 2.29952C83.633 2.4796 82.2585 2.70157 80.8947 2.96401L80.6112 1.49103ZM89.055 0.389319C90.4808 0.291347 91.9038 0.238631 93.3168 0.232725L93.3231 1.73271C91.9431 1.73848 90.5523 1.78997 89.1578 1.88579L89.055 0.389319ZM97.58 0.360978C98.2932 0.407675 99.0019 0.467209 99.7051 0.539794L99.5511 2.03187C98.8669 1.96125 98.1769 1.90328 97.482 1.85777L97.58 0.360978ZM99.7051 0.539794C100.315 0.602731 100.921 0.667856 101.524 0.734973L101.358 2.22575C100.759 2.15907 100.157 2.09438 99.5511 2.03187L99.7051 0.539794ZM105.155 1.16817C106.384 1.32437 107.594 1.48761 108.78 1.65607L108.569 3.14117C107.39 2.9737 106.188 2.81145 104.966 2.6562L105.155 1.16817ZM112.398 2.19608C113.635 2.3895 114.84 2.58691 116.008 2.78596L115.757 4.26466C114.594 4.0667 113.396 3.87039 112.167 3.67806L112.398 2.19608ZM119.605 3.4234C120.861 3.65453 122.061 3.88455 123.2 4.10986L122.909 5.58133C121.777 5.35726 120.582 5.12849 119.334 4.89861L119.605 3.4234ZM126.782 4.84365C128.1 5.12283 129.294 5.38658 130.35 5.62642L130.017 7.08915C128.968 6.85082 127.781 6.58864 126.471 6.31104L126.782 4.84365ZM133.915 6.4683C134.489 6.60941 134.931 6.72157 135.231 6.79859C135.38 6.83711 135.495 6.86684 135.571 6.88701C135.61 6.8971 135.639 6.9048 135.659 6.91001C135.669 6.91262 135.676 6.9146 135.681 6.91595C135.684 6.91663 135.686 6.91715 135.687 6.91751C135.688 6.91769 135.688 6.91782 135.689 6.91792C135.689 6.91797 135.689 6.91801 135.689 6.91804C135.689 6.91806 135.689 6.91807 135.689 6.91808C135.689 6.91808 135.689 6.91809 135.689 6.91809C135.689 6.9181 135.689 6.9181 135.496 7.64267C135.302 8.36724 135.302 8.36724 135.302 8.36724L135.302 8.36725C135.302 8.36725 135.302 8.36724 135.302 8.36724C135.302 8.36723 135.302 8.36721 135.302 8.36718C135.301 8.36712 135.301 8.36701 135.301 8.36687C135.3 8.36659 135.298 8.36614 135.296 8.36554C135.291 8.36434 135.284 8.3625 135.275 8.36004C135.256 8.35512 135.228 8.34772 135.191 8.33794C135.116 8.31836 135.005 8.28924 134.857 8.25134C134.562 8.17555 134.125 8.06465 133.557 7.92483L133.915 6.4683Z" fill="#251238"/>
</svg>
