<svg width="50" height="50" viewBox="0 0 50 50" fill="none" xmlns="http://www.w3.org/2000/svg">
<path d="M35.0617 19.9398C34.9422 19.4946 34.7078 19.0886 34.382 18.7624C34.0563 18.4363 33.6505 18.2014 33.2055 18.0813C31.5672 17.6406 25 17.6406 25 17.6406C25 17.6406 18.4328 17.6406 16.7945 18.0789C16.3493 18.1986 15.9433 18.4334 15.6175 18.7596C15.2917 19.0859 15.0574 19.4921 14.9383 19.9375C14.5 21.5781 14.5 25 14.5 25C14.5 25 14.5 28.4219 14.9383 30.0602C15.1797 30.9648 15.8922 31.6773 16.7945 31.9188C18.4328 32.3594 25 32.3594 25 32.3594C25 32.3594 31.5672 32.3594 33.2055 31.9188C34.1102 31.6773 34.8203 30.9648 35.0617 30.0602C35.5 28.4219 35.5 25 35.5 25C35.5 25 35.5 21.5781 35.0617 19.9398ZM22.9141 28.1406V21.8594L28.3516 24.9766L22.9141 28.1406Z" fill="#251238"/>
<rect x="1" y="1" width="48" height="48" rx="12" stroke="#251238" stroke-opacity="0.3"/>
</svg>
