<svg width="50" height="50" viewBox="0 0 50 50" fill="none" xmlns="http://www.w3.org/2000/svg">
<g clip-path="url(#clip0_50_1217)">
<path d="M26.5375 25C26.5375 28.7275 23.5075 31.75 19.768 31.75C18.8804 31.7512 18.0012 31.5775 17.1808 31.239C16.3603 30.9004 15.6145 30.4035 14.986 29.7767C14.3576 29.1499 13.8587 28.4055 13.5179 27.5859C13.1772 26.7663 13.0012 25.8876 13 25C13 21.271 16.03 18.25 19.768 18.25C20.6557 18.2486 21.535 18.4221 22.3557 18.7606C23.1764 19.0991 23.9223 19.596 24.5509 20.2228C25.1796 20.8496 25.6786 21.5941 26.0194 22.4138C26.3603 23.2335 26.5363 24.1123 26.5375 25ZM33.9625 25C33.9625 28.51 32.4475 31.354 30.5785 31.354C28.7095 31.354 27.1945 28.5085 27.1945 25C27.1945 21.49 28.7095 18.646 30.5785 18.646C32.4475 18.646 33.9625 21.4915 33.9625 25ZM37 25C37 28.144 36.4675 30.6925 35.809 30.6925C35.152 30.6925 34.6195 28.1425 34.6195 25C34.6195 21.856 35.152 19.3075 35.8105 19.3075C36.4675 19.3075 37 21.856 37 25Z" fill="#251238"/>
</g>
<rect x="1" y="1" width="48" height="48" rx="12" stroke="#251238" stroke-opacity="0.3"/>
<defs>
<clipPath id="clip0_50_1217">
<rect width="24" height="24" fill="white" transform="translate(13 13)"/>
</clipPath>
</defs>
</svg>
