<svg width="50" height="50" viewBox="0 0 50 50" fill="none" xmlns="http://www.w3.org/2000/svg">
<path d="M21.08 32.9998C22.5587 33.0493 24.0323 32.8018 25.4138 32.2721C26.7952 31.7424 28.0565 30.9411 29.1229 29.9156C30.1894 28.8901 31.0395 27.6613 31.623 26.3017C32.2065 24.9421 32.5115 23.4793 32.52 21.9998C33.1977 21.1612 33.7009 20.1956 34 19.1598C34.0224 19.078 34.0206 18.9914 33.9949 18.9106C33.9691 18.8297 33.9206 18.7581 33.8551 18.7042C33.7896 18.6503 33.7099 18.6165 33.6256 18.6068C33.5413 18.5972 33.456 18.6121 33.38 18.6498C33.0255 18.8205 32.6264 18.8756 32.2389 18.8074C31.8514 18.7392 31.495 18.5512 31.22 18.2698C30.869 17.8854 30.4444 17.5753 29.9713 17.358C29.4982 17.1407 28.9863 17.0206 28.466 17.0047C27.9456 16.9889 27.4274 17.0776 26.942 17.2657C26.4566 17.4538 26.0138 17.7375 25.64 18.0998C25.1282 18.5955 24.7534 19.2151 24.5519 19.8985C24.3503 20.5819 24.329 21.3058 24.49 21.9998C21.14 22.1998 18.84 20.6098 17 18.4298C16.9448 18.3672 16.8725 18.3221 16.7919 18.2999C16.7114 18.2777 16.6262 18.2794 16.5467 18.3049C16.4671 18.3303 16.3967 18.3784 16.344 18.4432C16.2914 18.508 16.2587 18.5867 16.25 18.6698C15.8995 20.6142 16.1524 22.6193 16.9747 24.4159C17.7969 26.2124 19.1493 27.7143 20.85 28.7198C19.7097 30.0276 18.1083 30.8445 16.38 30.9998C16.2875 31.0152 16.202 31.0591 16.1356 31.1254C16.0692 31.1917 16.0252 31.2772 16.0098 31.3698C15.9944 31.4623 16.0083 31.5574 16.0495 31.6417C16.0908 31.726 16.1574 31.7952 16.24 31.8398C17.7436 32.5912 19.3993 32.988 21.08 32.9998Z" fill="#251238"/>
<rect x="1" y="1" width="48" height="48" rx="12" stroke="#251238" stroke-opacity="0.3"/>
</svg>
