<svg width="50" height="50" viewBox="0 0 50 50" fill="none" xmlns="http://www.w3.org/2000/svg">
<path d="M28.15 21.3999C27.3836 21.3973 26.6242 21.5458 25.9152 21.837C25.2062 22.1282 24.5616 22.5563 24.0182 23.0969C23.4749 23.6375 23.0434 24.2799 22.7486 24.9873C22.4538 25.6948 22.3014 26.4535 22.3 27.2199V33.0999C22.3 33.3386 22.3949 33.5676 22.5637 33.7363C22.7324 33.9051 22.9614 33.9999 23.2 33.9999H25.3C25.5387 33.9999 25.7677 33.9051 25.9364 33.7363C26.1052 33.5676 26.2 33.3386 26.2 33.0999V27.2199C26.1999 26.9473 26.2571 26.6778 26.3681 26.4288C26.4791 26.1798 26.6413 25.957 26.8441 25.7749C27.047 25.5928 27.2859 25.4555 27.5454 25.3719C27.8049 25.2884 28.0791 25.2604 28.35 25.2899C28.8361 25.3512 29.2827 25.5886 29.6053 25.9572C29.9278 26.3259 30.1039 26.8001 30.1 27.2899V33.0999C30.1 33.3386 30.1949 33.5676 30.3637 33.7363C30.5324 33.9051 30.7614 33.9999 31 33.9999H33.1C33.3387 33.9999 33.5677 33.9051 33.7364 33.7363C33.9052 33.5676 34 33.3386 34 33.0999V27.2199C33.9987 26.4535 33.8463 25.6948 33.5515 24.9873C33.2567 24.2799 32.8252 23.6375 32.2819 23.0969C31.7385 22.5563 31.0939 22.1282 30.3849 21.837C29.6759 21.5458 28.9165 21.3973 28.15 21.3999Z" fill="#251238"/>
<path d="M19.6 22.2998H16.9C16.4029 22.2998 16 22.7027 16 23.1998V33.0998C16 33.5969 16.4029 33.9998 16.9 33.9998H19.6C20.0971 33.9998 20.5 33.5969 20.5 33.0998V23.1998C20.5 22.7027 20.0971 22.2998 19.6 22.2998Z" fill="#251238"/>
<path d="M18.25 20.5C19.4926 20.5 20.5 19.4926 20.5 18.25C20.5 17.0074 19.4926 16 18.25 16C17.0074 16 16 17.0074 16 18.25C16 19.4926 17.0074 20.5 18.25 20.5Z" fill="#251238"/>
<rect x="1" y="1" width="48" height="48" rx="12" stroke="#251238" stroke-opacity="0.3"/>
</svg>
