<svg width="42" height="42" viewBox="0 0 42 42" fill="none" xmlns="http://www.w3.org/2000/svg">
<g opacity="0.6">
<path d="M17.08 29C18.5587 29.0495 20.0323 28.802 21.4138 28.2723C22.7952 27.7425 24.0565 26.9413 25.1229 25.9158C26.1894 24.8903 27.0395 23.6615 27.623 22.3019C28.2065 20.9423 28.5115 19.4795 28.52 18C29.1977 17.1614 29.7009 16.1958 30 15.16C30.0224 15.0781 30.0206 14.9916 29.9949 14.9108C29.9691 14.8299 29.9206 14.7582 29.8551 14.7043C29.7896 14.6505 29.7099 14.6167 29.6256 14.607C29.5413 14.5974 29.456 14.6123 29.38 14.65C29.0255 14.8206 28.6264 14.8758 28.2389 14.8076C27.8514 14.7394 27.495 14.5514 27.22 14.27C26.869 13.8856 26.4444 13.5755 25.9713 13.3582C25.4982 13.1409 24.9863 13.0208 24.466 13.0049C23.9456 12.9891 23.4274 13.0778 22.942 13.2659C22.4566 13.454 22.0138 13.7376 21.64 14.1C21.1282 14.5956 20.7534 15.2153 20.5519 15.8987C20.3503 16.582 20.329 17.3059 20.49 18C17.14 18.2 14.84 16.61 13 14.43C12.9448 14.3674 12.8725 14.3222 12.7919 14.3001C12.7114 14.2779 12.6262 14.2796 12.5467 14.3051C12.4671 14.3305 12.3967 14.3786 12.344 14.4434C12.2914 14.5082 12.2587 14.5869 12.25 14.67C11.8995 16.6144 12.1524 18.6195 12.9747 20.4161C13.7969 22.2126 15.1493 23.7145 16.85 24.72C15.7097 26.0278 14.1083 26.8446 12.38 27C12.2875 27.0153 12.202 27.0593 12.1356 27.1256C12.0692 27.1919 12.0252 27.2774 12.0098 27.3699C11.9944 27.4625 12.0083 27.5576 12.0495 27.6419C12.0908 27.7262 12.1574 27.7954 12.24 27.84C13.7436 28.5913 15.3993 28.9882 17.08 29" fill="#251238"/>
</g>
<rect x="1" y="1" width="40" height="40" rx="12" stroke="#251238" stroke-opacity="0.1"/>
</svg>
