<svg width="241" height="62" viewBox="0 0 241 62" fill="none" xmlns="http://www.w3.org/2000/svg">
<path d="M54.0897 18.2782C53.9409 20.8882 52.8991 23.3447 51.0387 25.2639L33.1791 43.6875C32.7325 44.1482 32.2117 44.6088 31.6163 44.9926C27.5235 47.8329 21.9424 47.2956 18.4448 43.6875C16.2868 41.4614 15.1706 38.314 15.4682 35.0899C15.5426 33.1706 17.1054 31.7121 18.9657 31.7121C20.9005 31.7121 22.4632 33.3242 22.4632 35.3201C22.4632 36.3948 22.0167 37.316 21.347 38.007C21.5703 38.6211 21.9424 39.2353 22.4632 39.6958C23.3563 40.617 24.6214 41.1543 25.8864 41.1543C26.705 41.1543 27.449 41.0009 28.1187 40.617C28.5653 40.3867 28.9375 40.0797 29.3095 39.6958L38.0905 30.6374L34.4441 26.8759L29.235 21.5022C28.3421 20.5812 27.077 20.0437 25.8119 20.0437C24.5469 20.0437 23.2818 20.5812 22.3889 21.5022C21.7935 22.1164 21.347 22.8841 21.1238 23.6517C21.9424 24.3427 22.5377 25.3405 22.5377 26.492C22.5377 28.4879 20.975 30.1001 19.0402 30.1001C17.2542 30.1001 15.6915 28.6415 15.5426 26.7991C14.9473 23.3447 15.9891 19.8902 18.4448 17.357C20.3796 15.3611 22.9841 14.2096 25.8119 14.2096C28.5653 14.2096 31.2443 15.3611 33.1791 17.357L38.3881 22.7305L42.0345 26.492L47.0948 21.272C48.0622 20.2741 48.5087 19.0458 48.5087 17.6641C48.5087 16.4358 48.0622 15.2843 47.2436 14.4398C45.0855 11.9834 42.481 10.0642 39.5788 8.68243C36.5278 7.30065 33.3279 6.53299 29.9792 6.53299C23.7283 6.53299 17.9239 9.06626 13.459 13.5954C9.06849 18.1246 6.61278 24.1891 6.61278 30.6374C6.61278 37.0857 9.06849 43.0734 13.459 47.6795C17.8494 52.2086 23.7283 54.7418 29.9792 54.7418C33.3279 54.7418 36.5278 54.051 39.5788 52.5925C42.481 51.2106 45.0855 49.2915 47.2436 46.8349C48.9551 44.839 48.8807 41.8453 47.0948 39.926L43.374 36.0877L47.318 32.0191L51.0387 35.8575C54.9828 39.926 55.1316 46.3744 51.4109 50.6732C48.7319 53.7439 45.532 56.1237 41.9601 57.8125C38.2394 59.5781 34.221 60.4225 30.0537 60.4225C26.184 60.4225 22.3889 59.6548 18.8168 58.1196C15.3938 56.5842 12.2684 54.4347 9.66381 51.7481C6.98486 48.9844 4.90123 45.837 3.48734 42.3058C1.99904 38.6211 1.25488 34.706 1.25488 30.7142C1.25488 26.7224 1.99904 22.8073 3.48734 19.1226C4.97565 15.5913 7.05928 12.3672 9.66381 9.68039C12.3428 6.91682 15.3938 4.76739 18.8168 3.30884C22.3889 1.77351 26.184 1.00586 30.0537 1.00586C34.221 1.00586 38.1649 1.92704 41.9601 3.61589C45.6063 5.30474 48.7319 7.68447 51.4109 10.7551C52.5271 12.0601 53.42 13.6722 53.792 15.361C54.0154 16.0519 54.0897 17.2034 54.0897 18.2782Z" fill="#7265E3"/>
<path d="M88.7828 25.9614C88.2171 25.1278 87.4898 24.3774 86.6818 23.7106C85.8736 23.0437 85.0656 22.5436 84.1768 22.1268C83.2878 21.7101 82.399 21.3766 81.4292 21.1266C80.4596 20.8763 79.4898 20.793 78.5202 20.793C77.3889 20.793 76.1768 20.9597 74.9646 21.2933C73.9142 21.6267 72.8637 22.0435 71.8941 22.627C70.0355 23.7939 68.4193 25.4612 67.3687 27.3784C66.8032 28.3788 66.3991 29.4625 66.0758 30.5461C65.7527 31.7131 65.6719 32.8802 65.6719 34.0472C65.6719 35.2142 65.8334 36.3813 66.1568 37.5483C66.4799 38.6319 66.884 39.7157 67.5305 40.716C68.6616 42.6333 70.2779 44.3004 72.2172 45.4674C73.187 46.0511 74.2374 46.5512 75.2879 46.8013C76.3383 47.1347 77.4697 47.3014 78.601 47.3014H78.6818C79.409 47.3014 80.2173 47.2181 80.9445 47.0513C81.6717 46.8846 82.399 46.7179 83.0454 46.4679C83.6919 46.2178 84.3384 45.8842 84.9848 45.4674C85.5505 45.134 86.1969 44.7172 86.6818 44.3004C86.9242 44.0504 87.1665 43.8003 87.4091 43.5502C87.6514 43.2168 87.7322 42.8834 87.813 42.4666C87.813 42.2164 87.7322 42.0497 87.6514 41.7996C87.5706 41.6329 87.4898 41.4662 87.4091 41.3828L87.0858 40.966C87.005 40.8827 86.9242 40.716 86.8434 40.5493C86.6818 40.2992 86.5201 40.0491 86.2777 39.7991C86.1161 39.549 85.9544 39.3823 85.712 39.2156C85.4697 39.0489 85.2272 38.9653 84.9848 38.9653H84.904H84.8232C84.4999 38.9653 84.1768 39.0489 83.9343 39.2989C83.7727 39.3823 83.6111 39.549 83.5303 39.6324C83.207 39.8824 82.8839 40.2158 82.4798 40.4659C82.1566 40.716 81.7525 40.966 81.4292 41.1328C81.0253 41.2995 80.6212 41.4662 80.1363 41.5495C79.6516 41.6329 79.1667 41.7162 78.601 41.7162H78.5202C77.7122 41.7162 76.904 41.5495 76.1768 41.2161C75.3687 40.8827 74.7223 40.4659 74.0758 39.8824C73.4294 39.2989 72.8637 38.6319 72.3788 37.8817C72.1364 37.4649 71.8941 37.0482 71.7323 36.6314H89.51C90.5606 36.6314 91.2878 35.8812 91.2878 34.7974C91.3686 33.1303 91.1262 31.3796 90.7221 29.7959C90.3988 28.4622 89.6716 27.1283 88.7828 25.9614ZM85.6313 31.2129H71.7323C71.9749 30.6294 72.2172 30.1293 72.6213 29.5458C73.187 28.7123 73.9142 27.9619 74.7223 27.3784C75.2879 26.9616 76.0152 26.7116 76.6616 26.5448C77.3081 26.3781 78.0353 26.2948 78.7626 26.2948C79.6516 26.2948 80.4596 26.4615 81.2676 26.7116C82.0757 26.9616 82.8031 27.3784 83.4495 27.9619C84.096 28.4622 84.6615 29.129 85.0656 29.8792C85.308 30.296 85.4697 30.7128 85.6313 31.2129Z" fill="#2D3142"/>
<path d="M112.616 44.1329L103.243 32.6293L111.485 23.7931C111.727 23.4597 111.889 22.9595 111.889 22.6261C111.889 22.376 111.889 22.2093 111.808 22.0426C111.727 21.8759 111.566 21.7092 111.404 21.459C111.081 21.2089 110.758 21.1255 110.434 21.1255H107.768C107.364 21.1255 107.041 21.2089 106.717 21.3756C106.475 21.5425 106.313 21.7092 106.071 21.8759L98.3133 30.3785V15.8739C98.3133 15.6239 98.3133 15.3738 98.1518 15.1237C98.071 14.8736 97.9092 14.6236 97.7477 14.5402C97.4245 14.2068 97.0204 14.04 96.5355 14.04H94.6769C94.4346 14.04 94.1922 14.04 93.9497 14.1234C93.7073 14.2068 93.4648 14.3735 93.3032 14.5402C92.9801 14.8736 92.8184 15.2904 92.8184 15.7906V44.8831C92.8184 45.1331 92.8184 45.3832 92.8993 45.5499C92.9801 45.8 93.1417 46.0501 93.3032 46.2168C93.4648 46.3837 93.7073 46.5504 93.9497 46.6337C94.1113 46.7171 94.273 46.7171 94.5154 46.7171C94.5962 46.7171 94.5962 46.7171 94.6769 46.7171H96.374C97.4245 46.7171 98.1518 45.9667 98.1518 44.8831V37.9642L99.5255 36.5472L106.879 45.7166C107.041 45.9667 107.202 46.3001 107.525 46.467C107.849 46.6337 108.172 46.8004 108.495 46.8004H111.566C111.889 46.8004 112.131 46.8004 112.374 46.6337L112.455 46.5504C112.616 46.467 113.101 46.1334 113.101 45.3832C113.101 45.2165 113.101 45.0498 113.02 44.8831C113.02 44.633 112.859 44.3829 112.616 44.1329Z" fill="#2D3142"/>
<path d="M135.007 21.1253H133.229C132.987 21.1253 132.744 21.1253 132.583 21.2086C132.34 21.292 132.098 21.4587 131.936 21.6254C131.774 21.7921 131.613 22.0422 131.532 22.2924C131.451 22.5425 131.451 22.7926 131.451 22.9593V23.0426C130.724 22.5425 129.997 22.0424 129.189 21.7088C127.653 21.0419 126.037 20.7085 124.421 20.7085C124.34 20.7085 124.34 20.7085 124.259 20.7085C123.128 20.7085 121.997 20.8752 120.865 21.2086C119.815 21.5421 118.764 21.9588 117.795 22.5425C116.825 23.126 115.936 23.7928 115.209 24.6264C114.401 25.4599 113.754 26.2937 113.189 27.2939C112.623 28.2942 112.138 29.378 111.896 30.4616C111.25 32.7957 111.25 35.2131 111.896 37.4638C112.219 38.5474 112.623 39.6311 113.189 40.6315C114.32 42.5487 115.936 44.216 117.795 45.3829C118.764 45.9664 119.815 46.4666 120.865 46.7166C121.997 47.0502 123.128 47.2169 124.259 47.2169C124.34 47.2169 124.34 47.2169 124.421 47.2169C126.037 47.2169 127.653 46.8833 129.189 46.2165C129.997 45.8831 130.724 45.3829 131.451 44.8828V45.0495C131.451 45.2996 131.451 45.5497 131.613 45.7997C131.694 46.0498 131.855 46.2165 132.017 46.3832C132.179 46.5499 132.421 46.7166 132.663 46.8C132.906 46.8833 133.148 46.9667 133.31 46.8833H135.168C135.653 46.8833 136.057 46.7166 136.381 46.3832C136.542 46.2165 136.704 45.9664 136.784 45.7164C136.865 45.4663 136.946 45.2162 136.865 45.0495V22.9593C136.865 22.2924 136.623 21.8755 136.381 21.6254C136.138 21.3753 135.734 21.1253 135.007 21.1253ZM131.532 33.8794C131.532 34.8796 131.37 35.8799 130.966 36.8803C130.562 37.7972 130.078 38.6308 129.35 39.381C128.704 40.1314 127.896 40.7149 127.007 41.1316C126.118 41.5484 125.148 41.7985 124.179 41.7985C123.209 41.7985 122.239 41.5484 121.431 41.1316C120.542 40.7149 119.815 40.1314 119.088 39.381C118.441 38.6308 117.876 37.7972 117.552 36.8803C116.825 34.963 116.825 32.8791 117.552 30.9617C117.956 30.0448 118.441 29.2113 119.088 28.4609C119.734 27.7107 120.542 27.2106 121.431 26.7938C122.32 26.377 123.29 26.127 124.179 26.127C125.148 26.127 126.118 26.377 127.007 26.7938C127.896 27.2106 128.704 27.7941 129.35 28.4609C129.997 29.2113 130.562 30.0448 130.966 30.9617C131.37 31.8787 131.532 32.8791 131.532 33.8794Z" fill="#2D3142"/>
<path d="M169.262 41.7159C169.181 41.6325 169.1 41.4658 169.019 41.3825L168.211 40.2988C168.131 40.1321 167.969 39.9654 167.888 39.7987C167.727 39.4651 167.403 39.2984 166.999 39.1317C166.676 39.0483 166.353 39.0483 166.03 39.1317C165.787 39.215 165.626 39.2984 165.383 39.4651L165.141 39.7153C164.818 39.9654 164.494 40.2988 164.09 40.5489C163.767 40.799 163.363 41.049 163.04 41.2158C162.636 41.3825 162.232 41.5492 161.747 41.6325C161.262 41.7159 160.777 41.7992 160.212 41.7992H160.131C159.242 41.7992 158.272 41.5492 157.464 41.2158C156.575 40.799 155.767 40.2155 155.121 39.5485C154.393 38.7983 153.909 37.9647 153.505 37.0478C153.101 36.1309 152.939 35.1305 152.939 34.0468C152.939 33.0466 153.181 31.9628 153.585 31.0459C153.989 30.1289 154.555 29.212 155.202 28.545C155.848 27.7948 156.656 27.2113 157.545 26.7946C158.353 26.3778 159.323 26.1277 160.212 26.1277C160.696 26.1277 161.1 26.2111 161.585 26.2944C162.474 26.4611 163.363 26.8779 164.09 27.378C164.413 27.6281 164.737 27.8782 165.06 28.2116C165.464 28.6284 165.949 28.8786 166.434 28.8786C166.757 28.8786 167.242 28.7117 167.646 28.1282L169.019 26.2944C169.262 25.961 169.262 25.5442 169.262 25.2106C169.262 24.9606 169.1 24.6271 168.939 24.3771C168.777 24.2104 168.616 24.0436 168.454 23.8769L168.131 23.6269C167.646 23.2101 167.08 22.8767 166.515 22.5432C165.868 22.2098 165.302 21.8764 164.656 21.6262C164.01 21.3761 163.282 21.2094 162.555 21.0427C161.828 20.876 161.1 20.7926 160.373 20.876C159.242 20.876 158.111 21.0427 156.979 21.3761C155.929 21.7097 154.878 22.1265 153.909 22.71C151.969 23.8769 150.434 25.5442 149.222 27.4614C148.656 28.4617 148.171 29.5455 147.848 30.6291C147.202 32.9632 147.202 35.3805 147.848 37.6313C148.171 38.7149 148.575 39.7987 149.222 40.799C150.353 42.7162 151.969 44.3834 153.909 45.5504C154.878 46.1339 155.929 46.634 156.979 46.8843C158.111 47.2177 159.161 47.3844 160.292 47.3844H160.373C161.1 47.3844 161.908 47.3011 162.636 47.1343C163.363 46.9676 164.09 46.8009 164.737 46.5507C165.383 46.3006 166.03 45.9672 166.676 45.5504C167.242 45.217 167.808 44.8002 168.373 44.3834C168.616 44.2167 168.858 43.9667 169.019 43.7166C169.181 43.4665 169.343 43.2165 169.424 42.9662C169.504 42.6328 169.504 42.2994 169.424 42.0493L169.262 41.7159Z" fill="#7265E3"/>
<path d="M193.51 21.1253H191.731C191.49 21.1253 191.248 21.1253 191.086 21.2086C190.844 21.292 190.601 21.4587 190.44 21.6254C190.277 21.7921 190.116 22.0422 190.036 22.2924C189.954 22.5425 189.954 22.7926 189.954 22.9593V23.0426C189.226 22.5425 188.5 22.0424 187.692 21.7088C186.156 21.0419 184.54 20.7085 182.843 20.7085C181.711 20.7085 180.581 20.8752 179.449 21.2086C178.398 21.5421 177.348 21.9588 176.379 22.5425C175.409 23.126 174.52 23.7928 173.792 24.6264C172.984 25.4599 172.338 26.2937 171.772 27.2939C171.207 28.2942 170.803 29.378 170.479 30.4616C169.832 32.7957 169.832 35.2131 170.479 37.4638C171.368 40.7982 173.551 43.6325 176.379 45.3829C177.348 45.9664 178.398 46.4666 179.449 46.7166C180.581 47.0502 181.711 47.2169 182.843 47.2169C182.925 47.2169 182.925 47.2169 183.004 47.2169C184.62 47.2169 186.237 46.8833 187.772 46.2165C188.581 45.8831 189.308 45.3829 190.036 44.8828V45.0495C190.036 45.2996 190.036 45.5497 190.197 45.7997C190.277 46.0498 190.44 46.2165 190.601 46.3832C190.762 46.5499 191.005 46.7166 191.248 46.8C191.49 46.8833 191.731 46.9667 191.894 46.8833H193.753C194.236 46.8833 194.64 46.7166 194.964 46.3832C195.126 46.2165 195.287 45.9664 195.368 45.7164C195.45 45.4663 195.53 45.2162 195.53 45.0495V22.9593C195.53 22.2924 195.287 21.8755 195.046 21.6254C194.64 21.3753 194.236 21.1253 193.51 21.1253ZM190.116 33.8794C190.116 34.8796 189.954 35.8799 189.55 36.8803C189.146 37.7972 188.661 38.7142 187.935 39.381C187.288 40.1314 186.48 40.7149 185.591 41.1316C184.702 41.5484 183.732 41.7985 182.762 41.7985C181.793 41.7985 180.823 41.5484 180.016 41.1316C179.126 40.7149 178.398 40.1314 177.672 39.381C177.025 38.6308 176.46 37.7972 176.136 36.8803C175.409 34.963 175.409 32.8791 176.136 30.9617C176.54 30.0448 177.025 29.2113 177.672 28.4609C178.318 27.7107 179.126 27.2106 180.016 26.7938C180.903 26.377 181.874 26.127 182.762 26.127C183.732 26.127 184.702 26.377 185.591 26.7938C186.48 27.2106 187.288 27.7941 187.935 28.4609C188.581 29.2113 189.146 30.0448 189.55 30.9617C189.873 31.8787 190.116 32.8791 190.116 33.8794Z" fill="#7265E3"/>
<path d="M214.597 24.6275C214.597 24.3774 214.516 24.1274 214.434 23.8773C214.354 23.6272 214.193 23.4605 214.03 23.2938C213.869 23.1271 213.708 22.9604 213.465 22.877C212.98 22.5436 212.496 22.2102 211.931 21.8768C211.445 21.6267 210.96 21.3766 210.395 21.2099C209.83 21.043 209.263 20.9597 208.698 20.8763C208.051 20.793 207.404 20.793 206.839 20.793C206.111 20.793 205.464 20.8763 204.82 21.1266C204.253 21.3766 203.769 21.6267 203.284 21.9601C203.202 22.0435 203.122 22.1268 203.041 22.1268C202.961 21.9601 202.88 21.7934 202.718 21.6267C202.555 21.46 202.314 21.2933 202.072 21.2099C201.829 21.1266 201.586 21.043 201.425 21.1266H199.567C199.324 21.1266 199.081 21.1266 198.92 21.2933C198.677 21.3766 198.516 21.5433 198.355 21.6267C198.192 21.7934 198.031 22.0435 197.951 22.2935C197.87 22.5436 197.788 22.7937 197.788 22.9604V45.0506C197.788 46.1344 198.516 46.8846 199.567 46.8846H201.425C201.505 46.8846 201.505 46.8846 201.586 46.8846C201.748 46.8846 201.99 46.8846 202.152 46.8013C202.394 46.7179 202.637 46.5512 202.798 46.3845C202.961 46.2178 203.122 45.9676 203.202 45.7175C203.284 45.4674 203.284 45.2174 203.284 45.0506V30.4627C203.284 29.7959 203.365 29.2124 203.606 28.6289C203.769 28.1286 204.091 27.7118 204.416 27.295C204.738 26.9616 205.142 26.7116 205.546 26.4615C205.95 26.2948 206.435 26.2114 206.921 26.2114C207.566 26.2114 208.212 26.2948 208.859 26.5448C209.587 26.7949 210.234 27.1283 210.799 27.5451L211.041 27.7118C211.284 27.9619 211.607 28.0452 212.01 28.0452C212.253 28.0452 212.496 27.9619 212.657 27.7952C212.9 27.6285 213.061 27.4618 213.222 27.295L214.354 25.4612C214.516 25.2112 214.597 24.9611 214.597 24.6275Z" fill="#7265E3"/>
<path d="M239.164 29.8781C238.76 28.4609 238.193 27.0439 237.306 25.8769C236.659 25.0432 236.012 24.293 235.204 23.6261C234.395 22.9593 233.587 22.4591 232.699 22.0424C231.81 21.6254 230.921 21.292 229.952 21.0419C228.981 20.7919 228.012 20.7085 227.043 20.7085H226.961C225.831 20.7085 224.617 20.8752 223.487 21.2086C222.437 21.5421 221.386 21.9588 220.415 22.5425C219.446 23.126 218.557 23.7928 217.83 24.6264C216.294 26.2937 215.164 28.2942 214.597 30.4616C214.275 31.6286 214.193 32.7957 214.193 33.9627C214.193 35.1297 214.356 36.3802 214.679 37.4638C215.001 38.5474 215.407 39.6311 215.972 40.6315C216.537 41.6318 217.265 42.5487 217.992 43.2989C218.799 44.1326 219.689 44.7995 220.578 45.3829C221.547 45.9664 222.598 46.4666 223.648 46.7166C224.78 47.0502 225.831 47.2169 226.961 47.2169C226.961 47.2169 226.961 47.2169 227.043 47.2169C227.851 47.2169 228.577 47.1336 229.305 46.9669C230.031 46.8 230.76 46.6333 231.406 46.3832C232.053 46.1331 232.699 45.7997 233.346 45.3829C233.911 45.0495 234.476 44.6327 235.042 44.216C235.284 43.9659 235.608 43.7158 235.77 43.4658C236.012 43.2155 236.092 42.8821 236.092 42.382C236.092 42.1319 236.012 41.9652 235.931 41.7151C235.851 41.5484 235.77 41.3817 235.688 41.2984L235.445 40.9649C235.366 40.8816 235.284 40.7149 235.123 40.5482L234.558 39.7978C234.476 39.6311 234.315 39.4644 234.154 39.381C233.991 39.2143 233.75 39.1309 233.507 39.0476C233.265 38.9642 233.022 38.9642 232.861 39.0476C232.618 39.1309 232.457 39.2143 232.296 39.2976C232.133 39.381 231.971 39.5477 231.89 39.6311C231.567 39.8813 231.245 40.2147 230.841 40.4648C230.517 40.7149 230.113 40.9649 229.79 41.1316C229.387 41.2984 228.981 41.4651 228.497 41.5484C228.012 41.6318 227.447 41.7151 226.961 41.7151H226.881C226.072 41.7151 225.264 41.5484 224.538 41.215C223.73 40.8816 223.083 40.4648 222.437 39.8813C221.79 39.2976 221.225 38.6308 220.821 37.8806C220.578 37.4638 220.335 37.047 220.174 36.6303H237.951C239.001 36.6303 239.729 35.8799 239.729 34.7963C239.811 33.2125 239.568 31.5452 239.164 29.8781ZM234.072 31.2118H220.174C220.415 30.6283 220.658 30.1282 221.062 29.5447C221.629 28.711 222.355 27.9608 223.163 27.3773C223.73 26.9605 224.376 26.7104 225.103 26.5437C225.749 26.377 226.476 26.2937 227.204 26.2937C228.093 26.2937 228.901 26.4604 229.709 26.7104C230.517 26.9605 231.245 27.3773 231.89 27.9608C232.537 28.4609 233.103 29.1279 233.507 29.8781C233.669 30.2949 233.911 30.7117 234.072 31.2118Z" fill="#7265E3"/>
<path d="M144.052 40.6334C143.486 40.3832 142.84 40.2999 142.193 40.4667C141.547 40.6334 140.981 40.8835 140.496 41.3836C140.012 41.8838 139.688 42.4673 139.607 43.1341C139.446 44.0512 139.607 44.8848 140.092 45.635C140.577 46.3852 141.304 46.8853 142.113 47.052C142.355 47.1354 142.517 47.1353 142.759 47.1353C143.163 47.1353 143.567 47.052 143.971 46.8853C144.537 46.6352 145.102 46.2184 145.426 45.635C145.749 45.0515 145.991 44.468 145.991 43.801C145.991 43.1341 145.83 42.4673 145.426 41.9671C145.183 41.3003 144.698 40.8835 144.052 40.6334Z" fill="#2D3142"/>
</svg>
