<svg width="102" height="123" viewBox="0 0 102 123" fill="none" xmlns="http://www.w3.org/2000/svg">
<path d="M50.7946 121.975L13.5723 102.09V43.8699L50.7946 25.0098L88.0156 43.8699V101.886L50.7946 121.975ZM15.8307 100.654L50.7946 119.309L85.7584 100.654V45.3054L50.7946 27.4702L15.8307 45.3054V100.657V100.654Z" fill="#FF0000"/>
<path d="M14.8066 44.6898L50.7948 26.2402L86.7817 44.6898V101.27L50.7948 120.541L14.8066 101.27V44.6898Z" fill="#232834"/>
<path d="M50.7948 27.4705L85.7587 45.3056V100.656L50.7948 119.311L15.831 100.656V45.3056L50.7948 27.4705ZM50.7948 26.2402L14.8066 44.6898V101.475L50.7948 120.746L86.7817 101.475V44.6898L50.7948 26.2402Z" fill="white"/>
<path d="M60.8704 108.445L61.8987 97.1703L60.8704 98.4005L61.0764 95.527H60.8704L58.4023 98.3967V97.9861L58.1964 98.3967L56.7564 96.9612C56.7564 97.1664 56.5505 97.1664 56.3446 97.3717L56.1387 97.5769C55.9328 97.7822 55.9328 97.9874 55.7269 98.1914L55.1105 98.8059L54.9046 99.0111C54.7749 99.2322 54.5963 99.421 54.3825 99.563C54.1686 99.7051 53.9251 99.7966 53.6705 99.8308L51.2023 101.676L51.4082 100.651L50.38 100.856L49.5642 102.911L48.5282 99.2203L48.1164 99.8347L47.7046 99.015L46.8823 99.4255L47.2941 97.7861C46.763 97.6204 46.3194 97.2519 46.06 96.7611L44.4154 97.9913L43.5931 99.4268L43.1813 95.7374V96.1479L40.9229 94.3006L39.8947 98.1953L38.6606 93.8901H38.2488L38.4547 99.2203L37.8383 97.7848V98.1953L36.6042 95.3256L36.1924 95.9401L35.5786 93.0742L30.4376 83.4389C29.7664 82.1246 29.216 80.7523 28.793 79.339L27.7648 78.1088L27.1484 77.4943L26.3261 82.0047L24.8861 76.8798C24.8433 77.3156 24.7026 77.7361 24.4743 78.1101L24.0626 78.7245L21.5931 86.1034L21.3872 82.8232L19.9472 85.0706L20.1531 82.4062L18.0967 89.3771L19.1249 74.4116L18.919 74.8221L19.3308 71.7472L19.5367 70.3117C19.5417 69.1902 19.7506 68.0788 20.1531 67.0315V66.8302L20.359 65.8052C20.5649 64.9855 20.5649 64.1657 20.7708 63.3447C20.7708 63.1395 20.9767 62.9342 20.9767 62.7302V62.525C21.0515 61.7152 21.3347 60.9384 21.799 60.2698C22.0049 60.0645 22.2108 59.6553 22.4154 59.4501H22.0036C22.003 59.423 22.008 59.396 22.0182 59.3709C22.0283 59.3457 22.0435 59.3229 22.0627 59.3037C22.0819 59.2846 22.1048 59.2695 22.1301 59.2593C22.1553 59.2492 22.1823 59.2443 22.2095 59.2448C22.4154 59.0395 22.4154 58.6303 22.6213 58.4251L21.5931 58.8356L23.6495 55.9659V55.7606L23.8554 55.5554C24.0613 55.3501 24.0613 55.1449 24.2672 54.9409L24.4731 54.5304C23.6553 52.2513 22.6225 50.0547 21.3885 47.97C21.0704 47.518 20.7951 47.0374 20.5662 46.5345C20.4242 46.0548 20.3875 45.5502 20.4586 45.055C20.5296 44.5598 20.7068 44.0857 20.978 43.6649C21.2674 43.3311 21.6159 43.0532 22.0062 42.8451C22.9265 42.3493 23.89 41.9375 24.8849 41.6149H25.2967C25.4126 40.7504 25.6916 39.9156 26.1189 39.1544C26.1405 38.9988 26.2128 38.8545 26.3248 38.7439C26.3248 38.5387 26.5307 38.1295 26.5307 37.9242C26.6786 37.3579 26.8852 36.8085 27.1471 36.2848C27.5944 35.4648 28.1473 34.7066 28.7917 34.0295L29.4081 33.4151C29.6393 32.9684 29.7792 32.4805 29.8199 31.9796C30.2583 30.1124 31.1007 28.3633 32.2881 26.8547C34.1848 24.7418 36.4061 22.9426 38.8691 21.5245C39.2809 21.114 39.8973 20.9101 40.3091 20.4996C40.5354 20.2832 40.822 20.1401 41.1314 20.0891C41.3373 19.8838 41.9537 19.6786 42.1596 19.4746V17.6299C42.3655 16.8102 42.5714 15.7852 42.776 14.9655V14.555C42.776 14.3497 42.9819 13.9405 42.9819 13.7352V13.9418L43.1878 13.7365C43.1494 13.1038 43.0104 12.4811 42.776 11.8918L37.6324 0L45.0318 8.19983L47.9105 10.0445C48.4196 10.344 48.8442 10.7673 49.1446 11.2748V11.48H49.3505C50.9019 12.3274 52.2935 13.4373 53.4633 14.7602L53.6692 14.9655C53.8751 15.376 54.2856 15.5799 54.4915 15.7852C54.6974 15.9904 55.1079 15.9904 55.5197 16.1957C55.7256 16.1957 55.7256 16.1957 55.9315 16.4009C58.5681 17.4397 61.057 18.8181 63.3348 20.5009L65.597 22.1403C68.4757 24.1903 72.3839 26.8547 73.4121 31.5639V31.9744C73.4121 32.3849 73.618 32.5889 73.618 32.7942C73.8239 32.9994 74.0298 33.4086 74.4403 33.8191L75.2626 34.6389C75.6778 35.1367 76.0237 35.6882 76.2908 36.2783C76.2908 36.4836 76.4967 36.4836 76.4967 36.6888C76.4967 36.8941 76.7026 36.8941 76.7026 37.0993C76.9453 37.5611 77.1514 38.041 77.319 38.5348C77.5545 39.1948 77.6932 39.8853 77.7308 40.5848V41.6097H77.9367C78.9503 41.8807 79.9197 42.295 80.8154 42.84C81.0213 43.0452 81.4318 43.2505 81.8436 43.6597C82.1606 44.059 82.3658 44.535 82.4381 45.0391C82.5104 45.5432 82.4474 46.0575 82.2554 46.5294C82.0495 47.1438 81.8436 47.7596 81.4331 47.9649C80.2706 49.7704 79.3055 51.695 78.5544 53.7055C78.7257 54.2642 78.9315 54.8117 79.1708 55.345V55.5502C79.7242 56.4183 80.0755 57.3988 80.199 58.4199C80.5931 58.8979 80.8742 59.4583 81.0213 60.0594C81.38 60.6332 81.6567 61.2541 81.8436 61.9041V62.929C81.8287 62.7714 81.7553 62.625 81.6377 62.5185L81.8436 63.3383C82.6743 64.3868 83.1109 65.692 83.0777 67.0277V67.2329C83.2836 67.6434 83.2836 67.8474 83.4895 68.2579C83.457 68.6786 83.5276 69.1008 83.6954 69.4881V70.1026L84.9295 79.7379L83.4921 77.2852L82.8757 78.9246L82.6698 79.7444V79.5391L81.8462 81.5852L81.6403 84.0508L78.5557 77.901C78.3498 77.6957 78.3498 77.4904 78.3498 77.0812L81.4357 92.0415L75.4724 79.947L75.2665 80.5615V83.6364L74.2383 82.6179L73.6219 84.0534V83.6429L72.5937 85.6929L72.3878 84.4626L70.5425 86.51V86.3047L69.3019 88.5561L67.4514 94.706L66.6291 92.0415L66.2173 92.2468L60.8704 108.445ZM51.0003 99.0124L51.4121 99.4229C51.2062 99.2177 51.0003 99.0124 51.0003 98.8084V99.0124ZM57.5813 95.323H57.7872V95.1178H56.9649V95.323C57.1708 95.1178 57.3767 95.323 57.5813 95.323V94.9125V95.323ZM51.4121 93.273C51.5237 93.2593 51.6369 93.2707 51.7436 93.3062C51.8502 93.3417 51.9475 93.4005 52.0285 93.4783C52.1846 93.4998 52.3294 93.5719 52.4403 93.6836C52.594 93.3752 52.8029 93.0974 53.0567 92.8638C53.2626 92.6586 53.4685 92.6586 53.6731 92.4533L54.4954 90.8139L55.1118 92.0441C55.487 91.8166 55.9088 91.6763 56.3459 91.6336L57.1682 91.0191L57.3741 91.4296H57.58L59.4305 89.3797L59.8423 90.1994H60.8704C60.8699 90.1723 60.8749 90.1454 60.885 90.1202C60.8952 90.0951 60.9104 90.0723 60.9296 90.0531C60.9488 90.0339 60.9717 90.0188 60.9969 90.0087C61.0222 89.9986 61.0492 89.9936 61.0764 89.9941C61.0764 89.5836 61.2822 89.3797 61.2822 89.1744C61.491 88.7854 61.7697 88.438 62.1045 88.1495C62.1512 87.8997 62.2481 87.6619 62.3895 87.4505C62.5308 87.2391 62.7136 87.0583 62.9268 86.9192C63.1477 86.3646 63.5005 85.872 63.955 85.4837C64.066 85.3721 64.2107 85.2999 64.3668 85.2785V84.868C64.363 84.4725 64.4787 84.0851 64.6988 83.7561C64.9189 83.4271 65.2333 83.1717 65.6009 83.0233H65.8068C65.8138 82.7385 65.8787 82.458 65.9975 82.1989C66.1163 81.9398 66.2866 81.7075 66.4981 81.5158C66.7095 81.3242 66.9578 81.1773 67.2278 81.0841C67.4979 80.9908 67.7841 80.9531 68.0691 80.9733H68.275C68.2955 80.7677 68.3614 80.5691 68.4679 80.3919C68.5745 80.2147 68.7191 80.0632 68.8914 79.9483C69.0973 79.7431 69.3032 79.5378 69.5078 79.5378V78.9259C69.4832 78.4475 69.6087 77.9733 69.8667 77.5692C70.1248 77.1651 70.5026 76.851 70.9478 76.6707C71.1202 76.2015 71.4021 75.7798 71.7701 75.4405H71.976C72.0282 74.8483 72.2413 74.2815 72.5924 73.801C72.7633 73.5733 72.9793 73.383 73.227 73.242C73.4747 73.101 73.7488 73.0123 74.0324 72.9813L74.4442 72.3668C74.3819 71.724 74.5261 71.078 74.856 70.5221C75.1153 70.0313 75.559 69.6628 76.0901 69.4972C76.2518 69.1311 76.5452 68.8387 76.9124 68.6774C77.2876 68.4499 77.7094 68.3096 78.1465 68.2669V67.242C77.9406 67.0367 77.7347 66.6275 77.5301 66.4222C77.2083 66.0166 77.0603 65.5006 77.1183 64.9867C77.1611 64.551 77.3019 64.1305 77.5301 63.7565C77.1714 63.2035 76.9593 62.5688 76.9137 61.9118V61.2973C76.7078 61.2973 76.7078 61.0921 76.5019 60.8868C76.1814 60.6135 75.9373 60.2622 75.7932 59.867C75.6491 59.4719 75.61 59.0463 75.6796 58.6316V58.4264C75.2463 57.895 74.9625 57.2584 74.8573 56.5817V55.7619L74.4455 55.3514C74.4455 55.1462 74.2396 55.1462 74.2396 54.9409L72.3891 53.3015L74.6514 52.687C75.538 50.2704 76.6392 47.9375 77.9419 45.7161C77.5301 45.5109 77.1196 45.5109 76.7078 45.3056C76.1167 45.072 75.492 44.9334 74.8573 44.8951L73.0029 44.4859L73.4147 42.6412C73.4147 42.4359 73.6206 42.2307 73.6206 42.0267V41.8253V41.2057C73.6206 40.7952 73.4147 40.386 73.4147 39.9755C73.4147 39.7702 73.2088 39.5649 73.0029 39.361C72.797 39.157 72.797 38.9505 72.5911 38.7465C72.5696 38.5908 72.4972 38.4466 72.3852 38.336C72.1793 37.9255 72.1793 37.7215 71.9734 37.5163L71.357 36.9018C70.6498 36.2791 70.0884 35.5093 69.7124 34.6466C69.5024 34.1209 69.3639 33.5695 69.3006 33.0071V32.5954C68.6842 29.5204 66.216 27.6757 63.1315 25.6245L60.8692 23.985C58.9129 22.4858 56.7701 21.2457 54.4941 20.2956H54.2908C53.6388 20.1093 53.0159 19.8334 52.4403 19.4759C51.7941 19.0366 51.2363 18.4806 50.7957 17.8364L50.5898 17.6312C50.0943 17.0346 49.5437 16.4857 48.9452 15.9917L48.5282 21.7298L47.9118 20.4996V21.114L47.2954 20.4996V25.6245L45.4449 20.7048C45.4454 20.7319 45.4405 20.7589 45.4303 20.784C45.4201 20.8091 45.405 20.832 45.3858 20.8511C45.3666 20.8703 45.3436 20.8854 45.3184 20.8955C45.2932 20.9057 45.2662 20.9106 45.239 20.9101C44.6713 21.9738 43.7168 22.7807 42.5714 23.1653C42.3655 23.3705 42.1596 23.3705 41.955 23.5758C41.5432 23.9863 40.9268 24.1903 40.515 24.6008C38.4503 25.822 36.579 27.342 34.9622 29.1112C34.1734 30.0673 33.6113 31.1886 33.3176 32.3914C33.1431 33.5942 32.6456 34.7276 31.8776 35.6716L31.0553 36.4913C30.7205 36.7798 30.4418 37.1273 30.233 37.5163C30.0463 37.8234 29.9735 38.1861 30.0271 38.5413C29.8212 38.9518 29.8212 39.361 29.6153 39.7715C29.4094 39.9767 29.4094 40.386 29.2035 40.5912C28.9976 40.7965 28.9976 41.2057 28.7917 41.4109C28.9409 41.7315 29.0115 42.0828 28.9976 42.4359L29.2035 44.2806L27.353 44.6911C26.7366 44.8964 25.9131 45.1016 25.2967 45.3056C24.8849 45.5109 24.4743 45.5109 24.0626 45.7161C25.4857 47.8723 26.5936 50.2195 27.353 52.687L29.2035 53.3015L28.3812 54.5317V55.1462C28.2977 55.4628 28.1432 55.7565 27.9295 56.0051C27.7157 56.2537 27.4483 56.4509 27.1471 56.5817C27.1797 57.0023 27.109 57.4245 26.9412 57.8119C26.7544 58.4619 26.4776 59.0827 26.1189 59.6566C26.4009 60.1549 26.4749 60.7438 26.3248 61.296C26.192 61.8349 25.9378 62.3366 25.5815 62.7629C25.2252 63.1892 24.7762 63.529 24.2685 63.7565C24.487 64.0048 24.6393 64.3039 24.7113 64.6263C24.7832 64.9487 24.7726 65.284 24.6802 65.6012C24.4436 66.2589 24.0135 66.8303 23.4462 67.2407V67.6512H23.858L24.8861 66.6262L25.2979 67.6512C25.7254 67.7599 26.1105 67.9937 26.4036 68.3225C26.6967 68.6512 26.8844 69.0599 26.9425 69.4959C27.0459 70.1753 27.0459 70.8664 26.9425 71.5458H27.1484C27.3543 71.5458 27.5602 71.7511 27.7648 71.7511C28.093 71.8753 28.391 72.0675 28.6392 72.3149C28.8874 72.5624 29.0802 72.8594 29.2048 73.1866V73.3918H29.6166C30.0599 73.5738 30.4355 73.8885 30.6916 74.2925C30.9477 74.6965 31.0717 75.1698 31.0463 75.647C31.2522 76.2615 31.2522 76.8773 31.4581 77.4917C31.664 77.4917 31.664 77.4917 31.8699 77.697C32.2451 77.9136 32.5684 78.2093 32.8171 78.5633C33.0658 78.9174 33.234 79.3214 33.3099 79.7469C33.9388 80.2742 34.3731 80.9956 34.5439 81.7969C34.7498 82.2074 34.7498 82.4114 34.9557 82.8219C35.1616 82.8219 35.1616 83.0271 35.3675 83.2324C35.7525 83.3798 36.09 83.6287 36.3441 83.9525C36.5981 84.2762 36.7592 84.6627 36.8101 85.0706C37.0276 85.2372 37.1986 85.4567 37.3065 85.7081C37.4145 85.9594 37.4558 86.2343 37.4265 86.5061L37.6324 87.7364C37.8383 87.7364 37.8383 87.5311 38.0442 87.5311C38.473 87.2971 38.9673 87.2105 39.4504 87.2847C39.9336 87.3589 40.3787 87.5898 40.717 87.9416L40.9229 88.1469C41.3347 88.1469 41.5393 88.3521 41.9511 88.5574L42.157 88.7626C42.4651 88.5765 42.8289 88.5039 43.1852 88.5574C43.6493 88.6062 44.0896 88.7866 44.454 89.0772C44.8185 89.3677 45.0918 89.7563 45.2416 90.1968C45.4475 90.4021 45.858 90.6073 45.858 90.8113C46.0639 91.0165 46.4744 91.0165 46.6803 91.4258C47.0921 91.4258 47.2967 91.631 47.7085 91.8363C47.9144 91.8363 47.9144 92.0415 48.1203 92.2468C48.6492 92.042 49.2359 92.042 49.7649 92.2468C50.1886 92.4001 50.5499 92.6881 50.7931 93.0665C50.9823 93.178 51.1926 93.2492 51.4108 93.2756L51.4121 93.273ZM38.039 92.0415H38.6554L38.4495 91.8363H38.6554V91.4258H38.039V91.8363H37.8331L38.039 92.0415ZM37.8331 92.0415H38.039V91.8363H37.8331V92.0415ZM39.0672 91.4258C39.0944 91.4252 39.1214 91.4302 39.1467 91.4403C39.1719 91.4504 39.1948 91.4655 39.214 91.4847C39.2332 91.5039 39.2484 91.5267 39.2585 91.5519C39.2687 91.577 39.2737 91.6039 39.2731 91.631V91.4258H39.0672ZM39.479 91.2205C39.4785 91.2476 39.4835 91.2745 39.4936 91.2997C39.5038 91.3248 39.5189 91.3476 39.5382 91.3668C39.5574 91.386 39.5803 91.4011 39.6055 91.4112C39.6307 91.4213 39.6578 91.4263 39.6849 91.4258C39.6855 91.3987 39.6805 91.3717 39.6703 91.3466C39.6602 91.3215 39.645 91.2986 39.6258 91.2795C39.6066 91.2603 39.5837 91.2452 39.5584 91.2351C39.5332 91.2249 39.5062 91.22 39.479 91.2205Z" fill="#FF0000"/>
<path d="M62.721 100.04L63.3374 94.5047L62.3092 95.5296L62.5151 94.0942C62.3092 94.2994 62.1034 94.2994 61.8988 94.5047L60.2542 94.9152L59.0201 96.3507L58.6083 94.9152V95.1204L57.786 96.7599L56.7578 95.7349L56.5519 95.5296L56.346 95.7349L55.7296 96.9651C55.6186 97.0768 55.4739 97.1489 55.3178 97.1704C55.3105 97.2769 55.2648 97.3771 55.1891 97.4526C55.1134 97.5281 55.0128 97.5737 54.906 97.5809C54.7001 97.7862 54.4942 97.9914 54.2896 97.9914L53.8752 98.1992C53.767 98.3774 53.6168 98.5266 53.4376 98.6337C53.2584 98.7408 53.0556 98.8026 52.847 98.8137L52.2306 99.2242V98.8137C52.0247 99.019 51.8188 99.019 51.6142 99.2242L50.586 99.4295L50.3801 98.4045C50.3801 97.994 50.1742 97.5848 50.1742 97.1743L49.146 99.6347L48.7342 97.9953H48.1178C48.0907 97.995 48.064 97.9892 48.0391 97.9784C48.0143 97.9675 47.9919 97.9518 47.9733 97.9322C47.9547 97.9126 47.9403 97.8894 47.9308 97.8641C47.9214 97.8388 47.9172 97.8118 47.9184 97.7849L47.7125 97.9901L47.9184 97.3756L47.504 97.1665C47.1444 97.0068 46.8376 96.7487 46.6192 96.4222C46.4007 96.0957 46.2796 95.7141 46.2699 95.3218L45.0358 96.3468L45.2417 95.1166C45.0358 95.1166 45.0358 94.9113 44.8299 94.9113L44.2135 96.3468L43.8017 93.8863C43.4345 93.7251 43.1411 93.4327 42.9794 93.0666C42.5676 93.2719 42.363 93.0666 42.1571 93.0666H41.9512L41.7453 93.2719V93.8863L40.1007 92.4508L39.6889 94.2955L39.2771 92.6561H39.0712L38.8653 93.0666L37.8371 92.8613C37.6312 92.8613 37.2207 92.6561 37.2207 92.4508L37.0148 92.8613V93.8863L36.8089 93.2719L36.603 93.4771L36.3971 92.2469L35.7807 90.8114C35.5748 90.6061 35.5748 90.4009 35.3689 89.9917L34.9571 88.9667C34.9356 88.811 34.8632 88.6667 34.7512 88.5562L34.1348 87.1207V86.9154L33.9289 87.1207L34.3407 88.9654L31.2574 83.2247C30.5862 81.9104 30.0358 80.5381 29.6128 79.1248L28.3787 77.6893L26.94 76.4656C26.7341 76.2603 26.3236 76.0551 26.1177 75.6458L25.9118 77.2853L24.6778 73.1854C24.4719 74.0051 24.266 74.6209 24.0613 75.2353L23.8555 75.8498C23.9178 76.4927 23.7736 77.1387 23.4437 77.6945L23.0319 78.5142L22.4155 80.5642V79.7393L21.3873 81.3788L21.5919 77.2866C21.6167 76.5293 21.5476 75.7718 21.386 75.0314L19.9473 79.951L20.5637 70.3157C20.5996 69.2797 20.7375 68.2498 20.9755 67.2408V67.0355L21.1814 66.0105C21.3873 65.1908 21.3873 64.3711 21.5932 63.7553C21.5932 63.5501 21.7991 63.3448 21.7991 62.9356V62.5251C21.8397 61.9304 22.054 61.3605 22.4155 60.8856C22.6242 60.4966 22.903 60.1492 23.2378 59.8607L22.826 59.6554C22.8254 59.6283 22.8304 59.6014 22.8406 59.5762C22.8507 59.5511 22.8659 59.5283 22.8851 59.5091C22.9043 59.4899 22.9272 59.4748 22.9524 59.4647C22.9777 59.4546 23.0047 59.4496 23.0319 59.4501C23.2378 59.2449 23.2378 58.8357 23.4437 58.6304C23.6496 58.016 23.8555 57.6054 24.0601 56.991C24.0601 56.7857 24.266 56.7857 24.266 56.5805H24.0601L24.266 56.17V55.7595C24.4719 55.5542 24.4719 55.3489 24.6778 55.145L25.2941 54.3253C25.2941 54.12 25.0883 54.12 25.0883 53.9147C24.3279 51.5118 23.2193 49.2325 21.7978 47.1491L21.1814 45.9189C21.0893 45.5685 21.0785 45.2017 21.1499 44.8465C21.2212 44.4913 21.3728 44.157 21.5932 43.8689L22.2096 43.2545C22.9934 42.8264 23.8208 42.4828 24.6778 42.2295C25.0895 42.0242 25.5 42.0242 25.7059 41.819C25.6605 40.7988 25.9491 39.7916 26.5282 38.9493C26.6063 38.8686 26.6653 38.7716 26.7009 38.6653C26.7365 38.559 26.7479 38.4461 26.7341 38.3348C26.9209 38.0277 26.9937 37.665 26.94 37.3098C27.1459 36.8993 27.1459 36.2849 27.3518 35.8744C27.7279 35.1854 28.2143 34.5623 28.7918 34.0296L29.4082 33.4152C29.8037 32.8615 30.0834 32.2341 30.2305 31.5705C30.5991 29.8425 31.3745 28.2266 32.4928 26.8561C34.3214 24.8106 36.4752 23.0792 38.8679 21.7312C39.2797 21.3207 39.8961 21.1167 40.3079 20.7062C40.5138 20.501 40.7197 20.501 41.1302 20.2957C41.7148 20.1307 42.2238 19.7684 42.5702 19.2707C42.7761 19.0655 42.5702 18.6563 42.5702 18.2458V17.0155C42.7761 16.1958 42.982 15.3761 43.1866 14.3511V13.9406C43.1866 13.7353 43.3925 13.3261 43.3925 13.1209V12.9156C43.3925 12.7104 43.3925 12.5051 43.5984 12.5051V12.9156L44.0102 12.7104C43.9949 12.0478 43.7801 11.4051 43.3938 10.8657L40.9256 5.125L45.2443 9.83939C45.4502 10.0446 45.6561 10.2499 45.6561 10.4539V9.63413L47.0961 10.4539C47.5079 10.6591 47.7125 11.0683 47.9184 11.2736C47.9184 11.4788 48.1243 11.4788 48.1243 11.6841C48.2352 11.7957 48.3799 11.8679 48.5361 11.8893C49.9612 12.6607 51.2191 13.7058 52.2371 14.9643L52.443 15.1695C52.8548 15.58 53.0594 15.9893 53.4712 16.1945L54.7052 16.809C54.7324 16.8085 54.7594 16.8134 54.7847 16.8235C54.8099 16.8337 54.8328 16.8488 54.852 16.8679C54.8712 16.8871 54.8864 16.9099 54.8966 16.9351C54.9067 16.9602 54.9117 16.9871 54.9112 17.0142C57.4325 17.9389 59.7923 19.2532 61.9039 20.9089L64.161 22.5522C66.8338 24.3969 70.5361 27.0626 71.5643 31.3678V31.7783C71.6127 32.1237 71.6814 32.466 71.7702 32.8033C72.0501 33.2617 72.3966 33.6763 72.7984 34.0335C73.0043 34.2388 73.4148 34.444 73.6207 34.8532C73.9707 35.2844 74.2484 35.7691 74.443 36.2887C74.443 36.494 74.6489 36.494 74.6489 36.6992C74.6489 36.9045 74.8548 36.9045 74.8548 37.1098L75.4712 38.34C75.6771 38.9545 75.6771 39.5702 75.883 40.1847V40.5952C75.9926 40.998 75.9926 41.4226 75.883 41.8254C76.2948 41.8254 76.4994 42.0307 76.9112 42.0307C77.7681 42.284 78.5955 42.6276 79.3794 43.0557C79.5853 43.2609 79.7912 43.2609 79.9958 43.6701C80.2161 43.9582 80.3677 44.2925 80.4391 44.6477C80.5105 45.0029 80.4997 45.3697 80.4076 45.7201L79.7912 46.9503C78.5585 48.9639 77.5254 51.0923 76.7066 53.3054C77.0929 53.8449 77.3077 54.4876 77.323 55.1501V55.5607C77.8731 56.3528 78.2252 57.2646 78.3499 58.2199V58.6304C78.5508 58.8109 78.7099 59.0328 78.8164 59.2806C78.9228 59.5285 78.974 59.7964 78.9663 60.0659V60.4764C79.1672 60.6569 79.3264 60.8788 79.4328 61.1266C79.5392 61.3745 79.5904 61.6424 79.5827 61.9119V62.9369L79.3768 63.1421C79.3768 63.3474 79.5827 63.3474 79.5827 63.5526C80.2262 64.4521 80.5843 65.5232 80.6109 66.6276V67.0381C80.8168 67.2433 80.8168 67.6526 81.0227 68.0631V69.9078L81.6391 74.6234L81.0227 73.5985L80.8168 74.6234C81.0227 75.2212 81.0227 75.8704 80.8168 76.4681L81.2286 79.9536L80.8168 79.1339L80.6109 80.5694L79.1709 77.4944C78.9379 76.9763 78.7985 76.4213 78.7591 75.855V75.6497C78.7197 75.0833 78.5803 74.5283 78.3473 74.0103H78.1414V74.6247C78.1358 74.9135 78.0575 75.1962 77.9139 75.447C77.7702 75.6978 77.5657 75.9086 77.3191 76.0602C77.2015 76.1667 77.1281 76.3131 77.1132 76.4707H76.7053V76.676L78.1453 84.2575L75.0607 77.8998L74.8548 78.3103C74.8548 78.5155 74.6489 78.7208 74.6489 78.9247C74.6489 79.1287 74.443 79.3352 74.443 79.5392L73.8266 80.7694V81.5892L73.4148 81.1787L72.5925 82.8181V81.5879C72.5469 82.2449 72.3348 82.8796 71.9761 83.4326L70.9479 84.6628L70.5361 84.2523L69.7138 85.2773L68.4797 87.9417L67.4515 91.0166L67.0397 89.7864L66.8338 89.9917L66.6279 90.1969V89.9917H66.4233V90.1956H66.2174C66.1959 90.3513 66.1235 90.4956 66.0115 90.6061L62.721 100.04ZM51.4148 97.7849C51.4148 97.9901 51.6207 98.3993 51.8266 98.3993H52.0325L51.8266 98.1941H51.6207L51.4148 97.7836V97.7849ZM52.6489 95.1204H52.8548C53.0602 94.7108 53.2657 94.506 53.4712 94.506C53.4725 94.3471 53.5095 94.1906 53.5794 94.0479C53.6493 93.9052 53.7504 93.7798 53.8752 93.6811C53.9561 93.6033 54.0534 93.5445 54.1601 93.5089C54.2667 93.4734 54.38 93.4621 54.4916 93.4758L54.6975 93.2706L54.9034 93.6811H55.1093C55.3152 93.6811 55.3152 93.4758 55.5211 93.4758C55.9329 93.0653 56.3434 92.8614 56.7552 93.0653H56.9611L57.167 92.8601L57.3729 93.2706C57.4706 93.1454 57.5952 93.0436 57.7374 92.9726C57.8797 92.9016 58.0361 92.8631 58.1952 92.8601H58.4075C58.407 92.833 58.412 92.806 58.4221 92.7809C58.4323 92.7558 58.4474 92.7329 58.4667 92.7138C58.4859 92.6946 58.5088 92.6795 58.534 92.6693C58.5592 92.6592 58.5863 92.6543 58.6134 92.6548L59.6416 91.6298L59.8475 92.2443C59.8475 92.039 60.0534 92.039 60.2593 91.8338C60.4111 91.7315 60.5902 91.6769 60.7734 91.6769C60.9567 91.6769 61.1357 91.7315 61.2875 91.8338H61.4934C61.4934 91.6285 61.6993 91.6285 61.9052 91.6285C61.9324 91.6291 61.9594 91.6241 61.9846 91.614C62.0099 91.6039 62.0328 91.5888 62.052 91.5696C62.0712 91.5504 62.0864 91.5276 62.0965 91.5024C62.1067 91.4773 62.1116 91.4504 62.1111 91.4233C62.1111 91.218 62.317 91.0128 62.5229 90.8088C62.5229 90.3983 62.7288 90.1943 62.7288 89.9891C62.9347 89.7838 63.1406 89.3746 63.5511 89.3746V88.9641C63.5971 88.7406 63.6957 88.5312 63.8386 88.3531C63.9816 88.1749 64.1648 88.033 64.3734 87.9391C64.3412 87.6962 64.3827 87.4492 64.4926 87.2299C64.6025 87.0107 64.7756 86.8292 64.9898 86.7089C65.0707 86.6311 65.1681 86.5723 65.2747 86.5368C65.3814 86.5013 65.4946 86.4899 65.6062 86.5036V85.2734C65.6022 85.0621 65.6579 84.854 65.7669 84.6728C65.8759 84.4915 66.0338 84.3445 66.2226 84.2484C66.3035 84.1706 66.4009 84.1118 66.5075 84.0763C66.6142 84.0408 66.7274 84.0295 66.839 84.0432V83.4287C66.8608 83.1096 66.9978 82.8091 67.2247 82.583C67.4516 82.3568 67.753 82.2202 68.0731 82.1985C68.4849 82.1985 68.6895 82.4037 69.1013 82.609L69.3072 81.584C69.2859 81.422 69.3138 81.2574 69.3872 81.1113C69.4605 80.9652 69.5761 80.8443 69.719 80.7643C70.0004 80.5075 70.3658 80.3616 70.7472 80.3538V79.1235C70.7253 78.8256 70.8203 78.5309 71.0121 78.3014C71.2039 78.0719 71.4775 77.9256 71.7754 77.8933H71.9813V77.4828C71.9813 77.0723 72.1872 76.8683 72.5977 76.6631C72.6786 76.5853 72.776 76.5265 72.8826 76.4909C72.9892 76.4554 73.1025 76.4441 73.2141 76.4578C73.1279 75.8785 73.276 75.2888 73.6259 74.8184C73.8318 74.4079 74.2423 74.4079 74.6541 74.4079H74.8535L75.2653 73.5881L75.6771 74.4079H76.0889C75.883 73.7934 75.2666 72.3579 75.6771 71.5382C75.7735 71.35 75.921 71.1926 76.1028 71.0839C76.2846 70.9753 76.4934 70.9197 76.7053 70.9237C76.9112 70.5132 76.9112 70.3092 77.3217 70.104C77.6298 69.9179 77.9936 69.8452 78.3499 69.8987C78.7677 70.0624 79.1261 70.3481 79.3781 70.7185C79.3776 70.7456 79.3825 70.7725 79.3927 70.7976C79.4029 70.8228 79.418 70.8456 79.4372 70.8648C79.4564 70.8839 79.4794 70.899 79.5046 70.9092C79.5298 70.9193 79.5568 70.9242 79.584 70.9237C79.5913 70.8172 79.637 70.717 79.7127 70.6415C79.7884 70.566 79.889 70.5204 79.9958 70.5132L79.3794 69.283C79.3794 69.0777 79.1735 68.8725 79.1735 68.4632C79.1735 68.258 79.3794 68.0527 79.5853 67.8488C79.1835 67.4915 78.837 67.077 78.5571 66.6185C78.5571 66.4133 78.3512 66.208 78.3512 65.7988C78.3512 65.3896 78.5571 65.1843 78.763 64.7738L78.9689 64.5686C78.5054 63.9524 78.1571 63.258 77.9407 62.5186C77.9407 62.1081 77.9407 61.9042 78.1466 61.6989C77.9407 61.4937 77.5302 61.2884 77.3243 61.0844C77.1231 60.9505 76.9604 60.7666 76.8523 60.5509C76.7442 60.3351 76.6944 60.095 76.7079 59.8542C76.7079 59.6489 76.9138 59.4437 76.9138 59.2397C76.411 58.7323 76.0549 58.099 75.883 57.4066V56.7922C75.8825 56.7651 75.8874 56.7382 75.8976 56.713C75.9078 56.6879 75.9229 56.665 75.9421 56.6459C75.9614 56.6267 75.9843 56.6116 76.0095 56.6015C76.0347 56.5913 76.0617 56.5864 76.0889 56.5869L75.2666 55.7672C75.2666 55.5619 75.0607 55.5619 75.0607 55.3567L74.4443 54.1265L75.8843 53.716C76.7138 51.1757 77.8903 48.7614 79.3807 46.5411C79.5866 46.3358 79.7925 46.1306 79.7925 45.9266V45.7214H79.5866C78.9395 45.3609 78.2482 45.0853 77.5302 44.9017C76.939 44.668 76.3144 44.5294 75.6797 44.4911L74.6515 44.2859L74.8574 43.2609C74.8436 43.1497 74.855 43.0368 74.8906 42.9305C74.9262 42.8242 74.9852 42.7271 75.0633 42.6464V41.2058C75.0633 40.7953 74.8574 40.1808 74.8574 39.7703C74.6515 39.5651 74.6515 39.1558 74.4456 38.9506C74.3675 38.8699 74.3086 38.7729 74.2729 38.6666C74.2373 38.5602 74.2259 38.4474 74.2397 38.3361C74.2182 38.1804 74.1458 38.0362 74.0338 37.9256C73.8279 37.5151 73.622 37.3111 73.4174 36.9006L72.801 36.2862C72.2097 35.7648 71.7202 35.139 71.3571 34.4402C71.1512 34.0297 71.1512 33.4152 70.9453 33.0047V32.5955C70.123 28.906 67.0384 26.6508 64.3643 25.0101L62.1021 23.3707C60.0737 21.8683 57.8624 20.6286 55.5211 19.6812H55.3152C54.7122 19.5346 54.1501 19.2544 53.6706 18.8615C53.1404 18.4358 52.6576 17.9546 52.2306 17.426L52.0247 17.2208C51.1576 16.1627 50.1141 15.2614 48.9401 14.5564H48.7342L48.5283 18.2458L46.6778 16.4011V16.8116L46.266 16.1971V20.0918L45.0319 16.8116C45.0319 17.2221 44.826 17.6313 44.826 18.0418V18.8615C44.8499 19.551 44.7807 20.2405 44.6201 20.9115C44.0659 21.7362 43.2785 22.3782 42.3578 22.7562C42.1519 22.9614 41.946 22.9614 41.7414 23.1667C41.3296 23.5772 40.7132 23.7812 40.3014 24.1917C38.1664 25.4817 36.2273 27.0692 34.5427 28.9061C33.6066 29.9491 32.9677 31.223 32.6922 32.5955C32.5893 33.6543 32.16 34.6554 31.4633 35.4613L30.8469 36.0757C30.4451 36.433 30.0987 36.8475 29.8187 37.306C29.6128 37.7165 29.6128 37.9204 29.4069 38.3309C29.201 38.7415 29.201 39.1507 28.9951 39.5612C28.9951 39.7664 28.7892 39.9717 28.5833 40.3809C28.3279 40.8365 28.1213 41.3177 27.9669 41.8164L28.1728 42.0216C28.2509 42.1023 28.3099 42.1994 28.3455 42.3057C28.3811 42.412 28.3925 42.5249 28.3787 42.6361L28.5846 43.4558L27.7623 43.6611C27.1459 43.8663 26.3223 44.0716 25.7059 44.2756C24.9879 44.4593 24.2967 44.7348 23.6496 45.0953H23.4437V45.3005C23.4437 45.5058 23.6496 45.711 23.8555 45.915C25.3067 48.1575 26.4806 50.5665 27.3518 53.0899H27.5577L28.38 53.2951L27.9682 53.7056V54.3201C27.9682 54.7306 27.5564 54.9346 27.1459 55.1398H26.94C26.7341 55.3451 26.7341 55.5503 26.5282 55.7543C26.7341 56.1648 26.5282 56.7793 26.5282 56.9845C26.3119 57.7874 25.9646 58.5493 25.5 59.2397L25.7059 59.445C25.8426 59.5735 25.9358 59.7412 25.9727 59.9248C26.0095 60.1084 25.9883 60.2989 25.9118 60.47C25.7059 61.4949 24.8836 61.9054 24.2672 62.3147C24.0613 62.5199 23.6508 62.7252 23.445 62.9291C23.43 63.0868 23.3566 63.2332 23.2391 63.3396V63.5449C23.4449 63.5449 23.6508 63.5449 23.6508 63.7502C23.8571 63.8709 24.0124 64.0621 24.0881 64.2883C24.1638 64.5145 24.1548 64.7603 24.0626 64.9804C24.0233 65.2065 23.9273 65.4189 23.7835 65.5981C23.6398 65.7773 23.4529 65.9174 23.2403 66.0054H23.0344C22.9089 66.1028 22.8068 66.227 22.7355 66.3688C22.6643 66.5106 22.6257 66.6665 22.6227 66.8251C22.7972 67.0163 22.9102 67.2553 22.9469 67.5113C22.9836 67.7672 22.9424 68.0283 22.8285 68.2606C22.8285 68.6711 22.6227 68.875 22.6227 69.2856C22.6011 69.4412 22.5288 69.5855 22.4168 69.6961H22.6227V69.4908C22.6138 69.2038 22.685 68.92 22.8285 68.6711C22.8998 68.5268 23.0018 68.3997 23.1273 68.2987C23.2528 68.1976 23.3989 68.1251 23.5554 68.086C23.7119 68.0469 23.8751 68.0423 24.0336 68.0724C24.1921 68.1026 24.3421 68.1668 24.4731 68.2606C24.5003 68.2611 24.5273 68.2562 24.5526 68.246C24.5778 68.2359 24.6007 68.2208 24.6199 68.2016C24.6391 68.1825 24.6543 68.1596 24.6644 68.1345C24.6746 68.1093 24.6796 68.0824 24.679 68.0553L24.8849 67.8501V68.0553H25.0908C25.3721 68.0941 25.6368 68.2107 25.8549 68.3919C26.0731 68.5731 26.2359 68.8116 26.3249 69.0803C26.4277 69.6909 26.4277 70.3144 26.3249 70.925V71.95C26.4389 71.8509 26.5849 71.7963 26.7361 71.7963C26.8873 71.7963 27.0333 71.8509 27.1472 71.95C27.3531 71.95 27.3531 72.1552 27.559 72.1552C27.7858 72.1945 27.999 72.2902 28.1787 72.4335C28.3585 72.5768 28.499 72.763 28.5872 72.975C28.5872 73.1802 28.7931 73.3855 28.7931 73.5894H29.6154C30.4377 73.7947 30.4377 74.6144 30.4377 75.0249C30.6436 75.6394 30.6436 76.4604 30.8495 77.0749C30.8495 77.2801 31.0554 77.4854 31.0554 77.6893H31.6718C32.2882 77.8946 32.4941 78.5091 32.4941 79.534C33.1105 79.7393 33.5223 80.559 33.7282 81.3788C33.9859 81.8145 34.1276 82.3086 34.14 82.8142H34.3459L34.7577 83.2247C35.0561 83.2558 35.3306 83.4018 35.5226 83.6316C35.7147 83.8613 35.8091 84.1568 35.7859 84.455V84.6602C35.9747 84.7563 36.1326 84.9033 36.2416 85.0846C36.3506 85.2658 36.4063 85.4739 36.4023 85.6852L36.6082 88.1457C36.9163 87.9595 37.2801 87.8869 37.6364 87.9404C37.7173 87.8626 37.8147 87.8038 37.9213 87.7683C38.028 87.7328 38.1412 87.7215 38.2528 87.7352C38.6646 87.3247 39.281 87.5299 39.8974 87.9404C40.1033 88.1457 40.1033 88.1457 40.1033 88.3509C40.3931 88.3206 40.6843 88.3933 40.9256 88.5562C41.0712 88.6819 41.1846 88.8406 41.2563 89.0189C41.3279 89.1972 41.3557 89.39 41.3374 89.5812H41.5433C41.6009 89.3511 41.7327 89.1462 41.9184 88.9981C42.1042 88.85 42.3337 88.7668 42.5715 88.7614C43.3938 88.7614 43.5997 89.5812 43.8056 89.9917C44.1728 90.1529 44.4661 90.4453 44.6279 90.8114H44.8338C45.0106 90.8395 45.1779 90.9102 45.3212 91.0172C45.4645 91.1243 45.5794 91.2645 45.6561 91.4259C45.8484 91.4007 46.0439 91.4253 46.224 91.4972C46.404 91.569 46.5625 91.6859 46.6843 91.8364C46.8902 92.0416 47.3007 92.2469 47.3007 92.6561V92.8613C47.3079 92.7549 47.3537 92.6546 47.4294 92.5791C47.5051 92.5037 47.6057 92.4581 47.7125 92.4508C47.9024 92.3498 48.1143 92.297 48.3295 92.297C48.5448 92.297 48.7567 92.3498 48.9466 92.4508C49.3584 92.6561 49.563 92.8613 49.563 93.2706L49.7689 93.4758H50.1807C50.2946 93.3768 50.4406 93.3222 50.5918 93.3222C50.743 93.3222 50.889 93.3768 51.003 93.4758C52.0312 94.5008 52.443 94.7061 52.6476 95.1153L52.6489 95.1204ZM57.9957 94.506H58.6121C58.6121 94.3007 58.6121 94.3007 58.4062 94.0955L57.786 93.6811V93.8863C57.9919 93.8863 57.9919 94.0916 58.1978 94.0916L57.9957 94.506Z" fill="white"/>
<path d="M80.2016 71.135C80.4075 71.135 80.4075 71.135 80.4075 71.3402C80.8193 72.1599 81.2298 72.7757 81.6416 73.5954C81.7444 72.916 81.7444 72.225 81.6416 71.5455C81.6416 71.3402 81.4357 71.135 81.4357 70.931C81.0239 70.1113 80.4075 69.4955 79.9957 68.6758V68.4705L80.2016 68.2653L80.4075 68.4705L81.6416 70.7258C81.6749 70.1038 81.6053 69.4805 81.4357 68.8811C81.3854 68.4999 81.2479 68.1354 81.034 67.8155C80.82 67.4957 80.5352 67.2291 80.2016 67.0363C79.7998 66.6791 79.4533 66.2645 79.1734 65.8061V65.6009C79.1728 65.5738 79.1778 65.5468 79.188 65.5217C79.1981 65.4966 79.2133 65.4737 79.2325 65.4546C79.2517 65.4354 79.2746 65.4203 79.2999 65.4102C79.3251 65.4 79.3521 65.3951 79.3793 65.3956L81.2298 67.2403C81.1767 66.2988 80.8944 65.3843 80.4075 64.5759C79.7911 63.7562 78.9675 63.1404 78.7629 62.1154C78.7629 61.9102 78.7629 61.7049 78.9688 61.7049C79.1747 61.7049 79.1747 61.9102 79.1747 62.1154C79.4618 62.8658 79.8796 63.5598 80.4088 64.1654C80.082 63.6843 79.9362 63.1037 79.997 62.5259C79.9838 62.213 79.8796 61.9106 79.697 61.6557C79.5145 61.4008 79.2614 61.2044 78.9688 61.0904C78.4475 60.8965 77.9612 60.6196 77.5288 60.2707C77.3229 60.2707 77.3229 60.0655 77.3229 59.8602C77.3229 59.655 78.9675 60.6799 79.1734 60.8852C78.7616 59.2457 76.9111 58.8352 76.5006 57.1958V56.9905C76.5006 56.9905 76.7065 56.7853 76.7065 56.9905L76.9124 57.1958C77.148 57.9651 77.6597 58.6209 78.3498 59.0379C78.1526 58.0659 77.73 57.1534 77.1157 56.3735C76.5855 55.9478 76.1027 55.4665 75.6757 54.938L75.4698 54.7327H75.8816C76.2408 55.2535 76.6545 55.7347 77.1157 56.1682C76.9288 55.5182 76.6521 54.8974 76.2934 54.3235C77.1394 51.8902 78.2424 49.5535 79.5839 47.3526C79.7898 46.9421 79.9957 46.7382 80.2003 46.3276C80.2767 46.1566 80.298 45.9661 80.2611 45.7825C80.2242 45.5988 80.131 45.4312 79.9944 45.3027L79.5826 44.8922C78.8697 44.4666 78.1107 44.1227 77.3203 43.8672L75.4698 43.2527C75.4698 43.0475 75.4698 43.0475 75.6757 42.8422C75.6972 42.6865 75.7696 42.5423 75.8816 42.4317V41.6107C75.6757 40.9962 75.6757 40.1752 75.4698 39.5607C75.2409 39.0579 74.9656 38.5773 74.6475 38.1252C74.3518 37.5508 74.0078 37.0024 73.6193 36.4858C73.0029 35.6661 71.9747 35.0503 71.5629 34.2306C71.357 33.8201 71.357 33.2056 71.1511 32.5911C70.3288 28.6965 67.0383 26.236 64.1583 24.3913L61.896 22.7519C59.8012 21.1831 57.522 19.8752 55.1092 18.8572C54.5062 18.7105 53.9441 18.4303 53.4646 18.0375C52.9344 17.6118 52.4516 17.1305 52.0246 16.602C51.111 15.3758 49.9107 14.3907 48.5282 13.7323C48.3223 13.527 48.1164 13.527 47.9118 13.3218C47.5 12.9113 47.2954 12.5021 46.8836 12.0916C46.8836 12.9113 46.6777 13.731 46.6777 14.552C46.2139 13.587 45.935 12.5442 45.8554 11.4771V12.9139C45.6369 12.2991 45.286 11.7395 44.8272 11.2744C45.2297 12.3217 45.4386 13.4331 45.4436 14.5546C45.2377 14.1441 45.2377 13.7349 45.0318 13.3244C45.0318 13.5296 44.8259 14.1441 44.8259 14.3493C44.8259 14.7599 44.62 15.1691 44.62 15.5796C44.3831 16.3801 44.2449 17.2063 44.2082 18.04C44.0023 18.8598 44.4141 19.6795 44.0023 20.5005C43.3685 21.3331 42.5135 21.9722 41.5341 22.3452C38.8613 24.1899 36.1872 25.6254 34.1308 28.2898C33.0445 29.498 32.3305 30.9927 32.0744 32.595C31.9492 33.4895 31.5951 34.3369 31.0462 35.0555C30.4298 35.8752 29.6062 36.2857 29.1957 37.3107C28.7839 38.1304 28.7839 38.9501 28.3734 39.5659C27.9616 40.3856 27.1393 41.6158 27.5511 42.6408L27.757 42.8461V43.2566C27.1406 43.4618 26.3171 43.6671 25.7007 43.8711C24.8953 44.0867 24.131 44.433 23.4384 44.896C23.2325 44.896 23.2325 45.1013 23.0266 45.3065C22.8207 45.5118 22.8207 46.1263 22.8207 46.3315C23.0266 46.742 23.2325 46.946 23.4371 47.3565C24.8218 49.5339 25.9273 51.8758 26.7276 54.3274C26.7491 54.4831 26.8214 54.6273 26.9335 54.7379L27.1394 54.9431V55.3537C26.9335 55.3537 26.7276 55.5589 26.5229 55.5589C26.23 56.071 25.8855 56.552 25.4948 56.9944C25.4948 57.1996 25.2889 57.4049 25.2889 57.6089C24.8771 58.6338 24.6725 59.2483 24.2607 60.0693C24.2607 60.2746 24.2607 60.2746 24.0548 60.4798C24.4666 59.8654 24.6712 59.2496 25.083 58.6351C25.083 58.4299 25.6994 56.7904 25.9053 57.1996V57.6102C25.4028 59.1632 24.6376 60.6193 23.643 61.9153C23.3854 62.1958 23.239 62.5601 23.2312 62.9403C23.8476 62.3258 24.4653 61.9153 25.0817 61.3009H25.2876L25.4935 61.5061C25.2876 62.5311 23.643 62.7363 23.2312 63.7613C23.2312 63.9666 23.0253 64.1718 23.0253 64.3758C22.8194 65.1955 22.8194 65.8113 22.6135 66.631C22.8194 66.2205 23.2299 66.0165 23.4358 65.8113C23.6417 65.8113 23.8476 65.8113 23.8476 66.0165C23.8476 66.2218 23.2312 66.427 23.2312 66.631C22.8371 67.109 22.556 67.6694 22.4089 68.2705C22.1567 69.2071 22.0185 70.1706 21.9971 71.1401C22.203 70.5257 22.4089 69.7046 22.6135 69.0902C22.8181 68.4757 23.0253 69.0902 22.8194 69.5007C22.8194 69.9112 22.4076 70.3204 22.4076 70.9362C22.0575 72.0853 22.1305 73.3213 22.6135 74.4216C22.9526 75.5508 23.0919 76.7302 23.0253 77.9071C23.4371 77.2926 23.2312 76.6768 23.2312 76.0624C23.0602 74.9088 22.9913 73.7425 23.0253 72.5769C23.0253 72.3717 23.0253 72.1664 23.2312 72.1664L23.4371 72.3717C23.4032 73.4009 23.4721 74.431 23.643 75.4466C24.1052 73.9727 24.4491 72.4645 24.6712 70.9362V70.5257C24.6706 70.4986 24.6756 70.4716 24.6858 70.4465C24.6959 70.4214 24.7111 70.3985 24.7303 70.3794C24.7495 70.3602 24.7724 70.3451 24.7976 70.335C24.8229 70.3248 24.8499 70.3199 24.8771 70.3204C25.083 70.5257 24.6712 71.7559 24.6712 72.1651C24.8298 71.7975 25.0371 71.4528 25.2876 71.1401C25.5205 71.6582 25.6599 72.2132 25.6994 72.7796C25.6994 72.3691 25.6994 70.5244 25.9053 70.5244C25.9324 70.5238 25.9595 70.5288 25.9847 70.5389C26.0099 70.549 26.0328 70.5642 26.052 70.5833C26.0712 70.6025 26.0864 70.6253 26.0966 70.6505C26.1067 70.6756 26.1117 70.7025 26.1112 70.7296C26.214 71.4091 26.214 72.1001 26.1112 72.7796C26.1017 73.4177 26.2461 74.0487 26.5323 74.6195C26.8185 75.1904 27.2381 75.6843 27.7557 76.0598C27.5499 75.6493 27.5498 75.2401 27.344 74.8295V74.6191L27.5499 74.4139C27.7557 74.4139 27.7557 74.6191 27.7557 74.8244C27.739 75.4921 27.957 76.1447 28.3722 76.6691C28.203 76.1399 28.1332 75.5841 28.1663 75.0296C28.1663 74.6191 28.5781 75.0296 28.5781 75.0296C28.7458 75.417 28.8165 75.8392 28.7839 76.2599C29.015 77.0871 29.5232 77.8105 30.2239 78.3098C30.0561 77.71 29.9882 77.0868 30.0232 76.4651C30.0232 76.2599 30.0232 76.0546 30.2291 76.2599C30.435 76.2599 30.435 76.8743 30.435 77.0796C30.6409 77.8993 30.6409 78.5151 30.8468 79.3348C31.2701 80.7486 31.821 82.1213 32.4927 83.436C32.2868 82.8215 32.2868 82.2058 32.0809 81.5913C32.0809 81.386 31.875 80.9768 32.0809 80.7716C32.4927 80.5663 32.6973 82.8215 32.6973 83.0268C32.7814 83.7532 33.1512 84.4166 33.7255 84.8715C33.5542 84.3128 33.3484 83.7653 33.1091 83.232V83.0268C33.315 82.4123 33.7255 83.8465 33.7255 84.0518C33.9456 84.7554 34.2205 85.4408 34.5478 86.1017C34.5478 86.1017 34.7537 85.8965 34.7537 86.1017C34.9171 86.3422 34.99 86.6326 34.9596 86.9214C35.1655 87.1267 35.1655 87.3319 35.3714 87.5359C35.3709 87.563 35.3758 87.59 35.386 87.6151C35.3962 87.6402 35.4113 87.6631 35.4305 87.6822C35.4498 87.7014 35.4727 87.7165 35.4979 87.7266C35.5231 87.7367 35.5501 87.7417 35.5773 87.7412V86.7149C35.5773 86.5097 35.9891 86.5097 35.9891 86.7149C35.9078 87.6213 36.0482 88.5338 36.3983 89.3742V87.7347L36.6042 87.5295C36.6037 87.5566 36.6086 87.5835 36.6188 87.6086C36.629 87.6338 36.6441 87.6566 36.6633 87.6758C36.6826 87.6949 36.7055 87.71 36.7307 87.7202C36.7559 87.7303 36.7829 87.7352 36.8101 87.7347C36.8101 88.5544 37.016 89.5794 37.016 90.3991C37.016 90.8097 37.2219 90.8097 37.4278 90.8097C37.6337 91.0149 37.8396 91.2202 37.8396 91.4241C37.8396 91.2189 38.0455 91.4241 38.2514 91.4241C38.3634 91.5347 38.4358 91.679 38.4573 91.8346C38.6632 92.0399 38.6632 92.4491 38.8691 92.4491V92.0386V91.8398C38.8691 91.4293 38.6632 91.2253 38.6632 90.8148C38.6632 90.6096 39.075 90.4043 39.075 90.6096C39.075 90.1991 39.4868 90.6096 39.4868 90.8148C39.4868 91.0201 39.6927 91.2253 39.6927 91.4293V91.0188C39.6922 90.9917 39.6971 90.9648 39.7073 90.9396C39.7174 90.9145 39.7326 90.8916 39.7518 90.8725C39.771 90.8533 39.7939 90.8382 39.8192 90.8281C39.8444 90.8179 39.8714 90.813 39.8986 90.8135C40.1045 90.8135 40.1045 91.0188 40.1045 91.224V91.8385C40.1045 92.0438 40.3104 92.0438 40.3104 91.8385V91.428L39.694 90.1978C39.694 89.9925 39.694 89.5833 39.8999 89.7873C40.1058 89.7873 40.3117 90.4017 40.3117 90.607V89.582H40.5176C40.517 89.6091 40.522 89.636 40.5322 89.6612C40.5423 89.6863 40.5575 89.7091 40.5767 89.7283C40.5959 89.7475 40.6188 89.7626 40.6441 89.7727C40.6693 89.7828 40.6963 89.7878 40.7235 89.7873C40.9294 90.4017 41.1353 90.8122 41.3399 91.4267C41.3399 91.632 41.3399 91.632 41.5458 91.8372V90.607C41.5458 90.4017 41.5458 89.9925 41.7517 90.1965V91.2215C41.7517 91.4267 41.9576 91.632 41.9576 91.8359V91.2215C41.9576 91.0162 42.1635 91.2215 42.3694 91.2215V91.632C42.3766 91.7384 42.4223 91.8387 42.4981 91.9142C42.5738 91.9896 42.6743 92.0352 42.7812 92.0425H43.193C43.3989 92.0425 43.3989 91.8372 43.6047 91.632C43.7681 91.3914 43.841 91.1011 43.8106 90.8122C43.8106 89.9925 44.427 91.2227 44.427 91.632V92.4517C44.4343 92.5582 44.48 92.6584 44.5557 92.7339C44.6314 92.8094 44.732 92.8549 44.8388 92.8622V91.8398C45.0447 91.4293 45.2506 92.8648 45.2506 93.07C45.2506 92.8648 45.4565 92.8648 45.6624 92.8648C45.6624 92.6595 46.0742 92.4543 46.0742 92.8648V93.2753C46.0742 93.6858 46.2801 94.095 46.6906 94.095V93.4792C46.6901 93.4521 46.6951 93.4252 46.7052 93.4001C46.7154 93.3749 46.7305 93.3521 46.7498 93.3329C46.769 93.3138 46.7919 93.2987 46.8171 93.2885C46.8423 93.2784 46.8694 93.2735 46.8965 93.274C47.1024 93.274 47.1024 93.274 47.1024 93.4792C47.3083 93.4792 47.3083 93.4792 47.3083 93.6845V94.095C47.3083 94.3003 47.5142 94.3003 47.5142 94.5055V95.12C47.5142 95.5305 47.7201 95.9397 48.1306 95.9397V95.12C48.1306 94.9147 48.1306 94.9147 48.3365 94.7095C48.5424 94.7095 48.5424 94.7095 48.5424 94.9147V95.7345C48.7483 95.324 48.9542 94.7095 49.1588 94.299C49.1588 94.0937 49.1588 94.0937 49.3647 94.0937H49.5706C49.5706 94.299 49.5706 94.299 49.3647 94.5042V94.7095C49.3785 94.8207 49.3671 94.9336 49.3315 95.0399C49.2959 95.1462 49.2369 95.2433 49.1588 95.324C48.9911 95.7113 48.9204 96.1335 48.9529 96.5542C48.9524 96.5813 48.9574 96.6082 48.9675 96.6333C48.9777 96.6585 48.9928 96.6813 49.0121 96.7005C49.0313 96.7197 49.0542 96.7347 49.0794 96.7449C49.1046 96.755 49.1316 96.76 49.1588 96.7594C49.1588 96.3489 49.3647 95.9397 49.3647 95.5292C49.3343 95.2403 49.4073 94.95 49.5706 94.7095C49.5706 94.5042 49.7765 94.5042 49.9824 94.7095C50.1883 94.9147 49.9824 95.324 49.9824 95.324C50.0096 95.3234 50.0366 95.3284 50.0618 95.3385C50.0871 95.3486 50.11 95.3637 50.1292 95.3829C50.1484 95.4021 50.1636 95.4249 50.1737 95.45C50.1839 95.4752 50.1888 95.5021 50.1883 95.5292V95.9397C50.3942 95.5292 50.6001 95.3252 50.8047 94.9147C51.0106 94.9147 51.0106 94.7095 51.2165 94.9147V95.12C51.216 95.1471 51.221 95.174 51.2311 95.1992C51.2413 95.2243 51.2564 95.2471 51.2756 95.2663C51.2949 95.2855 51.3178 95.3006 51.343 95.3107C51.3682 95.3208 51.3952 95.3258 51.4224 95.3252C51.6283 95.12 51.4224 94.7108 51.6283 94.7108C51.6555 94.7102 51.6825 94.7152 51.7077 94.7253C51.7329 94.7354 51.7559 94.7505 51.7751 94.7697C51.7943 94.7889 51.8095 94.8117 51.8196 94.8369C51.8298 94.862 51.8347 94.8889 51.8342 94.916V95.3265C51.8004 96.2196 51.8695 97.1136 52.0401 97.991C52.4519 97.991 52.246 97.7857 52.246 97.5805C52.246 97.3752 52.246 97.3752 52.4519 97.3752C52.4791 97.3747 52.5061 97.3796 52.5313 97.3897C52.5565 97.3999 52.5794 97.415 52.5987 97.4341C52.6179 97.4533 52.633 97.4762 52.6432 97.5013C52.6534 97.5264 52.6583 97.5534 52.6578 97.5805V96.3451C52.6578 96.1398 52.6578 96.1398 52.8637 95.9345C52.8909 95.934 52.9179 95.939 52.9431 95.9491C52.9683 95.9592 52.9912 95.9743 53.0105 95.9935C53.0297 96.0127 53.0448 96.0355 53.055 96.0606C53.0652 96.0858 53.0701 96.1127 53.0696 96.1398V97.5753C53.2755 97.9858 53.686 97.37 53.686 97.1648C53.8551 96.6356 53.9249 96.0798 53.8919 95.5253C53.8919 95.3201 53.8919 95.1148 54.0978 95.1148H54.3037C54.5096 95.1148 54.5096 94.9096 54.5096 94.7043V94.2938C54.7155 94.2938 54.7155 94.2938 54.9214 94.4991C55.1273 94.7043 55.1273 95.1135 55.3332 95.3188V95.7293C55.3337 95.7564 55.3288 95.7833 55.3186 95.8085C55.3084 95.8336 55.2933 95.8564 55.2741 95.8756C55.2548 95.8948 55.2319 95.9099 55.2067 95.92C55.1815 95.9301 55.1545 95.9351 55.1273 95.9345V95.7293C55.1058 95.5736 55.0334 95.4294 54.9214 95.3188C54.5351 95.8582 54.3203 96.5009 54.305 97.1635L54.7168 96.753L54.9227 96.5477V96.3451C54.9227 96.1398 55.1286 96.1398 55.3345 96.1398C55.3617 96.1403 55.3887 96.1354 55.4139 96.1253C55.4391 96.1151 55.462 96.1 55.4813 96.0808C55.5005 96.0617 55.5156 96.0388 55.5258 96.0137C55.5359 95.9886 55.5409 95.9616 55.5404 95.9345C55.6966 95.773 55.8146 95.5787 55.8859 95.3659C55.9571 95.153 55.9798 94.927 55.9522 94.7043V94.4991L56.1581 94.2938C56.364 94.2938 56.364 94.4991 56.364 94.7043C56.364 94.7043 56.5699 94.0898 56.7758 94.0898C56.7758 93.8846 57.1876 93.4754 57.1876 93.8846V94.0898L57.3935 93.8846C57.5994 94.0898 57.5994 94.2951 57.8053 94.4991C58.0112 94.703 58.0112 94.7043 58.2171 94.7043L58.8335 93.4741C58.8335 93.4471 58.8388 93.4204 58.8491 93.3955C58.8595 93.3706 58.8746 93.348 58.8938 93.3289C58.9129 93.3099 58.9356 93.2948 58.9606 93.2845C58.9855 93.2741 59.0123 93.2688 59.0394 93.2688C59.0664 93.2688 59.0932 93.2741 59.1182 93.2845C59.1431 93.2948 59.1658 93.3099 59.185 93.3289C59.2041 93.348 59.2192 93.3706 59.2296 93.3955C59.2399 93.4204 59.2453 93.4471 59.2453 93.4741V93.6793C59.407 93.3133 59.7003 93.0208 60.0676 92.8596C60.2958 93.2336 60.4366 93.6541 60.4794 94.0898C60.9494 93.665 61.2427 93.0801 61.3017 92.4504C61.3017 92.2451 61.3017 92.2451 61.5075 92.2451C61.7134 92.2451 61.9193 92.2451 61.9193 92.4504V92.8596C62.1252 92.8596 62.1252 93.0649 62.1252 93.2701C62.537 93.0649 62.9475 92.8596 62.9475 92.4504C62.9691 92.2947 63.0414 92.1505 63.1534 92.0399C63.3593 92.0399 63.3593 92.2451 63.1534 92.4504V92.8596C63.3593 92.4491 63.3593 91.8346 63.5652 91.4241C63.5647 91.397 63.5697 91.3701 63.5798 91.345C63.59 91.3198 63.6051 91.297 63.6244 91.2778C63.6436 91.2587 63.6665 91.2435 63.6917 91.2334C63.7169 91.2233 63.744 91.2183 63.7711 91.2189H63.9602V90.2003C63.9602 89.9951 64.372 89.7898 64.372 90.2003C64.372 91.0201 64.1661 91.6358 64.1661 92.4556C64.5781 92.0101 64.7993 91.4218 64.7825 90.8161C64.7492 90.1941 64.8188 89.5709 64.9884 88.9714C64.9884 88.7662 64.9884 88.7662 65.1943 88.7662C65.4002 88.7662 65.4002 88.9714 65.4002 89.1767C65.4002 89.9964 65.1943 90.8161 65.1943 91.6371C65.4002 91.2266 65.4002 90.8174 65.6061 90.6121C65.6056 90.585 65.6105 90.5581 65.6207 90.533C65.6309 90.5078 65.646 90.485 65.6652 90.4658C65.6844 90.4467 65.7074 90.4316 65.7326 90.4214C65.7578 90.4113 65.7848 90.4064 65.812 90.4069C65.8392 90.4074 65.8662 90.4025 65.8914 90.3923C65.9166 90.3822 65.9395 90.3671 65.9588 90.3479C65.978 90.3288 65.9931 90.3059 66.0033 90.2808C66.0135 90.2557 66.0184 90.2287 66.0179 90.2016C66.1299 90.0911 66.2023 89.9468 66.2238 89.7911C66.3265 89.2494 66.3265 88.6934 66.2238 88.1517C66.2238 87.9464 66.2238 87.5372 66.4297 87.5372C66.6356 87.5372 66.6356 87.5372 66.6356 87.7425V90.4069C66.6356 90.2016 67.0474 89.7924 67.0474 89.5872C66.8373 89.4142 66.6718 89.1937 66.5645 88.9439C66.4573 88.6942 66.4115 88.4226 66.431 88.1517V86.3044V85.0754C66.431 84.8702 66.8428 84.8702 66.8428 85.0754C66.7994 85.8332 66.8687 86.5932 67.0487 87.3307C67.0487 87.1254 67.2546 87.3307 67.4605 87.3307C67.6934 86.8126 67.8329 86.2576 67.8723 85.6912V83.0242C67.8723 82.819 68.2841 82.819 68.2841 83.0242V84.8689C68.49 84.6637 68.6959 84.2544 68.9005 84.0492V84.6637C69.1064 84.4584 69.1064 84.0492 69.3123 83.8439C69.5182 83.6387 69.7241 83.4334 69.7241 83.2295V82.8189C69.7241 82.2045 69.93 81.794 69.93 81.1795C69.93 80.9743 69.93 80.9743 70.1359 80.769H70.3418V80.9742C70.3418 81.3848 70.1359 81.9992 70.1359 82.4097C70.3418 82.2045 70.5477 81.9992 70.5477 81.7953L70.7536 82.2058C71.1046 81.6585 71.2505 81.0051 71.1654 80.3611V78.3098C71.1654 78.1046 71.1654 77.8993 71.3713 77.8993C71.5772 77.8993 71.5771 78.1046 71.5771 78.3098V79.7453C71.5913 79.1752 71.732 78.6153 71.9889 78.1059L72.4007 78.5164V76.6704C72.4279 76.6698 72.4549 76.6748 72.4802 76.6849C72.5054 76.6951 72.5283 76.7101 72.5475 76.7293C72.5667 76.7485 72.5819 76.7713 72.592 76.7965C72.6022 76.8216 72.6072 76.8485 72.6066 76.8756V79.1308C72.8125 78.7203 73.0184 78.5164 73.0184 78.1059C73.0184 77.9006 73.2243 77.6953 73.2243 77.4914V76.2612C73.1913 75.7736 73.2614 75.2845 73.4302 74.8257C73.6361 74.6204 73.842 74.8257 73.6361 75.0309C73.2243 75.4414 73.4302 76.0559 73.6361 76.6704C73.842 76.2599 74.0479 75.6454 74.2525 75.2349C74.4584 75.8493 74.8689 76.4651 75.0748 77.0796C74.8943 76.4121 74.8247 75.7196 74.8689 75.0296C74.8689 74.8244 74.8689 74.6191 75.0748 74.6191L75.2807 74.8244C75.2807 75.4388 75.4866 75.8494 75.4866 76.4638C75.4866 75.6441 76.5148 75.2336 76.5148 74.4139C76.472 73.9782 76.3313 73.5577 76.103 73.1836C75.8971 72.9784 75.2807 71.1337 75.6912 71.1337C75.8971 71.1337 75.8971 72.1587 76.103 72.3639C76.3089 72.9784 76.5148 73.3889 76.7194 74.0034C76.7194 73.7981 77.1312 73.3889 77.1312 73.1836V72.9797C76.682 72.2427 76.5345 71.3616 76.7194 70.5192C76.7194 70.314 76.7194 70.314 76.9253 70.1087C77.1312 69.9034 77.3371 70.314 77.3371 70.5192C78.0972 71.9373 78.651 73.456 78.9817 75.0296C79.0176 75.5295 79.1522 76.0173 79.378 76.4651C79.5839 75.6454 79.5839 74.6204 79.7898 73.8007C80.1556 74.5875 80.4314 75.4128 80.6121 76.2612C80.818 75.4414 80.4062 74.6217 80.4062 73.8007V72.9797C80.4062 72.7744 80.2003 72.5692 80.2003 72.3652C80.6121 72.7757 79.7885 71.3402 80.2003 71.135" fill="#232834"/>
<path d="M73.8271 48.7907C74.6349 49.6888 75.263 50.7325 75.6776 51.8656L74.6495 50.2262C74.65 50.1991 74.645 50.1722 74.6349 50.147C74.6247 50.1219 74.6095 50.099 74.5903 50.0799C74.5711 50.0607 74.5482 50.0456 74.523 50.0355C74.4977 50.0254 74.4707 50.0204 74.4436 50.0209C74.2377 50.0209 74.4436 50.4314 74.4436 50.6354C74.8046 51.2178 75.2176 51.7665 75.6776 52.2748C75.7048 52.2754 75.7318 52.2704 75.7571 52.2603C75.7823 52.2502 75.8052 52.2351 75.8244 52.2159C75.8436 52.1967 75.8588 52.1739 75.8689 52.1488C75.8791 52.1236 75.8841 52.0967 75.8835 52.0696L76.0894 51.8643C76.7455 50.1465 77.5724 48.4984 78.5576 46.9447C78.7635 46.7394 78.9694 46.5342 78.9694 46.3302C78.9998 46.0413 78.9269 45.751 78.7635 45.5105C78.6526 45.3988 78.5079 45.3267 78.3517 45.3053L76.5012 44.6908C76.0894 44.4855 75.473 44.4855 75.0612 44.2803C74.8554 45.1 74.8553 45.9197 74.6495 46.5355C74.6159 47.3539 74.3286 48.1418 73.8271 48.7907Z" fill="#FF0000"/>
<path d="M28.7913 51.6607V51.4554C28.9972 51.2501 29.2031 51.2501 29.4077 51.0449C29.6123 50.8396 29.4077 50.6344 29.2018 50.6344H28.9959C29.213 50.4088 29.3565 50.1231 29.4077 49.8147C29.3862 49.659 29.3138 49.5147 29.2018 49.4042C28.9959 48.9936 28.9959 48.3792 28.79 47.9687V47.7634C28.2907 46.7757 27.8778 45.7469 27.5559 44.6885C26.9395 44.8937 26.3218 44.8937 25.7054 45.099L23.8549 45.7135C23.649 45.7135 23.649 45.9187 23.4431 45.9187C23.2797 46.1592 23.2068 46.4495 23.2372 46.7384C23.2372 46.9437 23.4431 47.1489 23.649 47.3529C24.714 48.8605 25.546 50.5188 26.1172 52.2725C26.1172 52.4778 26.1172 52.4778 26.3231 52.4778C26.3503 52.4773 26.3773 52.4822 26.4025 52.4924C26.4277 52.5025 26.4506 52.5176 26.4699 52.5367C26.4891 52.5559 26.5042 52.5787 26.5144 52.6039C26.5246 52.629 26.5295 52.656 26.529 52.6831C26.7349 52.6831 26.9408 52.8883 27.3513 52.8883C27.9535 52.6466 28.4595 52.2144 28.7913 51.6581" fill="#FF0000"/>
<path d="M73.8274 45.7148C74.0333 45.9201 74.0333 46.9451 74.2392 46.9451H74.4451C76.2956 45.3056 78.1461 46.5346 77.7356 46.5346C75.0628 46.5346 74.8569 47.7648 74.651 47.9701C73.6228 48.7898 74.2392 48.3806 73.6228 49.4055C73.3311 50.0321 72.9106 50.5907 72.3887 51.045C72.3917 50.8864 72.4303 50.7305 72.5016 50.5887C72.5728 50.4469 72.6749 50.3227 72.8005 50.2253C73.0064 50.02 73.0064 49.8148 73.0064 49.4055C73.1946 49.1019 73.3109 48.7594 73.3466 48.4042C73.3823 48.0491 73.3363 47.6904 73.2123 47.3556L73.8274 45.7148Z" fill="#232834"/>
<path d="M28.7911 45.7148C28.5852 45.9201 28.5852 46.9451 28.3793 46.9451H28.1734C26.3229 45.3056 24.4724 46.5346 24.8829 46.5346C27.5557 46.5346 27.7616 47.7648 27.9675 47.9701C28.9957 48.7898 28.3793 48.3806 28.9957 49.4055C29.2874 50.0321 29.7078 50.5907 30.2298 51.045C30.2267 50.8864 30.1881 50.7305 30.1169 50.5887C30.0457 50.4469 29.9435 50.3227 29.818 50.2253C29.4062 49.8148 29.4062 49.6108 29.4062 49.4055C29.218 49.1019 29.1016 48.7594 29.066 48.4042C29.0303 48.0491 29.0762 47.6904 29.2003 47.3556L28.7911 45.7148Z" fill="#232834"/>
<path d="M71.9763 46.5331C72.1822 45.5081 70.9481 44.2779 69.92 43.8687C68.8918 43.2542 67.4518 43.2542 66.4236 42.6385C66.3964 42.639 66.3694 42.634 66.3441 42.6239C66.3189 42.6138 66.296 42.5987 66.2768 42.5795C66.2576 42.5603 66.2424 42.5375 66.2323 42.5124C66.2221 42.4872 66.2171 42.4603 66.2177 42.4332V42.0227C66.4236 41.203 67.04 40.3832 66.8341 39.5622C66.6695 39.1444 66.4203 38.7649 66.1019 38.4474C65.7834 38.13 65.4027 37.8815 64.9836 37.7175C63.7495 37.1031 62.7213 36.282 61.4872 35.6676C61.46 35.6681 61.433 35.6631 61.4078 35.653C61.3825 35.6429 61.3596 35.6278 61.3404 35.6086C61.3212 35.5895 61.306 35.5666 61.2959 35.5415C61.2857 35.5163 61.2808 35.4894 61.2813 35.4623H60.8695C57.7849 36.6926 54.7003 37.9228 51.8216 39.357C51.6157 39.357 51.6157 39.5622 51.4098 39.5622C51.2039 39.5622 51.2039 39.357 50.998 39.357C48.0767 37.8503 45.0534 36.5489 41.9501 35.4623C41.7442 35.4623 41.5383 35.2571 41.5383 35.4623C41.5112 35.4618 41.4841 35.4667 41.4589 35.4769C41.4337 35.487 41.4108 35.5021 41.3916 35.5213C41.3723 35.5404 41.3572 35.5633 41.347 35.5884C41.3369 35.6135 41.3319 35.6405 41.3324 35.6676C40.0983 36.282 39.0702 37.1031 37.8361 37.7175C37.4174 37.8818 37.0372 38.1305 36.7192 38.4479C36.4013 38.7653 36.1524 39.1446 35.9882 39.5622C35.8962 40.4292 36.1145 41.3006 36.6046 42.0227V42.4332L36.3987 42.6385C35.3705 43.2529 33.9305 43.2529 32.9023 43.8687C31.6682 44.4832 30.64 45.5081 30.8459 46.5331C31.0518 47.3528 30.2295 52.2738 30.8459 53.0935C32.08 54.529 38.8655 55.3487 38.8655 55.554C38.6596 56.3737 33.5187 54.9395 33.3128 55.554C33.1069 55.9645 34.1351 58.0144 34.9574 58.6289C35.5738 59.0394 37.0138 58.6289 38.4538 58.2184C37.0619 58.6237 35.7432 59.2463 34.5469 60.0631C33.9855 60.9769 33.5037 61.9369 33.1069 62.9328C32.5453 63.8474 32.0636 64.8083 31.6669 65.805C31.301 66.5918 31.0252 67.4172 30.8446 68.2655C34.341 71.7509 36.8079 75.6456 40.9206 78.7218C41.18 78.4026 41.5442 78.185 41.9488 78.1074C42.257 77.9212 42.6208 77.8486 42.977 77.9021C44.4602 77.7796 45.9163 77.434 47.2957 76.8771C47.9121 76.6719 48.3239 76.4666 48.9403 76.2627C49.813 76.0262 50.7095 75.8885 51.6131 75.8522C52.4354 76.0574 53.4636 76.0574 54.2859 76.2627C54.9023 76.4679 55.3141 76.6732 55.9305 76.8771C57.31 77.434 58.766 77.7796 60.2492 77.9021C60.661 77.9021 60.8656 78.1074 61.2774 78.1074C61.6892 78.3126 61.8938 78.5179 62.3056 78.7218C66.4184 75.6469 68.8866 71.7509 72.3817 68.2655C72.201 67.4172 71.9252 66.5918 71.5594 65.805C71.1476 64.7801 70.5312 63.9603 70.1194 62.9354C69.7225 61.9395 69.2408 60.9795 68.6794 60.0657C67.483 59.2489 66.1644 58.6263 64.7725 58.221C66.2125 58.6315 67.6512 59.0407 68.2689 58.6315C69.2003 57.8611 69.7909 56.7568 69.9135 55.5565C69.7076 54.9421 64.7725 56.3763 64.3607 55.5565C64.3607 55.5565 71.1476 54.7368 72.3804 53.0961C72.1277 50.918 71.9903 48.7282 71.9686 46.5357" fill="#FF0000"/>
<path d="M39.2829 38.0967L35.2852 59.8828L38.523 60.4732L42.5208 38.6872L39.2829 38.0967Z" fill="#FFCE00"/>
<path d="M44.1867 41.6228L42.7061 49.6914L45.3361 50.171L46.8167 42.1024L44.1867 41.6228Z" fill="#FFCE00"/>
<path d="M52.4395 55.5549C52.4395 55.5549 54.7017 52.48 55.9358 52.2747C56.7529 52.1252 57.5917 52.1388 58.4035 52.3148C59.2153 52.4907 59.984 52.8255 60.665 53.2997C61.0768 53.9142 61.8991 55.3497 61.6932 55.9641C61.2814 56.5786 59.4309 56.7839 58.6086 56.7839C56.964 56.5786 52.4395 55.5536 52.4395 55.5536" fill="#282828"/>
<path d="M51.6172 43.8705C51.6172 44.0758 52.4395 46.331 52.8513 47.5599C53.0572 47.9704 53.0572 48.5849 53.2631 48.9954C53.6749 51.0454 52.2349 50.0204 52.6467 52.0704C54.2913 50.2257 52.8526 52.6848 54.2913 51.0454L55.1136 50.8401L56.3477 51.2506C58.9035 51.2729 61.426 51.8315 63.7509 52.8901C65.3373 51.9844 66.8501 50.9563 68.2755 49.8151C68.8919 48.3797 64.985 46.3297 65.8073 45.1008C64.1627 44.6903 61.9005 45.1008 60.4605 44.4863C60.6664 44.0758 61.0769 43.6666 61.2828 43.2561C60.648 43.2944 60.0234 43.4329 59.4323 43.6666C59.2264 43.6666 59.0205 43.8718 58.8159 43.8718C58.61 44.0771 58.4041 44.2823 58.1995 44.2823C56.7816 45.5563 55.2691 46.7214 53.6749 47.7678C53.1438 46.5103 52.7307 45.2065 52.4408 43.8731C53.1474 43.1395 53.9033 42.4546 54.7031 41.8232C56.1431 40.5929 57.3759 39.5679 58.61 38.543C57.3759 38.7482 51.6172 43.8731 51.6172 43.8731" fill="#232834"/>
<path d="M55.3184 49.4108C55.5678 48.6762 55.9721 48.0033 56.5042 47.4375C57.0362 46.8717 57.6837 46.4261 58.403 46.1306C59.1041 45.7764 59.8792 45.5918 60.6652 45.5918C61.4513 45.5918 62.2263 45.7764 62.9275 46.1306C67.4521 48.795 64.9839 50.641 58.6088 49.82L55.3184 49.4108Z" fill="white"/>
<path d="M68.4802 66.0101C67.452 64.3707 67.452 62.3207 66.6297 60.4747C66.6297 60.2694 66.4238 60.0642 66.2179 59.8602C66.012 59.6563 65.6015 59.655 65.3956 59.4497C64.1281 58.9877 62.8202 58.6445 61.4887 58.4247C60.8322 58.1703 60.1364 58.0314 59.4323 58.0142C59.0205 58.0142 50.589 56.9893 50.589 56.9893C50.3831 56.9893 42.1576 58.0142 41.7458 58.0142C41.0467 58.0712 40.3566 58.2089 39.6894 58.4247C38.4219 58.8868 37.1139 59.23 35.7825 59.4497C35.4731 59.5007 35.1865 59.6438 34.9602 59.8602C34.7543 60.0655 34.7543 60.2707 34.5484 60.4747C33.7261 62.3194 33.5202 64.1641 32.6979 66.0101C32.492 66.4206 32.0815 66.8298 32.2861 67.4456C32.2861 67.6508 32.492 67.8561 32.6979 68.0601C34.7543 70.7245 36.8107 73.3902 38.6612 76.2599C39.9592 75.9628 41.2071 75.4797 42.3661 74.8257C44.8902 73.7115 47.6254 73.1523 50.3857 73.1862C53.146 73.1523 55.8813 73.7115 58.4054 74.8257C59.5469 75.5133 60.799 75.9989 62.1064 76.2612C63.9569 73.3915 66.0133 70.7258 68.0697 68.0614C68.2756 67.8561 68.4815 67.6508 68.4815 67.4469C69.0979 66.8324 68.6874 66.4219 68.4815 66.0114" fill="#232834"/>
<path d="M51.0008 64.1646L50.7949 59.8607C50.7949 59.8607 52.029 59.6555 52.4395 59.6555C55.6007 59.2468 58.8115 59.4555 61.8927 60.2699C62.3881 60.437 62.8695 60.6425 63.3327 60.8844C63.5502 61.051 63.7212 61.2705 63.8291 61.5219C63.937 61.7732 63.9784 62.048 63.9491 62.3199L60.6664 66.4211L59.6382 62.7317L59.0218 63.9619L56.1431 63.3475L51.0008 64.1646Z" fill="white"/>
<path d="M50.5887 70.3159C50.7946 70.3159 55.7297 70.1107 55.7297 70.1107L57.5802 69.7002L57.992 70.7252L60.0484 67.8555C60.0484 67.8555 60.0484 73.5961 60.2543 74.4158C59.1486 73.452 57.796 72.8133 56.3474 72.5711C55.8871 72.4028 55.3965 72.3329 54.9074 72.3659C53.4056 72.1952 51.8939 72.1267 50.3828 72.1606C50.3834 71.5401 50.4524 70.9214 50.5887 70.3159Z" fill="white"/>
<path d="M49.7652 64.1652L51.8216 59.8601C51.8216 59.8601 49.3534 59.6548 48.9429 59.6548C45.8453 59.3546 42.7193 59.5622 39.6891 60.2693C39.1938 60.4364 38.7123 60.6418 38.2491 60.8838C38.0308 61.0508 37.8593 61.2711 37.7514 61.5235C37.6434 61.7759 37.6025 62.0517 37.6327 62.3244L40.9232 66.4243L41.9514 62.7349L42.5678 63.9651L45.4465 63.1454L49.7652 64.1652Z" fill="white"/>
<path d="M50.7945 70.3159C50.5886 70.3159 45.6535 70.1107 45.6535 70.1107L43.803 69.7002L43.3912 70.7252L41.3348 67.8555C41.3348 67.8555 41.3348 73.5961 41.1289 74.4158C42.2346 73.452 43.5872 72.8133 45.0358 72.5711C45.496 72.4028 45.9867 72.3329 46.4758 72.3659C47.9776 72.1952 49.4893 72.1267 51.0004 72.1606C50.9998 71.5401 50.9308 70.9214 50.7945 70.3159Z" fill="white"/>
<path d="M64.3676 38.5398C64.984 39.1543 65.3958 39.5648 65.3958 39.7701C65.2574 40.4717 65.0509 41.1582 64.7794 41.82C64.5735 41.6148 64.3676 41.0003 64.5735 41.0003C64.7121 40.869 64.8206 40.7095 64.8916 40.5326C64.9627 40.3557 64.9947 40.1656 64.9853 39.9753C64.2347 38.837 63.3359 37.8031 62.3125 36.9004C63.0738 37.345 63.7665 37.8972 64.3689 38.5398" fill="#282828"/>
<path d="M49.3547 55.5555C49.3547 55.5555 47.0924 52.4805 45.8583 52.2753C45.0406 52.1252 44.2011 52.1386 43.3886 52.3145C42.5761 52.4905 41.8068 52.8256 41.1252 53.3003C40.7134 53.9147 39.8911 55.3502 40.097 55.9647C40.5088 56.5792 42.3593 56.7844 43.1816 56.7844C44.8262 56.5792 49.3508 55.5542 49.3508 55.5542" fill="#282828"/>
<path d="M50.1768 43.8702C50.1768 44.0754 49.3545 46.3306 48.9427 47.5596C48.7368 47.9701 48.7368 48.5846 48.5309 48.9951C48.1191 51.045 49.5591 50.0201 49.1473 52.07C47.5027 50.2253 48.9414 52.6845 47.5027 51.045L46.6804 50.8398L45.4463 51.2503C42.8904 51.2725 40.3679 51.8311 38.043 52.8897C36.4566 51.984 34.9438 50.9559 33.5184 49.8148C32.902 48.3793 36.8089 46.3294 35.9866 45.1004C37.6312 44.6899 39.8935 45.1004 41.3335 44.4859C41.1276 44.0754 40.7171 43.6662 40.5112 43.2557C41.1459 43.294 41.7706 43.4326 42.3617 43.6662C42.5676 43.6662 42.7735 43.8715 42.9781 43.8715C43.184 44.0767 43.3899 44.282 43.5945 44.282C45.0123 45.5559 46.5248 46.7211 48.1191 47.7674C48.6501 46.51 49.0633 45.2062 49.3532 43.8728C48.647 43.1383 47.8916 42.4525 47.0922 41.8202C45.6522 40.59 44.4194 39.565 43.1853 38.54C44.4194 38.7453 50.1781 43.8702 50.1781 43.8702" fill="#232834"/>
<path d="M46.4762 49.4108C46.2268 48.6762 45.8224 48.0033 45.2904 47.4375C44.7583 46.8717 44.1109 46.4261 43.3916 46.1306C42.6904 45.7764 41.9154 45.5918 41.1293 45.5918C40.3432 45.5918 39.5682 45.7764 38.867 46.1306C34.3424 48.795 36.8106 50.641 43.1857 49.82L46.4762 49.4095" fill="white"/>
<path d="M37.4266 38.5398C36.8102 39.1543 36.3984 39.5648 36.3984 39.7701C36.5369 40.4717 36.7433 41.1582 37.0148 41.82C37.2207 41.6148 37.4266 41.0003 37.2207 41.0003C37.0822 40.869 36.9737 40.7095 36.9026 40.5326C36.8315 40.3557 36.7996 40.1656 36.8089 39.9753C37.5596 38.837 38.4583 37.8031 39.4817 36.9004C38.7684 37.4113 38.0821 37.9585 37.4253 38.5398" fill="#282828"/>
<path d="M48.5325 85.0754C48.3266 83.8452 47.9161 82.8202 47.7102 81.59C47.7102 80.9755 47.5043 80.3597 47.5043 79.7453C47.4707 79.0556 47.5401 78.3647 47.7102 77.6953C47.6772 78.2498 47.747 78.8055 47.9161 79.3348C47.9528 80.1685 48.0911 80.9948 48.3279 81.7952V82.8202C48.4739 83.5629 48.5429 84.3186 48.5338 85.0754" fill="#FF0000"/>
<path d="M53.672 81.5903C53.672 80.7706 53.2602 80.3601 53.0556 79.5404V78.5154C53.023 78.0947 53.0937 77.6725 53.2615 77.2852V78.3101C53.2615 78.7206 53.4674 79.3351 53.4674 79.7456V80.3601C53.8792 80.7706 53.6733 81.5903 53.6733 81.5903" fill="#FF0000"/>
<path d="M52.4393 87.1262C52.4393 85.896 51.617 84.871 51.4111 83.6408V81.796C51.4488 81.0965 51.5875 80.4061 51.8229 79.7461V81.3855C51.8746 82.2848 52.0124 83.177 52.2347 84.05V85.0749C52.6465 85.4855 52.4406 87.1249 52.4406 87.1249" fill="#FF0000"/>
<path d="M46.0646 22.96C45.8587 21.7298 45.2423 20.91 45.0364 19.6798C44.8668 19.0803 44.7972 18.4571 44.8305 17.8351C44.7969 17.1454 44.8663 16.4545 45.0364 15.7852C45.0033 16.2727 45.0735 16.7618 45.2423 17.2206C45.4482 18.0404 45.4482 18.8601 45.6541 19.6811V20.0916C45.6541 20.2969 45.6541 20.5021 45.86 20.5021C46.0013 21.3146 46.0702 22.138 46.0659 22.9626" fill="#FF0000"/>
<path d="M29.6131 42.8469C29.819 41.6166 29.4073 40.5917 29.6131 39.5667C29.6516 38.9339 29.7906 38.3113 30.0249 37.722C30.2117 37.0715 30.4885 36.4502 30.8472 35.876C30.6784 36.3348 30.6083 36.8239 30.6413 37.3115C30.4708 38.12 30.4017 38.9464 30.4354 39.7719V40.5917C30.1078 41.3229 29.833 42.0766 29.6131 42.8469Z" fill="#FF0000"/>
<path d="M26.5283 69.4956C26.7542 68.4151 26.8919 67.3181 26.9401 66.2154C27.1114 65.6568 27.3172 65.1092 27.5565 64.576C27.775 63.9612 28.126 63.4016 28.5847 62.9365C28.3536 63.3832 28.2136 63.8711 28.1729 64.372C27.967 65.1917 27.7611 66.0115 27.5565 66.6272V67.0377C27.5565 67.243 27.5565 67.4482 27.3506 67.4482C27.1349 68.1534 26.8598 68.8392 26.5283 69.4982" fill="#FF0000"/>
<path d="M50.3834 17.6296C49.9716 17.0152 49.3552 16.8099 49.1493 16.3994C48.9322 16.1738 48.7887 15.8881 48.7375 15.5797C48.5718 15.2647 48.5008 14.9089 48.5329 14.5547C48.7388 14.7599 48.7388 14.9652 48.9447 15.1692C49.1535 15.5582 49.4322 15.9056 49.767 16.1941L49.9729 16.3994L50.1788 16.6046C49.9729 16.8099 50.3847 17.6296 50.3847 17.6296" fill="#FF0000"/>
<path d="M45.653 36.49C45.2412 35.8755 44.6248 35.6703 44.4189 35.2597C44.2018 35.0342 44.0582 34.7484 44.0071 34.44C43.8414 34.1251 43.7703 33.7692 43.8025 33.415C44.0084 33.6203 44.0084 33.8255 44.2143 34.0295C44.423 34.4185 44.7017 34.766 45.0365 35.0545L45.2424 35.2597L45.4483 35.465C45.4736 35.8139 45.5428 36.1583 45.6542 36.49" fill="#FF0000"/>
<path d="M68.2741 38.3347C67.8623 37.7202 67.2459 37.515 67.04 37.1045C66.8229 36.8789 66.6793 36.5931 66.6282 36.2847C66.4625 35.9698 66.3914 35.6139 66.4235 35.2598C66.6294 35.465 66.6294 35.6703 66.8353 35.8742C67.0441 36.2632 67.3228 36.6107 67.6576 36.8992L67.8635 37.1045L68.0694 37.3097C67.8635 37.7202 68.2753 38.3347 68.2753 38.3347" fill="#FF0000"/>
<path d="M76.0875 66.2156C75.6757 65.6011 75.0593 65.3958 74.8534 64.9853C74.6363 64.7598 74.4928 64.474 74.4416 64.1656C74.2759 63.8507 74.2049 63.4948 74.237 63.1406C74.4429 63.3459 74.4429 63.5511 74.6488 63.7551C74.8576 64.1441 75.1363 64.4915 75.4711 64.7801L75.677 64.9853L75.8829 65.1906C75.9313 65.536 76 65.8782 76.0888 66.2156" fill="#FF0000"/>
<path d="M50.3826 26.4392C49.9708 24.7998 50.3826 23.3643 49.9708 21.9288L49.3544 19.4683C49.0998 18.6168 48.7551 17.7946 48.3262 17.0156C48.5321 17.6301 48.738 18.2459 48.9426 19.0656C49.1485 20.0906 49.3544 21.3208 49.559 22.3458V22.7563C49.5452 22.8675 49.5566 22.9804 49.5922 23.0867C49.6278 23.193 49.6868 23.2901 49.7649 23.3708C49.8649 24.414 50.0714 25.4443 50.3813 26.4457" fill="#FF0000"/>
<path d="M73.6208 44.8884C73.209 43.249 73.6208 41.8135 73.209 40.378L72.5926 37.9176C72.3381 37.066 71.9934 36.2438 71.5645 35.4648C71.7704 36.0793 71.9763 36.6951 72.1809 37.5148C72.3868 38.5398 72.5926 39.77 72.7972 40.795V41.2055C72.7835 41.3167 72.7949 41.4296 72.8305 41.5359C72.8661 41.6423 72.9251 41.7393 73.0031 41.82C73.1032 42.8632 73.3097 43.8935 73.6195 44.8949" fill="#FF0000"/>
<path d="M73.2087 81.3787C72.7969 79.7392 73.2087 78.3038 72.7969 76.8683L72.1805 74.4078C71.926 73.5562 71.5813 72.734 71.1523 71.9551C71.3582 72.5695 71.5641 73.1853 71.7687 74.005C71.9746 75.03 72.1805 76.2603 72.3851 77.2852V77.6957C72.3714 77.807 72.3828 77.9199 72.4184 78.0262C72.454 78.1325 72.513 78.2295 72.591 78.3102C72.6911 79.3534 72.8976 80.3837 73.2074 81.3851" fill="#FF0000"/>
<path d="M50.3821 33.4133C48.3257 32.3884 48.9421 26.2385 48.9421 26.4425C48.7638 28.8543 49.2624 31.268 50.3821 33.4133Z" fill="#FF0000"/>
<path d="M64.5715 35.2581C62.5151 34.2331 63.1315 28.0832 63.1315 28.2872C62.9532 30.699 63.4518 33.1127 64.5715 35.2581Z" fill="#FF0000"/>
<path d="M42.7734 27.8799C44.2134 27.0601 44.2134 22.755 44.0075 22.9602C44.0528 24.6815 43.6261 26.3824 42.7734 27.8799Z" fill="#FF0000"/>
<path d="M33.9316 37.7187C35.3716 36.899 35.3716 32.5938 35.1657 32.7991C35.211 34.5204 34.7843 36.2213 33.9316 37.7187Z" fill="#FF0000"/>
<path d="M31.4634 74.414C30.0234 73.5943 30.0234 69.2892 30.2293 69.4944C30.1841 71.2157 30.6108 72.9166 31.4634 74.414Z" fill="#FF0000"/>
<path d="M71.5637 80.9729C69.5073 79.9479 70.1237 73.7981 70.1237 74.002C70.0672 76.4044 70.5597 78.7882 71.5637 80.9729Z" fill="#FF0000"/>
<path d="M73.6211 60.0657C75.8834 59.6552 78.968 65.1906 78.7621 64.9853C77.4956 62.9367 75.7262 61.2435 73.6211 60.0657Z" fill="#FF0000"/>
<path d="M51.2053 87.5353L0 75.2355V96.1482L51.2053 122.999L102 95.9429V75.0303L51.2053 87.5353Z" fill="#232834"/>
<path d="M6.37548 90.6095L44.626 106.395V99.2198L6.37548 85.4846V83.8451L49.9729 97.1699V89.5845L2.2627 78.1045V94.7094L49.9729 119.93V112.339L6.37548 92.2489V90.6095Z" fill="white"/>
<path d="M78.9678 83.026L74.0327 96.9677L73.6209 84.4627L67.4518 85.8982L60.0485 101.881V87.5364L52.2334 89.5863V119.923L60.0485 115.617L68.0682 99.0125L69.0964 110.903L74.855 107.828L83.4911 82.001L78.9678 83.026Z" fill="white"/>
<path d="M89.4562 80.5654L85.5493 81.5904L77.5283 106.395L82.2575 103.931L85.9585 91.8363V101.881L89.4549 100.036L89.4562 80.5654Z" fill="white"/>
<path d="M97.2699 95.9418L99.9427 94.5063V86.3064L98.7086 86.717L99.944 84.8723V77.9014L91.3066 79.9513V99.0167L94.3912 97.3772V92.2524L97.2699 90.8104V95.9353V95.9418ZM94.1853 88.5617V84.0512L97.064 83.0263V87.325L94.1853 88.5617Z" fill="white"/>
</svg>
