<svg width="105" height="105" viewBox="0 0 105 105" fill="none" xmlns="http://www.w3.org/2000/svg">
<path d="M89.8204 0H14.8247C6.63725 0 0 6.63725 0 14.8247V89.8204C0 98.0078 6.63725 104.645 14.8247 104.645H89.8204C98.0078 104.645 104.645 98.0078 104.645 89.8204V14.8247C104.645 6.63725 98.0078 0 89.8204 0Z" fill="#FF534A"/>
<path d="M74.9326 65.2446V39.3105C74.9326 38.0485 75.68 37.3392 77.0098 37.3392H77.5502C78.8783 37.3392 79.6258 38.0485 79.6258 39.3105V65.2446C79.6258 66.5066 78.8783 67.2159 77.5502 67.2159H77.0098C75.68 67.2159 74.9326 66.5066 74.9326 65.2446Z" fill="white"/>
<path d="M77.5455 67.5345H77.0052C75.4925 67.5345 74.5882 66.6779 74.5882 65.2409V39.3069C74.5882 37.8713 75.491 37.0131 77.0052 37.0131H77.5455C79.0581 37.0131 79.9625 37.8698 79.9625 39.3069V65.2409C79.9625 66.6779 79.0581 67.5345 77.5455 67.5345ZM77.0052 37.6594C75.8695 37.6594 75.2693 38.2291 75.2693 39.3069V65.2409C75.2693 66.3186 75.8695 66.8883 77.0052 66.8883H77.5455C78.6812 66.8883 79.2814 66.3186 79.2814 65.2409V39.3069C79.2814 38.2291 78.6812 37.6594 77.5455 37.6594H77.0052Z" fill="white"/>
<path d="M84.3029 65.2446V39.3105C84.3029 38.0485 85.0504 37.3392 86.3801 37.3392H86.9205C88.2489 37.3392 88.9963 38.0485 88.9963 39.3105V65.2446C88.9963 66.5066 88.2489 67.2159 86.9205 67.2159H86.3801C85.0504 67.2159 84.3029 66.5066 84.3029 65.2446Z" fill="white"/>
<path d="M86.9179 67.5345H86.3774C84.8649 67.5345 83.9605 66.6779 83.9605 65.2409V39.3069C83.9605 37.8713 84.8632 37.0131 86.3774 37.0131H86.9179C88.4303 37.0131 89.3346 37.8698 89.3346 39.3069V65.2409C89.3329 66.6779 88.4303 67.5345 86.9179 67.5345ZM86.3774 37.6594C85.2418 37.6594 84.6416 38.2291 84.6416 39.3069V65.2409C84.6416 66.3186 85.2418 66.8883 86.3774 66.8883H86.9179C88.0536 66.8883 88.6536 66.3186 88.6536 65.2409V39.3069C88.6536 38.2291 88.0536 37.6594 86.9179 37.6594H86.3774Z" fill="white"/>
<path d="M27.9835 66.9622C21.878 66.9622 19.0954 64.5579 19.0954 57.6599V47.8064H17.725C16.3968 47.8064 15.6478 47.1754 15.6478 46.0716C15.6478 44.9676 16.2707 44.3766 17.3918 44.3766H19.0937V40.0747C19.2102 39.2288 19.6535 38.4458 20.4381 38.0006C21.1499 37.5953 22.1788 37.388 22.9247 37.8255C23.5475 38.1909 23.7853 38.8988 23.7853 39.5619V44.3766H28.7277C30.0558 44.3766 30.8049 44.9676 30.8049 46.0716C30.8049 47.1754 30.0575 47.8064 28.7277 47.8064H23.7853V57.1487C23.7853 61.799 25.073 63.4157 28.6856 63.4157C29.9733 63.4157 30.8114 63.8455 30.9279 64.9126C31.0605 66.1147 30.504 66.804 29.1839 66.9223C28.773 66.9576 28.3572 66.9622 27.9835 66.9622Z" fill="white"/>
<path d="M27.9849 67.288C21.4296 67.288 18.757 64.4999 18.757 57.6633V48.1323H17.7264C16.2138 48.1323 15.3095 47.3631 15.3095 46.075C15.3095 44.793 16.0698 44.0576 17.3932 44.0576H18.7554L18.7586 40.0367C18.8961 39.0342 19.4462 38.1928 20.2664 37.7276C21.0009 37.3101 22.1851 37.0137 23.1072 37.5556C23.7576 37.9379 24.1297 38.6703 24.1297 39.5669V44.0592H28.7323C30.2675 44.0592 31.1493 44.7945 31.1493 46.0765C31.1493 47.3646 30.2465 48.1339 28.7323 48.1339H24.1297V57.1537C24.1297 61.5983 25.2799 63.0967 28.6902 63.0967C30.6623 63.0967 31.1816 64.0685 31.2706 64.8838C31.3466 65.5792 31.2107 66.1366 30.8629 66.5388C30.5135 66.9426 29.9618 67.1821 29.2208 67.2482C28.7873 67.2819 28.3553 67.2865 27.9849 67.288ZM17.3932 44.7025C16.4484 44.7025 15.989 45.1508 15.989 46.075C15.989 47.2418 16.9338 47.4859 17.7249 47.4859H19.4349V57.6633C19.4349 64.1238 21.8308 66.6416 27.9817 66.6416C28.3375 66.6402 28.7517 66.637 29.1561 66.6033C29.7078 66.5542 30.1058 66.3945 30.3339 66.1274C30.5619 65.8633 30.6478 65.4656 30.5911 64.9482C30.5345 64.4293 30.2757 63.74 28.687 63.74C24.8658 63.74 23.4454 61.9544 23.4454 57.1505V47.4859H28.7274C29.5201 47.4859 30.4633 47.2418 30.4633 46.075C30.4633 45.1646 29.8793 44.7025 28.7274 44.7025H23.4454V39.5653C23.4454 39.2491 23.3774 38.4738 22.7449 38.1022C22.1269 37.7384 21.2273 37.9288 20.611 38.2788C19.9671 38.6457 19.5481 39.2906 19.4316 40.0981V44.7025H17.3932Z" fill="white"/>
<path d="M45.0635 44.2656C46.4758 44.2656 47.1812 45.1331 47.0162 46.3935L46.9741 46.7082C46.8496 47.9688 46.0601 48.4432 44.6898 48.4432C40.7861 48.5215 38.9175 51.202 38.9175 55.9323V65.1148C38.9175 66.3752 38.1702 67.0861 36.8403 67.0861H36.342C35.0138 67.0861 34.2664 66.3768 34.2664 65.1148V46.5118C34.2664 45.2513 35.0138 44.5404 36.342 44.5404H36.8403C38.1685 44.5404 38.9175 45.2098 38.9175 46.4319V48.3234C39.6666 46.3137 41.5772 44.2656 45.0635 44.2656Z" fill="white"/>
<path d="M36.837 67.4081H36.3387C34.8261 67.4081 33.9217 66.5514 33.9217 65.1144V46.5112C33.9217 45.0758 34.8245 44.2176 36.3387 44.2176H36.837C38.3496 44.2176 39.2539 45.0451 39.2539 46.433V46.8966C40.4511 45.0497 42.4928 43.9734 44.9567 43.9427H45.0618C45.8286 43.9427 46.4499 44.1761 46.8608 44.6167C47.2782 45.0665 47.4481 45.6945 47.351 46.433L47.3089 46.7492C47.1746 48.1034 46.3172 48.7666 44.6865 48.7666C41.0837 48.8387 39.2539 51.2507 39.2539 55.9317V65.1144C39.2539 66.5514 38.3512 67.4081 36.837 67.4081ZM36.3387 44.864C35.203 44.864 34.6028 45.4335 34.6028 46.5112V65.1144C34.6028 66.1921 35.203 66.7617 36.3387 66.7617H36.837C37.9726 66.7617 38.5729 66.1921 38.5729 65.1144V55.9317C38.5729 52.4252 39.6325 48.2216 44.6784 48.1203C45.9661 48.1203 46.5291 47.7027 46.6311 46.6787L46.6731 46.3531C46.7459 45.8035 46.6327 45.3506 46.3479 45.0435C46.0762 44.7518 45.6458 44.5953 45.0974 44.5876H45.0586C41.0933 44.5876 39.6633 47.2759 39.2329 48.4319L38.5712 50.2052V46.433C38.5712 45.3921 37.9872 44.864 36.8353 44.864H36.3387Z" fill="white"/>
<path d="M47.5197 55.3801C47.5197 48.4437 52.4199 43.6751 59.522 43.6751C66.4154 43.6751 70.8191 48.0507 71.1087 54.5526C71.1507 55.853 70.3613 56.5224 69.0315 56.5224H52.1708C52.3375 60.8979 55.2025 63.3805 59.8133 63.3805C62.3888 63.3805 64.0082 62.7495 65.503 61.489C66.4171 60.7398 66.9979 60.1088 68.1611 60.3852L68.6594 60.5033C70.1121 60.858 70.4033 61.6073 69.6138 62.7111C67.5382 65.6282 64.1732 67.0866 59.7291 67.0866C52.3375 67.0866 47.5197 62.4347 47.5197 55.3801ZM66.7067 53.0557C66.3751 49.4693 63.7995 47.1832 59.6046 47.1832C55.6183 47.1832 52.8342 49.153 52.2954 53.0557H66.7067Z" fill="white"/>
<path d="M59.7319 67.4069C56.0159 67.4069 52.8628 66.2647 50.6125 64.103C48.3686 61.9475 47.1811 58.9291 47.1811 55.378C47.1811 51.8898 48.3686 48.8884 50.6157 46.699C52.8644 44.5082 55.9447 43.3491 59.5233 43.3491C66.4651 43.3491 71.147 47.74 71.4511 54.5367C71.4738 55.249 71.2765 55.814 70.8639 56.2178C70.4449 56.6277 69.8123 56.8442 69.0358 56.8442H52.5328C52.8175 60.7976 55.4545 63.056 59.8161 63.056C62.1731 63.056 63.7554 62.5309 65.2793 61.2459C65.3764 61.166 65.4653 61.0907 65.5527 61.0186C66.3454 60.3554 67.0298 59.7812 68.2447 60.0713L68.743 60.1896C69.5875 60.3953 70.1116 60.7438 70.3041 61.2259C70.4902 61.6926 70.3543 62.253 69.8981 62.8901C67.7642 65.887 64.3442 67.4069 59.7319 67.4069ZM59.5248 43.9954C56.1323 43.9954 53.2203 45.0855 51.1043 47.1489C48.9833 49.2154 47.8622 52.0618 47.8622 55.378C47.8622 62.2929 52.5214 66.7606 59.7319 66.7606C64.1048 66.7606 67.3355 65.3358 69.3351 62.5278C69.6603 62.0734 69.7719 61.7126 69.6683 61.4532C69.5325 61.1123 69.0003 60.9173 68.578 60.8144L68.0813 60.6977C67.2126 60.492 66.7563 60.8727 66.0041 61.5037C65.9151 61.579 65.8229 61.6543 65.7291 61.7325C64.0935 63.1128 62.3236 63.7023 59.8177 63.7023C54.9902 63.7023 52.007 61.0217 51.8355 56.5325L51.8226 56.1979H69.0374C69.6344 56.1979 70.0858 56.0536 70.3785 55.768C70.6584 55.4947 70.7911 55.0878 70.775 54.5612C70.6342 51.4262 69.5211 48.7763 67.5555 46.9017C65.5608 44.9995 62.7847 43.9954 59.5248 43.9954ZM67.0815 53.376H51.9115L51.9617 53.0106C52.502 49.1003 55.2895 46.8572 59.609 46.8572C63.9107 46.8572 66.6916 49.1631 67.0491 53.0244L67.0815 53.376ZM52.6946 52.7296H66.3308C65.8747 49.4487 63.3865 47.5035 59.609 47.5035C55.7473 47.5035 53.3061 49.3551 52.6946 52.7296Z" fill="white"/>
</svg>
