<svg width="144" height="48" viewBox="0 0 144 48" fill="none" xmlns="http://www.w3.org/2000/svg">
<g clip-path="url(#clip0_904_12874)">
<path d="M116.755 23.0024C117.076 23.3258 117.256 23.7611 117.256 24.2145C117.256 24.6679 117.076 25.1032 116.755 25.4266L108.225 33.7996C107.894 34.1194 107.451 34.2994 106.989 34.3017C106.758 34.3044 106.53 34.2593 106.319 34.1695C106.002 34.0412 105.731 33.8226 105.54 33.5414C105.35 33.2603 105.247 32.9293 105.247 32.5905V15.8385C105.248 15.4988 105.35 15.1669 105.54 14.8846C105.731 14.6022 106.002 14.3822 106.319 14.2521C106.638 14.1235 106.989 14.0901 107.328 14.1561C107.666 14.222 107.978 14.3845 108.225 14.6234L116.756 23.0009" fill="#E87722"/>
<path d="M63.273 1.21207C62.2613 2.02234 61.5383 2.98115 61.092 4.09964C60.6458 5.21813 60.1538 6.83274 59.5815 8.96277L59.1315 10.6398L53.5845 32.2401L47.124 4.6121C46.575 1.96887 45.0795 0.339409 41.3775 0.339409H1.88325C0.069 0.339409 0.00525 2.23772 0 2.25332V47.0323C0 47.0323 0.0315 47.9822 0.959251 47.9822H4.629C7.26225 47.9822 10.629 46.3 10.629 41.6611V28.0194H24.4643C29.7345 28.0194 31.0223 24.2919 31.0223 22.1693V21.3805C31.0223 20.6312 30.762 20.1722 29.8463 20.1722H10.632V8.87291H37.8L45.9975 40.1342C46.2495 41.0685 47.685 46.0133 47.685 46.0133C48.2348 47.749 48.1755 48 49.668 48H52.9868C57.0705 48 58.4783 45.5098 59.1975 43.7526C59.5598 42.8004 59.8178 42.3838 60.402 40.2367L67.6275 13.2941L75.27 40.1052C75.5183 41.0395 76.8518 46.0036 76.8518 46.0036C77.403 47.7334 77.3476 48.0007 78.8386 48.0007H82.1558C86.2396 48.0007 87.6518 45.5068 88.3726 43.7399C88.8779 42.4288 89.311 41.0915 89.6701 39.7339L97.1843 8.9041H120.456C122.456 8.9041 124.066 9.07566 125.516 9.51088C127.391 10.0686 129.064 11.4612 130.457 13.6432C131.803 15.7799 132.575 19.5208 132.608 24.1686C132.608 29.4105 131.023 34.0612 128.084 36.5715C127.403 37.1735 126.61 37.6391 125.75 37.9425C124.888 38.2674 123.988 38.4816 123.071 38.5797C122.155 38.6778 120.941 38.8605 119.347 38.8716H119.325L114.251 38.8813H106.958C106.947 38.8752 106.935 38.8723 106.922 38.8731C105.347 38.8731 105.293 39.7799 105.293 40.1676V42.0421C105.293 44.77 107.569 47.9049 112.136 47.9049H112.295H121.153C123.403 47.8804 125.428 47.717 127.241 47.411C129.018 47.1172 130.745 46.5832 132.375 45.8239C133.989 45.0702 135.478 44.0783 136.792 42.8821C138.463 41.3356 139.868 39.5294 140.951 37.5348C142.019 35.5389 142.803 33.3198 143.302 30.8773C143.766 28.575 144.002 26.9299 144.002 24.1931V24.1374C143.927 15.2771 141.278 8.98134 136.008 4.58239C133.988 2.85638 131.712 1.67551 129.212 1.0561C126.88 0.480767 124.141 0.194337 120.995 0.196813H92.8036C91.2548 0.210924 88.9373 1.00412 88.0471 4.60839L81.9286 32.0619L75.426 10.535V10.5506L74.9918 8.96277C74.3648 6.66935 73.8578 5.02132 73.482 4.0276C73.1063 3.03389 72.4373 2.11221 71.457 1.26331C70.5 0.419619 69.132 0 67.38 0C65.6423 0 64.281 0.401795 63.273 1.21207Z" fill="#25484C"/>
</g>
<defs>
<clipPath id="clip0_904_12874">
<rect width="144" height="48" fill="white"/>
</clipPath>
</defs>
</svg>
